%
M48
M72
T01C0.0320
T02C0.0400
T03C0.1260
%
T01
X7666Y8561
X7666Y9561
X7666Y10561
X7666Y11561
X7666Y12561
X7666Y13561
X7666Y14561
X7666Y15561
X7666Y16561
X7666Y17561
X10666Y17561
X11666Y17561
X11666Y16561
X10666Y16561
X10666Y15561
X11666Y15561
X11666Y14561
X10666Y14561
X10666Y13561
X11666Y13561
X11666Y12561
X10666Y12561
X10666Y11561
X11666Y11561
X11666Y10561
X10666Y10561
X10666Y9561
X11666Y9561
X11666Y8561
X10666Y8561
X14666Y8561
X15666Y8561
X15666Y9561
X14666Y9561
X14666Y10561
X15666Y10561
X15666Y11561
X14666Y11561
X14666Y12561
X15666Y12561
X15666Y13561
X14666Y13561
X14666Y14561
X15666Y14561
X15666Y15561
X14666Y15561
X14666Y16561
X15666Y16561
X15666Y17561
X14666Y17561
X18666Y17561
X19666Y17561
X19666Y16561
X18666Y16561
X18666Y15561
X19666Y15561
X19666Y14561
X18666Y14561
X18666Y13561
X19666Y13561
X19666Y12561
X19666Y11561
X19666Y10561
X18666Y10561
X18666Y9561
X19666Y9561
X19666Y8561
X18666Y8561
X22666Y8561
X23666Y8561
X23666Y9561
X22666Y9561
X22666Y10561
X23666Y10561
X23666Y11561
X22666Y11561
X22666Y12561
X23666Y12561
X23666Y13561
X22666Y13561
X22666Y14561
X23666Y14561
X23666Y15561
X22666Y15561
X22666Y16561
X23666Y16561
X23666Y17561
X22666Y17561
X26666Y17561
X27666Y17561
X27666Y16561
X26666Y16561
X26666Y15561
X27666Y15561
X27666Y14561
X26666Y14561
X26666Y13561
X27666Y13561
X27666Y12561
X27666Y11561
X27666Y10561
X26666Y10561
X26666Y9561
X27666Y9561
X27666Y8561
X26666Y8561
X30666Y8561
X31666Y8561
X31666Y9561
X30666Y9561
X30666Y10561
X31666Y10561
X31666Y11561
X30666Y11561
X30666Y12561
X31666Y12561
X31666Y13561
X30666Y13561
X30666Y14561
X31666Y14561
X31666Y15561
X30666Y15561
X30666Y16561
X31666Y16561
X31666Y17561
X30666Y17561
X34666Y17561
X34666Y16561
X34666Y15561
X34666Y14561
X34666Y13561
X34666Y12561
X34666Y11561
X34666Y10561
X34666Y9561
X34666Y8561
X26666Y11561
X26666Y12561
X18666Y12561
X18666Y11561
T02
X14666Y5061
X15666Y5061
X16666Y5061
X17666Y5061
X18666Y5061
X19666Y5061
X20666Y5061
X21666Y5061
X21666Y21061
X22666Y21061
X23666Y21061
X24666Y21061
X25666Y21061
X26666Y21061
X27666Y21061
X28666Y21061
X29666Y21061
X30666Y21061
T03
X6993Y4990
X6993Y21132
X35339Y21132
X35339Y4990
M30
