G75*
%MOIN*%
%OFA0B0*%
%FSLAX24Y24*%
%IPPOS*%
%LPD*%
%AMOC8*
5,1,8,0,0,1.08239X$1,22.5*
%
%ADD10C,0.0060*%
%ADD11C,0.0080*%
%ADD12C,0.0000*%
D10*
X007166Y008061D02*
X007166Y018061D01*
X011166Y018061D01*
X011166Y008311D01*
X010916Y008061D01*
X007166Y008061D01*
X008166Y008161D02*
X010166Y008161D01*
X010166Y008961D01*
X008166Y008961D01*
X008166Y008161D01*
X008166Y009161D02*
X010166Y009161D01*
X010166Y009961D01*
X008166Y009961D01*
X008166Y009161D01*
X008166Y010161D02*
X010166Y010161D01*
X010166Y010961D01*
X008166Y010961D01*
X008166Y010161D01*
X008166Y011161D02*
X008166Y011961D01*
X010166Y011961D01*
X010166Y011161D01*
X008166Y011161D01*
X008166Y012161D02*
X008166Y012961D01*
X010166Y012961D01*
X010166Y012161D01*
X008166Y012161D01*
X008166Y013161D02*
X008166Y013961D01*
X010166Y013961D01*
X010166Y013161D01*
X008166Y013161D01*
X008166Y014161D02*
X008166Y014961D01*
X010166Y014961D01*
X010166Y014161D01*
X008166Y014161D01*
X008166Y015161D02*
X008166Y015961D01*
X010166Y015961D01*
X010166Y015161D01*
X008166Y015161D01*
X008166Y016161D02*
X008166Y016961D01*
X010166Y016961D01*
X010166Y016161D01*
X008166Y016161D01*
X008166Y017161D02*
X008166Y017961D01*
X010166Y017961D01*
X010166Y017161D01*
X008166Y017161D01*
X011166Y018061D02*
X015166Y018061D01*
X015166Y008311D01*
X014916Y008061D01*
X011166Y008061D01*
X011166Y018061D01*
X012166Y017961D02*
X012166Y017161D01*
X014166Y017161D01*
X014166Y017961D01*
X012166Y017961D01*
X012166Y016961D02*
X012166Y016161D01*
X014166Y016161D01*
X014166Y016961D01*
X012166Y016961D01*
X012166Y015961D02*
X012166Y015161D01*
X014166Y015161D01*
X014166Y015961D01*
X012166Y015961D01*
X012166Y014961D02*
X012166Y014161D01*
X014166Y014161D01*
X014166Y014961D01*
X012166Y014961D01*
X012166Y013961D02*
X012166Y013161D01*
X014166Y013161D01*
X014166Y013961D01*
X012166Y013961D01*
X012166Y012961D02*
X012166Y012161D01*
X014166Y012161D01*
X014166Y012961D01*
X012166Y012961D01*
X012166Y011961D02*
X012166Y011161D01*
X014166Y011161D01*
X014166Y011961D01*
X012166Y011961D01*
X012166Y010961D02*
X014166Y010961D01*
X014166Y010161D01*
X012166Y010161D01*
X012166Y010961D01*
X012166Y009961D02*
X014166Y009961D01*
X014166Y009161D01*
X012166Y009161D01*
X012166Y009961D01*
X012166Y008961D02*
X014166Y008961D01*
X014166Y008161D01*
X012166Y008161D01*
X012166Y008961D01*
X015166Y008061D02*
X015166Y018061D01*
X019166Y018061D01*
X019166Y008311D01*
X018916Y008061D01*
X015166Y008061D01*
X016166Y008161D02*
X018166Y008161D01*
X018166Y008961D01*
X016166Y008961D01*
X016166Y008161D01*
X016166Y009161D02*
X018166Y009161D01*
X018166Y009961D01*
X016166Y009961D01*
X016166Y009161D01*
X016166Y010161D02*
X018166Y010161D01*
X018166Y010961D01*
X016166Y010961D01*
X016166Y010161D01*
X016166Y011161D02*
X016166Y011961D01*
X018166Y011961D01*
X018166Y011161D01*
X016166Y011161D01*
X016166Y012161D02*
X016166Y012961D01*
X018166Y012961D01*
X018166Y012161D01*
X016166Y012161D01*
X016166Y013161D02*
X016166Y013961D01*
X018166Y013961D01*
X018166Y013161D01*
X016166Y013161D01*
X016166Y014161D02*
X016166Y014961D01*
X018166Y014961D01*
X018166Y014161D01*
X016166Y014161D01*
X016166Y015161D02*
X016166Y015961D01*
X018166Y015961D01*
X018166Y015161D01*
X016166Y015161D01*
X016166Y016161D02*
X016166Y016961D01*
X018166Y016961D01*
X018166Y016161D01*
X016166Y016161D01*
X016166Y017161D02*
X016166Y017961D01*
X018166Y017961D01*
X018166Y017161D01*
X016166Y017161D01*
X019166Y018061D02*
X023166Y018061D01*
X023166Y008311D01*
X022916Y008061D01*
X019166Y008061D01*
X019166Y018061D01*
X020166Y017961D02*
X020166Y017161D01*
X022166Y017161D01*
X022166Y017961D01*
X020166Y017961D01*
X020166Y016961D02*
X020166Y016161D01*
X022166Y016161D01*
X022166Y016961D01*
X020166Y016961D01*
X020166Y015961D02*
X020166Y015161D01*
X022166Y015161D01*
X022166Y015961D01*
X020166Y015961D01*
X020166Y014961D02*
X020166Y014161D01*
X022166Y014161D01*
X022166Y014961D01*
X020166Y014961D01*
X020166Y013961D02*
X020166Y013161D01*
X022166Y013161D01*
X022166Y013961D01*
X020166Y013961D01*
X020166Y012961D02*
X020166Y012161D01*
X022166Y012161D01*
X022166Y012961D01*
X020166Y012961D01*
X020166Y011961D02*
X020166Y011161D01*
X022166Y011161D01*
X022166Y011961D01*
X020166Y011961D01*
X020166Y010961D02*
X022166Y010961D01*
X022166Y010161D01*
X020166Y010161D01*
X020166Y010961D01*
X020166Y009961D02*
X022166Y009961D01*
X022166Y009161D01*
X020166Y009161D01*
X020166Y009961D01*
X020166Y008961D02*
X022166Y008961D01*
X022166Y008161D01*
X020166Y008161D01*
X020166Y008961D01*
X023166Y008061D02*
X023166Y018061D01*
X027166Y018061D01*
X027166Y008311D01*
X026916Y008061D01*
X023166Y008061D01*
X024166Y008161D02*
X026166Y008161D01*
X026166Y008961D01*
X024166Y008961D01*
X024166Y008161D01*
X024166Y009161D02*
X026166Y009161D01*
X026166Y009961D01*
X024166Y009961D01*
X024166Y009161D01*
X024166Y010161D02*
X026166Y010161D01*
X026166Y010961D01*
X024166Y010961D01*
X024166Y010161D01*
X024166Y011161D02*
X024166Y011961D01*
X026166Y011961D01*
X026166Y011161D01*
X024166Y011161D01*
X024166Y012161D02*
X024166Y012961D01*
X026166Y012961D01*
X026166Y012161D01*
X024166Y012161D01*
X024166Y013161D02*
X024166Y013961D01*
X026166Y013961D01*
X026166Y013161D01*
X024166Y013161D01*
X024166Y014161D02*
X024166Y014961D01*
X026166Y014961D01*
X026166Y014161D01*
X024166Y014161D01*
X024166Y015161D02*
X024166Y015961D01*
X026166Y015961D01*
X026166Y015161D01*
X024166Y015161D01*
X024166Y016161D02*
X024166Y016961D01*
X026166Y016961D01*
X026166Y016161D01*
X024166Y016161D01*
X024166Y017161D02*
X024166Y017961D01*
X026166Y017961D01*
X026166Y017161D01*
X024166Y017161D01*
X027166Y018061D02*
X031166Y018061D01*
X031166Y008311D01*
X030916Y008061D01*
X027166Y008061D01*
X027166Y018061D01*
X028166Y017961D02*
X028166Y017161D01*
X030166Y017161D01*
X030166Y017961D01*
X028166Y017961D01*
X028166Y016961D02*
X028166Y016161D01*
X030166Y016161D01*
X030166Y016961D01*
X028166Y016961D01*
X028166Y015961D02*
X028166Y015161D01*
X030166Y015161D01*
X030166Y015961D01*
X028166Y015961D01*
X028166Y014961D02*
X028166Y014161D01*
X030166Y014161D01*
X030166Y014961D01*
X028166Y014961D01*
X028166Y013961D02*
X028166Y013161D01*
X030166Y013161D01*
X030166Y013961D01*
X028166Y013961D01*
X028166Y012961D02*
X028166Y012161D01*
X030166Y012161D01*
X030166Y012961D01*
X028166Y012961D01*
X028166Y011961D02*
X028166Y011161D01*
X030166Y011161D01*
X030166Y011961D01*
X028166Y011961D01*
X028166Y010961D02*
X030166Y010961D01*
X030166Y010161D01*
X028166Y010161D01*
X028166Y010961D01*
X028166Y009961D02*
X030166Y009961D01*
X030166Y009161D01*
X028166Y009161D01*
X028166Y009961D01*
X028166Y008961D02*
X030166Y008961D01*
X030166Y008161D01*
X028166Y008161D01*
X028166Y008961D01*
X031166Y008061D02*
X031166Y018061D01*
X035166Y018061D01*
X035166Y008311D01*
X034916Y008061D01*
X031166Y008061D01*
X032166Y008161D02*
X032166Y008961D01*
X034166Y008961D01*
X034166Y008161D01*
X032166Y008161D01*
X032166Y009161D02*
X034166Y009161D01*
X034166Y009961D01*
X032166Y009961D01*
X032166Y009161D01*
X032166Y010161D02*
X034166Y010161D01*
X034166Y010961D01*
X032166Y010961D01*
X032166Y010161D01*
X032166Y011161D02*
X032166Y011961D01*
X034166Y011961D01*
X034166Y011161D01*
X032166Y011161D01*
X032166Y012161D02*
X032166Y012961D01*
X034166Y012961D01*
X034166Y012161D01*
X032166Y012161D01*
X032166Y013161D02*
X032166Y013961D01*
X034166Y013961D01*
X034166Y013161D01*
X032166Y013161D01*
X032166Y014161D02*
X032166Y014961D01*
X034166Y014961D01*
X034166Y014161D01*
X032166Y014161D01*
X032166Y015161D02*
X032166Y015961D01*
X034166Y015961D01*
X034166Y015161D01*
X032166Y015161D01*
X032166Y016161D02*
X032166Y016961D01*
X034166Y016961D01*
X034166Y016161D01*
X032166Y016161D01*
X032166Y017161D02*
X032166Y017961D01*
X034166Y017961D01*
X034166Y017161D01*
X032166Y017161D01*
D11*
X032195Y018351D02*
X032195Y018772D01*
X032055Y018632D01*
X032055Y018351D02*
X032335Y018351D01*
X032516Y018421D02*
X032586Y018351D01*
X032726Y018351D01*
X032796Y018421D01*
X032796Y018491D01*
X032726Y018561D01*
X032516Y018561D01*
X032516Y018421D01*
X032516Y018561D02*
X032656Y018702D01*
X032796Y018772D01*
X032976Y018772D02*
X032976Y018351D01*
X032976Y018491D02*
X033256Y018772D01*
X033436Y018772D02*
X033436Y018351D01*
X033256Y018351D02*
X033046Y018561D01*
X033436Y018561D02*
X033717Y018561D01*
X033717Y018351D02*
X033717Y018772D01*
X033897Y018772D02*
X034177Y018772D01*
X034177Y018702D01*
X033897Y018421D01*
X033897Y018351D01*
X034177Y018351D01*
X030522Y018351D02*
X030242Y018351D01*
X030242Y018421D01*
X030522Y018702D01*
X030522Y018772D01*
X030242Y018772D01*
X030062Y018772D02*
X030062Y018351D01*
X030062Y018561D02*
X029782Y018561D01*
X029782Y018351D02*
X029782Y018772D01*
X029601Y018772D02*
X029321Y018491D01*
X029391Y018561D02*
X029601Y018351D01*
X029321Y018351D02*
X029321Y018772D01*
X029141Y018772D02*
X028861Y018772D01*
X028861Y018561D01*
X029001Y018632D01*
X029071Y018632D01*
X029141Y018561D01*
X029141Y018421D01*
X029071Y018351D01*
X028931Y018351D01*
X028861Y018421D01*
X028681Y018351D02*
X028400Y018351D01*
X028681Y018632D01*
X028681Y018702D01*
X028611Y018772D01*
X028471Y018772D01*
X028400Y018702D01*
X028240Y018421D02*
X028240Y018351D01*
X028170Y018351D01*
X028170Y018421D01*
X028240Y018421D01*
X027990Y018421D02*
X027990Y018491D01*
X027920Y018561D01*
X027710Y018561D01*
X027710Y018421D01*
X027780Y018351D01*
X027920Y018351D01*
X027990Y018421D01*
X027850Y018702D02*
X027710Y018561D01*
X027850Y018702D02*
X027990Y018772D01*
X026292Y018772D02*
X026292Y018702D01*
X026012Y018421D01*
X026012Y018351D01*
X026292Y018351D01*
X025832Y018351D02*
X025832Y018772D01*
X026012Y018772D02*
X026292Y018772D01*
X025832Y018561D02*
X025551Y018561D01*
X025551Y018351D02*
X025551Y018772D01*
X025371Y018772D02*
X025091Y018491D01*
X025161Y018561D02*
X025371Y018351D01*
X025091Y018351D02*
X025091Y018772D01*
X024911Y018772D02*
X024631Y018772D01*
X024631Y018561D01*
X024771Y018632D01*
X024841Y018632D01*
X024911Y018561D01*
X024911Y018421D01*
X024841Y018351D01*
X024701Y018351D01*
X024631Y018421D01*
X024471Y018421D02*
X024471Y018351D01*
X024400Y018351D01*
X024400Y018421D01*
X024471Y018421D01*
X024220Y018351D02*
X023940Y018351D01*
X024220Y018632D01*
X024220Y018702D01*
X024150Y018772D01*
X024010Y018772D01*
X023940Y018702D01*
X021947Y018702D02*
X021667Y018421D01*
X021667Y018351D01*
X021947Y018351D01*
X021947Y018702D02*
X021947Y018772D01*
X021667Y018772D01*
X021486Y018772D02*
X021486Y018351D01*
X021486Y018561D02*
X021206Y018561D01*
X021206Y018351D02*
X021206Y018772D01*
X021026Y018772D02*
X020746Y018491D01*
X020816Y018561D02*
X021026Y018351D01*
X020746Y018351D02*
X020746Y018772D01*
X020425Y018772D02*
X020285Y018632D01*
X020425Y018772D02*
X020425Y018351D01*
X020285Y018351D02*
X020566Y018351D01*
X018177Y018351D02*
X017897Y018351D01*
X017897Y018421D01*
X018177Y018702D01*
X018177Y018772D01*
X017897Y018772D01*
X017717Y018772D02*
X017717Y018351D01*
X017717Y018561D02*
X017436Y018561D01*
X017436Y018351D02*
X017436Y018772D01*
X017256Y018702D02*
X017186Y018772D01*
X017046Y018772D01*
X016976Y018702D01*
X016976Y018421D01*
X017256Y018702D01*
X017256Y018421D01*
X017186Y018351D01*
X017046Y018351D01*
X016976Y018421D01*
X016796Y018421D02*
X016726Y018351D01*
X016586Y018351D01*
X016516Y018421D01*
X016796Y018702D01*
X016796Y018421D01*
X016516Y018421D02*
X016516Y018702D01*
X016586Y018772D01*
X016726Y018772D01*
X016796Y018702D01*
X016335Y018561D02*
X016055Y018561D01*
X016265Y018772D01*
X016265Y018351D01*
X014177Y018351D02*
X013897Y018351D01*
X013897Y018421D01*
X014177Y018702D01*
X014177Y018772D01*
X013897Y018772D01*
X013717Y018772D02*
X013717Y018351D01*
X013717Y018561D02*
X013436Y018561D01*
X013436Y018351D02*
X013436Y018772D01*
X013256Y018702D02*
X012976Y018421D01*
X013046Y018351D01*
X013186Y018351D01*
X013256Y018421D01*
X013256Y018702D01*
X013186Y018772D01*
X013046Y018772D01*
X012976Y018702D01*
X012976Y018421D01*
X012796Y018421D02*
X012796Y018491D01*
X012726Y018561D01*
X012516Y018561D01*
X012516Y018421D01*
X012586Y018351D01*
X012726Y018351D01*
X012796Y018421D01*
X012656Y018702D02*
X012516Y018561D01*
X012656Y018702D02*
X012796Y018772D01*
X012195Y018772D02*
X012195Y018351D01*
X012055Y018351D02*
X012335Y018351D01*
X012055Y018632D02*
X012195Y018772D01*
X009947Y018772D02*
X009947Y018702D01*
X009667Y018421D01*
X009667Y018351D01*
X009947Y018351D01*
X009486Y018351D02*
X009486Y018772D01*
X009667Y018772D02*
X009947Y018772D01*
X009486Y018561D02*
X009206Y018561D01*
X009026Y018491D02*
X009026Y018421D01*
X008956Y018351D01*
X008816Y018351D01*
X008746Y018421D01*
X008566Y018421D02*
X008566Y018491D01*
X008496Y018561D01*
X008285Y018561D01*
X008285Y018421D01*
X008355Y018351D01*
X008496Y018351D01*
X008566Y018421D01*
X008285Y018561D02*
X008425Y018702D01*
X008566Y018772D01*
X008746Y018702D02*
X008816Y018772D01*
X008956Y018772D01*
X009026Y018702D01*
X009026Y018632D01*
X008956Y018561D01*
X009026Y018491D01*
X008956Y018561D02*
X008886Y018561D01*
X009206Y018351D02*
X009206Y018772D01*
X021166Y020811D02*
X021416Y020561D01*
X021916Y020561D01*
X022166Y020811D01*
X022416Y020561D01*
X022916Y020561D01*
X023166Y020811D01*
X023416Y020561D01*
X023916Y020561D01*
X024166Y020811D01*
X024416Y020561D01*
X024916Y020561D01*
X025166Y020811D01*
X025416Y020561D01*
X025916Y020561D01*
X026166Y020811D01*
X026416Y020561D01*
X026916Y020561D01*
X027166Y020811D01*
X027416Y020561D01*
X027916Y020561D01*
X028166Y020811D01*
X028416Y020561D01*
X028916Y020561D01*
X029166Y020811D01*
X029416Y020561D01*
X029916Y020561D01*
X030166Y020811D01*
X030416Y020561D01*
X030916Y020561D01*
X031166Y020811D01*
X031166Y021311D01*
X030916Y021561D01*
X030416Y021561D01*
X030166Y021311D01*
X029916Y021561D01*
X029416Y021561D01*
X029166Y021311D01*
X028916Y021561D01*
X028416Y021561D01*
X028166Y021311D01*
X027916Y021561D01*
X027416Y021561D01*
X027166Y021311D01*
X026916Y021561D01*
X026416Y021561D01*
X026166Y021311D01*
X025916Y021561D01*
X025416Y021561D01*
X025166Y021311D01*
X024916Y021561D01*
X024416Y021561D01*
X024166Y021311D01*
X023916Y021561D01*
X023416Y021561D01*
X023166Y021311D01*
X022916Y021561D01*
X022416Y021561D01*
X022166Y021311D01*
X021916Y021561D01*
X021416Y021561D01*
X021166Y021311D01*
X021166Y020811D01*
X031676Y020891D02*
X031746Y020821D01*
X031816Y020821D01*
X031886Y020891D01*
X031886Y021242D01*
X031816Y021242D02*
X031956Y021242D01*
X032137Y021242D02*
X032347Y021242D01*
X032417Y021172D01*
X032417Y021031D01*
X032347Y020961D01*
X032137Y020961D01*
X032137Y020821D02*
X032137Y021242D01*
X032597Y021102D02*
X032737Y021242D01*
X032737Y020821D01*
X032597Y020821D02*
X032877Y020821D01*
X021916Y005561D02*
X021416Y005561D01*
X021166Y005311D01*
X020916Y005561D01*
X020416Y005561D01*
X020166Y005311D01*
X019916Y005561D01*
X019416Y005561D01*
X019166Y005311D01*
X018916Y005561D01*
X018416Y005561D01*
X018166Y005311D01*
X017916Y005561D01*
X017416Y005561D01*
X017166Y005311D01*
X016916Y005561D01*
X016416Y005561D01*
X016166Y005311D01*
X015916Y005561D01*
X015416Y005561D01*
X015166Y005311D01*
X014916Y005561D01*
X014416Y005561D01*
X014166Y005311D01*
X014166Y004811D01*
X014416Y004561D01*
X014916Y004561D01*
X015166Y004811D01*
X015416Y004561D01*
X015916Y004561D01*
X016166Y004811D01*
X016416Y004561D01*
X016916Y004561D01*
X017166Y004811D01*
X017416Y004561D01*
X017916Y004561D01*
X018166Y004811D01*
X018416Y004561D01*
X018916Y004561D01*
X019166Y004811D01*
X019416Y004561D01*
X019916Y004561D01*
X020166Y004811D01*
X020416Y004561D01*
X020916Y004561D01*
X021166Y004811D01*
X021416Y004561D01*
X021916Y004561D01*
X022166Y004811D01*
X022166Y005311D01*
X021916Y005561D01*
X022816Y005242D02*
X022956Y005242D01*
X022886Y005242D02*
X022886Y004891D01*
X022816Y004821D01*
X022746Y004821D01*
X022676Y004891D01*
X023137Y004821D02*
X023137Y005242D01*
X023347Y005242D01*
X023417Y005172D01*
X023417Y005031D01*
X023347Y004961D01*
X023137Y004961D01*
X023597Y004821D02*
X023877Y005102D01*
X023877Y005172D01*
X023807Y005242D01*
X023667Y005242D01*
X023597Y005172D01*
X023597Y004821D02*
X023877Y004821D01*
D12*
X035339Y003416D02*
X006993Y003416D01*
X006363Y004990D02*
X006365Y005040D01*
X006371Y005090D01*
X006381Y005139D01*
X006395Y005187D01*
X006412Y005234D01*
X006433Y005279D01*
X006458Y005323D01*
X006486Y005364D01*
X006518Y005403D01*
X006552Y005440D01*
X006589Y005474D01*
X006629Y005504D01*
X006671Y005531D01*
X006715Y005555D01*
X006761Y005576D01*
X006808Y005592D01*
X006856Y005605D01*
X006906Y005614D01*
X006955Y005619D01*
X007006Y005620D01*
X007056Y005617D01*
X007105Y005610D01*
X007154Y005599D01*
X007202Y005584D01*
X007248Y005566D01*
X007293Y005544D01*
X007336Y005518D01*
X007377Y005489D01*
X007416Y005457D01*
X007452Y005422D01*
X007484Y005384D01*
X007514Y005344D01*
X007541Y005301D01*
X007564Y005257D01*
X007583Y005211D01*
X007599Y005163D01*
X007611Y005114D01*
X007619Y005065D01*
X007623Y005015D01*
X007623Y004965D01*
X007619Y004915D01*
X007611Y004866D01*
X007599Y004817D01*
X007583Y004769D01*
X007564Y004723D01*
X007541Y004679D01*
X007514Y004636D01*
X007484Y004596D01*
X007452Y004558D01*
X007416Y004523D01*
X007377Y004491D01*
X007336Y004462D01*
X007293Y004436D01*
X007248Y004414D01*
X007202Y004396D01*
X007154Y004381D01*
X007105Y004370D01*
X007056Y004363D01*
X007006Y004360D01*
X006955Y004361D01*
X006906Y004366D01*
X006856Y004375D01*
X006808Y004388D01*
X006761Y004404D01*
X006715Y004425D01*
X006671Y004449D01*
X006629Y004476D01*
X006589Y004506D01*
X006552Y004540D01*
X006518Y004577D01*
X006486Y004616D01*
X006458Y004657D01*
X006433Y004701D01*
X006412Y004746D01*
X006395Y004793D01*
X006381Y004841D01*
X006371Y004890D01*
X006365Y004940D01*
X006363Y004990D01*
X005418Y004990D02*
X005420Y004913D01*
X005426Y004836D01*
X005435Y004759D01*
X005448Y004683D01*
X005465Y004607D01*
X005486Y004533D01*
X005510Y004459D01*
X005538Y004387D01*
X005569Y004317D01*
X005604Y004248D01*
X005642Y004180D01*
X005683Y004115D01*
X005728Y004052D01*
X005776Y003991D01*
X005826Y003932D01*
X005879Y003876D01*
X005935Y003823D01*
X005994Y003773D01*
X006055Y003725D01*
X006118Y003680D01*
X006183Y003639D01*
X006251Y003601D01*
X006320Y003566D01*
X006390Y003535D01*
X006462Y003507D01*
X006536Y003483D01*
X006610Y003462D01*
X006686Y003445D01*
X006762Y003432D01*
X006839Y003423D01*
X006916Y003417D01*
X006993Y003415D01*
X005418Y004990D02*
X005418Y021132D01*
X006363Y021132D02*
X006365Y021182D01*
X006371Y021232D01*
X006381Y021281D01*
X006395Y021329D01*
X006412Y021376D01*
X006433Y021421D01*
X006458Y021465D01*
X006486Y021506D01*
X006518Y021545D01*
X006552Y021582D01*
X006589Y021616D01*
X006629Y021646D01*
X006671Y021673D01*
X006715Y021697D01*
X006761Y021718D01*
X006808Y021734D01*
X006856Y021747D01*
X006906Y021756D01*
X006955Y021761D01*
X007006Y021762D01*
X007056Y021759D01*
X007105Y021752D01*
X007154Y021741D01*
X007202Y021726D01*
X007248Y021708D01*
X007293Y021686D01*
X007336Y021660D01*
X007377Y021631D01*
X007416Y021599D01*
X007452Y021564D01*
X007484Y021526D01*
X007514Y021486D01*
X007541Y021443D01*
X007564Y021399D01*
X007583Y021353D01*
X007599Y021305D01*
X007611Y021256D01*
X007619Y021207D01*
X007623Y021157D01*
X007623Y021107D01*
X007619Y021057D01*
X007611Y021008D01*
X007599Y020959D01*
X007583Y020911D01*
X007564Y020865D01*
X007541Y020821D01*
X007514Y020778D01*
X007484Y020738D01*
X007452Y020700D01*
X007416Y020665D01*
X007377Y020633D01*
X007336Y020604D01*
X007293Y020578D01*
X007248Y020556D01*
X007202Y020538D01*
X007154Y020523D01*
X007105Y020512D01*
X007056Y020505D01*
X007006Y020502D01*
X006955Y020503D01*
X006906Y020508D01*
X006856Y020517D01*
X006808Y020530D01*
X006761Y020546D01*
X006715Y020567D01*
X006671Y020591D01*
X006629Y020618D01*
X006589Y020648D01*
X006552Y020682D01*
X006518Y020719D01*
X006486Y020758D01*
X006458Y020799D01*
X006433Y020843D01*
X006412Y020888D01*
X006395Y020935D01*
X006381Y020983D01*
X006371Y021032D01*
X006365Y021082D01*
X006363Y021132D01*
X005418Y021132D02*
X005420Y021209D01*
X005426Y021286D01*
X005435Y021363D01*
X005448Y021439D01*
X005465Y021515D01*
X005486Y021589D01*
X005510Y021663D01*
X005538Y021735D01*
X005569Y021805D01*
X005604Y021874D01*
X005642Y021942D01*
X005683Y022007D01*
X005728Y022070D01*
X005776Y022131D01*
X005826Y022190D01*
X005879Y022246D01*
X005935Y022299D01*
X005994Y022349D01*
X006055Y022397D01*
X006118Y022442D01*
X006183Y022483D01*
X006251Y022521D01*
X006320Y022556D01*
X006390Y022587D01*
X006462Y022615D01*
X006536Y022639D01*
X006610Y022660D01*
X006686Y022677D01*
X006762Y022690D01*
X006839Y022699D01*
X006916Y022705D01*
X006993Y022707D01*
X035339Y022707D01*
X034709Y021132D02*
X034711Y021182D01*
X034717Y021232D01*
X034727Y021281D01*
X034741Y021329D01*
X034758Y021376D01*
X034779Y021421D01*
X034804Y021465D01*
X034832Y021506D01*
X034864Y021545D01*
X034898Y021582D01*
X034935Y021616D01*
X034975Y021646D01*
X035017Y021673D01*
X035061Y021697D01*
X035107Y021718D01*
X035154Y021734D01*
X035202Y021747D01*
X035252Y021756D01*
X035301Y021761D01*
X035352Y021762D01*
X035402Y021759D01*
X035451Y021752D01*
X035500Y021741D01*
X035548Y021726D01*
X035594Y021708D01*
X035639Y021686D01*
X035682Y021660D01*
X035723Y021631D01*
X035762Y021599D01*
X035798Y021564D01*
X035830Y021526D01*
X035860Y021486D01*
X035887Y021443D01*
X035910Y021399D01*
X035929Y021353D01*
X035945Y021305D01*
X035957Y021256D01*
X035965Y021207D01*
X035969Y021157D01*
X035969Y021107D01*
X035965Y021057D01*
X035957Y021008D01*
X035945Y020959D01*
X035929Y020911D01*
X035910Y020865D01*
X035887Y020821D01*
X035860Y020778D01*
X035830Y020738D01*
X035798Y020700D01*
X035762Y020665D01*
X035723Y020633D01*
X035682Y020604D01*
X035639Y020578D01*
X035594Y020556D01*
X035548Y020538D01*
X035500Y020523D01*
X035451Y020512D01*
X035402Y020505D01*
X035352Y020502D01*
X035301Y020503D01*
X035252Y020508D01*
X035202Y020517D01*
X035154Y020530D01*
X035107Y020546D01*
X035061Y020567D01*
X035017Y020591D01*
X034975Y020618D01*
X034935Y020648D01*
X034898Y020682D01*
X034864Y020719D01*
X034832Y020758D01*
X034804Y020799D01*
X034779Y020843D01*
X034758Y020888D01*
X034741Y020935D01*
X034727Y020983D01*
X034717Y021032D01*
X034711Y021082D01*
X034709Y021132D01*
X035339Y022707D02*
X035416Y022705D01*
X035493Y022699D01*
X035570Y022690D01*
X035646Y022677D01*
X035722Y022660D01*
X035796Y022639D01*
X035870Y022615D01*
X035942Y022587D01*
X036012Y022556D01*
X036081Y022521D01*
X036149Y022483D01*
X036214Y022442D01*
X036277Y022397D01*
X036338Y022349D01*
X036397Y022299D01*
X036453Y022246D01*
X036506Y022190D01*
X036556Y022131D01*
X036604Y022070D01*
X036649Y022007D01*
X036690Y021942D01*
X036728Y021874D01*
X036763Y021805D01*
X036794Y021735D01*
X036822Y021663D01*
X036846Y021589D01*
X036867Y021515D01*
X036884Y021439D01*
X036897Y021363D01*
X036906Y021286D01*
X036912Y021209D01*
X036914Y021132D01*
X036914Y004990D01*
X034709Y004990D02*
X034711Y005040D01*
X034717Y005090D01*
X034727Y005139D01*
X034741Y005187D01*
X034758Y005234D01*
X034779Y005279D01*
X034804Y005323D01*
X034832Y005364D01*
X034864Y005403D01*
X034898Y005440D01*
X034935Y005474D01*
X034975Y005504D01*
X035017Y005531D01*
X035061Y005555D01*
X035107Y005576D01*
X035154Y005592D01*
X035202Y005605D01*
X035252Y005614D01*
X035301Y005619D01*
X035352Y005620D01*
X035402Y005617D01*
X035451Y005610D01*
X035500Y005599D01*
X035548Y005584D01*
X035594Y005566D01*
X035639Y005544D01*
X035682Y005518D01*
X035723Y005489D01*
X035762Y005457D01*
X035798Y005422D01*
X035830Y005384D01*
X035860Y005344D01*
X035887Y005301D01*
X035910Y005257D01*
X035929Y005211D01*
X035945Y005163D01*
X035957Y005114D01*
X035965Y005065D01*
X035969Y005015D01*
X035969Y004965D01*
X035965Y004915D01*
X035957Y004866D01*
X035945Y004817D01*
X035929Y004769D01*
X035910Y004723D01*
X035887Y004679D01*
X035860Y004636D01*
X035830Y004596D01*
X035798Y004558D01*
X035762Y004523D01*
X035723Y004491D01*
X035682Y004462D01*
X035639Y004436D01*
X035594Y004414D01*
X035548Y004396D01*
X035500Y004381D01*
X035451Y004370D01*
X035402Y004363D01*
X035352Y004360D01*
X035301Y004361D01*
X035252Y004366D01*
X035202Y004375D01*
X035154Y004388D01*
X035107Y004404D01*
X035061Y004425D01*
X035017Y004449D01*
X034975Y004476D01*
X034935Y004506D01*
X034898Y004540D01*
X034864Y004577D01*
X034832Y004616D01*
X034804Y004657D01*
X034779Y004701D01*
X034758Y004746D01*
X034741Y004793D01*
X034727Y004841D01*
X034717Y004890D01*
X034711Y004940D01*
X034709Y004990D01*
X035339Y003415D02*
X035416Y003417D01*
X035493Y003423D01*
X035570Y003432D01*
X035646Y003445D01*
X035722Y003462D01*
X035796Y003483D01*
X035870Y003507D01*
X035942Y003535D01*
X036012Y003566D01*
X036081Y003601D01*
X036149Y003639D01*
X036214Y003680D01*
X036277Y003725D01*
X036338Y003773D01*
X036397Y003823D01*
X036453Y003876D01*
X036506Y003932D01*
X036556Y003991D01*
X036604Y004052D01*
X036649Y004115D01*
X036690Y004180D01*
X036728Y004248D01*
X036763Y004317D01*
X036794Y004387D01*
X036822Y004459D01*
X036846Y004533D01*
X036867Y004607D01*
X036884Y004683D01*
X036897Y004759D01*
X036906Y004836D01*
X036912Y004913D01*
X036914Y004990D01*
M02*
