G75*
%MOIN*%
%OFA0B0*%
%FSLAX24Y24*%
%IPPOS*%
%LPD*%
%AMOC8*
5,1,8,0,0,1.08239X$1,22.5*
%
%ADD10C,0.0520*%
%ADD11C,0.0000*%
%ADD12C,0.0740*%
%ADD13R,0.0740X0.0740*%
%ADD14C,0.0160*%
D10*
X007666Y008561D02*
X008186Y008561D01*
X008186Y009561D02*
X007666Y009561D01*
X007666Y010561D02*
X008186Y010561D01*
X008186Y011561D02*
X007666Y011561D01*
X007666Y012561D02*
X008186Y012561D01*
X008186Y013561D02*
X007666Y013561D01*
X007666Y014561D02*
X008186Y014561D01*
X008186Y015561D02*
X007666Y015561D01*
X007666Y016561D02*
X008186Y016561D01*
X008186Y017561D02*
X007666Y017561D01*
X010146Y017561D02*
X010666Y017561D01*
X011666Y017561D02*
X012186Y017561D01*
X012186Y016561D02*
X011666Y016561D01*
X010666Y016561D02*
X010146Y016561D01*
X010146Y015561D02*
X010666Y015561D01*
X011666Y015561D02*
X012186Y015561D01*
X012186Y014561D02*
X011666Y014561D01*
X010666Y014561D02*
X010146Y014561D01*
X010146Y013561D02*
X010666Y013561D01*
X011666Y013561D02*
X012186Y013561D01*
X012186Y012561D02*
X011666Y012561D01*
X010666Y012561D02*
X010146Y012561D01*
X010146Y011561D02*
X010666Y011561D01*
X011666Y011561D02*
X012186Y011561D01*
X012186Y010561D02*
X011666Y010561D01*
X010666Y010561D02*
X010146Y010561D01*
X010146Y009561D02*
X010666Y009561D01*
X011666Y009561D02*
X012186Y009561D01*
X012186Y008561D02*
X011666Y008561D01*
X010666Y008561D02*
X010146Y008561D01*
X014146Y008561D02*
X014666Y008561D01*
X015666Y008561D02*
X016186Y008561D01*
X016186Y009561D02*
X015666Y009561D01*
X014666Y009561D02*
X014146Y009561D01*
X014146Y010561D02*
X014666Y010561D01*
X015666Y010561D02*
X016186Y010561D01*
X016186Y011561D02*
X015666Y011561D01*
X014666Y011561D02*
X014146Y011561D01*
X014146Y012561D02*
X014666Y012561D01*
X015666Y012561D02*
X016186Y012561D01*
X016186Y013561D02*
X015666Y013561D01*
X014666Y013561D02*
X014146Y013561D01*
X014146Y014561D02*
X014666Y014561D01*
X015666Y014561D02*
X016186Y014561D01*
X016186Y015561D02*
X015666Y015561D01*
X014666Y015561D02*
X014146Y015561D01*
X014146Y016561D02*
X014666Y016561D01*
X015666Y016561D02*
X016186Y016561D01*
X016186Y017561D02*
X015666Y017561D01*
X014666Y017561D02*
X014146Y017561D01*
X018146Y017561D02*
X018666Y017561D01*
X019666Y017561D02*
X020186Y017561D01*
X020186Y016561D02*
X019666Y016561D01*
X018666Y016561D02*
X018146Y016561D01*
X018146Y015561D02*
X018666Y015561D01*
X019666Y015561D02*
X020186Y015561D01*
X020186Y014561D02*
X019666Y014561D01*
X018666Y014561D02*
X018146Y014561D01*
X018146Y013561D02*
X018666Y013561D01*
X019666Y013561D02*
X020186Y013561D01*
X020186Y012561D02*
X019666Y012561D01*
X019666Y011561D02*
X020186Y011561D01*
X020186Y010561D02*
X019666Y010561D01*
X018666Y010561D02*
X018146Y010561D01*
X018146Y009561D02*
X018666Y009561D01*
X019666Y009561D02*
X020186Y009561D01*
X020186Y008561D02*
X019666Y008561D01*
X018666Y008561D02*
X018146Y008561D01*
X022146Y008561D02*
X022666Y008561D01*
X023666Y008561D02*
X024186Y008561D01*
X024186Y009561D02*
X023666Y009561D01*
X022666Y009561D02*
X022146Y009561D01*
X022146Y010561D02*
X022666Y010561D01*
X023666Y010561D02*
X024186Y010561D01*
X024186Y011561D02*
X023666Y011561D01*
X022666Y011561D02*
X022146Y011561D01*
X022146Y012561D02*
X022666Y012561D01*
X023666Y012561D02*
X024186Y012561D01*
X024186Y013561D02*
X023666Y013561D01*
X022666Y013561D02*
X022146Y013561D01*
X022146Y014561D02*
X022666Y014561D01*
X023666Y014561D02*
X024186Y014561D01*
X024186Y015561D02*
X023666Y015561D01*
X022666Y015561D02*
X022146Y015561D01*
X022146Y016561D02*
X022666Y016561D01*
X023666Y016561D02*
X024186Y016561D01*
X024186Y017561D02*
X023666Y017561D01*
X022666Y017561D02*
X022146Y017561D01*
X026146Y017561D02*
X026666Y017561D01*
X027666Y017561D02*
X028186Y017561D01*
X028186Y016561D02*
X027666Y016561D01*
X026666Y016561D02*
X026146Y016561D01*
X026146Y015561D02*
X026666Y015561D01*
X027666Y015561D02*
X028186Y015561D01*
X028186Y014561D02*
X027666Y014561D01*
X026666Y014561D02*
X026146Y014561D01*
X026146Y013561D02*
X026666Y013561D01*
X027666Y013561D02*
X028186Y013561D01*
X028186Y012561D02*
X027666Y012561D01*
X027666Y011561D02*
X028186Y011561D01*
X028186Y010561D02*
X027666Y010561D01*
X026666Y010561D02*
X026146Y010561D01*
X026146Y009561D02*
X026666Y009561D01*
X027666Y009561D02*
X028186Y009561D01*
X028186Y008561D02*
X027666Y008561D01*
X026666Y008561D02*
X026146Y008561D01*
X030146Y008561D02*
X030666Y008561D01*
X031666Y008561D02*
X032186Y008561D01*
X032186Y009561D02*
X031666Y009561D01*
X030666Y009561D02*
X030146Y009561D01*
X030146Y010561D02*
X030666Y010561D01*
X031666Y010561D02*
X032186Y010561D01*
X032186Y011561D02*
X031666Y011561D01*
X030666Y011561D02*
X030146Y011561D01*
X030146Y012561D02*
X030666Y012561D01*
X031666Y012561D02*
X032186Y012561D01*
X032186Y013561D02*
X031666Y013561D01*
X030666Y013561D02*
X030146Y013561D01*
X030146Y014561D02*
X030666Y014561D01*
X031666Y014561D02*
X032186Y014561D01*
X032186Y015561D02*
X031666Y015561D01*
X030666Y015561D02*
X030146Y015561D01*
X030146Y016561D02*
X030666Y016561D01*
X031666Y016561D02*
X032186Y016561D01*
X032186Y017561D02*
X031666Y017561D01*
X030666Y017561D02*
X030146Y017561D01*
X034146Y017561D02*
X034666Y017561D01*
X034666Y016561D02*
X034146Y016561D01*
X034146Y015561D02*
X034666Y015561D01*
X034666Y014561D02*
X034146Y014561D01*
X034146Y013561D02*
X034666Y013561D01*
X034666Y012561D02*
X034146Y012561D01*
X034146Y011561D02*
X034666Y011561D01*
X034666Y010561D02*
X034146Y010561D01*
X034146Y009561D02*
X034666Y009561D01*
X034666Y008561D02*
X034146Y008561D01*
X026666Y011561D02*
X026146Y011561D01*
X026146Y012561D02*
X026666Y012561D01*
X018666Y012561D02*
X018146Y012561D01*
X018146Y011561D02*
X018666Y011561D01*
D11*
X006993Y003416D02*
X035339Y003416D01*
X034709Y004990D02*
X034711Y005040D01*
X034717Y005090D01*
X034727Y005139D01*
X034741Y005187D01*
X034758Y005234D01*
X034779Y005279D01*
X034804Y005323D01*
X034832Y005364D01*
X034864Y005403D01*
X034898Y005440D01*
X034935Y005474D01*
X034975Y005504D01*
X035017Y005531D01*
X035061Y005555D01*
X035107Y005576D01*
X035154Y005592D01*
X035202Y005605D01*
X035252Y005614D01*
X035301Y005619D01*
X035352Y005620D01*
X035402Y005617D01*
X035451Y005610D01*
X035500Y005599D01*
X035548Y005584D01*
X035594Y005566D01*
X035639Y005544D01*
X035682Y005518D01*
X035723Y005489D01*
X035762Y005457D01*
X035798Y005422D01*
X035830Y005384D01*
X035860Y005344D01*
X035887Y005301D01*
X035910Y005257D01*
X035929Y005211D01*
X035945Y005163D01*
X035957Y005114D01*
X035965Y005065D01*
X035969Y005015D01*
X035969Y004965D01*
X035965Y004915D01*
X035957Y004866D01*
X035945Y004817D01*
X035929Y004769D01*
X035910Y004723D01*
X035887Y004679D01*
X035860Y004636D01*
X035830Y004596D01*
X035798Y004558D01*
X035762Y004523D01*
X035723Y004491D01*
X035682Y004462D01*
X035639Y004436D01*
X035594Y004414D01*
X035548Y004396D01*
X035500Y004381D01*
X035451Y004370D01*
X035402Y004363D01*
X035352Y004360D01*
X035301Y004361D01*
X035252Y004366D01*
X035202Y004375D01*
X035154Y004388D01*
X035107Y004404D01*
X035061Y004425D01*
X035017Y004449D01*
X034975Y004476D01*
X034935Y004506D01*
X034898Y004540D01*
X034864Y004577D01*
X034832Y004616D01*
X034804Y004657D01*
X034779Y004701D01*
X034758Y004746D01*
X034741Y004793D01*
X034727Y004841D01*
X034717Y004890D01*
X034711Y004940D01*
X034709Y004990D01*
X035339Y003415D02*
X035416Y003417D01*
X035493Y003423D01*
X035570Y003432D01*
X035646Y003445D01*
X035722Y003462D01*
X035796Y003483D01*
X035870Y003507D01*
X035942Y003535D01*
X036012Y003566D01*
X036081Y003601D01*
X036149Y003639D01*
X036214Y003680D01*
X036277Y003725D01*
X036338Y003773D01*
X036397Y003823D01*
X036453Y003876D01*
X036506Y003932D01*
X036556Y003991D01*
X036604Y004052D01*
X036649Y004115D01*
X036690Y004180D01*
X036728Y004248D01*
X036763Y004317D01*
X036794Y004387D01*
X036822Y004459D01*
X036846Y004533D01*
X036867Y004607D01*
X036884Y004683D01*
X036897Y004759D01*
X036906Y004836D01*
X036912Y004913D01*
X036914Y004990D01*
X036914Y021132D01*
X034709Y021132D02*
X034711Y021182D01*
X034717Y021232D01*
X034727Y021281D01*
X034741Y021329D01*
X034758Y021376D01*
X034779Y021421D01*
X034804Y021465D01*
X034832Y021506D01*
X034864Y021545D01*
X034898Y021582D01*
X034935Y021616D01*
X034975Y021646D01*
X035017Y021673D01*
X035061Y021697D01*
X035107Y021718D01*
X035154Y021734D01*
X035202Y021747D01*
X035252Y021756D01*
X035301Y021761D01*
X035352Y021762D01*
X035402Y021759D01*
X035451Y021752D01*
X035500Y021741D01*
X035548Y021726D01*
X035594Y021708D01*
X035639Y021686D01*
X035682Y021660D01*
X035723Y021631D01*
X035762Y021599D01*
X035798Y021564D01*
X035830Y021526D01*
X035860Y021486D01*
X035887Y021443D01*
X035910Y021399D01*
X035929Y021353D01*
X035945Y021305D01*
X035957Y021256D01*
X035965Y021207D01*
X035969Y021157D01*
X035969Y021107D01*
X035965Y021057D01*
X035957Y021008D01*
X035945Y020959D01*
X035929Y020911D01*
X035910Y020865D01*
X035887Y020821D01*
X035860Y020778D01*
X035830Y020738D01*
X035798Y020700D01*
X035762Y020665D01*
X035723Y020633D01*
X035682Y020604D01*
X035639Y020578D01*
X035594Y020556D01*
X035548Y020538D01*
X035500Y020523D01*
X035451Y020512D01*
X035402Y020505D01*
X035352Y020502D01*
X035301Y020503D01*
X035252Y020508D01*
X035202Y020517D01*
X035154Y020530D01*
X035107Y020546D01*
X035061Y020567D01*
X035017Y020591D01*
X034975Y020618D01*
X034935Y020648D01*
X034898Y020682D01*
X034864Y020719D01*
X034832Y020758D01*
X034804Y020799D01*
X034779Y020843D01*
X034758Y020888D01*
X034741Y020935D01*
X034727Y020983D01*
X034717Y021032D01*
X034711Y021082D01*
X034709Y021132D01*
X035339Y022707D02*
X035416Y022705D01*
X035493Y022699D01*
X035570Y022690D01*
X035646Y022677D01*
X035722Y022660D01*
X035796Y022639D01*
X035870Y022615D01*
X035942Y022587D01*
X036012Y022556D01*
X036081Y022521D01*
X036149Y022483D01*
X036214Y022442D01*
X036277Y022397D01*
X036338Y022349D01*
X036397Y022299D01*
X036453Y022246D01*
X036506Y022190D01*
X036556Y022131D01*
X036604Y022070D01*
X036649Y022007D01*
X036690Y021942D01*
X036728Y021874D01*
X036763Y021805D01*
X036794Y021735D01*
X036822Y021663D01*
X036846Y021589D01*
X036867Y021515D01*
X036884Y021439D01*
X036897Y021363D01*
X036906Y021286D01*
X036912Y021209D01*
X036914Y021132D01*
X035339Y022707D02*
X006993Y022707D01*
X006363Y021132D02*
X006365Y021182D01*
X006371Y021232D01*
X006381Y021281D01*
X006395Y021329D01*
X006412Y021376D01*
X006433Y021421D01*
X006458Y021465D01*
X006486Y021506D01*
X006518Y021545D01*
X006552Y021582D01*
X006589Y021616D01*
X006629Y021646D01*
X006671Y021673D01*
X006715Y021697D01*
X006761Y021718D01*
X006808Y021734D01*
X006856Y021747D01*
X006906Y021756D01*
X006955Y021761D01*
X007006Y021762D01*
X007056Y021759D01*
X007105Y021752D01*
X007154Y021741D01*
X007202Y021726D01*
X007248Y021708D01*
X007293Y021686D01*
X007336Y021660D01*
X007377Y021631D01*
X007416Y021599D01*
X007452Y021564D01*
X007484Y021526D01*
X007514Y021486D01*
X007541Y021443D01*
X007564Y021399D01*
X007583Y021353D01*
X007599Y021305D01*
X007611Y021256D01*
X007619Y021207D01*
X007623Y021157D01*
X007623Y021107D01*
X007619Y021057D01*
X007611Y021008D01*
X007599Y020959D01*
X007583Y020911D01*
X007564Y020865D01*
X007541Y020821D01*
X007514Y020778D01*
X007484Y020738D01*
X007452Y020700D01*
X007416Y020665D01*
X007377Y020633D01*
X007336Y020604D01*
X007293Y020578D01*
X007248Y020556D01*
X007202Y020538D01*
X007154Y020523D01*
X007105Y020512D01*
X007056Y020505D01*
X007006Y020502D01*
X006955Y020503D01*
X006906Y020508D01*
X006856Y020517D01*
X006808Y020530D01*
X006761Y020546D01*
X006715Y020567D01*
X006671Y020591D01*
X006629Y020618D01*
X006589Y020648D01*
X006552Y020682D01*
X006518Y020719D01*
X006486Y020758D01*
X006458Y020799D01*
X006433Y020843D01*
X006412Y020888D01*
X006395Y020935D01*
X006381Y020983D01*
X006371Y021032D01*
X006365Y021082D01*
X006363Y021132D01*
X005418Y021132D02*
X005420Y021209D01*
X005426Y021286D01*
X005435Y021363D01*
X005448Y021439D01*
X005465Y021515D01*
X005486Y021589D01*
X005510Y021663D01*
X005538Y021735D01*
X005569Y021805D01*
X005604Y021874D01*
X005642Y021942D01*
X005683Y022007D01*
X005728Y022070D01*
X005776Y022131D01*
X005826Y022190D01*
X005879Y022246D01*
X005935Y022299D01*
X005994Y022349D01*
X006055Y022397D01*
X006118Y022442D01*
X006183Y022483D01*
X006251Y022521D01*
X006320Y022556D01*
X006390Y022587D01*
X006462Y022615D01*
X006536Y022639D01*
X006610Y022660D01*
X006686Y022677D01*
X006762Y022690D01*
X006839Y022699D01*
X006916Y022705D01*
X006993Y022707D01*
X005418Y021132D02*
X005418Y004990D01*
X006363Y004990D02*
X006365Y005040D01*
X006371Y005090D01*
X006381Y005139D01*
X006395Y005187D01*
X006412Y005234D01*
X006433Y005279D01*
X006458Y005323D01*
X006486Y005364D01*
X006518Y005403D01*
X006552Y005440D01*
X006589Y005474D01*
X006629Y005504D01*
X006671Y005531D01*
X006715Y005555D01*
X006761Y005576D01*
X006808Y005592D01*
X006856Y005605D01*
X006906Y005614D01*
X006955Y005619D01*
X007006Y005620D01*
X007056Y005617D01*
X007105Y005610D01*
X007154Y005599D01*
X007202Y005584D01*
X007248Y005566D01*
X007293Y005544D01*
X007336Y005518D01*
X007377Y005489D01*
X007416Y005457D01*
X007452Y005422D01*
X007484Y005384D01*
X007514Y005344D01*
X007541Y005301D01*
X007564Y005257D01*
X007583Y005211D01*
X007599Y005163D01*
X007611Y005114D01*
X007619Y005065D01*
X007623Y005015D01*
X007623Y004965D01*
X007619Y004915D01*
X007611Y004866D01*
X007599Y004817D01*
X007583Y004769D01*
X007564Y004723D01*
X007541Y004679D01*
X007514Y004636D01*
X007484Y004596D01*
X007452Y004558D01*
X007416Y004523D01*
X007377Y004491D01*
X007336Y004462D01*
X007293Y004436D01*
X007248Y004414D01*
X007202Y004396D01*
X007154Y004381D01*
X007105Y004370D01*
X007056Y004363D01*
X007006Y004360D01*
X006955Y004361D01*
X006906Y004366D01*
X006856Y004375D01*
X006808Y004388D01*
X006761Y004404D01*
X006715Y004425D01*
X006671Y004449D01*
X006629Y004476D01*
X006589Y004506D01*
X006552Y004540D01*
X006518Y004577D01*
X006486Y004616D01*
X006458Y004657D01*
X006433Y004701D01*
X006412Y004746D01*
X006395Y004793D01*
X006381Y004841D01*
X006371Y004890D01*
X006365Y004940D01*
X006363Y004990D01*
X005418Y004990D02*
X005420Y004913D01*
X005426Y004836D01*
X005435Y004759D01*
X005448Y004683D01*
X005465Y004607D01*
X005486Y004533D01*
X005510Y004459D01*
X005538Y004387D01*
X005569Y004317D01*
X005604Y004248D01*
X005642Y004180D01*
X005683Y004115D01*
X005728Y004052D01*
X005776Y003991D01*
X005826Y003932D01*
X005879Y003876D01*
X005935Y003823D01*
X005994Y003773D01*
X006055Y003725D01*
X006118Y003680D01*
X006183Y003639D01*
X006251Y003601D01*
X006320Y003566D01*
X006390Y003535D01*
X006462Y003507D01*
X006536Y003483D01*
X006610Y003462D01*
X006686Y003445D01*
X006762Y003432D01*
X006839Y003423D01*
X006916Y003417D01*
X006993Y003415D01*
D12*
X014666Y005061D03*
X015666Y005061D03*
X016666Y005061D03*
X017666Y005061D03*
X018666Y005061D03*
X019666Y005061D03*
X020666Y005061D03*
X021666Y021061D03*
X022666Y021061D03*
X023666Y021061D03*
X024666Y021061D03*
X025666Y021061D03*
X026666Y021061D03*
X027666Y021061D03*
X028666Y021061D03*
X029666Y021061D03*
X030666Y021061D03*
D13*
X021666Y005061D03*
D14*
X022276Y005012D02*
X033918Y005012D01*
X033918Y004999D02*
X033915Y004960D01*
X033918Y004952D01*
X033918Y004061D01*
X008414Y004061D01*
X008414Y004952D01*
X008417Y004960D01*
X008414Y004999D01*
X008414Y005038D01*
X008411Y005046D01*
X008404Y005146D01*
X008407Y005163D01*
X008400Y005193D01*
X008398Y005223D01*
X008390Y005239D01*
X008367Y005345D01*
X008368Y005362D01*
X008357Y005391D01*
X008351Y005421D01*
X008341Y005435D01*
X008303Y005537D01*
X008301Y005554D01*
X008286Y005581D01*
X008275Y005610D01*
X008263Y005623D01*
X008212Y005718D01*
X008207Y005735D01*
X008189Y005759D01*
X008174Y005786D01*
X008161Y005797D01*
X008096Y005884D01*
X008089Y005900D01*
X008067Y005921D01*
X008049Y005946D01*
X008034Y005955D01*
X007957Y006031D01*
X007948Y006047D01*
X007924Y006065D01*
X007902Y006086D01*
X007886Y006093D01*
X007799Y006158D01*
X007788Y006172D01*
X007762Y006186D01*
X007737Y006205D01*
X007720Y006209D01*
X007625Y006261D01*
X007612Y006273D01*
X007584Y006284D01*
X007557Y006298D01*
X007539Y006300D01*
X007438Y006338D01*
X007423Y006348D01*
X007393Y006355D01*
X007365Y006365D01*
X007347Y006365D01*
X007241Y006388D01*
X007226Y006395D01*
X007195Y006398D01*
X007165Y006404D01*
X007148Y006401D01*
X007049Y006408D01*
X007041Y006412D01*
X007001Y006412D01*
X006962Y006414D01*
X006954Y006412D01*
X006166Y006412D01*
X006166Y019711D01*
X006954Y019711D01*
X006962Y019708D01*
X007001Y019711D01*
X007041Y019711D01*
X007049Y019714D01*
X007148Y019722D01*
X007165Y019718D01*
X007195Y019725D01*
X007226Y019727D01*
X007241Y019735D01*
X007347Y019758D01*
X007365Y019757D01*
X007393Y019768D01*
X007423Y019775D01*
X007435Y019782D01*
X007395Y019743D01*
X006395Y018743D01*
X006346Y018625D01*
X006346Y008998D01*
X006395Y008880D01*
X006485Y008790D01*
X006985Y008290D01*
X007102Y008241D01*
X007279Y008241D01*
X007383Y008137D01*
X007567Y008061D01*
X007714Y008061D01*
X007895Y007880D01*
X007985Y007790D01*
X008102Y007741D01*
X011230Y007741D01*
X011347Y007790D01*
X011619Y008061D01*
X011714Y008061D01*
X011895Y007880D01*
X011985Y007790D01*
X012102Y007741D01*
X015230Y007741D01*
X015347Y007790D01*
X015619Y008061D01*
X015714Y008061D01*
X015895Y007880D01*
X015985Y007790D01*
X016102Y007741D01*
X019230Y007741D01*
X019347Y007790D01*
X019619Y008061D01*
X019714Y008061D01*
X019895Y007880D01*
X019985Y007790D01*
X020102Y007741D01*
X021894Y007741D01*
X020485Y006333D01*
X020395Y006243D01*
X020346Y006125D01*
X020346Y005589D01*
X020321Y005578D01*
X020166Y005424D01*
X020012Y005578D01*
X019787Y005671D01*
X019545Y005671D01*
X019321Y005578D01*
X019166Y005424D01*
X019012Y005578D01*
X018787Y005671D01*
X018545Y005671D01*
X018321Y005578D01*
X018166Y005424D01*
X018012Y005578D01*
X017787Y005671D01*
X017545Y005671D01*
X017321Y005578D01*
X017166Y005424D01*
X017012Y005578D01*
X016787Y005671D01*
X016545Y005671D01*
X016321Y005578D01*
X016166Y005424D01*
X016012Y005578D01*
X015787Y005671D01*
X015545Y005671D01*
X015321Y005578D01*
X015166Y005424D01*
X015012Y005578D01*
X014787Y005671D01*
X014545Y005671D01*
X014321Y005578D01*
X014149Y005407D01*
X014056Y005183D01*
X014056Y004940D01*
X014149Y004716D01*
X014321Y004544D01*
X014545Y004451D01*
X014787Y004451D01*
X015012Y004544D01*
X015166Y004699D01*
X015321Y004544D01*
X015545Y004451D01*
X015787Y004451D01*
X016012Y004544D01*
X016166Y004699D01*
X016321Y004544D01*
X016545Y004451D01*
X016787Y004451D01*
X017012Y004544D01*
X017166Y004699D01*
X017321Y004544D01*
X017545Y004451D01*
X017787Y004451D01*
X018012Y004544D01*
X018166Y004699D01*
X018321Y004544D01*
X018545Y004451D01*
X018787Y004451D01*
X019012Y004544D01*
X019166Y004699D01*
X019321Y004544D01*
X019545Y004451D01*
X019787Y004451D01*
X020012Y004544D01*
X020166Y004699D01*
X020321Y004544D01*
X020545Y004451D01*
X020787Y004451D01*
X021012Y004544D01*
X021072Y004605D01*
X021093Y004555D01*
X021160Y004488D01*
X021248Y004451D01*
X022084Y004451D01*
X022172Y004488D01*
X022240Y004555D01*
X022276Y004644D01*
X022276Y005479D01*
X022240Y005567D01*
X022172Y005635D01*
X022084Y005671D01*
X021248Y005671D01*
X021160Y005635D01*
X021093Y005567D01*
X021072Y005518D01*
X021012Y005578D01*
X020986Y005589D01*
X020986Y005929D01*
X022299Y007241D01*
X033730Y007241D01*
X033847Y007290D01*
X033937Y007380D01*
X034619Y008061D01*
X034766Y008061D01*
X034949Y008137D01*
X035090Y008278D01*
X035166Y008462D01*
X035166Y008661D01*
X035090Y008845D01*
X034949Y008985D01*
X034766Y009061D01*
X034949Y009137D01*
X035090Y009278D01*
X035166Y009462D01*
X035166Y009661D01*
X035090Y009845D01*
X034949Y009985D01*
X034766Y010061D01*
X034047Y010061D01*
X033863Y009985D01*
X033722Y009845D01*
X033646Y009661D01*
X033646Y009462D01*
X033722Y009278D01*
X033863Y009137D01*
X034047Y009061D01*
X033863Y008985D01*
X033722Y008845D01*
X033646Y008661D01*
X033646Y008462D01*
X033722Y008278D01*
X033826Y008174D01*
X033534Y007881D01*
X031439Y007881D01*
X031619Y008061D01*
X032286Y008061D01*
X032469Y008137D01*
X032610Y008278D01*
X032686Y008462D01*
X032686Y008661D01*
X032610Y008845D01*
X032469Y008985D01*
X032286Y009061D01*
X032469Y009137D01*
X032610Y009278D01*
X032686Y009462D01*
X032686Y009661D01*
X032610Y009845D01*
X032469Y009985D01*
X032286Y010061D01*
X032469Y010137D01*
X032610Y010278D01*
X032686Y010462D01*
X032686Y010661D01*
X032610Y010845D01*
X032469Y010985D01*
X032286Y011061D01*
X032469Y011137D01*
X032610Y011278D01*
X032686Y011462D01*
X032686Y011661D01*
X032610Y011845D01*
X032469Y011985D01*
X032286Y012061D01*
X032469Y012137D01*
X032610Y012278D01*
X032686Y012462D01*
X032686Y012661D01*
X032610Y012845D01*
X032469Y012985D01*
X032286Y013061D01*
X032469Y013137D01*
X032610Y013278D01*
X032686Y013462D01*
X032686Y013661D01*
X032610Y013845D01*
X032469Y013985D01*
X032286Y014061D01*
X032469Y014137D01*
X032610Y014278D01*
X032686Y014462D01*
X032686Y014661D01*
X032610Y014845D01*
X032469Y014985D01*
X032286Y015061D01*
X032469Y015137D01*
X032610Y015278D01*
X032686Y015462D01*
X032686Y015661D01*
X032610Y015845D01*
X032469Y015985D01*
X032286Y016061D01*
X032469Y016137D01*
X032610Y016278D01*
X032686Y016462D01*
X032686Y016661D01*
X032610Y016845D01*
X032469Y016985D01*
X032286Y017061D01*
X032469Y017137D01*
X032610Y017278D01*
X032686Y017462D01*
X032686Y017661D01*
X032610Y017845D01*
X032469Y017985D01*
X032286Y018061D01*
X031986Y018061D01*
X031986Y020125D01*
X031937Y020243D01*
X031266Y020914D01*
X031276Y020940D01*
X031276Y021183D01*
X031183Y021407D01*
X031012Y021578D01*
X030787Y021671D01*
X030545Y021671D01*
X030321Y021578D01*
X030166Y021424D01*
X030012Y021578D01*
X029787Y021671D01*
X029545Y021671D01*
X029321Y021578D01*
X029166Y021424D01*
X029012Y021578D01*
X028787Y021671D01*
X028545Y021671D01*
X028321Y021578D01*
X028166Y021424D01*
X028012Y021578D01*
X027787Y021671D01*
X027545Y021671D01*
X027321Y021578D01*
X027166Y021424D01*
X027012Y021578D01*
X026787Y021671D01*
X026545Y021671D01*
X026321Y021578D01*
X026166Y021424D01*
X026012Y021578D01*
X025787Y021671D01*
X025545Y021671D01*
X025321Y021578D01*
X025166Y021424D01*
X025012Y021578D01*
X024787Y021671D01*
X024545Y021671D01*
X024321Y021578D01*
X024166Y021424D01*
X024012Y021578D01*
X023787Y021671D01*
X023545Y021671D01*
X023321Y021578D01*
X023166Y021424D01*
X023012Y021578D01*
X022787Y021671D01*
X022545Y021671D01*
X022321Y021578D01*
X022166Y021424D01*
X022012Y021578D01*
X021787Y021671D01*
X021545Y021671D01*
X021321Y021578D01*
X021149Y021407D01*
X021138Y021381D01*
X011602Y021381D01*
X011485Y021333D01*
X010034Y019881D01*
X007661Y019881D01*
X007720Y019913D01*
X007737Y019918D01*
X007762Y019936D01*
X007788Y019951D01*
X007799Y019964D01*
X007886Y020029D01*
X007902Y020036D01*
X007924Y020058D01*
X007948Y020076D01*
X007957Y020091D01*
X008034Y020168D01*
X008049Y020177D01*
X008067Y020201D01*
X008089Y020223D01*
X008096Y020239D01*
X008161Y020326D01*
X008174Y020337D01*
X008189Y020364D01*
X008207Y020388D01*
X008212Y020405D01*
X008263Y020500D01*
X008275Y020513D01*
X008286Y020542D01*
X008301Y020568D01*
X008303Y020586D01*
X008341Y020687D01*
X008351Y020702D01*
X008357Y020732D01*
X008368Y020760D01*
X008367Y020778D01*
X008390Y020884D01*
X008398Y020899D01*
X008400Y020930D01*
X008407Y020960D01*
X008404Y020977D01*
X008411Y021076D01*
X008414Y021084D01*
X008414Y021124D01*
X008417Y021163D01*
X008414Y021171D01*
X008414Y022061D01*
X033918Y022061D01*
X033918Y021171D01*
X033915Y021163D01*
X033918Y021124D01*
X033918Y021084D01*
X033922Y021076D01*
X033929Y020977D01*
X033926Y020960D01*
X033932Y020930D01*
X033934Y020899D01*
X033942Y020884D01*
X033965Y020778D01*
X033965Y020760D01*
X033975Y020732D01*
X033982Y020702D01*
X033992Y020687D01*
X034030Y020586D01*
X034031Y020568D01*
X034046Y020542D01*
X034057Y020513D01*
X034069Y020500D01*
X034121Y020405D01*
X034125Y020388D01*
X034143Y020364D01*
X034158Y020337D01*
X034172Y020326D01*
X034237Y020239D01*
X034243Y020223D01*
X034265Y020201D01*
X034283Y020177D01*
X034298Y020168D01*
X034375Y020091D01*
X034384Y020076D01*
X034408Y020058D01*
X034430Y020036D01*
X034446Y020029D01*
X034533Y019964D01*
X034544Y019951D01*
X034571Y019936D01*
X034595Y019918D01*
X034612Y019913D01*
X034707Y019862D01*
X034720Y019850D01*
X034749Y019839D01*
X034776Y019824D01*
X034793Y019822D01*
X034894Y019785D01*
X034909Y019775D01*
X034939Y019768D01*
X034967Y019757D01*
X034985Y019758D01*
X035091Y019735D01*
X035107Y019727D01*
X035137Y019725D01*
X035167Y019718D01*
X035184Y019722D01*
X035283Y019714D01*
X035292Y019711D01*
X035331Y019711D01*
X035370Y019708D01*
X035378Y019711D01*
X036166Y019711D01*
X036166Y006412D01*
X035378Y006412D01*
X035370Y006414D01*
X035331Y006412D01*
X035292Y006412D01*
X035283Y006408D01*
X035184Y006401D01*
X035167Y006404D01*
X035137Y006398D01*
X035107Y006395D01*
X035091Y006388D01*
X034985Y006365D01*
X034967Y006365D01*
X034939Y006355D01*
X034909Y006348D01*
X034894Y006338D01*
X034793Y006300D01*
X034776Y006298D01*
X034749Y006284D01*
X034720Y006273D01*
X034707Y006261D01*
X034612Y006209D01*
X034595Y006205D01*
X034571Y006186D01*
X034544Y006172D01*
X034533Y006158D01*
X034446Y006093D01*
X034430Y006086D01*
X034408Y006065D01*
X034384Y006047D01*
X034375Y006031D01*
X034298Y005955D01*
X034283Y005946D01*
X034265Y005921D01*
X034243Y005900D01*
X034237Y005884D01*
X034172Y005797D01*
X034158Y005786D01*
X034143Y005759D01*
X034125Y005735D01*
X034121Y005718D01*
X034069Y005623D01*
X034057Y005610D01*
X034046Y005581D01*
X034031Y005554D01*
X034030Y005537D01*
X033992Y005435D01*
X033982Y005421D01*
X033975Y005391D01*
X033965Y005362D01*
X033965Y005345D01*
X033942Y005239D01*
X033934Y005223D01*
X033932Y005193D01*
X033926Y005163D01*
X033929Y005146D01*
X033922Y005046D01*
X033918Y005038D01*
X033918Y004999D01*
X033918Y004854D02*
X022276Y004854D01*
X022276Y004695D02*
X033918Y004695D01*
X033918Y004537D02*
X022221Y004537D01*
X022276Y005171D02*
X033927Y005171D01*
X033962Y005329D02*
X022276Y005329D01*
X022273Y005488D02*
X034011Y005488D01*
X034082Y005646D02*
X022144Y005646D01*
X021188Y005646D02*
X020986Y005646D01*
X020986Y005805D02*
X034178Y005805D01*
X034307Y005963D02*
X021021Y005963D01*
X021179Y006122D02*
X034484Y006122D01*
X034740Y006280D02*
X021338Y006280D01*
X021496Y006439D02*
X036166Y006439D01*
X036166Y006597D02*
X021655Y006597D01*
X021813Y006756D02*
X036166Y006756D01*
X036166Y006914D02*
X021972Y006914D01*
X022130Y007073D02*
X036166Y007073D01*
X036166Y007231D02*
X022289Y007231D01*
X022166Y007561D02*
X020666Y006061D01*
X020666Y005061D01*
X020169Y004695D02*
X020163Y004695D01*
X019994Y004537D02*
X020338Y004537D01*
X020994Y004537D02*
X021111Y004537D01*
X020230Y005488D02*
X020102Y005488D01*
X020346Y005646D02*
X019848Y005646D01*
X019484Y005646D02*
X018848Y005646D01*
X019102Y005488D02*
X019230Y005488D01*
X018484Y005646D02*
X017848Y005646D01*
X018102Y005488D02*
X018230Y005488D01*
X017484Y005646D02*
X016848Y005646D01*
X017102Y005488D02*
X017230Y005488D01*
X016484Y005646D02*
X015848Y005646D01*
X016102Y005488D02*
X016230Y005488D01*
X015484Y005646D02*
X014848Y005646D01*
X015102Y005488D02*
X015230Y005488D01*
X014484Y005646D02*
X008251Y005646D01*
X008321Y005488D02*
X014230Y005488D01*
X014117Y005329D02*
X008370Y005329D01*
X008405Y005171D02*
X014056Y005171D01*
X014056Y005012D02*
X008414Y005012D01*
X008414Y004854D02*
X014092Y004854D01*
X014169Y004695D02*
X008414Y004695D01*
X008414Y004537D02*
X014338Y004537D01*
X014994Y004537D02*
X015338Y004537D01*
X015169Y004695D02*
X015163Y004695D01*
X015994Y004537D02*
X016338Y004537D01*
X016169Y004695D02*
X016163Y004695D01*
X016994Y004537D02*
X017338Y004537D01*
X017169Y004695D02*
X017163Y004695D01*
X017994Y004537D02*
X018338Y004537D01*
X018169Y004695D02*
X018163Y004695D01*
X018994Y004537D02*
X019338Y004537D01*
X019169Y004695D02*
X019163Y004695D01*
X020346Y005805D02*
X008155Y005805D01*
X008026Y005963D02*
X020346Y005963D01*
X020346Y006122D02*
X007848Y006122D01*
X007593Y006280D02*
X020433Y006280D01*
X020591Y006439D02*
X006166Y006439D01*
X006166Y006597D02*
X020750Y006597D01*
X020908Y006756D02*
X006166Y006756D01*
X006166Y006914D02*
X021067Y006914D01*
X021225Y007073D02*
X006166Y007073D01*
X006166Y007231D02*
X021384Y007231D01*
X021542Y007390D02*
X006166Y007390D01*
X006166Y007548D02*
X021701Y007548D01*
X021859Y007707D02*
X006166Y007707D01*
X006166Y007865D02*
X007910Y007865D01*
X007751Y008024D02*
X006166Y008024D01*
X006166Y008182D02*
X007338Y008182D01*
X006934Y008341D02*
X006166Y008341D01*
X006166Y008499D02*
X006776Y008499D01*
X006617Y008658D02*
X006166Y008658D01*
X006166Y008816D02*
X006459Y008816D01*
X006356Y008975D02*
X006166Y008975D01*
X006166Y009133D02*
X006346Y009133D01*
X006346Y009292D02*
X006166Y009292D01*
X006166Y009450D02*
X006346Y009450D01*
X006346Y009609D02*
X006166Y009609D01*
X006166Y009767D02*
X006346Y009767D01*
X006346Y009926D02*
X006166Y009926D01*
X006166Y010084D02*
X006346Y010084D01*
X006346Y010243D02*
X006166Y010243D01*
X006166Y010401D02*
X006346Y010401D01*
X006346Y010560D02*
X006166Y010560D01*
X006166Y010718D02*
X006346Y010718D01*
X006346Y010877D02*
X006166Y010877D01*
X006166Y011035D02*
X006346Y011035D01*
X006346Y011194D02*
X006166Y011194D01*
X006166Y011352D02*
X006346Y011352D01*
X006346Y011511D02*
X006166Y011511D01*
X006166Y011669D02*
X006346Y011669D01*
X006346Y011828D02*
X006166Y011828D01*
X006166Y011986D02*
X006346Y011986D01*
X006346Y012145D02*
X006166Y012145D01*
X006166Y012303D02*
X006346Y012303D01*
X006346Y012462D02*
X006166Y012462D01*
X006166Y012620D02*
X006346Y012620D01*
X006346Y012779D02*
X006166Y012779D01*
X006166Y012937D02*
X006346Y012937D01*
X006346Y013096D02*
X006166Y013096D01*
X006166Y013254D02*
X006346Y013254D01*
X006346Y013413D02*
X006166Y013413D01*
X006166Y013571D02*
X006346Y013571D01*
X006346Y013730D02*
X006166Y013730D01*
X006166Y013888D02*
X006346Y013888D01*
X006346Y014047D02*
X006166Y014047D01*
X006166Y014205D02*
X006346Y014205D01*
X006346Y014364D02*
X006166Y014364D01*
X006166Y014522D02*
X006346Y014522D01*
X006346Y014681D02*
X006166Y014681D01*
X006166Y014839D02*
X006346Y014839D01*
X006346Y014998D02*
X006166Y014998D01*
X006166Y015156D02*
X006346Y015156D01*
X006346Y015315D02*
X006166Y015315D01*
X006166Y015473D02*
X006346Y015473D01*
X006346Y015632D02*
X006166Y015632D01*
X006166Y015790D02*
X006346Y015790D01*
X006346Y015949D02*
X006166Y015949D01*
X006166Y016107D02*
X006346Y016107D01*
X006346Y016266D02*
X006166Y016266D01*
X006166Y016424D02*
X006346Y016424D01*
X006346Y016583D02*
X006166Y016583D01*
X006166Y016741D02*
X006346Y016741D01*
X006346Y016900D02*
X006166Y016900D01*
X006166Y017058D02*
X006346Y017058D01*
X006346Y017217D02*
X006166Y017217D01*
X006166Y017375D02*
X006346Y017375D01*
X006346Y017534D02*
X006166Y017534D01*
X006166Y017692D02*
X006346Y017692D01*
X006346Y017851D02*
X006166Y017851D01*
X006166Y018009D02*
X006346Y018009D01*
X006346Y018168D02*
X006166Y018168D01*
X006166Y018326D02*
X006346Y018326D01*
X006346Y018485D02*
X006166Y018485D01*
X006166Y018643D02*
X006354Y018643D01*
X006454Y018802D02*
X006166Y018802D01*
X006166Y018960D02*
X006613Y018960D01*
X006771Y019119D02*
X006166Y019119D01*
X006166Y019277D02*
X006930Y019277D01*
X007088Y019436D02*
X006166Y019436D01*
X006166Y019594D02*
X007247Y019594D01*
X007324Y019753D02*
X007405Y019753D01*
X007666Y019561D02*
X010166Y019561D01*
X011666Y021061D01*
X021666Y021061D01*
X021138Y020741D02*
X021149Y020716D01*
X021321Y020544D01*
X021545Y020451D01*
X021787Y020451D01*
X022012Y020544D01*
X022166Y020699D01*
X022321Y020544D01*
X022545Y020451D01*
X022787Y020451D01*
X023012Y020544D01*
X023166Y020699D01*
X023321Y020544D01*
X023545Y020451D01*
X023787Y020451D01*
X024012Y020544D01*
X024166Y020699D01*
X024321Y020544D01*
X024545Y020451D01*
X024787Y020451D01*
X025012Y020544D01*
X025166Y020699D01*
X025321Y020544D01*
X025545Y020451D01*
X025787Y020451D01*
X026012Y020544D01*
X026166Y020699D01*
X026321Y020544D01*
X026545Y020451D01*
X026787Y020451D01*
X027012Y020544D01*
X027166Y020699D01*
X027321Y020544D01*
X027545Y020451D01*
X027787Y020451D01*
X028012Y020544D01*
X028166Y020699D01*
X028321Y020544D01*
X028545Y020451D01*
X028787Y020451D01*
X029012Y020544D01*
X029166Y020699D01*
X029321Y020544D01*
X029545Y020451D01*
X029787Y020451D01*
X030012Y020544D01*
X030166Y020699D01*
X030321Y020544D01*
X030545Y020451D01*
X030787Y020451D01*
X030813Y020462D01*
X031346Y019929D01*
X031346Y017948D01*
X031242Y017845D01*
X031166Y017661D01*
X031090Y017845D01*
X030949Y017985D01*
X030766Y018061D01*
X030047Y018061D01*
X029863Y017985D01*
X029722Y017845D01*
X029646Y017661D01*
X029646Y017462D01*
X029680Y017381D01*
X028653Y017381D01*
X028686Y017462D01*
X028686Y017661D01*
X028610Y017845D01*
X028469Y017985D01*
X028286Y018061D01*
X027567Y018061D01*
X027383Y017985D01*
X027242Y017845D01*
X027166Y017661D01*
X027090Y017845D01*
X026949Y017985D01*
X026766Y018061D01*
X026047Y018061D01*
X025863Y017985D01*
X025722Y017845D01*
X025646Y017661D01*
X025646Y017462D01*
X025680Y017381D01*
X024653Y017381D01*
X024686Y017462D01*
X024686Y017661D01*
X024610Y017845D01*
X024469Y017985D01*
X024286Y018061D01*
X023567Y018061D01*
X023383Y017985D01*
X023242Y017845D01*
X023166Y017661D01*
X023090Y017845D01*
X022949Y017985D01*
X022766Y018061D01*
X022047Y018061D01*
X021863Y017985D01*
X021722Y017845D01*
X021646Y017661D01*
X021646Y017462D01*
X021680Y017381D01*
X020653Y017381D01*
X020686Y017462D01*
X020686Y017661D01*
X020610Y017845D01*
X020469Y017985D01*
X020286Y018061D01*
X019567Y018061D01*
X019383Y017985D01*
X019242Y017845D01*
X019166Y017661D01*
X019090Y017845D01*
X018949Y017985D01*
X018766Y018061D01*
X018047Y018061D01*
X017863Y017985D01*
X017722Y017845D01*
X017646Y017661D01*
X017646Y017462D01*
X017680Y017381D01*
X016653Y017381D01*
X016686Y017462D01*
X016686Y017661D01*
X016610Y017845D01*
X016469Y017985D01*
X016286Y018061D01*
X015567Y018061D01*
X015383Y017985D01*
X015242Y017845D01*
X015166Y017661D01*
X015090Y017845D01*
X014949Y017985D01*
X014766Y018061D01*
X014047Y018061D01*
X013863Y017985D01*
X013722Y017845D01*
X013646Y017661D01*
X013646Y017462D01*
X013680Y017381D01*
X012653Y017381D01*
X012686Y017462D01*
X012686Y017661D01*
X012610Y017845D01*
X012469Y017985D01*
X012286Y018061D01*
X011567Y018061D01*
X011383Y017985D01*
X011242Y017845D01*
X011166Y017661D01*
X011090Y017845D01*
X010949Y017985D01*
X010766Y018061D01*
X010047Y018061D01*
X009863Y017985D01*
X009722Y017845D01*
X009646Y017661D01*
X009646Y017462D01*
X009680Y017381D01*
X008653Y017381D01*
X008686Y017462D01*
X008686Y017661D01*
X008610Y017845D01*
X008469Y017985D01*
X008286Y018061D01*
X007567Y018061D01*
X007383Y017985D01*
X007242Y017845D01*
X007166Y017661D01*
X007166Y017462D01*
X007242Y017278D01*
X007383Y017137D01*
X007567Y017061D01*
X007383Y016985D01*
X007242Y016845D01*
X007166Y016661D01*
X007166Y016462D01*
X007242Y016278D01*
X007383Y016137D01*
X007567Y016061D01*
X007383Y015985D01*
X007242Y015845D01*
X007166Y015661D01*
X007166Y015462D01*
X007242Y015278D01*
X007383Y015137D01*
X007567Y015061D01*
X007714Y015061D01*
X007714Y015061D01*
X007567Y015061D01*
X007383Y014985D01*
X007242Y014845D01*
X007166Y014661D01*
X007166Y014462D01*
X007242Y014278D01*
X007383Y014137D01*
X007567Y014061D01*
X007383Y013985D01*
X007242Y013845D01*
X007166Y013661D01*
X007166Y013462D01*
X007242Y013278D01*
X007383Y013137D01*
X007567Y013061D01*
X007383Y012985D01*
X007242Y012845D01*
X007166Y012661D01*
X007166Y012462D01*
X007242Y012278D01*
X007383Y012137D01*
X007567Y012061D01*
X007383Y011985D01*
X007242Y011845D01*
X007166Y011661D01*
X007166Y011462D01*
X007242Y011278D01*
X007383Y011137D01*
X007567Y011061D01*
X007383Y010985D01*
X007242Y010845D01*
X007166Y010661D01*
X007166Y010462D01*
X007242Y010278D01*
X007383Y010137D01*
X007567Y010061D01*
X007383Y009985D01*
X007242Y009845D01*
X007166Y009661D01*
X007166Y009462D01*
X007242Y009278D01*
X007383Y009137D01*
X007567Y009061D01*
X007383Y008985D01*
X007289Y008891D01*
X006986Y009194D01*
X006986Y018429D01*
X007799Y019241D01*
X010230Y019241D01*
X010347Y019290D01*
X011799Y020741D01*
X021138Y020741D01*
X021161Y020704D02*
X011761Y020704D01*
X011603Y020545D02*
X021319Y020545D01*
X022013Y020545D02*
X022319Y020545D01*
X023013Y020545D02*
X023319Y020545D01*
X024013Y020545D02*
X024319Y020545D01*
X025013Y020545D02*
X025319Y020545D01*
X026013Y020545D02*
X026319Y020545D01*
X027013Y020545D02*
X027319Y020545D01*
X028013Y020545D02*
X028319Y020545D01*
X029013Y020545D02*
X029319Y020545D01*
X030013Y020545D02*
X030319Y020545D01*
X030888Y020387D02*
X011444Y020387D01*
X011286Y020228D02*
X031047Y020228D01*
X031205Y020070D02*
X011127Y020070D01*
X010969Y019911D02*
X031346Y019911D01*
X031346Y019753D02*
X010810Y019753D01*
X010652Y019594D02*
X031346Y019594D01*
X031346Y019436D02*
X010493Y019436D01*
X010317Y019277D02*
X031346Y019277D01*
X031346Y019119D02*
X007676Y019119D01*
X007518Y018960D02*
X031346Y018960D01*
X031346Y018802D02*
X007359Y018802D01*
X007201Y018643D02*
X031346Y018643D01*
X031346Y018485D02*
X007042Y018485D01*
X006986Y018326D02*
X031346Y018326D01*
X031346Y018168D02*
X006986Y018168D01*
X006986Y018009D02*
X007441Y018009D01*
X007249Y017851D02*
X006986Y017851D01*
X006986Y017692D02*
X007179Y017692D01*
X007166Y017534D02*
X006986Y017534D01*
X006986Y017375D02*
X007202Y017375D01*
X007304Y017217D02*
X006986Y017217D01*
X006986Y017058D02*
X007559Y017058D01*
X007567Y017061D02*
X007714Y017061D01*
X007714Y017061D01*
X007567Y017061D01*
X007298Y016900D02*
X006986Y016900D01*
X006986Y016741D02*
X007200Y016741D01*
X007166Y016583D02*
X006986Y016583D01*
X006986Y016424D02*
X007182Y016424D01*
X007255Y016266D02*
X006986Y016266D01*
X006986Y016107D02*
X007456Y016107D01*
X007567Y016061D02*
X007714Y016061D01*
X007714Y016061D01*
X007567Y016061D01*
X007347Y015949D02*
X006986Y015949D01*
X006986Y015790D02*
X007220Y015790D01*
X007166Y015632D02*
X006986Y015632D01*
X006986Y015473D02*
X007166Y015473D01*
X007227Y015315D02*
X006986Y015315D01*
X006986Y015156D02*
X007364Y015156D01*
X007413Y014998D02*
X006986Y014998D01*
X006986Y014839D02*
X007240Y014839D01*
X007174Y014681D02*
X006986Y014681D01*
X006986Y014522D02*
X007166Y014522D01*
X007207Y014364D02*
X006986Y014364D01*
X006986Y014205D02*
X007315Y014205D01*
X007532Y014047D02*
X006986Y014047D01*
X006986Y013888D02*
X007286Y013888D01*
X007195Y013730D02*
X006986Y013730D01*
X006986Y013571D02*
X007166Y013571D01*
X007186Y013413D02*
X006986Y013413D01*
X006986Y013254D02*
X007266Y013254D01*
X007483Y013096D02*
X006986Y013096D01*
X006986Y012937D02*
X007335Y012937D01*
X007215Y012779D02*
X006986Y012779D01*
X006986Y012620D02*
X007166Y012620D01*
X007166Y012462D02*
X006986Y012462D01*
X006986Y012303D02*
X007232Y012303D01*
X007376Y012145D02*
X006986Y012145D01*
X006986Y011986D02*
X007386Y011986D01*
X007567Y012061D02*
X007714Y012061D01*
X007714Y012061D01*
X007567Y012061D01*
X007235Y011828D02*
X006986Y011828D01*
X006986Y011669D02*
X007170Y011669D01*
X007166Y011511D02*
X006986Y011511D01*
X006986Y011352D02*
X007212Y011352D01*
X007327Y011194D02*
X006986Y011194D01*
X006986Y011035D02*
X007504Y011035D01*
X007567Y011061D02*
X007714Y011061D01*
X007714Y011061D01*
X007567Y011061D01*
X007275Y010877D02*
X006986Y010877D01*
X006986Y010718D02*
X007190Y010718D01*
X007166Y010560D02*
X006986Y010560D01*
X006986Y010401D02*
X007191Y010401D01*
X007278Y010243D02*
X006986Y010243D01*
X006986Y010084D02*
X007511Y010084D01*
X007567Y010061D02*
X007714Y010061D01*
X007714Y010061D01*
X007567Y010061D01*
X007324Y009926D02*
X006986Y009926D01*
X006986Y009767D02*
X007210Y009767D01*
X007166Y009609D02*
X006986Y009609D01*
X006986Y009450D02*
X007171Y009450D01*
X007237Y009292D02*
X006986Y009292D01*
X007047Y009133D02*
X007393Y009133D01*
X007373Y008975D02*
X007205Y008975D01*
X007567Y009061D02*
X007714Y009061D01*
X007714Y009061D01*
X007567Y009061D01*
X007666Y009561D02*
X008166Y009061D01*
X011166Y009061D01*
X011666Y009561D01*
X012166Y009061D01*
X015166Y009061D01*
X015666Y009561D01*
X016166Y009061D01*
X019166Y009061D01*
X019666Y009561D01*
X020166Y009061D01*
X023166Y009061D01*
X023666Y009561D01*
X024166Y009061D01*
X027166Y009061D01*
X027666Y009561D01*
X028166Y009061D01*
X031166Y009061D01*
X031666Y009561D01*
X031200Y009741D02*
X031166Y009661D01*
X031133Y009741D01*
X031200Y009741D01*
X031166Y009661D02*
X031166Y009514D01*
X031166Y009514D01*
X031166Y009661D01*
X031166Y009609D02*
X031166Y009609D01*
X031166Y010061D02*
X031666Y010561D01*
X031166Y010560D02*
X031166Y010560D01*
X031166Y010514D02*
X031166Y010661D01*
X031133Y010741D01*
X031200Y010741D01*
X031166Y010661D01*
X031166Y010514D01*
X031166Y010514D01*
X031142Y010718D02*
X031190Y010718D01*
X031166Y011061D02*
X031666Y011561D01*
X031200Y011741D02*
X031166Y011661D01*
X031133Y011741D01*
X031200Y011741D01*
X031170Y011669D02*
X031163Y011669D01*
X031166Y011661D02*
X031166Y011514D01*
X031166Y011514D01*
X031166Y011661D01*
X031166Y012061D02*
X031666Y012561D01*
X031200Y012741D02*
X031166Y012661D01*
X031133Y012741D01*
X031200Y012741D01*
X031166Y012661D02*
X031166Y012514D01*
X031166Y012514D01*
X031166Y012661D01*
X031166Y012620D02*
X031166Y012620D01*
X031166Y013061D02*
X031666Y013561D01*
X031166Y013571D02*
X031166Y013571D01*
X031166Y013514D02*
X031166Y013514D01*
X031166Y013661D01*
X031133Y013741D01*
X031200Y013741D01*
X031166Y013661D01*
X031166Y013514D01*
X031138Y013730D02*
X031195Y013730D01*
X031166Y014061D02*
X031666Y014561D01*
X031200Y014741D02*
X031166Y014661D01*
X031133Y014741D01*
X031200Y014741D01*
X031174Y014681D02*
X031158Y014681D01*
X031166Y014661D02*
X031166Y014514D01*
X031166Y014514D01*
X031166Y014661D01*
X031166Y014522D02*
X031166Y014522D01*
X031166Y014061D02*
X028166Y014061D01*
X027666Y014561D01*
X027166Y014061D01*
X024166Y014061D01*
X023666Y014561D01*
X023166Y014061D01*
X020166Y014061D01*
X019666Y014561D01*
X019166Y014061D01*
X016166Y014061D01*
X015666Y014561D01*
X015166Y014061D01*
X012166Y014061D01*
X011666Y014561D01*
X011166Y014061D01*
X008166Y014061D01*
X007666Y014561D01*
X007714Y014061D02*
X007714Y014061D01*
X007567Y014061D01*
X007714Y014061D01*
X007666Y013561D02*
X008166Y013061D01*
X011166Y013061D01*
X011666Y013561D01*
X012166Y013061D01*
X015166Y013061D01*
X015666Y013561D01*
X016166Y013061D01*
X019166Y013061D01*
X019666Y013561D01*
X020166Y013061D01*
X023166Y013061D01*
X023666Y013561D01*
X024166Y013061D01*
X027166Y013061D01*
X027666Y013561D01*
X028166Y013061D01*
X031166Y013061D01*
X031619Y013061D02*
X031619Y013061D01*
X032286Y013061D01*
X031619Y013061D01*
X032369Y013096D02*
X033963Y013096D01*
X034047Y013061D02*
X033863Y012985D01*
X033722Y012845D01*
X033646Y012661D01*
X033646Y012462D01*
X033722Y012278D01*
X033863Y012137D01*
X034047Y012061D01*
X033863Y011985D01*
X033722Y011845D01*
X033646Y011661D01*
X033646Y011462D01*
X033722Y011278D01*
X033863Y011137D01*
X034047Y011061D01*
X033863Y010985D01*
X033722Y010845D01*
X033646Y010661D01*
X033646Y010462D01*
X033722Y010278D01*
X033863Y010137D01*
X034047Y010061D01*
X034766Y010061D01*
X034949Y010137D01*
X035090Y010278D01*
X035166Y010462D01*
X035166Y010661D01*
X035090Y010845D01*
X034949Y010985D01*
X034766Y011061D01*
X034047Y011061D01*
X034766Y011061D01*
X034949Y011137D01*
X035090Y011278D01*
X035166Y011462D01*
X035166Y011661D01*
X035090Y011845D01*
X034949Y011985D01*
X034766Y012061D01*
X034047Y012061D01*
X034766Y012061D01*
X034949Y012137D01*
X035090Y012278D01*
X035166Y012462D01*
X035166Y012661D01*
X035090Y012845D01*
X034949Y012985D01*
X034766Y013061D01*
X034047Y013061D01*
X033863Y013137D01*
X033722Y013278D01*
X033646Y013462D01*
X033646Y013661D01*
X033722Y013845D01*
X033863Y013985D01*
X034047Y014061D01*
X034766Y014061D01*
X034949Y013985D01*
X035090Y013845D01*
X035166Y013661D01*
X035166Y013462D01*
X035090Y013278D01*
X034949Y013137D01*
X034766Y013061D01*
X034047Y013061D01*
X033815Y012937D02*
X032517Y012937D01*
X032637Y012779D02*
X033695Y012779D01*
X033646Y012620D02*
X032686Y012620D01*
X032686Y012462D02*
X033646Y012462D01*
X033712Y012303D02*
X032620Y012303D01*
X032477Y012145D02*
X033856Y012145D01*
X033866Y011986D02*
X032467Y011986D01*
X032286Y012061D02*
X031619Y012061D01*
X031619Y012061D01*
X032286Y012061D01*
X032617Y011828D02*
X033715Y011828D01*
X033650Y011669D02*
X032683Y011669D01*
X032686Y011511D02*
X033646Y011511D01*
X033692Y011352D02*
X032641Y011352D01*
X032526Y011194D02*
X033807Y011194D01*
X033984Y011035D02*
X032348Y011035D01*
X032286Y011061D02*
X031619Y011061D01*
X032286Y011061D01*
X032578Y010877D02*
X033755Y010877D01*
X033670Y010718D02*
X032662Y010718D01*
X032686Y010560D02*
X033646Y010560D01*
X033671Y010401D02*
X032661Y010401D01*
X032575Y010243D02*
X033758Y010243D01*
X033991Y010084D02*
X032341Y010084D01*
X032286Y010061D02*
X031619Y010061D01*
X031619Y010061D01*
X032286Y010061D01*
X032529Y009926D02*
X033804Y009926D01*
X033690Y009767D02*
X032642Y009767D01*
X032686Y009609D02*
X033646Y009609D01*
X033651Y009450D02*
X032681Y009450D01*
X032616Y009292D02*
X033717Y009292D01*
X033873Y009133D02*
X032459Y009133D01*
X032480Y008975D02*
X033853Y008975D01*
X034047Y009061D02*
X034766Y009061D01*
X034047Y009061D01*
X033711Y008816D02*
X032622Y008816D01*
X032686Y008658D02*
X033646Y008658D01*
X033646Y008499D02*
X032686Y008499D01*
X032636Y008341D02*
X033696Y008341D01*
X033818Y008182D02*
X032514Y008182D01*
X031666Y008561D02*
X031166Y008061D01*
X028166Y008061D01*
X027666Y008561D01*
X027166Y008061D01*
X024166Y008061D01*
X023666Y008561D01*
X023166Y008061D01*
X020166Y008061D01*
X019666Y008561D01*
X019166Y008061D01*
X016166Y008061D01*
X015666Y008561D01*
X015166Y008061D01*
X012166Y008061D01*
X011666Y008561D01*
X011166Y008061D01*
X008166Y008061D01*
X007666Y008561D01*
X007166Y008561D01*
X006666Y009061D01*
X006666Y018561D01*
X007666Y019561D01*
X007716Y019911D02*
X010064Y019911D01*
X010222Y020070D02*
X007940Y020070D01*
X008091Y020228D02*
X010381Y020228D01*
X010539Y020387D02*
X008206Y020387D01*
X008288Y020545D02*
X010698Y020545D01*
X010856Y020704D02*
X008351Y020704D01*
X008385Y020862D02*
X011015Y020862D01*
X011173Y021021D02*
X008407Y021021D01*
X008414Y021179D02*
X011332Y021179D01*
X011498Y021338D02*
X008414Y021338D01*
X008414Y021496D02*
X021238Y021496D01*
X021505Y021655D02*
X008414Y021655D01*
X008414Y021813D02*
X033918Y021813D01*
X033918Y021655D02*
X030827Y021655D01*
X031094Y021496D02*
X033918Y021496D01*
X033918Y021338D02*
X031212Y021338D01*
X031276Y021179D02*
X033918Y021179D01*
X033926Y021021D02*
X031276Y021021D01*
X031318Y020862D02*
X033947Y020862D01*
X033981Y020704D02*
X031476Y020704D01*
X031635Y020545D02*
X034044Y020545D01*
X034126Y020387D02*
X031793Y020387D01*
X031943Y020228D02*
X034241Y020228D01*
X034392Y020070D02*
X031986Y020070D01*
X031986Y019911D02*
X034616Y019911D01*
X035009Y019753D02*
X031986Y019753D01*
X031986Y019594D02*
X036166Y019594D01*
X036166Y019436D02*
X031986Y019436D01*
X031986Y019277D02*
X036166Y019277D01*
X036166Y019119D02*
X031986Y019119D01*
X031986Y018960D02*
X036166Y018960D01*
X036166Y018802D02*
X031986Y018802D01*
X031986Y018643D02*
X036166Y018643D01*
X036166Y018485D02*
X031986Y018485D01*
X031986Y018326D02*
X036166Y018326D01*
X036166Y018168D02*
X031986Y018168D01*
X032411Y018009D02*
X033921Y018009D01*
X033863Y017985D02*
X033722Y017845D01*
X033646Y017661D01*
X033646Y017462D01*
X033722Y017278D01*
X033863Y017137D01*
X034047Y017061D01*
X033863Y016985D01*
X033722Y016845D01*
X033646Y016661D01*
X033646Y016462D01*
X033722Y016278D01*
X033863Y016137D01*
X034047Y016061D01*
X033863Y015985D01*
X033722Y015845D01*
X033646Y015661D01*
X033646Y015462D01*
X033722Y015278D01*
X033863Y015137D01*
X034047Y015061D01*
X033863Y014985D01*
X033722Y014845D01*
X033646Y014661D01*
X033646Y014462D01*
X033722Y014278D01*
X033863Y014137D01*
X034047Y014061D01*
X034766Y014061D01*
X034949Y014137D01*
X035090Y014278D01*
X035166Y014462D01*
X035166Y014661D01*
X035090Y014845D01*
X034949Y014985D01*
X034766Y015061D01*
X034047Y015061D01*
X034766Y015061D01*
X034949Y015137D01*
X035090Y015278D01*
X035166Y015462D01*
X035166Y015661D01*
X035090Y015845D01*
X034949Y015985D01*
X034766Y016061D01*
X034047Y016061D01*
X034766Y016061D01*
X034949Y016137D01*
X035090Y016278D01*
X035166Y016462D01*
X035166Y016661D01*
X035090Y016845D01*
X034949Y016985D01*
X034766Y017061D01*
X034047Y017061D01*
X034766Y017061D01*
X034949Y017137D01*
X035090Y017278D01*
X035166Y017462D01*
X035166Y017661D01*
X035090Y017845D01*
X034949Y017985D01*
X034766Y018061D01*
X034047Y018061D01*
X033863Y017985D01*
X033729Y017851D02*
X032604Y017851D01*
X032673Y017692D02*
X033659Y017692D01*
X033646Y017534D02*
X032686Y017534D01*
X032650Y017375D02*
X033682Y017375D01*
X033784Y017217D02*
X032549Y017217D01*
X032293Y017058D02*
X034039Y017058D01*
X033778Y016900D02*
X032555Y016900D01*
X032653Y016741D02*
X033680Y016741D01*
X033646Y016583D02*
X032686Y016583D01*
X032671Y016424D02*
X033662Y016424D01*
X033735Y016266D02*
X032598Y016266D01*
X032397Y016107D02*
X033936Y016107D01*
X033827Y015949D02*
X032506Y015949D01*
X032632Y015790D02*
X033700Y015790D01*
X033646Y015632D02*
X032686Y015632D01*
X032686Y015473D02*
X033646Y015473D01*
X033707Y015315D02*
X032625Y015315D01*
X032488Y015156D02*
X033844Y015156D01*
X033893Y014998D02*
X032439Y014998D01*
X032286Y015061D02*
X031619Y015061D01*
X031619Y015061D01*
X032286Y015061D01*
X032612Y014839D02*
X033720Y014839D01*
X033654Y014681D02*
X032678Y014681D01*
X032686Y014522D02*
X033646Y014522D01*
X033687Y014364D02*
X032646Y014364D01*
X032537Y014205D02*
X033795Y014205D01*
X034012Y014047D02*
X032321Y014047D01*
X032286Y014061D02*
X031619Y014061D01*
X032286Y014061D01*
X032566Y013888D02*
X033766Y013888D01*
X033675Y013730D02*
X032658Y013730D01*
X032686Y013571D02*
X033646Y013571D01*
X033666Y013413D02*
X032666Y013413D01*
X032586Y013254D02*
X033746Y013254D01*
X034849Y013096D02*
X036166Y013096D01*
X036166Y013254D02*
X035066Y013254D01*
X035146Y013413D02*
X036166Y013413D01*
X036166Y013571D02*
X035166Y013571D01*
X035138Y013730D02*
X036166Y013730D01*
X036166Y013888D02*
X035046Y013888D01*
X034801Y014047D02*
X036166Y014047D01*
X036166Y014205D02*
X035017Y014205D01*
X035126Y014364D02*
X036166Y014364D01*
X036166Y014522D02*
X035166Y014522D01*
X035158Y014681D02*
X036166Y014681D01*
X036166Y014839D02*
X035092Y014839D01*
X034919Y014998D02*
X036166Y014998D01*
X036166Y015156D02*
X034968Y015156D01*
X035105Y015315D02*
X036166Y015315D01*
X036166Y015473D02*
X035166Y015473D01*
X035166Y015632D02*
X036166Y015632D01*
X036166Y015790D02*
X035112Y015790D01*
X034986Y015949D02*
X036166Y015949D01*
X036166Y016107D02*
X034877Y016107D01*
X035078Y016266D02*
X036166Y016266D01*
X036166Y016424D02*
X035151Y016424D01*
X035166Y016583D02*
X036166Y016583D01*
X036166Y016741D02*
X035133Y016741D01*
X035035Y016900D02*
X036166Y016900D01*
X036166Y017058D02*
X034773Y017058D01*
X035029Y017217D02*
X036166Y017217D01*
X036166Y017375D02*
X035130Y017375D01*
X035166Y017534D02*
X036166Y017534D01*
X036166Y017692D02*
X035153Y017692D01*
X035084Y017851D02*
X036166Y017851D01*
X036166Y018009D02*
X034891Y018009D01*
X032286Y017061D02*
X031619Y017061D01*
X031619Y017061D01*
X032286Y017061D01*
X031666Y016561D02*
X031166Y016061D01*
X028166Y016061D01*
X027666Y016561D01*
X027166Y016061D01*
X024166Y016061D01*
X023666Y016561D01*
X023166Y016061D01*
X020166Y016061D01*
X019666Y016561D01*
X019166Y016061D01*
X016166Y016061D01*
X015666Y016561D01*
X015166Y016061D01*
X012166Y016061D01*
X011666Y016561D01*
X011166Y016061D01*
X008166Y016061D01*
X007666Y016561D01*
X008166Y017061D02*
X011166Y017061D01*
X011666Y017561D01*
X012166Y017061D01*
X015166Y017061D01*
X015666Y017561D01*
X016166Y017061D01*
X019166Y017061D01*
X019666Y017561D01*
X020166Y017061D01*
X023166Y017061D01*
X023666Y017561D01*
X024166Y017061D01*
X027166Y017061D01*
X027666Y017561D01*
X028166Y017061D01*
X031166Y017061D01*
X031666Y017561D01*
X031666Y020061D01*
X030666Y021061D01*
X030238Y021496D02*
X030094Y021496D01*
X029827Y021655D02*
X030505Y021655D01*
X029505Y021655D02*
X028827Y021655D01*
X029094Y021496D02*
X029238Y021496D01*
X028505Y021655D02*
X027827Y021655D01*
X028094Y021496D02*
X028238Y021496D01*
X027505Y021655D02*
X026827Y021655D01*
X027094Y021496D02*
X027238Y021496D01*
X026505Y021655D02*
X025827Y021655D01*
X026094Y021496D02*
X026238Y021496D01*
X025505Y021655D02*
X024827Y021655D01*
X025094Y021496D02*
X025238Y021496D01*
X024505Y021655D02*
X023827Y021655D01*
X024094Y021496D02*
X024238Y021496D01*
X023505Y021655D02*
X022827Y021655D01*
X023094Y021496D02*
X023238Y021496D01*
X022505Y021655D02*
X021827Y021655D01*
X022094Y021496D02*
X022238Y021496D01*
X021921Y018009D02*
X020411Y018009D01*
X020604Y017851D02*
X021729Y017851D01*
X021659Y017692D02*
X020673Y017692D01*
X020686Y017534D02*
X021646Y017534D01*
X021680Y016741D02*
X020653Y016741D01*
X020686Y016661D01*
X020686Y016462D01*
X020653Y016381D01*
X021680Y016381D01*
X021646Y016462D01*
X021646Y016661D01*
X021680Y016741D01*
X021646Y016583D02*
X020686Y016583D01*
X020671Y016424D02*
X021662Y016424D01*
X021680Y015741D02*
X020653Y015741D01*
X020686Y015661D01*
X020686Y015462D01*
X020653Y015381D01*
X021680Y015381D01*
X021646Y015462D01*
X021646Y015661D01*
X021680Y015741D01*
X021646Y015632D02*
X020686Y015632D01*
X020686Y015473D02*
X021646Y015473D01*
X021680Y014741D02*
X020653Y014741D01*
X020686Y014661D01*
X020686Y014462D01*
X020653Y014381D01*
X021680Y014381D01*
X021646Y014462D01*
X021646Y014661D01*
X021680Y014741D01*
X021654Y014681D02*
X020678Y014681D01*
X020686Y014522D02*
X021646Y014522D01*
X021680Y013741D02*
X020653Y013741D01*
X020686Y013661D01*
X020686Y013462D01*
X020653Y013381D01*
X021680Y013381D01*
X021646Y013462D01*
X021646Y013661D01*
X021680Y013741D01*
X021675Y013730D02*
X020658Y013730D01*
X020686Y013571D02*
X021646Y013571D01*
X021666Y013413D02*
X020666Y013413D01*
X019714Y013061D02*
X019619Y013061D01*
X019714Y013061D01*
X019714Y013061D01*
X019619Y013061D02*
X019619Y013061D01*
X019666Y012561D02*
X020166Y012061D01*
X023166Y012061D01*
X023666Y012561D01*
X024166Y012061D01*
X027166Y012061D01*
X027666Y012561D01*
X028166Y012061D01*
X031166Y012061D01*
X031166Y011061D02*
X028166Y011061D01*
X027666Y011561D01*
X027166Y011061D01*
X024166Y011061D01*
X023666Y011561D01*
X023166Y011061D01*
X020166Y011061D01*
X019666Y011561D01*
X019166Y011061D01*
X016166Y011061D01*
X015666Y011561D01*
X015166Y011061D01*
X012166Y011061D01*
X011666Y011561D01*
X011166Y011061D01*
X008166Y011061D01*
X007666Y011561D01*
X008166Y012061D02*
X011166Y012061D01*
X011666Y012561D01*
X012166Y012061D01*
X015166Y012061D01*
X015666Y012561D01*
X016166Y012061D01*
X019166Y012061D01*
X019666Y012561D01*
X019200Y012741D02*
X019166Y012661D01*
X019133Y012741D01*
X019200Y012741D01*
X019166Y012661D02*
X019166Y012514D01*
X019166Y012514D01*
X019166Y012661D01*
X019166Y012620D02*
X019166Y012620D01*
X019619Y012061D02*
X019714Y012061D01*
X019714Y012061D01*
X019619Y012061D01*
X019619Y012061D01*
X019200Y011741D02*
X019166Y011661D01*
X019133Y011741D01*
X019200Y011741D01*
X019170Y011669D02*
X019163Y011669D01*
X019166Y011661D02*
X019166Y011514D01*
X019166Y011514D01*
X019166Y011661D01*
X019619Y011061D02*
X019714Y011061D01*
X019714Y011061D01*
X019619Y011061D01*
X019619Y011061D01*
X019666Y010561D02*
X020166Y010061D01*
X023166Y010061D01*
X023666Y010561D01*
X024166Y010061D01*
X027166Y010061D01*
X027666Y010561D01*
X028166Y010061D01*
X031166Y010061D01*
X029680Y009741D02*
X029646Y009661D01*
X029646Y009462D01*
X029680Y009381D01*
X028653Y009381D01*
X028686Y009462D01*
X028686Y009661D01*
X028653Y009741D01*
X029680Y009741D01*
X029646Y009609D02*
X028686Y009609D01*
X028681Y009450D02*
X029651Y009450D01*
X029680Y008741D02*
X029646Y008661D01*
X029646Y008462D01*
X029680Y008381D01*
X028653Y008381D01*
X028686Y008462D01*
X028686Y008661D01*
X028653Y008741D01*
X029680Y008741D01*
X029646Y008658D02*
X028686Y008658D01*
X028686Y008499D02*
X029646Y008499D01*
X031133Y008741D02*
X031166Y008661D01*
X031166Y008514D01*
X031166Y008514D01*
X031166Y008661D01*
X031200Y008741D01*
X031133Y008741D01*
X031166Y008658D02*
X031166Y008658D01*
X031619Y009061D02*
X031619Y009061D01*
X032286Y009061D01*
X031619Y009061D01*
X031581Y008024D02*
X033676Y008024D01*
X033666Y007561D02*
X022166Y007561D01*
X021680Y008381D02*
X020653Y008381D01*
X020686Y008462D01*
X020686Y008661D01*
X020653Y008741D01*
X021680Y008741D01*
X021646Y008661D01*
X021646Y008462D01*
X021680Y008381D01*
X021646Y008499D02*
X020686Y008499D01*
X020686Y008658D02*
X021646Y008658D01*
X021680Y009381D02*
X020653Y009381D01*
X020686Y009462D01*
X020686Y009661D01*
X020653Y009741D01*
X021680Y009741D01*
X021646Y009661D01*
X021646Y009462D01*
X021680Y009381D01*
X021651Y009450D02*
X020681Y009450D01*
X020686Y009609D02*
X021646Y009609D01*
X021680Y010381D02*
X020653Y010381D01*
X020686Y010462D01*
X020686Y010661D01*
X020653Y010741D01*
X021680Y010741D01*
X021646Y010661D01*
X021646Y010462D01*
X021680Y010381D01*
X021671Y010401D02*
X020661Y010401D01*
X020686Y010560D02*
X021646Y010560D01*
X021670Y010718D02*
X020662Y010718D01*
X019666Y010561D02*
X019166Y010061D01*
X016166Y010061D01*
X015666Y010561D01*
X015166Y010061D01*
X012166Y010061D01*
X011666Y010561D01*
X011166Y010061D01*
X008166Y010061D01*
X007666Y010561D01*
X008653Y010381D02*
X008686Y010462D01*
X008686Y010661D01*
X008653Y010741D01*
X009680Y010741D01*
X009646Y010661D01*
X009646Y010462D01*
X009680Y010381D01*
X008653Y010381D01*
X008661Y010401D02*
X009671Y010401D01*
X009646Y010560D02*
X008686Y010560D01*
X008662Y010718D02*
X009670Y010718D01*
X009680Y011381D02*
X008653Y011381D01*
X008686Y011462D01*
X008686Y011661D01*
X008653Y011741D01*
X009680Y011741D01*
X009646Y011661D01*
X009646Y011462D01*
X009680Y011381D01*
X009646Y011511D02*
X008686Y011511D01*
X008683Y011669D02*
X009650Y011669D01*
X009680Y012381D02*
X008653Y012381D01*
X008686Y012462D01*
X008686Y012661D01*
X008653Y012741D01*
X009680Y012741D01*
X009646Y012661D01*
X009646Y012462D01*
X009680Y012381D01*
X009646Y012462D02*
X008686Y012462D01*
X008686Y012620D02*
X009646Y012620D01*
X009680Y013381D02*
X008653Y013381D01*
X008686Y013462D01*
X008686Y013661D01*
X008653Y013741D01*
X009680Y013741D01*
X009646Y013661D01*
X009646Y013462D01*
X009680Y013381D01*
X009666Y013413D02*
X008666Y013413D01*
X008686Y013571D02*
X009646Y013571D01*
X009675Y013730D02*
X008658Y013730D01*
X008653Y014381D02*
X008686Y014462D01*
X008686Y014661D01*
X008653Y014741D01*
X009680Y014741D01*
X009646Y014661D01*
X009646Y014462D01*
X009680Y014381D01*
X008653Y014381D01*
X008686Y014522D02*
X009646Y014522D01*
X009654Y014681D02*
X008678Y014681D01*
X008166Y015061D02*
X011166Y015061D01*
X011666Y015561D01*
X012166Y015061D01*
X015166Y015061D01*
X015666Y015561D01*
X016166Y015061D01*
X019166Y015061D01*
X019666Y015561D01*
X020166Y015061D01*
X023166Y015061D01*
X023666Y015561D01*
X024166Y015061D01*
X027166Y015061D01*
X027666Y015561D01*
X028166Y015061D01*
X031166Y015061D01*
X031666Y015561D01*
X031200Y015741D02*
X031166Y015661D01*
X031166Y015514D01*
X031166Y015514D01*
X031166Y015661D01*
X031133Y015741D01*
X031200Y015741D01*
X031166Y015632D02*
X031166Y015632D01*
X031619Y016061D02*
X031619Y016061D01*
X032286Y016061D01*
X031619Y016061D01*
X031166Y016514D02*
X031166Y016661D01*
X031133Y016741D01*
X031200Y016741D01*
X031166Y016661D01*
X031166Y016514D01*
X031166Y016514D01*
X031166Y016583D02*
X031166Y016583D01*
X029680Y016741D02*
X029646Y016661D01*
X029646Y016462D01*
X029680Y016381D01*
X028653Y016381D01*
X028686Y016462D01*
X028686Y016661D01*
X028653Y016741D01*
X029680Y016741D01*
X029646Y016583D02*
X028686Y016583D01*
X028671Y016424D02*
X029662Y016424D01*
X029680Y015741D02*
X029646Y015661D01*
X029646Y015462D01*
X029680Y015381D01*
X028653Y015381D01*
X028686Y015462D01*
X028686Y015661D01*
X028653Y015741D01*
X029680Y015741D01*
X029646Y015632D02*
X028686Y015632D01*
X028686Y015473D02*
X029646Y015473D01*
X029680Y014741D02*
X028653Y014741D01*
X028686Y014661D01*
X028686Y014462D01*
X028653Y014381D01*
X029680Y014381D01*
X029646Y014462D01*
X029646Y014661D01*
X029680Y014741D01*
X029654Y014681D02*
X028678Y014681D01*
X028686Y014522D02*
X029646Y014522D01*
X029680Y013741D02*
X028653Y013741D01*
X028686Y013661D01*
X028686Y013462D01*
X028653Y013381D01*
X029680Y013381D01*
X029646Y013462D01*
X029646Y013661D01*
X029680Y013741D01*
X029675Y013730D02*
X028658Y013730D01*
X028686Y013571D02*
X029646Y013571D01*
X029666Y013413D02*
X028666Y013413D01*
X027714Y013061D02*
X027619Y013061D01*
X027714Y013061D01*
X027714Y013061D01*
X027619Y013061D02*
X027619Y013061D01*
X027200Y012741D02*
X027166Y012661D01*
X027133Y012741D01*
X027200Y012741D01*
X027166Y012661D02*
X027166Y012514D01*
X027166Y012514D01*
X027166Y012661D01*
X027166Y012620D02*
X027166Y012620D01*
X027619Y012061D02*
X027714Y012061D01*
X027714Y012061D01*
X027619Y012061D01*
X027619Y012061D01*
X027200Y011741D02*
X027166Y011661D01*
X027133Y011741D01*
X027200Y011741D01*
X027170Y011669D02*
X027163Y011669D01*
X027166Y011661D02*
X027166Y011514D01*
X027166Y011514D01*
X027166Y011661D01*
X027619Y011061D02*
X027714Y011061D01*
X027714Y011061D01*
X027619Y011061D01*
X027619Y011061D01*
X027200Y010741D02*
X027166Y010661D01*
X027133Y010741D01*
X027200Y010741D01*
X027190Y010718D02*
X027142Y010718D01*
X027166Y010661D02*
X027166Y010514D01*
X027166Y010514D01*
X027166Y010661D01*
X027166Y010560D02*
X027166Y010560D01*
X027619Y010061D02*
X027714Y010061D01*
X027714Y010061D01*
X027619Y010061D01*
X027619Y010061D01*
X027200Y009741D02*
X027166Y009661D01*
X027133Y009741D01*
X027200Y009741D01*
X027166Y009661D02*
X027166Y009514D01*
X027166Y009514D01*
X027166Y009661D01*
X027166Y009609D02*
X027166Y009609D01*
X027619Y009061D02*
X027714Y009061D01*
X027714Y009061D01*
X027619Y009061D01*
X027619Y009061D01*
X027200Y008741D02*
X027166Y008661D01*
X027133Y008741D01*
X027200Y008741D01*
X027166Y008661D02*
X027166Y008514D01*
X027166Y008514D01*
X027166Y008661D01*
X027166Y008658D02*
X027166Y008658D01*
X027619Y008061D02*
X027439Y007881D01*
X027894Y007881D01*
X027714Y008061D01*
X027619Y008061D01*
X027581Y008024D02*
X027751Y008024D01*
X025680Y008381D02*
X024653Y008381D01*
X024686Y008462D01*
X024686Y008661D01*
X024653Y008741D01*
X025680Y008741D01*
X025646Y008661D01*
X025646Y008462D01*
X025680Y008381D01*
X025646Y008499D02*
X024686Y008499D01*
X024686Y008658D02*
X025646Y008658D01*
X025680Y009381D02*
X024653Y009381D01*
X024686Y009462D01*
X024686Y009661D01*
X024653Y009741D01*
X025680Y009741D01*
X025646Y009661D01*
X025646Y009462D01*
X025680Y009381D01*
X025651Y009450D02*
X024681Y009450D01*
X024686Y009609D02*
X025646Y009609D01*
X025680Y010381D02*
X024653Y010381D01*
X024686Y010462D01*
X024686Y010661D01*
X024653Y010741D01*
X025680Y010741D01*
X025646Y010661D01*
X025646Y010462D01*
X025680Y010381D01*
X025671Y010401D02*
X024661Y010401D01*
X024686Y010560D02*
X025646Y010560D01*
X025670Y010718D02*
X024662Y010718D01*
X024653Y011381D02*
X024686Y011462D01*
X024686Y011661D01*
X024653Y011741D01*
X025680Y011741D01*
X025646Y011661D01*
X025646Y011462D01*
X025680Y011381D01*
X024653Y011381D01*
X024686Y011511D02*
X025646Y011511D01*
X025650Y011669D02*
X024683Y011669D01*
X024653Y012381D02*
X024686Y012462D01*
X024686Y012661D01*
X024653Y012741D01*
X025680Y012741D01*
X025646Y012661D01*
X025646Y012462D01*
X025680Y012381D01*
X024653Y012381D01*
X024686Y012462D02*
X025646Y012462D01*
X025646Y012620D02*
X024686Y012620D01*
X024653Y013381D02*
X024686Y013462D01*
X024686Y013661D01*
X024653Y013741D01*
X025680Y013741D01*
X025646Y013661D01*
X025646Y013462D01*
X025680Y013381D01*
X024653Y013381D01*
X024666Y013413D02*
X025666Y013413D01*
X025646Y013571D02*
X024686Y013571D01*
X024658Y013730D02*
X025675Y013730D01*
X025680Y014381D02*
X024653Y014381D01*
X024686Y014462D01*
X024686Y014661D01*
X024653Y014741D01*
X025680Y014741D01*
X025646Y014661D01*
X025646Y014462D01*
X025680Y014381D01*
X025646Y014522D02*
X024686Y014522D01*
X024678Y014681D02*
X025654Y014681D01*
X025680Y015381D02*
X024653Y015381D01*
X024686Y015462D01*
X024686Y015661D01*
X024653Y015741D01*
X025680Y015741D01*
X025646Y015661D01*
X025646Y015462D01*
X025680Y015381D01*
X025646Y015473D02*
X024686Y015473D01*
X024686Y015632D02*
X025646Y015632D01*
X025680Y016381D02*
X024653Y016381D01*
X024686Y016462D01*
X024686Y016661D01*
X024653Y016741D01*
X025680Y016741D01*
X025646Y016661D01*
X025646Y016462D01*
X025680Y016381D01*
X025662Y016424D02*
X024671Y016424D01*
X024686Y016583D02*
X025646Y016583D01*
X025646Y017534D02*
X024686Y017534D01*
X024673Y017692D02*
X025659Y017692D01*
X025729Y017851D02*
X024604Y017851D01*
X024411Y018009D02*
X025921Y018009D01*
X026891Y018009D02*
X027441Y018009D01*
X027249Y017851D02*
X027084Y017851D01*
X027153Y017692D02*
X027179Y017692D01*
X027166Y017661D02*
X027166Y017514D01*
X027166Y017514D01*
X027166Y017661D01*
X027166Y017534D02*
X027166Y017534D01*
X027619Y017061D02*
X027714Y017061D01*
X027714Y017061D01*
X027619Y017061D01*
X027619Y017061D01*
X027200Y016741D02*
X027166Y016661D01*
X027133Y016741D01*
X027200Y016741D01*
X027166Y016661D02*
X027166Y016514D01*
X027166Y016514D01*
X027166Y016661D01*
X027166Y016583D02*
X027166Y016583D01*
X027619Y016061D02*
X027714Y016061D01*
X027714Y016061D01*
X027619Y016061D01*
X027619Y016061D01*
X027200Y015741D02*
X027166Y015661D01*
X027166Y015514D01*
X027166Y015514D01*
X027166Y015661D01*
X027133Y015741D01*
X027200Y015741D01*
X027166Y015632D02*
X027166Y015632D01*
X027619Y015061D02*
X027714Y015061D01*
X027714Y015061D01*
X027619Y015061D01*
X027619Y015061D01*
X027200Y014741D02*
X027166Y014661D01*
X027133Y014741D01*
X027200Y014741D01*
X027174Y014681D02*
X027158Y014681D01*
X027166Y014661D02*
X027166Y014514D01*
X027166Y014514D01*
X027166Y014661D01*
X027166Y014522D02*
X027166Y014522D01*
X027619Y014061D02*
X027714Y014061D01*
X027714Y014061D01*
X027619Y014061D01*
X027619Y014061D01*
X027200Y013741D02*
X027166Y013661D01*
X027133Y013741D01*
X027200Y013741D01*
X027195Y013730D02*
X027138Y013730D01*
X027166Y013661D02*
X027166Y013514D01*
X027166Y013514D01*
X027166Y013661D01*
X027166Y013571D02*
X027166Y013571D01*
X028653Y012741D02*
X029680Y012741D01*
X029646Y012661D01*
X029646Y012462D01*
X029680Y012381D01*
X028653Y012381D01*
X028686Y012462D01*
X028686Y012661D01*
X028653Y012741D01*
X028686Y012620D02*
X029646Y012620D01*
X029646Y012462D02*
X028686Y012462D01*
X028653Y011741D02*
X029680Y011741D01*
X029646Y011661D01*
X029646Y011462D01*
X029680Y011381D01*
X028653Y011381D01*
X028686Y011462D01*
X028686Y011661D01*
X028653Y011741D01*
X028683Y011669D02*
X029650Y011669D01*
X029646Y011511D02*
X028686Y011511D01*
X028653Y010741D02*
X029680Y010741D01*
X029646Y010661D01*
X029646Y010462D01*
X029680Y010381D01*
X028653Y010381D01*
X028686Y010462D01*
X028686Y010661D01*
X028653Y010741D01*
X028662Y010718D02*
X029670Y010718D01*
X029646Y010560D02*
X028686Y010560D01*
X028661Y010401D02*
X029671Y010401D01*
X031619Y011061D02*
X031619Y011061D01*
X034828Y011035D02*
X036166Y011035D01*
X036166Y010877D02*
X035058Y010877D01*
X035142Y010718D02*
X036166Y010718D01*
X036166Y010560D02*
X035166Y010560D01*
X035141Y010401D02*
X036166Y010401D01*
X036166Y010243D02*
X035055Y010243D01*
X034821Y010084D02*
X036166Y010084D01*
X036166Y009926D02*
X035009Y009926D01*
X035122Y009767D02*
X036166Y009767D01*
X036166Y009609D02*
X035166Y009609D01*
X035161Y009450D02*
X036166Y009450D01*
X036166Y009292D02*
X035096Y009292D01*
X034939Y009133D02*
X036166Y009133D01*
X036166Y008975D02*
X034960Y008975D01*
X035102Y008816D02*
X036166Y008816D01*
X036166Y008658D02*
X035166Y008658D01*
X035166Y008499D02*
X036166Y008499D01*
X036166Y008341D02*
X035116Y008341D01*
X034994Y008182D02*
X036166Y008182D01*
X036166Y008024D02*
X034581Y008024D01*
X034423Y007865D02*
X036166Y007865D01*
X036166Y007707D02*
X034264Y007707D01*
X034106Y007548D02*
X036166Y007548D01*
X036166Y007390D02*
X033947Y007390D01*
X033666Y007561D02*
X034666Y008561D01*
X035006Y011194D02*
X036166Y011194D01*
X036166Y011352D02*
X035121Y011352D01*
X035166Y011511D02*
X036166Y011511D01*
X036166Y011669D02*
X035163Y011669D01*
X035097Y011828D02*
X036166Y011828D01*
X036166Y011986D02*
X034947Y011986D01*
X034957Y012145D02*
X036166Y012145D01*
X036166Y012303D02*
X035100Y012303D01*
X035166Y012462D02*
X036166Y012462D01*
X036166Y012620D02*
X035166Y012620D01*
X035117Y012779D02*
X036166Y012779D01*
X036166Y012937D02*
X034997Y012937D01*
X031619Y014061D02*
X031619Y014061D01*
X031166Y017514D02*
X031166Y017661D01*
X031166Y017514D01*
X031166Y017514D01*
X031166Y017534D02*
X031166Y017534D01*
X031153Y017692D02*
X031179Y017692D01*
X031249Y017851D02*
X031084Y017851D01*
X030891Y018009D02*
X031346Y018009D01*
X029921Y018009D02*
X028411Y018009D01*
X028604Y017851D02*
X029729Y017851D01*
X029659Y017692D02*
X028673Y017692D01*
X028686Y017534D02*
X029646Y017534D01*
X023714Y017061D02*
X023619Y017061D01*
X023714Y017061D01*
X023714Y017061D01*
X023619Y017061D02*
X023619Y017061D01*
X023200Y016741D02*
X023166Y016661D01*
X023133Y016741D01*
X023200Y016741D01*
X023166Y016661D02*
X023166Y016514D01*
X023166Y016514D01*
X023166Y016661D01*
X023166Y016583D02*
X023166Y016583D01*
X023619Y016061D02*
X023714Y016061D01*
X023714Y016061D01*
X023619Y016061D01*
X023619Y016061D01*
X023200Y015741D02*
X023166Y015661D01*
X023166Y015514D01*
X023166Y015514D01*
X023166Y015661D01*
X023133Y015741D01*
X023200Y015741D01*
X023166Y015632D02*
X023166Y015632D01*
X023619Y015061D02*
X023714Y015061D01*
X023714Y015061D01*
X023619Y015061D01*
X023619Y015061D01*
X023200Y014741D02*
X023166Y014661D01*
X023133Y014741D01*
X023200Y014741D01*
X023174Y014681D02*
X023158Y014681D01*
X023166Y014661D02*
X023166Y014514D01*
X023166Y014514D01*
X023166Y014661D01*
X023166Y014522D02*
X023166Y014522D01*
X023619Y014061D02*
X023714Y014061D01*
X023714Y014061D01*
X023619Y014061D01*
X023619Y014061D01*
X023200Y013741D02*
X023166Y013661D01*
X023133Y013741D01*
X023200Y013741D01*
X023195Y013730D02*
X023138Y013730D01*
X023166Y013661D02*
X023166Y013514D01*
X023166Y013514D01*
X023166Y013661D01*
X023166Y013571D02*
X023166Y013571D01*
X023619Y013061D02*
X023714Y013061D01*
X023714Y013061D01*
X023619Y013061D01*
X023619Y013061D01*
X023200Y012741D02*
X023166Y012661D01*
X023133Y012741D01*
X023200Y012741D01*
X023166Y012661D02*
X023166Y012514D01*
X023166Y012514D01*
X023166Y012661D01*
X023166Y012620D02*
X023166Y012620D01*
X023619Y012061D02*
X023714Y012061D01*
X023714Y012061D01*
X023619Y012061D01*
X023619Y012061D01*
X023200Y011741D02*
X023166Y011661D01*
X023133Y011741D01*
X023200Y011741D01*
X023170Y011669D02*
X023163Y011669D01*
X023166Y011661D02*
X023166Y011514D01*
X023166Y011514D01*
X023166Y011661D01*
X023619Y011061D02*
X023714Y011061D01*
X023714Y011061D01*
X023619Y011061D01*
X023619Y011061D01*
X023200Y010741D02*
X023166Y010661D01*
X023133Y010741D01*
X023200Y010741D01*
X023190Y010718D02*
X023142Y010718D01*
X023166Y010661D02*
X023166Y010514D01*
X023166Y010514D01*
X023166Y010661D01*
X023166Y010560D02*
X023166Y010560D01*
X023619Y010061D02*
X023714Y010061D01*
X023714Y010061D01*
X023619Y010061D01*
X023619Y010061D01*
X023200Y009741D02*
X023166Y009661D01*
X023133Y009741D01*
X023200Y009741D01*
X023166Y009661D02*
X023166Y009514D01*
X023166Y009514D01*
X023166Y009661D01*
X023166Y009609D02*
X023166Y009609D01*
X023619Y009061D02*
X023714Y009061D01*
X023714Y009061D01*
X023619Y009061D01*
X023619Y009061D01*
X023200Y008741D02*
X023166Y008661D01*
X023133Y008741D01*
X023200Y008741D01*
X023166Y008661D02*
X023166Y008514D01*
X023166Y008514D01*
X023166Y008661D01*
X023166Y008658D02*
X023166Y008658D01*
X023619Y008061D02*
X023439Y007881D01*
X023894Y007881D01*
X023714Y008061D01*
X023619Y008061D01*
X023581Y008024D02*
X023751Y008024D01*
X019910Y007865D02*
X019423Y007865D01*
X019581Y008024D02*
X019751Y008024D01*
X019166Y008514D02*
X019166Y008661D01*
X019133Y008741D01*
X019200Y008741D01*
X019166Y008661D01*
X019166Y008514D01*
X019166Y008514D01*
X019166Y008658D02*
X019166Y008658D01*
X019619Y009061D02*
X019714Y009061D01*
X019714Y009061D01*
X019619Y009061D01*
X019619Y009061D01*
X019166Y009514D02*
X019166Y009661D01*
X019133Y009741D01*
X019200Y009741D01*
X019166Y009661D01*
X019166Y009514D01*
X019166Y009514D01*
X019166Y009609D02*
X019166Y009609D01*
X019619Y010061D02*
X019714Y010061D01*
X019714Y010061D01*
X019619Y010061D01*
X019619Y010061D01*
X019166Y010514D02*
X019166Y010661D01*
X019133Y010741D01*
X019200Y010741D01*
X019166Y010661D01*
X019166Y010514D01*
X019166Y010514D01*
X019166Y010560D02*
X019166Y010560D01*
X019142Y010718D02*
X019190Y010718D01*
X017680Y010741D02*
X017646Y010661D01*
X017646Y010462D01*
X017680Y010381D01*
X016653Y010381D01*
X016686Y010462D01*
X016686Y010661D01*
X016653Y010741D01*
X017680Y010741D01*
X017670Y010718D02*
X016662Y010718D01*
X016686Y010560D02*
X017646Y010560D01*
X017671Y010401D02*
X016661Y010401D01*
X015714Y010061D02*
X015619Y010061D01*
X015714Y010061D01*
X015714Y010061D01*
X015619Y010061D02*
X015619Y010061D01*
X015166Y010514D02*
X015166Y010661D01*
X015133Y010741D01*
X015200Y010741D01*
X015166Y010661D01*
X015166Y010514D01*
X015166Y010514D01*
X015166Y010560D02*
X015166Y010560D01*
X015142Y010718D02*
X015190Y010718D01*
X015619Y011061D02*
X015714Y011061D01*
X015714Y011061D01*
X015619Y011061D01*
X015619Y011061D01*
X015166Y011514D02*
X015166Y011661D01*
X015133Y011741D01*
X015200Y011741D01*
X015166Y011661D01*
X015166Y011514D01*
X015166Y011514D01*
X015163Y011669D02*
X015170Y011669D01*
X015619Y012061D02*
X015714Y012061D01*
X015714Y012061D01*
X015619Y012061D01*
X015619Y012061D01*
X015166Y012514D02*
X015166Y012661D01*
X015133Y012741D01*
X015200Y012741D01*
X015166Y012661D01*
X015166Y012514D01*
X015166Y012514D01*
X015166Y012620D02*
X015166Y012620D01*
X015619Y013061D02*
X015714Y013061D01*
X015714Y013061D01*
X015619Y013061D01*
X015619Y013061D01*
X015166Y013514D02*
X015166Y013661D01*
X015133Y013741D01*
X015200Y013741D01*
X015166Y013661D01*
X015166Y013514D01*
X015166Y013514D01*
X015166Y013571D02*
X015166Y013571D01*
X015138Y013730D02*
X015195Y013730D01*
X015619Y014061D02*
X015714Y014061D01*
X015714Y014061D01*
X015619Y014061D01*
X015619Y014061D01*
X015166Y014514D02*
X015166Y014661D01*
X015133Y014741D01*
X015200Y014741D01*
X015166Y014661D01*
X015166Y014514D01*
X015166Y014514D01*
X015166Y014522D02*
X015166Y014522D01*
X015158Y014681D02*
X015174Y014681D01*
X015619Y015061D02*
X015714Y015061D01*
X015714Y015061D01*
X015619Y015061D01*
X015619Y015061D01*
X015166Y015514D02*
X015166Y015661D01*
X015133Y015741D01*
X015200Y015741D01*
X015166Y015661D01*
X015166Y015514D01*
X015166Y015514D01*
X015166Y015632D02*
X015166Y015632D01*
X015619Y016061D02*
X015714Y016061D01*
X015714Y016061D01*
X015619Y016061D01*
X015619Y016061D01*
X015166Y016514D02*
X015166Y016661D01*
X015133Y016741D01*
X015200Y016741D01*
X015166Y016661D01*
X015166Y016514D01*
X015166Y016514D01*
X015166Y016583D02*
X015166Y016583D01*
X015619Y017061D02*
X015714Y017061D01*
X015714Y017061D01*
X015619Y017061D01*
X015619Y017061D01*
X015166Y017514D02*
X015166Y017661D01*
X015166Y017514D01*
X015166Y017514D01*
X015166Y017534D02*
X015166Y017534D01*
X015153Y017692D02*
X015179Y017692D01*
X015249Y017851D02*
X015084Y017851D01*
X014891Y018009D02*
X015441Y018009D01*
X016411Y018009D02*
X017921Y018009D01*
X017729Y017851D02*
X016604Y017851D01*
X016673Y017692D02*
X017659Y017692D01*
X017646Y017534D02*
X016686Y017534D01*
X016653Y016741D02*
X017680Y016741D01*
X017646Y016661D01*
X017646Y016462D01*
X017680Y016381D01*
X016653Y016381D01*
X016686Y016462D01*
X016686Y016661D01*
X016653Y016741D01*
X016686Y016583D02*
X017646Y016583D01*
X017662Y016424D02*
X016671Y016424D01*
X016653Y015741D02*
X017680Y015741D01*
X017646Y015661D01*
X017646Y015462D01*
X017680Y015381D01*
X016653Y015381D01*
X016686Y015462D01*
X016686Y015661D01*
X016653Y015741D01*
X016686Y015632D02*
X017646Y015632D01*
X017646Y015473D02*
X016686Y015473D01*
X016653Y014741D02*
X017680Y014741D01*
X017646Y014661D01*
X017646Y014462D01*
X017680Y014381D01*
X016653Y014381D01*
X016686Y014462D01*
X016686Y014661D01*
X016653Y014741D01*
X016678Y014681D02*
X017654Y014681D01*
X017646Y014522D02*
X016686Y014522D01*
X016653Y013741D02*
X017680Y013741D01*
X017646Y013661D01*
X017646Y013462D01*
X017680Y013381D01*
X016653Y013381D01*
X016686Y013462D01*
X016686Y013661D01*
X016653Y013741D01*
X016658Y013730D02*
X017675Y013730D01*
X017646Y013571D02*
X016686Y013571D01*
X016666Y013413D02*
X017666Y013413D01*
X017680Y012741D02*
X016653Y012741D01*
X016686Y012661D01*
X016686Y012462D01*
X016653Y012381D01*
X017680Y012381D01*
X017646Y012462D01*
X017646Y012661D01*
X017680Y012741D01*
X017646Y012620D02*
X016686Y012620D01*
X016686Y012462D02*
X017646Y012462D01*
X017680Y011741D02*
X016653Y011741D01*
X016686Y011661D01*
X016686Y011462D01*
X016653Y011381D01*
X017680Y011381D01*
X017646Y011462D01*
X017646Y011661D01*
X017680Y011741D01*
X017650Y011669D02*
X016683Y011669D01*
X016686Y011511D02*
X017646Y011511D01*
X017680Y009741D02*
X016653Y009741D01*
X016686Y009661D01*
X016686Y009462D01*
X016653Y009381D01*
X017680Y009381D01*
X017646Y009462D01*
X017646Y009661D01*
X017680Y009741D01*
X017646Y009609D02*
X016686Y009609D01*
X016681Y009450D02*
X017651Y009450D01*
X017680Y008741D02*
X017646Y008661D01*
X017646Y008462D01*
X017680Y008381D01*
X016653Y008381D01*
X016686Y008462D01*
X016686Y008661D01*
X016653Y008741D01*
X017680Y008741D01*
X017646Y008658D02*
X016686Y008658D01*
X016686Y008499D02*
X017646Y008499D01*
X015910Y007865D02*
X015423Y007865D01*
X015581Y008024D02*
X015751Y008024D01*
X015166Y008514D02*
X015166Y008661D01*
X015133Y008741D01*
X015200Y008741D01*
X015166Y008661D01*
X015166Y008514D01*
X015166Y008514D01*
X015166Y008658D02*
X015166Y008658D01*
X015619Y009061D02*
X015714Y009061D01*
X015714Y009061D01*
X015619Y009061D01*
X015619Y009061D01*
X015166Y009514D02*
X015166Y009661D01*
X015133Y009741D01*
X015200Y009741D01*
X015166Y009661D01*
X015166Y009514D01*
X015166Y009514D01*
X015166Y009609D02*
X015166Y009609D01*
X013680Y009741D02*
X013646Y009661D01*
X013646Y009462D01*
X013680Y009381D01*
X012653Y009381D01*
X012686Y009462D01*
X012686Y009661D01*
X012653Y009741D01*
X013680Y009741D01*
X013646Y009609D02*
X012686Y009609D01*
X012681Y009450D02*
X013651Y009450D01*
X013680Y008741D02*
X012653Y008741D01*
X012686Y008661D01*
X012686Y008462D01*
X012653Y008381D01*
X013680Y008381D01*
X013646Y008462D01*
X013646Y008661D01*
X013680Y008741D01*
X013646Y008658D02*
X012686Y008658D01*
X012686Y008499D02*
X013646Y008499D01*
X011910Y007865D02*
X011423Y007865D01*
X011581Y008024D02*
X011751Y008024D01*
X011166Y008514D02*
X011166Y008661D01*
X011133Y008741D01*
X011200Y008741D01*
X011166Y008661D01*
X011166Y008514D01*
X011166Y008514D01*
X011166Y008658D02*
X011166Y008658D01*
X011619Y009061D02*
X011714Y009061D01*
X011714Y009061D01*
X011619Y009061D01*
X011619Y009061D01*
X011166Y009514D02*
X011166Y009661D01*
X011133Y009741D01*
X011200Y009741D01*
X011166Y009661D01*
X011166Y009514D01*
X011166Y009514D01*
X011166Y009609D02*
X011166Y009609D01*
X011619Y010061D02*
X011714Y010061D01*
X011714Y010061D01*
X011619Y010061D01*
X011619Y010061D01*
X011166Y010514D02*
X011166Y010661D01*
X011133Y010741D01*
X011200Y010741D01*
X011166Y010661D01*
X011166Y010514D01*
X011166Y010514D01*
X011166Y010560D02*
X011166Y010560D01*
X011142Y010718D02*
X011190Y010718D01*
X011619Y011061D02*
X011714Y011061D01*
X011714Y011061D01*
X011619Y011061D01*
X011619Y011061D01*
X011166Y011514D02*
X011166Y011661D01*
X011133Y011741D01*
X011200Y011741D01*
X011166Y011661D01*
X011166Y011514D01*
X011166Y011514D01*
X011163Y011669D02*
X011170Y011669D01*
X011619Y012061D02*
X011714Y012061D01*
X011714Y012061D01*
X011619Y012061D01*
X011619Y012061D01*
X011166Y012514D02*
X011166Y012661D01*
X011133Y012741D01*
X011200Y012741D01*
X011166Y012661D01*
X011166Y012514D01*
X011166Y012514D01*
X011166Y012620D02*
X011166Y012620D01*
X011619Y013061D02*
X011714Y013061D01*
X011714Y013061D01*
X011619Y013061D01*
X011619Y013061D01*
X011166Y013514D02*
X011166Y013661D01*
X011133Y013741D01*
X011200Y013741D01*
X011166Y013661D01*
X011166Y013514D01*
X011166Y013514D01*
X011166Y013571D02*
X011166Y013571D01*
X011138Y013730D02*
X011195Y013730D01*
X011619Y014061D02*
X011714Y014061D01*
X011714Y014061D01*
X011619Y014061D01*
X011619Y014061D01*
X011166Y014514D02*
X011166Y014661D01*
X011133Y014741D01*
X011200Y014741D01*
X011166Y014661D01*
X011166Y014514D01*
X011166Y014514D01*
X011166Y014522D02*
X011166Y014522D01*
X011158Y014681D02*
X011174Y014681D01*
X011619Y015061D02*
X011714Y015061D01*
X011714Y015061D01*
X011619Y015061D01*
X011619Y015061D01*
X011166Y015514D02*
X011166Y015661D01*
X011133Y015741D01*
X011200Y015741D01*
X011166Y015661D01*
X011166Y015514D01*
X011166Y015514D01*
X011166Y015632D02*
X011166Y015632D01*
X011619Y016061D02*
X011714Y016061D01*
X011714Y016061D01*
X011619Y016061D01*
X011619Y016061D01*
X011166Y016514D02*
X011166Y016661D01*
X011133Y016741D01*
X011200Y016741D01*
X011166Y016661D01*
X011166Y016514D01*
X011166Y016514D01*
X011166Y016583D02*
X011166Y016583D01*
X011619Y017061D02*
X011714Y017061D01*
X011714Y017061D01*
X011619Y017061D01*
X011619Y017061D01*
X011166Y017514D02*
X011166Y017661D01*
X011166Y017514D01*
X011166Y017514D01*
X011166Y017534D02*
X011166Y017534D01*
X011153Y017692D02*
X011179Y017692D01*
X011249Y017851D02*
X011084Y017851D01*
X010891Y018009D02*
X011441Y018009D01*
X012411Y018009D02*
X013921Y018009D01*
X013729Y017851D02*
X012604Y017851D01*
X012673Y017692D02*
X013659Y017692D01*
X013646Y017534D02*
X012686Y017534D01*
X012653Y016741D02*
X013680Y016741D01*
X013646Y016661D01*
X013646Y016462D01*
X013680Y016381D01*
X012653Y016381D01*
X012686Y016462D01*
X012686Y016661D01*
X012653Y016741D01*
X012686Y016583D02*
X013646Y016583D01*
X013662Y016424D02*
X012671Y016424D01*
X012653Y015741D02*
X013680Y015741D01*
X013646Y015661D01*
X013646Y015462D01*
X013680Y015381D01*
X012653Y015381D01*
X012686Y015462D01*
X012686Y015661D01*
X012653Y015741D01*
X012686Y015632D02*
X013646Y015632D01*
X013646Y015473D02*
X012686Y015473D01*
X012653Y014741D02*
X013680Y014741D01*
X013646Y014661D01*
X013646Y014462D01*
X013680Y014381D01*
X012653Y014381D01*
X012686Y014462D01*
X012686Y014661D01*
X012653Y014741D01*
X012678Y014681D02*
X013654Y014681D01*
X013646Y014522D02*
X012686Y014522D01*
X012653Y013741D02*
X013680Y013741D01*
X013646Y013661D01*
X013646Y013462D01*
X013680Y013381D01*
X012653Y013381D01*
X012686Y013462D01*
X012686Y013661D01*
X012653Y013741D01*
X012658Y013730D02*
X013675Y013730D01*
X013646Y013571D02*
X012686Y013571D01*
X012666Y013413D02*
X013666Y013413D01*
X013680Y012741D02*
X012653Y012741D01*
X012686Y012661D01*
X012686Y012462D01*
X012653Y012381D01*
X013680Y012381D01*
X013646Y012462D01*
X013646Y012661D01*
X013680Y012741D01*
X013646Y012620D02*
X012686Y012620D01*
X012686Y012462D02*
X013646Y012462D01*
X013680Y011741D02*
X012653Y011741D01*
X012686Y011661D01*
X012686Y011462D01*
X012653Y011381D01*
X013680Y011381D01*
X013646Y011462D01*
X013646Y011661D01*
X013680Y011741D01*
X013650Y011669D02*
X012683Y011669D01*
X012686Y011511D02*
X013646Y011511D01*
X013680Y010741D02*
X012653Y010741D01*
X012686Y010661D01*
X012686Y010462D01*
X012653Y010381D01*
X013680Y010381D01*
X013646Y010462D01*
X013646Y010661D01*
X013680Y010741D01*
X013670Y010718D02*
X012662Y010718D01*
X012686Y010560D02*
X013646Y010560D01*
X013671Y010401D02*
X012661Y010401D01*
X009680Y009741D02*
X009646Y009661D01*
X009646Y009462D01*
X009680Y009381D01*
X008653Y009381D01*
X008686Y009462D01*
X008686Y009661D01*
X008653Y009741D01*
X009680Y009741D01*
X009646Y009609D02*
X008686Y009609D01*
X008681Y009450D02*
X009651Y009450D01*
X009680Y008741D02*
X009646Y008661D01*
X009646Y008462D01*
X009680Y008381D01*
X008653Y008381D01*
X008686Y008462D01*
X008686Y008661D01*
X008653Y008741D01*
X009680Y008741D01*
X009646Y008658D02*
X008686Y008658D01*
X008686Y008499D02*
X009646Y008499D01*
X008166Y012061D02*
X007666Y012561D01*
X007714Y013061D02*
X007567Y013061D01*
X007714Y013061D01*
X007714Y013061D01*
X008166Y015061D02*
X007666Y015561D01*
X008653Y015381D02*
X008686Y015462D01*
X008686Y015661D01*
X008653Y015741D01*
X009680Y015741D01*
X009646Y015661D01*
X009646Y015462D01*
X009680Y015381D01*
X008653Y015381D01*
X008686Y015473D02*
X009646Y015473D01*
X009646Y015632D02*
X008686Y015632D01*
X008653Y016381D02*
X008686Y016462D01*
X008686Y016661D01*
X008653Y016741D01*
X009680Y016741D01*
X009646Y016661D01*
X009646Y016462D01*
X009680Y016381D01*
X008653Y016381D01*
X008671Y016424D02*
X009662Y016424D01*
X009646Y016583D02*
X008686Y016583D01*
X008166Y017061D02*
X007666Y017561D01*
X008411Y018009D02*
X009921Y018009D01*
X009729Y017851D02*
X008604Y017851D01*
X008673Y017692D02*
X009659Y017692D01*
X009646Y017534D02*
X008686Y017534D01*
X008414Y021972D02*
X033918Y021972D01*
X023441Y018009D02*
X022891Y018009D01*
X023084Y017851D02*
X023249Y017851D01*
X023179Y017692D02*
X023153Y017692D01*
X023166Y017661D02*
X023166Y017514D01*
X023166Y017514D01*
X023166Y017661D01*
X023166Y017534D02*
X023166Y017534D01*
X019714Y017061D02*
X019619Y017061D01*
X019714Y017061D01*
X019714Y017061D01*
X019619Y017061D02*
X019619Y017061D01*
X019200Y016741D02*
X019166Y016661D01*
X019133Y016741D01*
X019200Y016741D01*
X019166Y016661D02*
X019166Y016514D01*
X019166Y016514D01*
X019166Y016661D01*
X019166Y016583D02*
X019166Y016583D01*
X019619Y016061D02*
X019714Y016061D01*
X019714Y016061D01*
X019619Y016061D01*
X019619Y016061D01*
X019200Y015741D02*
X019166Y015661D01*
X019166Y015514D01*
X019166Y015514D01*
X019166Y015661D01*
X019133Y015741D01*
X019200Y015741D01*
X019166Y015632D02*
X019166Y015632D01*
X019619Y015061D02*
X019714Y015061D01*
X019714Y015061D01*
X019619Y015061D01*
X019619Y015061D01*
X019200Y014741D02*
X019166Y014661D01*
X019133Y014741D01*
X019200Y014741D01*
X019174Y014681D02*
X019158Y014681D01*
X019166Y014661D02*
X019166Y014514D01*
X019166Y014514D01*
X019166Y014661D01*
X019166Y014522D02*
X019166Y014522D01*
X019619Y014061D02*
X019714Y014061D01*
X019714Y014061D01*
X019619Y014061D01*
X019619Y014061D01*
X019200Y013741D02*
X019166Y013661D01*
X019133Y013741D01*
X019200Y013741D01*
X019195Y013730D02*
X019138Y013730D01*
X019166Y013661D02*
X019166Y013514D01*
X019166Y013514D01*
X019166Y013661D01*
X019166Y013571D02*
X019166Y013571D01*
X020653Y012741D02*
X021680Y012741D01*
X021646Y012661D01*
X021646Y012462D01*
X021680Y012381D01*
X020653Y012381D01*
X020686Y012462D01*
X020686Y012661D01*
X020653Y012741D01*
X020686Y012620D02*
X021646Y012620D01*
X021646Y012462D02*
X020686Y012462D01*
X020653Y011741D02*
X021680Y011741D01*
X021646Y011661D01*
X021646Y011462D01*
X021680Y011381D01*
X020653Y011381D01*
X020686Y011462D01*
X020686Y011661D01*
X020653Y011741D01*
X020683Y011669D02*
X021650Y011669D01*
X021646Y011511D02*
X020686Y011511D01*
X019166Y017514D02*
X019166Y017661D01*
X019166Y017514D01*
X019166Y017514D01*
X019166Y017534D02*
X019166Y017534D01*
X019153Y017692D02*
X019179Y017692D01*
X019249Y017851D02*
X019084Y017851D01*
X018891Y018009D02*
X019441Y018009D01*
X008414Y004378D02*
X033918Y004378D01*
X033918Y004220D02*
X008414Y004220D01*
X008414Y004061D02*
X033918Y004061D01*
M02*
