G75*
%MOIN*%
%OFA0B0*%
%FSLAX24Y24*%
%IPPOS*%
%LPD*%
%AMOC8*
5,1,8,0,0,1.08239X$1,22.5*
%
%ADD10C,0.0520*%
%ADD11OC8,0.0520*%
%ADD12C,0.0594*%
%ADD13C,0.0740*%
%ADD14OC8,0.0515*%
%ADD15C,0.0515*%
%ADD16C,0.0000*%
%ADD17C,0.0800*%
%ADD18OC8,0.0740*%
%ADD19R,0.0740X0.0740*%
%ADD20OC8,0.0660*%
%ADD21C,0.0120*%
%ADD22C,0.0240*%
%ADD23C,0.0160*%
D10*
X013166Y012301D02*
X013166Y012821D01*
X014166Y012821D02*
X014166Y012301D01*
X015166Y012301D02*
X015166Y012821D01*
X016166Y012821D02*
X016166Y012301D01*
X017166Y012301D02*
X017166Y012821D01*
X018166Y012821D02*
X018166Y012301D01*
X019166Y012301D02*
X019166Y012821D01*
X020166Y012821D02*
X020166Y012301D01*
X019666Y014301D02*
X019666Y014821D01*
X018666Y014821D02*
X018666Y014301D01*
X017666Y014301D02*
X017666Y014821D01*
X016666Y014821D02*
X016666Y014301D01*
X015666Y014301D02*
X015666Y014821D01*
X014666Y014821D02*
X014666Y014301D01*
X013666Y014301D02*
X013666Y014821D01*
X012666Y014821D02*
X012666Y014301D01*
X011666Y014301D02*
X011666Y014821D01*
X010666Y014821D02*
X010666Y014301D01*
X010666Y017301D02*
X010666Y017821D01*
X011666Y017821D02*
X011666Y017301D01*
X012666Y017301D02*
X012666Y017821D01*
X013666Y017821D02*
X013666Y017301D01*
X014666Y017301D02*
X014666Y017821D01*
X015666Y017821D02*
X015666Y017301D01*
X016666Y017301D02*
X016666Y017821D01*
X017666Y017821D02*
X017666Y017301D01*
X018666Y017301D02*
X018666Y017821D01*
X019666Y017821D02*
X019666Y017301D01*
X022666Y016821D02*
X022666Y016301D01*
X023666Y016301D02*
X023666Y016821D01*
X024666Y016821D02*
X024666Y016301D01*
X025666Y016301D02*
X025666Y016821D01*
X026666Y016821D02*
X026666Y016301D01*
X027666Y016301D02*
X027666Y016821D01*
X028666Y016821D02*
X028666Y016301D01*
X029666Y016301D02*
X029666Y016821D01*
X030666Y016821D02*
X030666Y016301D01*
X030666Y019301D02*
X030666Y019821D01*
X029666Y019821D02*
X029666Y019301D01*
X028666Y019301D02*
X028666Y019821D01*
X027666Y019821D02*
X027666Y019301D01*
X026666Y019301D02*
X026666Y019821D01*
X025666Y019821D02*
X025666Y019301D01*
X024666Y019301D02*
X024666Y019821D01*
X023666Y019821D02*
X023666Y019301D01*
X022666Y019301D02*
X022666Y019821D01*
X024666Y010321D02*
X024666Y009801D01*
X025666Y009801D02*
X025666Y010321D01*
X026666Y010321D02*
X026666Y009801D01*
X027666Y009801D02*
X027666Y010321D01*
X027666Y007321D02*
X027666Y006801D01*
X026666Y006801D02*
X026666Y007321D01*
X025666Y007321D02*
X025666Y006801D01*
X024666Y006801D02*
X024666Y007321D01*
D11*
X024666Y005561D03*
X025666Y005561D03*
X020666Y007061D03*
X020166Y007561D03*
X020666Y008061D03*
X018666Y008061D03*
X018166Y007561D03*
X018666Y007061D03*
X016666Y007061D03*
X016166Y007561D03*
X016666Y008061D03*
X014666Y008061D03*
X014166Y007561D03*
X014666Y007061D03*
X015666Y009561D03*
X015166Y010061D03*
X015666Y010561D03*
X017166Y010061D03*
X017666Y009561D03*
X019166Y010061D03*
X019666Y009561D03*
X019666Y010561D03*
X017666Y010561D03*
X023166Y011561D03*
X024166Y011561D03*
X025666Y011561D03*
X026666Y011561D03*
X028166Y011561D03*
X029166Y011561D03*
X022166Y014561D03*
X021166Y014561D03*
D12*
X031883Y012130D02*
X031883Y011536D01*
X032491Y011006D02*
X033085Y011006D01*
X035544Y011224D02*
X035544Y010631D01*
X032394Y008586D02*
X032394Y007993D01*
X032394Y013993D02*
X032394Y014586D01*
X035544Y016631D02*
X035544Y017224D01*
X033085Y017006D02*
X032491Y017006D01*
X031883Y017536D02*
X031883Y018130D01*
D13*
X030666Y021061D03*
X029666Y021061D03*
X028666Y021061D03*
X027666Y021061D03*
X026666Y021061D03*
X025666Y021061D03*
X024666Y021061D03*
X023666Y021061D03*
X022666Y021061D03*
X021666Y021061D03*
X026166Y015061D03*
X026166Y013561D03*
X030166Y013561D03*
X030166Y015061D03*
X030666Y010061D03*
X029166Y010061D03*
X023166Y009561D03*
X029166Y006061D03*
X030666Y006061D03*
X023166Y005561D03*
X020666Y005061D03*
X019666Y005061D03*
X018666Y005061D03*
X017666Y005061D03*
X016666Y005061D03*
X015666Y005061D03*
X014666Y005061D03*
X008666Y012061D03*
X006666Y013561D03*
X006666Y014561D03*
X006666Y015561D03*
X008666Y016061D03*
X009166Y017561D03*
X009166Y021561D03*
D14*
X011166Y019923D03*
X016666Y019923D03*
D15*
X017666Y019923D03*
X018666Y019923D03*
X013166Y019923D03*
X012166Y019923D03*
D16*
X006993Y003416D02*
X035339Y003416D01*
X034709Y004990D02*
X034711Y005040D01*
X034717Y005090D01*
X034727Y005139D01*
X034741Y005187D01*
X034758Y005234D01*
X034779Y005279D01*
X034804Y005323D01*
X034832Y005364D01*
X034864Y005403D01*
X034898Y005440D01*
X034935Y005474D01*
X034975Y005504D01*
X035017Y005531D01*
X035061Y005555D01*
X035107Y005576D01*
X035154Y005592D01*
X035202Y005605D01*
X035252Y005614D01*
X035301Y005619D01*
X035352Y005620D01*
X035402Y005617D01*
X035451Y005610D01*
X035500Y005599D01*
X035548Y005584D01*
X035594Y005566D01*
X035639Y005544D01*
X035682Y005518D01*
X035723Y005489D01*
X035762Y005457D01*
X035798Y005422D01*
X035830Y005384D01*
X035860Y005344D01*
X035887Y005301D01*
X035910Y005257D01*
X035929Y005211D01*
X035945Y005163D01*
X035957Y005114D01*
X035965Y005065D01*
X035969Y005015D01*
X035969Y004965D01*
X035965Y004915D01*
X035957Y004866D01*
X035945Y004817D01*
X035929Y004769D01*
X035910Y004723D01*
X035887Y004679D01*
X035860Y004636D01*
X035830Y004596D01*
X035798Y004558D01*
X035762Y004523D01*
X035723Y004491D01*
X035682Y004462D01*
X035639Y004436D01*
X035594Y004414D01*
X035548Y004396D01*
X035500Y004381D01*
X035451Y004370D01*
X035402Y004363D01*
X035352Y004360D01*
X035301Y004361D01*
X035252Y004366D01*
X035202Y004375D01*
X035154Y004388D01*
X035107Y004404D01*
X035061Y004425D01*
X035017Y004449D01*
X034975Y004476D01*
X034935Y004506D01*
X034898Y004540D01*
X034864Y004577D01*
X034832Y004616D01*
X034804Y004657D01*
X034779Y004701D01*
X034758Y004746D01*
X034741Y004793D01*
X034727Y004841D01*
X034717Y004890D01*
X034711Y004940D01*
X034709Y004990D01*
X035339Y003415D02*
X035416Y003417D01*
X035493Y003423D01*
X035570Y003432D01*
X035646Y003445D01*
X035722Y003462D01*
X035796Y003483D01*
X035870Y003507D01*
X035942Y003535D01*
X036012Y003566D01*
X036081Y003601D01*
X036149Y003639D01*
X036214Y003680D01*
X036277Y003725D01*
X036338Y003773D01*
X036397Y003823D01*
X036453Y003876D01*
X036506Y003932D01*
X036556Y003991D01*
X036604Y004052D01*
X036649Y004115D01*
X036690Y004180D01*
X036728Y004248D01*
X036763Y004317D01*
X036794Y004387D01*
X036822Y004459D01*
X036846Y004533D01*
X036867Y004607D01*
X036884Y004683D01*
X036897Y004759D01*
X036906Y004836D01*
X036912Y004913D01*
X036914Y004990D01*
X036914Y021132D01*
X034709Y021132D02*
X034711Y021182D01*
X034717Y021232D01*
X034727Y021281D01*
X034741Y021329D01*
X034758Y021376D01*
X034779Y021421D01*
X034804Y021465D01*
X034832Y021506D01*
X034864Y021545D01*
X034898Y021582D01*
X034935Y021616D01*
X034975Y021646D01*
X035017Y021673D01*
X035061Y021697D01*
X035107Y021718D01*
X035154Y021734D01*
X035202Y021747D01*
X035252Y021756D01*
X035301Y021761D01*
X035352Y021762D01*
X035402Y021759D01*
X035451Y021752D01*
X035500Y021741D01*
X035548Y021726D01*
X035594Y021708D01*
X035639Y021686D01*
X035682Y021660D01*
X035723Y021631D01*
X035762Y021599D01*
X035798Y021564D01*
X035830Y021526D01*
X035860Y021486D01*
X035887Y021443D01*
X035910Y021399D01*
X035929Y021353D01*
X035945Y021305D01*
X035957Y021256D01*
X035965Y021207D01*
X035969Y021157D01*
X035969Y021107D01*
X035965Y021057D01*
X035957Y021008D01*
X035945Y020959D01*
X035929Y020911D01*
X035910Y020865D01*
X035887Y020821D01*
X035860Y020778D01*
X035830Y020738D01*
X035798Y020700D01*
X035762Y020665D01*
X035723Y020633D01*
X035682Y020604D01*
X035639Y020578D01*
X035594Y020556D01*
X035548Y020538D01*
X035500Y020523D01*
X035451Y020512D01*
X035402Y020505D01*
X035352Y020502D01*
X035301Y020503D01*
X035252Y020508D01*
X035202Y020517D01*
X035154Y020530D01*
X035107Y020546D01*
X035061Y020567D01*
X035017Y020591D01*
X034975Y020618D01*
X034935Y020648D01*
X034898Y020682D01*
X034864Y020719D01*
X034832Y020758D01*
X034804Y020799D01*
X034779Y020843D01*
X034758Y020888D01*
X034741Y020935D01*
X034727Y020983D01*
X034717Y021032D01*
X034711Y021082D01*
X034709Y021132D01*
X035339Y022707D02*
X035416Y022705D01*
X035493Y022699D01*
X035570Y022690D01*
X035646Y022677D01*
X035722Y022660D01*
X035796Y022639D01*
X035870Y022615D01*
X035942Y022587D01*
X036012Y022556D01*
X036081Y022521D01*
X036149Y022483D01*
X036214Y022442D01*
X036277Y022397D01*
X036338Y022349D01*
X036397Y022299D01*
X036453Y022246D01*
X036506Y022190D01*
X036556Y022131D01*
X036604Y022070D01*
X036649Y022007D01*
X036690Y021942D01*
X036728Y021874D01*
X036763Y021805D01*
X036794Y021735D01*
X036822Y021663D01*
X036846Y021589D01*
X036867Y021515D01*
X036884Y021439D01*
X036897Y021363D01*
X036906Y021286D01*
X036912Y021209D01*
X036914Y021132D01*
X035339Y022707D02*
X006993Y022707D01*
X006363Y021132D02*
X006365Y021182D01*
X006371Y021232D01*
X006381Y021281D01*
X006395Y021329D01*
X006412Y021376D01*
X006433Y021421D01*
X006458Y021465D01*
X006486Y021506D01*
X006518Y021545D01*
X006552Y021582D01*
X006589Y021616D01*
X006629Y021646D01*
X006671Y021673D01*
X006715Y021697D01*
X006761Y021718D01*
X006808Y021734D01*
X006856Y021747D01*
X006906Y021756D01*
X006955Y021761D01*
X007006Y021762D01*
X007056Y021759D01*
X007105Y021752D01*
X007154Y021741D01*
X007202Y021726D01*
X007248Y021708D01*
X007293Y021686D01*
X007336Y021660D01*
X007377Y021631D01*
X007416Y021599D01*
X007452Y021564D01*
X007484Y021526D01*
X007514Y021486D01*
X007541Y021443D01*
X007564Y021399D01*
X007583Y021353D01*
X007599Y021305D01*
X007611Y021256D01*
X007619Y021207D01*
X007623Y021157D01*
X007623Y021107D01*
X007619Y021057D01*
X007611Y021008D01*
X007599Y020959D01*
X007583Y020911D01*
X007564Y020865D01*
X007541Y020821D01*
X007514Y020778D01*
X007484Y020738D01*
X007452Y020700D01*
X007416Y020665D01*
X007377Y020633D01*
X007336Y020604D01*
X007293Y020578D01*
X007248Y020556D01*
X007202Y020538D01*
X007154Y020523D01*
X007105Y020512D01*
X007056Y020505D01*
X007006Y020502D01*
X006955Y020503D01*
X006906Y020508D01*
X006856Y020517D01*
X006808Y020530D01*
X006761Y020546D01*
X006715Y020567D01*
X006671Y020591D01*
X006629Y020618D01*
X006589Y020648D01*
X006552Y020682D01*
X006518Y020719D01*
X006486Y020758D01*
X006458Y020799D01*
X006433Y020843D01*
X006412Y020888D01*
X006395Y020935D01*
X006381Y020983D01*
X006371Y021032D01*
X006365Y021082D01*
X006363Y021132D01*
X005418Y021132D02*
X005420Y021209D01*
X005426Y021286D01*
X005435Y021363D01*
X005448Y021439D01*
X005465Y021515D01*
X005486Y021589D01*
X005510Y021663D01*
X005538Y021735D01*
X005569Y021805D01*
X005604Y021874D01*
X005642Y021942D01*
X005683Y022007D01*
X005728Y022070D01*
X005776Y022131D01*
X005826Y022190D01*
X005879Y022246D01*
X005935Y022299D01*
X005994Y022349D01*
X006055Y022397D01*
X006118Y022442D01*
X006183Y022483D01*
X006251Y022521D01*
X006320Y022556D01*
X006390Y022587D01*
X006462Y022615D01*
X006536Y022639D01*
X006610Y022660D01*
X006686Y022677D01*
X006762Y022690D01*
X006839Y022699D01*
X006916Y022705D01*
X006993Y022707D01*
X005418Y021132D02*
X005418Y004990D01*
X006363Y004990D02*
X006365Y005040D01*
X006371Y005090D01*
X006381Y005139D01*
X006395Y005187D01*
X006412Y005234D01*
X006433Y005279D01*
X006458Y005323D01*
X006486Y005364D01*
X006518Y005403D01*
X006552Y005440D01*
X006589Y005474D01*
X006629Y005504D01*
X006671Y005531D01*
X006715Y005555D01*
X006761Y005576D01*
X006808Y005592D01*
X006856Y005605D01*
X006906Y005614D01*
X006955Y005619D01*
X007006Y005620D01*
X007056Y005617D01*
X007105Y005610D01*
X007154Y005599D01*
X007202Y005584D01*
X007248Y005566D01*
X007293Y005544D01*
X007336Y005518D01*
X007377Y005489D01*
X007416Y005457D01*
X007452Y005422D01*
X007484Y005384D01*
X007514Y005344D01*
X007541Y005301D01*
X007564Y005257D01*
X007583Y005211D01*
X007599Y005163D01*
X007611Y005114D01*
X007619Y005065D01*
X007623Y005015D01*
X007623Y004965D01*
X007619Y004915D01*
X007611Y004866D01*
X007599Y004817D01*
X007583Y004769D01*
X007564Y004723D01*
X007541Y004679D01*
X007514Y004636D01*
X007484Y004596D01*
X007452Y004558D01*
X007416Y004523D01*
X007377Y004491D01*
X007336Y004462D01*
X007293Y004436D01*
X007248Y004414D01*
X007202Y004396D01*
X007154Y004381D01*
X007105Y004370D01*
X007056Y004363D01*
X007006Y004360D01*
X006955Y004361D01*
X006906Y004366D01*
X006856Y004375D01*
X006808Y004388D01*
X006761Y004404D01*
X006715Y004425D01*
X006671Y004449D01*
X006629Y004476D01*
X006589Y004506D01*
X006552Y004540D01*
X006518Y004577D01*
X006486Y004616D01*
X006458Y004657D01*
X006433Y004701D01*
X006412Y004746D01*
X006395Y004793D01*
X006381Y004841D01*
X006371Y004890D01*
X006365Y004940D01*
X006363Y004990D01*
X005418Y004990D02*
X005420Y004913D01*
X005426Y004836D01*
X005435Y004759D01*
X005448Y004683D01*
X005465Y004607D01*
X005486Y004533D01*
X005510Y004459D01*
X005538Y004387D01*
X005569Y004317D01*
X005604Y004248D01*
X005642Y004180D01*
X005683Y004115D01*
X005728Y004052D01*
X005776Y003991D01*
X005826Y003932D01*
X005879Y003876D01*
X005935Y003823D01*
X005994Y003773D01*
X006055Y003725D01*
X006118Y003680D01*
X006183Y003639D01*
X006251Y003601D01*
X006320Y003566D01*
X006390Y003535D01*
X006462Y003507D01*
X006536Y003483D01*
X006610Y003462D01*
X006686Y003445D01*
X006762Y003432D01*
X006839Y003423D01*
X006916Y003417D01*
X006993Y003415D01*
D17*
X008266Y007961D02*
X009066Y007961D01*
X009916Y009511D02*
X009916Y010311D01*
X007466Y010311D02*
X007466Y009511D01*
D18*
X010166Y006061D03*
X011166Y006061D03*
X012166Y006061D03*
X012166Y005061D03*
X011166Y005061D03*
X010166Y005061D03*
D19*
X021666Y005061D03*
D20*
X007666Y018561D03*
X006666Y018561D03*
D21*
X008666Y017561D02*
X009166Y017561D01*
X008666Y017561D02*
X006666Y015561D01*
X008666Y013061D02*
X007666Y012061D01*
X007666Y011061D01*
X014166Y011061D01*
X015166Y010061D01*
X015166Y010561D02*
X015666Y010561D01*
X017666Y010561D01*
X018666Y010561D01*
X018666Y008061D01*
X020666Y008061D01*
X018666Y008061D02*
X016666Y008061D01*
X014666Y008061D01*
X013166Y008061D01*
X013166Y006061D01*
X012166Y005061D01*
X012166Y006061D02*
X012166Y007561D01*
X013166Y008561D01*
X015666Y008561D01*
X016666Y009561D01*
X015166Y010561D02*
X013166Y012561D01*
X009166Y012561D01*
X008666Y012061D01*
X008666Y013061D02*
X009166Y013061D01*
X010666Y014561D01*
X011666Y014561D02*
X012666Y015561D01*
X015666Y015561D01*
X016666Y016061D02*
X011666Y016061D01*
X011666Y016561D02*
X006666Y011561D01*
X006666Y006561D01*
X009666Y006561D01*
X010166Y006061D01*
X013666Y007061D02*
X014166Y006561D01*
X017166Y006561D01*
X018166Y007561D01*
X018666Y010561D02*
X019666Y010561D01*
X018166Y011561D02*
X019166Y012561D01*
X020166Y012561D02*
X019166Y013561D01*
X016666Y013561D01*
X015666Y014561D01*
X016666Y014561D02*
X016666Y016061D01*
X018666Y016561D02*
X011666Y016561D01*
X013666Y017561D02*
X016666Y020561D01*
X020666Y020561D01*
X023166Y018061D01*
X030166Y018061D01*
X031166Y017061D01*
X031166Y011061D01*
X026666Y011061D01*
X025666Y010061D01*
X024166Y014061D02*
X020666Y014061D01*
X020666Y017561D01*
X019666Y018561D01*
X019166Y018561D01*
X017666Y020061D01*
X017666Y019923D01*
X019666Y017561D02*
X018666Y016561D01*
X021166Y014561D02*
X021666Y015061D01*
X023166Y015061D01*
X024666Y016561D01*
X025666Y017561D01*
X029666Y017561D01*
X030666Y016561D01*
X032788Y017006D02*
X033166Y017061D01*
X033166Y011061D01*
X032788Y011006D01*
X026666Y016561D02*
X024166Y014061D01*
X018166Y011561D02*
X016166Y011561D01*
X015666Y012061D01*
X017166Y012561D02*
X016166Y013561D01*
X013666Y013561D01*
X012666Y014561D01*
X011166Y019923D02*
X011166Y020061D01*
X009666Y021561D01*
X009166Y021561D01*
D22*
X011666Y016061D03*
X015666Y015561D03*
X015666Y012061D03*
X016666Y009561D03*
X013666Y007061D03*
D23*
X013602Y006701D02*
X013912Y006391D01*
X013996Y006307D01*
X014106Y006261D01*
X017226Y006261D01*
X017336Y006307D01*
X018090Y007061D01*
X018166Y007061D01*
X018166Y006854D01*
X018459Y006561D01*
X018873Y006561D01*
X019166Y006854D01*
X019166Y007268D01*
X018873Y007561D01*
X019073Y007761D01*
X019666Y007761D01*
X019666Y007354D01*
X019959Y007061D01*
X020166Y007061D01*
X020166Y006854D01*
X020459Y006561D01*
X020873Y006561D01*
X021166Y006854D01*
X021166Y007268D01*
X020873Y007561D01*
X021166Y007854D01*
X021166Y008268D01*
X020873Y008561D01*
X020459Y008561D01*
X020259Y008361D01*
X019073Y008361D01*
X018966Y008468D01*
X018966Y009561D01*
X019166Y009561D01*
X019166Y009354D01*
X019459Y009061D01*
X019873Y009061D01*
X020166Y009354D01*
X020166Y009768D01*
X019873Y010061D01*
X020166Y010354D01*
X020166Y010768D01*
X019873Y011061D01*
X019459Y011061D01*
X019259Y010861D01*
X018073Y010861D01*
X017873Y011061D01*
X017459Y011061D01*
X017259Y010861D01*
X016073Y010861D01*
X015873Y011061D01*
X015459Y011061D01*
X015275Y010877D01*
X014326Y011826D01*
X014449Y011877D01*
X014590Y012018D01*
X014666Y012202D01*
X014666Y012921D01*
X014590Y013105D01*
X014449Y013245D01*
X014410Y013261D01*
X014922Y013261D01*
X014883Y013245D01*
X014742Y013105D01*
X014666Y012921D01*
X014666Y012202D01*
X014742Y012018D01*
X014883Y011877D01*
X015067Y011801D01*
X015266Y011801D01*
X015373Y011846D01*
X015462Y011756D01*
X015595Y011701D01*
X015602Y011701D01*
X015912Y011391D01*
X015996Y011307D01*
X016106Y011261D01*
X018226Y011261D01*
X018336Y011307D01*
X018900Y011870D01*
X019067Y011801D01*
X019266Y011801D01*
X019449Y011877D01*
X019590Y012018D01*
X019666Y012202D01*
X019666Y012637D01*
X019666Y012637D01*
X019666Y012202D01*
X019742Y012018D01*
X019883Y011877D01*
X020067Y011801D01*
X020266Y011801D01*
X020449Y011877D01*
X020590Y012018D01*
X020666Y012202D01*
X020666Y012921D01*
X020590Y013105D01*
X020449Y013245D01*
X020266Y013321D01*
X020067Y013321D01*
X019900Y013252D01*
X019336Y013816D01*
X019226Y013861D01*
X018910Y013861D01*
X018949Y013877D01*
X019090Y014018D01*
X019166Y014202D01*
X019166Y014921D01*
X019090Y015105D01*
X018949Y015245D01*
X018766Y015321D01*
X018567Y015321D01*
X018383Y015245D01*
X018242Y015105D01*
X018166Y014921D01*
X018090Y015105D01*
X017949Y015245D01*
X017766Y015321D01*
X017567Y015321D01*
X017383Y015245D01*
X017242Y015105D01*
X017166Y014921D01*
X017090Y015105D01*
X016966Y015228D01*
X016966Y016121D01*
X016920Y016231D01*
X016890Y016261D01*
X018726Y016261D01*
X018836Y016307D01*
X018920Y016391D01*
X019400Y016870D01*
X019567Y016801D01*
X019766Y016801D01*
X019949Y016877D01*
X020090Y017018D01*
X020166Y017202D01*
X020166Y017637D01*
X020366Y017437D01*
X020366Y014002D01*
X020412Y013891D01*
X020496Y013807D01*
X020606Y013761D01*
X024226Y013761D01*
X024336Y013807D01*
X025556Y015027D01*
X025556Y014940D01*
X025649Y014716D01*
X025821Y014544D01*
X026045Y014451D01*
X026287Y014451D01*
X026512Y014544D01*
X026683Y014716D01*
X026776Y014940D01*
X026776Y015183D01*
X026683Y015407D01*
X026512Y015578D01*
X026287Y015671D01*
X026200Y015671D01*
X026400Y015870D01*
X026567Y015801D01*
X026766Y015801D01*
X026949Y015877D01*
X027090Y016018D01*
X027166Y016202D01*
X027166Y016921D01*
X027090Y017105D01*
X026949Y017245D01*
X026910Y017261D01*
X027422Y017261D01*
X027383Y017245D01*
X027242Y017105D01*
X027166Y016921D01*
X027166Y016202D01*
X027242Y016018D01*
X027383Y015877D01*
X027567Y015801D01*
X027766Y015801D01*
X027949Y015877D01*
X028090Y016018D01*
X028166Y016202D01*
X028166Y016921D01*
X028090Y017105D01*
X027949Y017245D01*
X027910Y017261D01*
X028422Y017261D01*
X028383Y017245D01*
X028242Y017105D01*
X028166Y016921D01*
X028166Y016202D01*
X028242Y016018D01*
X028383Y015877D01*
X028567Y015801D01*
X028766Y015801D01*
X028949Y015877D01*
X029090Y016018D01*
X029166Y016202D01*
X029166Y016921D01*
X029090Y017105D01*
X028949Y017245D01*
X028910Y017261D01*
X029422Y017261D01*
X029383Y017245D01*
X029242Y017105D01*
X029166Y016921D01*
X029166Y016202D01*
X029242Y016018D01*
X029383Y015877D01*
X029567Y015801D01*
X029766Y015801D01*
X029949Y015877D01*
X030090Y016018D01*
X030166Y016202D01*
X030166Y016637D01*
X030166Y016637D01*
X030166Y016202D01*
X030242Y016018D01*
X030383Y015877D01*
X030567Y015801D01*
X030766Y015801D01*
X030866Y015843D01*
X030866Y011361D01*
X029666Y011361D01*
X029666Y011768D01*
X029373Y012061D01*
X028959Y012061D01*
X028666Y011768D01*
X028373Y012061D01*
X027959Y012061D01*
X027666Y011768D01*
X027666Y011361D01*
X027166Y011361D01*
X027166Y011768D01*
X026873Y012061D01*
X026459Y012061D01*
X026166Y011768D01*
X026166Y011354D01*
X026350Y011170D01*
X025933Y010752D01*
X025766Y010821D01*
X025567Y010821D01*
X025383Y010745D01*
X025242Y010605D01*
X025166Y010421D01*
X025090Y010605D01*
X024949Y010745D01*
X024766Y010821D01*
X024567Y010821D01*
X024383Y010745D01*
X024242Y010605D01*
X024166Y010421D01*
X024166Y009702D01*
X024242Y009518D01*
X024383Y009377D01*
X024567Y009301D01*
X024766Y009301D01*
X024949Y009377D01*
X025090Y009518D01*
X025166Y009702D01*
X025166Y010421D01*
X025166Y009702D01*
X025242Y009518D01*
X025383Y009377D01*
X025567Y009301D01*
X025766Y009301D01*
X025949Y009377D01*
X026090Y009518D01*
X026166Y009702D01*
X026166Y010137D01*
X026166Y010137D01*
X026166Y009702D01*
X026242Y009518D01*
X026383Y009377D01*
X026567Y009301D01*
X026766Y009301D01*
X026949Y009377D01*
X027090Y009518D01*
X027166Y009702D01*
X027166Y010421D01*
X027090Y010605D01*
X026949Y010745D01*
X026910Y010761D01*
X027422Y010761D01*
X027383Y010745D01*
X027242Y010605D01*
X027166Y010421D01*
X027166Y009702D01*
X027242Y009518D01*
X027383Y009377D01*
X027567Y009301D01*
X027766Y009301D01*
X027949Y009377D01*
X028090Y009518D01*
X028166Y009702D01*
X028166Y010421D01*
X028090Y010605D01*
X027949Y010745D01*
X027910Y010761D01*
X031226Y010761D01*
X031336Y010807D01*
X031420Y010891D01*
X031466Y011002D01*
X031466Y011193D01*
X031579Y011081D01*
X031776Y010999D01*
X031954Y010999D01*
X031954Y010899D01*
X032036Y010702D01*
X032187Y010551D01*
X032385Y010469D01*
X033192Y010469D01*
X033389Y010551D01*
X033540Y010702D01*
X033622Y010899D01*
X033622Y011113D01*
X033540Y011310D01*
X033466Y011384D01*
X033466Y016628D01*
X033540Y016702D01*
X033622Y016899D01*
X033622Y017113D01*
X033540Y017310D01*
X033389Y017461D01*
X033192Y017543D01*
X032420Y017543D01*
X032420Y018237D01*
X032338Y018434D01*
X032187Y018585D01*
X031989Y018667D01*
X031776Y018667D01*
X031579Y018585D01*
X031428Y018434D01*
X031346Y018237D01*
X031346Y017429D01*
X031428Y017232D01*
X031579Y017081D01*
X031776Y016999D01*
X031954Y016999D01*
X031954Y016899D01*
X032036Y016702D01*
X032187Y016551D01*
X032385Y016469D01*
X032866Y016469D01*
X032866Y014851D01*
X032850Y014891D01*
X032699Y015042D01*
X032501Y015123D01*
X032288Y015123D01*
X032090Y015042D01*
X031939Y014891D01*
X031858Y014693D01*
X031858Y013886D01*
X031939Y013689D01*
X032090Y013538D01*
X032288Y013456D01*
X032501Y013456D01*
X032699Y013538D01*
X032850Y013689D01*
X032866Y013729D01*
X032866Y011543D01*
X032420Y011543D01*
X032420Y012237D01*
X032338Y012434D01*
X032187Y012585D01*
X031989Y012667D01*
X031776Y012667D01*
X031579Y012585D01*
X031466Y012472D01*
X031466Y017121D01*
X031420Y017231D01*
X031336Y017316D01*
X030336Y018316D01*
X030226Y018361D01*
X023290Y018361D01*
X022826Y018826D01*
X022949Y018877D01*
X023090Y019018D01*
X023166Y019202D01*
X023166Y019921D01*
X023090Y020105D01*
X022949Y020245D01*
X022766Y020321D01*
X022567Y020321D01*
X022383Y020245D01*
X022242Y020105D01*
X022166Y019921D01*
X022166Y019486D01*
X020836Y020816D01*
X020726Y020861D01*
X016606Y020861D01*
X016496Y020816D01*
X016412Y020731D01*
X013933Y018252D01*
X013766Y018321D01*
X013567Y018321D01*
X013383Y018245D01*
X013242Y018105D01*
X013166Y017921D01*
X013090Y018105D01*
X012949Y018245D01*
X012766Y018321D01*
X012567Y018321D01*
X012383Y018245D01*
X012242Y018105D01*
X012166Y017921D01*
X012090Y018105D01*
X011949Y018245D01*
X011766Y018321D01*
X011567Y018321D01*
X011383Y018245D01*
X011242Y018105D01*
X011166Y017921D01*
X011166Y017202D01*
X011242Y017018D01*
X011383Y016877D01*
X011514Y016823D01*
X011496Y016816D01*
X006496Y011816D01*
X006412Y011731D01*
X006366Y011621D01*
X006366Y006502D01*
X006403Y006412D01*
X006166Y006412D01*
X006166Y013199D01*
X006321Y013044D01*
X006545Y012951D01*
X006787Y012951D01*
X007012Y013044D01*
X007183Y013216D01*
X007276Y013440D01*
X007276Y013683D01*
X007183Y013907D01*
X007029Y014061D01*
X007183Y014216D01*
X007276Y014440D01*
X007276Y014683D01*
X007183Y014907D01*
X007029Y015061D01*
X007183Y015216D01*
X007276Y015440D01*
X007276Y015683D01*
X007257Y015728D01*
X008697Y017168D01*
X008821Y017044D01*
X009045Y016951D01*
X009287Y016951D01*
X009512Y017044D01*
X009683Y017216D01*
X009776Y017440D01*
X009776Y017683D01*
X009683Y017907D01*
X009512Y018078D01*
X009287Y018171D01*
X009045Y018171D01*
X008821Y018078D01*
X008649Y017907D01*
X008630Y017861D01*
X008606Y017861D01*
X008496Y017816D01*
X008412Y017731D01*
X006833Y016152D01*
X006787Y016171D01*
X006545Y016171D01*
X006321Y016078D01*
X006166Y015924D01*
X006166Y018340D01*
X006455Y018051D01*
X006666Y018051D01*
X006666Y018561D01*
X006666Y018561D01*
X006666Y018051D01*
X006877Y018051D01*
X007124Y018298D01*
X007430Y017991D01*
X007902Y017991D01*
X008236Y018325D01*
X008236Y018797D01*
X007902Y019131D01*
X007430Y019131D01*
X007124Y018825D01*
X006877Y019071D01*
X006666Y019071D01*
X006455Y019071D01*
X006166Y018783D01*
X006166Y019711D01*
X006954Y019711D01*
X006962Y019708D01*
X007001Y019711D01*
X007041Y019711D01*
X007049Y019714D01*
X007148Y019722D01*
X007165Y019718D01*
X007195Y019725D01*
X007226Y019727D01*
X007241Y019735D01*
X007347Y019758D01*
X007365Y019757D01*
X007393Y019768D01*
X007423Y019775D01*
X007438Y019785D01*
X007539Y019822D01*
X007557Y019824D01*
X007584Y019839D01*
X007612Y019850D01*
X007625Y019862D01*
X007720Y019913D01*
X007737Y019918D01*
X007762Y019936D01*
X007788Y019951D01*
X007799Y019964D01*
X007886Y020029D01*
X007902Y020036D01*
X007924Y020058D01*
X007948Y020076D01*
X007957Y020091D01*
X008034Y020168D01*
X008049Y020177D01*
X008067Y020201D01*
X008089Y020223D01*
X008096Y020239D01*
X008161Y020326D01*
X008174Y020337D01*
X008189Y020364D01*
X008207Y020388D01*
X008212Y020405D01*
X008263Y020500D01*
X008275Y020513D01*
X008286Y020542D01*
X008301Y020568D01*
X008303Y020586D01*
X008341Y020687D01*
X008351Y020702D01*
X008357Y020732D01*
X008368Y020760D01*
X008367Y020778D01*
X008390Y020884D01*
X008398Y020899D01*
X008400Y020930D01*
X008407Y020960D01*
X008404Y020977D01*
X008411Y021076D01*
X008414Y021084D01*
X008414Y021124D01*
X008417Y021163D01*
X008414Y021171D01*
X008414Y022061D01*
X008803Y022061D01*
X008649Y021907D01*
X008556Y021683D01*
X008556Y021440D01*
X008649Y021216D01*
X008821Y021044D01*
X009045Y020951D01*
X009287Y020951D01*
X009512Y021044D01*
X009635Y021168D01*
X010671Y020132D01*
X010669Y020130D01*
X010669Y019717D01*
X010960Y019426D01*
X011372Y019426D01*
X011664Y019717D01*
X011664Y020130D01*
X011372Y020421D01*
X011231Y020421D01*
X009920Y021731D01*
X009836Y021816D01*
X009726Y021861D01*
X009702Y021861D01*
X009683Y021907D01*
X009529Y022061D01*
X033918Y022061D01*
X033918Y021171D01*
X033915Y021163D01*
X033918Y021124D01*
X033918Y021084D01*
X033922Y021076D01*
X033929Y020977D01*
X033926Y020960D01*
X033932Y020930D01*
X033934Y020899D01*
X033942Y020884D01*
X033965Y020778D01*
X033965Y020760D01*
X033975Y020732D01*
X033982Y020702D01*
X033992Y020687D01*
X034030Y020586D01*
X034031Y020568D01*
X034046Y020542D01*
X034057Y020513D01*
X034069Y020500D01*
X034121Y020405D01*
X034125Y020388D01*
X034143Y020364D01*
X034158Y020337D01*
X034172Y020326D01*
X034237Y020239D01*
X034243Y020223D01*
X034265Y020201D01*
X034283Y020177D01*
X034298Y020168D01*
X034375Y020091D01*
X034384Y020076D01*
X034408Y020058D01*
X034430Y020036D01*
X034446Y020029D01*
X034533Y019964D01*
X034544Y019951D01*
X034571Y019936D01*
X034595Y019918D01*
X034612Y019913D01*
X034707Y019862D01*
X034720Y019850D01*
X034749Y019839D01*
X034776Y019824D01*
X034793Y019822D01*
X034894Y019785D01*
X034909Y019775D01*
X034939Y019768D01*
X034967Y019757D01*
X034985Y019758D01*
X035091Y019735D01*
X035107Y019727D01*
X035137Y019725D01*
X035167Y019718D01*
X035184Y019722D01*
X035283Y019714D01*
X035292Y019711D01*
X035331Y019711D01*
X035370Y019708D01*
X035378Y019711D01*
X036166Y019711D01*
X036166Y006412D01*
X035378Y006412D01*
X035370Y006414D01*
X035331Y006412D01*
X035292Y006412D01*
X035283Y006408D01*
X035184Y006401D01*
X035167Y006404D01*
X035137Y006398D01*
X035107Y006395D01*
X035091Y006388D01*
X034985Y006365D01*
X034967Y006365D01*
X034939Y006355D01*
X034909Y006348D01*
X034894Y006338D01*
X034793Y006300D01*
X034776Y006298D01*
X034749Y006284D01*
X034720Y006273D01*
X034707Y006261D01*
X034612Y006209D01*
X034595Y006205D01*
X034571Y006186D01*
X034544Y006172D01*
X034533Y006158D01*
X034446Y006093D01*
X034430Y006086D01*
X034408Y006065D01*
X034384Y006047D01*
X034375Y006031D01*
X034298Y005955D01*
X034283Y005946D01*
X034265Y005921D01*
X034243Y005900D01*
X034237Y005884D01*
X034172Y005797D01*
X034158Y005786D01*
X034143Y005759D01*
X034125Y005735D01*
X034121Y005718D01*
X034069Y005623D01*
X034057Y005610D01*
X034046Y005581D01*
X034031Y005554D01*
X034030Y005537D01*
X033992Y005435D01*
X033982Y005421D01*
X033975Y005391D01*
X033965Y005362D01*
X033965Y005345D01*
X033942Y005239D01*
X033934Y005223D01*
X033932Y005193D01*
X033926Y005163D01*
X033929Y005146D01*
X033922Y005046D01*
X033918Y005038D01*
X033918Y004999D01*
X033915Y004960D01*
X033918Y004952D01*
X033918Y004061D01*
X008414Y004061D01*
X008414Y004952D01*
X008417Y004960D01*
X008414Y004999D01*
X008414Y005038D01*
X008411Y005046D01*
X008404Y005146D01*
X008407Y005163D01*
X008400Y005193D01*
X008398Y005223D01*
X008390Y005239D01*
X008367Y005345D01*
X008368Y005362D01*
X008357Y005391D01*
X008351Y005421D01*
X008341Y005435D01*
X008303Y005537D01*
X008301Y005554D01*
X008286Y005581D01*
X008275Y005610D01*
X008263Y005623D01*
X008212Y005718D01*
X008207Y005735D01*
X008189Y005759D01*
X008174Y005786D01*
X008161Y005797D01*
X008096Y005884D01*
X008089Y005900D01*
X008067Y005921D01*
X008049Y005946D01*
X008034Y005955D01*
X007957Y006031D01*
X007948Y006047D01*
X007924Y006065D01*
X007902Y006086D01*
X007886Y006093D01*
X007799Y006158D01*
X007788Y006172D01*
X007762Y006186D01*
X007737Y006205D01*
X007720Y006209D01*
X007625Y006261D01*
X007625Y006261D01*
X009542Y006261D01*
X009556Y006247D01*
X009556Y005809D01*
X009846Y005519D01*
X009616Y005289D01*
X009616Y005081D01*
X010146Y005081D01*
X010146Y005041D01*
X010186Y005041D01*
X010186Y004511D01*
X010394Y004511D01*
X010624Y004741D01*
X010913Y004451D01*
X011419Y004451D01*
X011666Y004699D01*
X011913Y004451D01*
X012419Y004451D01*
X012776Y004809D01*
X012776Y005247D01*
X013336Y005807D01*
X013420Y005891D01*
X013466Y006002D01*
X013466Y006754D01*
X013595Y006701D01*
X013602Y006701D01*
X013706Y006597D02*
X013466Y006597D01*
X013466Y006439D02*
X013864Y006439D01*
X014061Y006280D02*
X013466Y006280D01*
X013466Y006122D02*
X022925Y006122D01*
X022821Y006078D02*
X022649Y005907D01*
X022556Y005683D01*
X022556Y005440D01*
X022649Y005216D01*
X022821Y005044D01*
X023045Y004951D01*
X023287Y004951D01*
X023512Y005044D01*
X023683Y005216D01*
X023776Y005440D01*
X023776Y005683D01*
X023683Y005907D01*
X023512Y006078D01*
X023287Y006171D01*
X023045Y006171D01*
X022821Y006078D01*
X022705Y005963D02*
X013450Y005963D01*
X013334Y005805D02*
X022607Y005805D01*
X022556Y005646D02*
X020848Y005646D01*
X020787Y005671D02*
X020545Y005671D01*
X020321Y005578D01*
X020166Y005424D01*
X020012Y005578D01*
X019787Y005671D01*
X019545Y005671D01*
X019321Y005578D01*
X019166Y005424D01*
X019012Y005578D01*
X018787Y005671D01*
X018545Y005671D01*
X018321Y005578D01*
X018166Y005424D01*
X018012Y005578D01*
X017787Y005671D01*
X017545Y005671D01*
X017321Y005578D01*
X017166Y005424D01*
X017012Y005578D01*
X016787Y005671D01*
X016545Y005671D01*
X016321Y005578D01*
X016166Y005424D01*
X016012Y005578D01*
X015787Y005671D01*
X015545Y005671D01*
X015321Y005578D01*
X015166Y005424D01*
X015012Y005578D01*
X014787Y005671D01*
X014545Y005671D01*
X014321Y005578D01*
X014149Y005407D01*
X014056Y005183D01*
X014056Y004940D01*
X014149Y004716D01*
X014321Y004544D01*
X014545Y004451D01*
X014787Y004451D01*
X015012Y004544D01*
X015166Y004699D01*
X015321Y004544D01*
X015545Y004451D01*
X015787Y004451D01*
X016012Y004544D01*
X016166Y004699D01*
X016321Y004544D01*
X016545Y004451D01*
X016787Y004451D01*
X017012Y004544D01*
X017166Y004699D01*
X017321Y004544D01*
X017545Y004451D01*
X017787Y004451D01*
X018012Y004544D01*
X018166Y004699D01*
X018321Y004544D01*
X018545Y004451D01*
X018787Y004451D01*
X019012Y004544D01*
X019166Y004699D01*
X019321Y004544D01*
X019545Y004451D01*
X019787Y004451D01*
X020012Y004544D01*
X020166Y004699D01*
X020321Y004544D01*
X020545Y004451D01*
X020787Y004451D01*
X021012Y004544D01*
X021120Y004653D01*
X021128Y004622D01*
X021152Y004581D01*
X021186Y004547D01*
X021227Y004524D01*
X021272Y004511D01*
X021646Y004511D01*
X021646Y005041D01*
X021686Y005041D01*
X021686Y004511D01*
X022060Y004511D01*
X022106Y004524D01*
X022147Y004547D01*
X022180Y004581D01*
X022204Y004622D01*
X022216Y004668D01*
X022216Y005041D01*
X021686Y005041D01*
X021686Y005081D01*
X022216Y005081D01*
X022216Y005455D01*
X022204Y005501D01*
X022180Y005542D01*
X022147Y005575D01*
X022106Y005599D01*
X022060Y005611D01*
X021686Y005611D01*
X021686Y005081D01*
X021646Y005081D01*
X021646Y005611D01*
X021272Y005611D01*
X021227Y005599D01*
X021186Y005575D01*
X021152Y005542D01*
X021128Y005501D01*
X021120Y005470D01*
X021012Y005578D01*
X020787Y005671D01*
X020484Y005646D02*
X019848Y005646D01*
X020102Y005488D02*
X020230Y005488D01*
X019484Y005646D02*
X018848Y005646D01*
X019102Y005488D02*
X019230Y005488D01*
X018484Y005646D02*
X017848Y005646D01*
X018102Y005488D02*
X018230Y005488D01*
X017484Y005646D02*
X016848Y005646D01*
X017102Y005488D02*
X017230Y005488D01*
X016484Y005646D02*
X015848Y005646D01*
X016102Y005488D02*
X016230Y005488D01*
X015484Y005646D02*
X014848Y005646D01*
X015102Y005488D02*
X015230Y005488D01*
X014484Y005646D02*
X013175Y005646D01*
X013017Y005488D02*
X014230Y005488D01*
X014117Y005329D02*
X012858Y005329D01*
X012776Y005171D02*
X014056Y005171D01*
X014056Y005012D02*
X012776Y005012D01*
X012776Y004854D02*
X014092Y004854D01*
X014169Y004695D02*
X012663Y004695D01*
X012504Y004537D02*
X014338Y004537D01*
X014994Y004537D02*
X015338Y004537D01*
X015169Y004695D02*
X015163Y004695D01*
X015994Y004537D02*
X016338Y004537D01*
X016169Y004695D02*
X016163Y004695D01*
X016994Y004537D02*
X017338Y004537D01*
X017169Y004695D02*
X017163Y004695D01*
X017994Y004537D02*
X018338Y004537D01*
X018169Y004695D02*
X018163Y004695D01*
X018994Y004537D02*
X019338Y004537D01*
X019169Y004695D02*
X019163Y004695D01*
X019994Y004537D02*
X020338Y004537D01*
X020169Y004695D02*
X020163Y004695D01*
X020994Y004537D02*
X021204Y004537D01*
X021646Y004537D02*
X021686Y004537D01*
X021686Y004695D02*
X021646Y004695D01*
X021646Y004854D02*
X021686Y004854D01*
X021686Y005012D02*
X021646Y005012D01*
X021646Y005171D02*
X021686Y005171D01*
X021686Y005329D02*
X021646Y005329D01*
X021646Y005488D02*
X021686Y005488D01*
X021125Y005488D02*
X021102Y005488D01*
X022207Y005488D02*
X022556Y005488D01*
X022602Y005329D02*
X022216Y005329D01*
X022216Y005171D02*
X022694Y005171D01*
X022898Y005012D02*
X022216Y005012D01*
X022216Y004854D02*
X033918Y004854D01*
X033918Y005012D02*
X023435Y005012D01*
X023638Y005171D02*
X024350Y005171D01*
X024459Y005061D02*
X024873Y005061D01*
X025166Y005354D01*
X025166Y005768D01*
X024873Y006061D01*
X024459Y006061D01*
X024166Y005768D01*
X024166Y005354D01*
X024459Y005061D01*
X024191Y005329D02*
X023730Y005329D01*
X023776Y005488D02*
X024166Y005488D01*
X024166Y005646D02*
X023776Y005646D01*
X023726Y005805D02*
X024203Y005805D01*
X024361Y005963D02*
X023627Y005963D01*
X023407Y006122D02*
X028556Y006122D01*
X028556Y006183D02*
X028556Y005940D01*
X028649Y005716D01*
X028821Y005544D01*
X029045Y005451D01*
X029287Y005451D01*
X029512Y005544D01*
X029683Y005716D01*
X029776Y005940D01*
X029776Y006183D01*
X029683Y006407D01*
X029512Y006578D01*
X029287Y006671D01*
X029045Y006671D01*
X028821Y006578D01*
X028649Y006407D01*
X028556Y006183D01*
X028597Y006280D02*
X017272Y006280D01*
X017468Y006439D02*
X024322Y006439D01*
X024383Y006377D02*
X024242Y006518D01*
X024166Y006702D01*
X024166Y007421D01*
X024242Y007605D01*
X024383Y007745D01*
X024567Y007821D01*
X024766Y007821D01*
X024949Y007745D01*
X025090Y007605D01*
X025166Y007421D01*
X025166Y006702D01*
X025090Y006518D01*
X024949Y006377D01*
X024766Y006301D01*
X024567Y006301D01*
X024383Y006377D01*
X024209Y006597D02*
X020909Y006597D01*
X021068Y006756D02*
X024166Y006756D01*
X024166Y006914D02*
X021166Y006914D01*
X021166Y007073D02*
X024166Y007073D01*
X024166Y007231D02*
X021166Y007231D01*
X021045Y007390D02*
X024166Y007390D01*
X024219Y007548D02*
X020886Y007548D01*
X020873Y007561D02*
X020666Y007561D01*
X020666Y007561D01*
X020873Y007561D01*
X021019Y007707D02*
X024345Y007707D01*
X024988Y007707D02*
X025454Y007707D01*
X025436Y007698D02*
X025380Y007657D01*
X025331Y007608D01*
X025290Y007552D01*
X025258Y007490D01*
X025237Y007424D01*
X025226Y007356D01*
X025226Y007061D01*
X025226Y006767D01*
X025237Y006698D01*
X025258Y006632D01*
X025290Y006571D01*
X025331Y006515D01*
X025380Y006466D01*
X025436Y006425D01*
X025497Y006394D01*
X025563Y006372D01*
X025632Y006361D01*
X025666Y006361D01*
X025666Y007061D01*
X025666Y007061D01*
X025226Y007061D01*
X025666Y007061D01*
X025666Y007061D01*
X025666Y006361D01*
X025701Y006361D01*
X025769Y006372D01*
X025835Y006394D01*
X025897Y006425D01*
X025953Y006466D01*
X026002Y006515D01*
X026042Y006571D01*
X026074Y006632D01*
X026095Y006698D01*
X026106Y006767D01*
X026106Y007061D01*
X025666Y007061D01*
X025666Y007061D01*
X025666Y007761D01*
X025632Y007761D01*
X025563Y007750D01*
X025497Y007729D01*
X025436Y007698D01*
X025288Y007548D02*
X025113Y007548D01*
X025166Y007390D02*
X025232Y007390D01*
X025226Y007231D02*
X025166Y007231D01*
X025166Y007073D02*
X025226Y007073D01*
X025226Y006914D02*
X025166Y006914D01*
X025166Y006756D02*
X025228Y006756D01*
X025276Y006597D02*
X025123Y006597D01*
X025011Y006439D02*
X025417Y006439D01*
X025666Y006439D02*
X025666Y006439D01*
X025666Y006597D02*
X025666Y006597D01*
X025666Y006756D02*
X025666Y006756D01*
X025666Y006914D02*
X025666Y006914D01*
X025666Y007061D02*
X026106Y007061D01*
X026106Y007356D01*
X026095Y007424D01*
X026074Y007490D01*
X026042Y007552D01*
X026002Y007608D01*
X025953Y007657D01*
X025897Y007698D01*
X025835Y007729D01*
X025769Y007750D01*
X025701Y007761D01*
X025666Y007761D01*
X025666Y007061D01*
X025666Y007061D01*
X025666Y007073D02*
X025666Y007073D01*
X025666Y007231D02*
X025666Y007231D01*
X025666Y007390D02*
X025666Y007390D01*
X025666Y007548D02*
X025666Y007548D01*
X025666Y007707D02*
X025666Y007707D01*
X025879Y007707D02*
X026345Y007707D01*
X026383Y007745D02*
X026242Y007605D01*
X026166Y007421D01*
X026166Y006702D01*
X026242Y006518D01*
X026383Y006377D01*
X026567Y006301D01*
X026766Y006301D01*
X026949Y006377D01*
X027090Y006518D01*
X027166Y006702D01*
X027166Y007421D01*
X027090Y007605D01*
X026949Y007745D01*
X026766Y007821D01*
X026567Y007821D01*
X026383Y007745D01*
X026219Y007548D02*
X026044Y007548D01*
X026101Y007390D02*
X026166Y007390D01*
X026166Y007231D02*
X026106Y007231D01*
X026106Y007073D02*
X026166Y007073D01*
X026166Y006914D02*
X026106Y006914D01*
X026104Y006756D02*
X026166Y006756D01*
X026209Y006597D02*
X026056Y006597D01*
X025916Y006439D02*
X026322Y006439D01*
X027011Y006439D02*
X027322Y006439D01*
X027383Y006377D02*
X027242Y006518D01*
X027166Y006702D01*
X027166Y007421D01*
X027242Y007605D01*
X027383Y007745D01*
X027567Y007821D01*
X027766Y007821D01*
X027949Y007745D01*
X028090Y007605D01*
X028166Y007421D01*
X028166Y006702D01*
X028090Y006518D01*
X027949Y006377D01*
X027766Y006301D01*
X027567Y006301D01*
X027383Y006377D01*
X027209Y006597D02*
X027123Y006597D01*
X027166Y006756D02*
X027166Y006756D01*
X027166Y006914D02*
X027166Y006914D01*
X027166Y007073D02*
X027166Y007073D01*
X027166Y007231D02*
X027166Y007231D01*
X027166Y007390D02*
X027166Y007390D01*
X027113Y007548D02*
X027219Y007548D01*
X027345Y007707D02*
X026988Y007707D01*
X027988Y007707D02*
X031932Y007707D01*
X031939Y007689D02*
X032090Y007538D01*
X032288Y007456D01*
X032501Y007456D01*
X032699Y007538D01*
X032850Y007689D01*
X032931Y007886D01*
X032931Y008693D01*
X032850Y008891D01*
X032699Y009042D01*
X032501Y009123D01*
X032288Y009123D01*
X032090Y009042D01*
X031939Y008891D01*
X031858Y008693D01*
X031858Y007886D01*
X031939Y007689D01*
X031866Y007865D02*
X021166Y007865D01*
X021166Y008024D02*
X031858Y008024D01*
X031858Y008182D02*
X021166Y008182D01*
X021094Y008341D02*
X031858Y008341D01*
X031858Y008499D02*
X020935Y008499D01*
X020397Y008499D02*
X018966Y008499D01*
X018966Y008658D02*
X031858Y008658D01*
X031909Y008816D02*
X018966Y008816D01*
X018966Y008975D02*
X022988Y008975D01*
X023045Y008951D02*
X023287Y008951D01*
X023512Y009044D01*
X023683Y009216D01*
X023776Y009440D01*
X023776Y009683D01*
X023683Y009907D01*
X023512Y010078D01*
X023287Y010171D01*
X023045Y010171D01*
X022821Y010078D01*
X022649Y009907D01*
X022556Y009683D01*
X022556Y009440D01*
X022649Y009216D01*
X022821Y009044D01*
X023045Y008951D01*
X023344Y008975D02*
X032024Y008975D01*
X032765Y008975D02*
X036166Y008975D01*
X036166Y009133D02*
X023601Y009133D01*
X023715Y009292D02*
X036166Y009292D01*
X036166Y009450D02*
X028022Y009450D01*
X028128Y009609D02*
X028756Y009609D01*
X028821Y009544D02*
X028649Y009716D01*
X028556Y009940D01*
X028556Y010183D01*
X028649Y010407D01*
X028821Y010578D01*
X029045Y010671D01*
X029287Y010671D01*
X029512Y010578D01*
X029683Y010407D01*
X029776Y010183D01*
X029776Y009940D01*
X029683Y009716D01*
X029512Y009544D01*
X029287Y009451D01*
X029045Y009451D01*
X028821Y009544D01*
X028628Y009767D02*
X028166Y009767D01*
X028166Y009926D02*
X028562Y009926D01*
X028556Y010084D02*
X028166Y010084D01*
X028166Y010243D02*
X028581Y010243D01*
X028647Y010401D02*
X028166Y010401D01*
X028109Y010560D02*
X028802Y010560D01*
X029530Y010560D02*
X030302Y010560D01*
X030321Y010578D02*
X030149Y010407D01*
X030056Y010183D01*
X030056Y009940D01*
X030149Y009716D01*
X030321Y009544D01*
X030545Y009451D01*
X030787Y009451D01*
X031012Y009544D01*
X031183Y009716D01*
X031276Y009940D01*
X031276Y010183D01*
X031183Y010407D01*
X031012Y010578D01*
X030787Y010671D01*
X030545Y010671D01*
X030321Y010578D01*
X030147Y010401D02*
X029686Y010401D01*
X029751Y010243D02*
X030081Y010243D01*
X030056Y010084D02*
X029776Y010084D01*
X029770Y009926D02*
X030062Y009926D01*
X030128Y009767D02*
X029705Y009767D01*
X029576Y009609D02*
X030256Y009609D01*
X031076Y009609D02*
X036166Y009609D01*
X036166Y009767D02*
X031205Y009767D01*
X031270Y009926D02*
X036166Y009926D01*
X036166Y010084D02*
X031276Y010084D01*
X031251Y010243D02*
X035267Y010243D01*
X035294Y010223D02*
X035361Y010189D01*
X035432Y010165D01*
X035507Y010154D01*
X035526Y010154D01*
X035526Y010909D01*
X035563Y010909D01*
X035563Y010946D01*
X036021Y010946D01*
X036021Y011262D01*
X036009Y011336D01*
X035986Y011407D01*
X035952Y011474D01*
X035908Y011535D01*
X035855Y011588D01*
X035794Y011632D01*
X035727Y011666D01*
X035656Y011689D01*
X035582Y011701D01*
X035563Y011701D01*
X035563Y010946D01*
X035526Y010946D01*
X035526Y011701D01*
X035507Y011701D01*
X035432Y011689D01*
X035361Y011666D01*
X035294Y011632D01*
X035233Y011588D01*
X035180Y011535D01*
X035136Y011474D01*
X035102Y011407D01*
X035079Y011336D01*
X035067Y011262D01*
X035067Y010946D01*
X035526Y010946D01*
X035526Y010909D01*
X035067Y010909D01*
X035067Y010593D01*
X035079Y010519D01*
X035102Y010448D01*
X035136Y010381D01*
X035180Y010320D01*
X035233Y010267D01*
X035294Y010223D01*
X035526Y010243D02*
X035563Y010243D01*
X035563Y010154D02*
X035582Y010154D01*
X035656Y010165D01*
X035727Y010189D01*
X035794Y010223D01*
X035855Y010267D01*
X035908Y010320D01*
X035952Y010381D01*
X035986Y010448D01*
X036009Y010519D01*
X036021Y010593D01*
X036021Y010909D01*
X035563Y010909D01*
X035563Y010154D01*
X035563Y010401D02*
X035526Y010401D01*
X035526Y010560D02*
X035563Y010560D01*
X035563Y010718D02*
X035526Y010718D01*
X035526Y010877D02*
X035563Y010877D01*
X035563Y011035D02*
X035526Y011035D01*
X035526Y011194D02*
X035563Y011194D01*
X035563Y011352D02*
X035526Y011352D01*
X035526Y011511D02*
X035563Y011511D01*
X035563Y011669D02*
X035526Y011669D01*
X035371Y011669D02*
X033466Y011669D01*
X033466Y011511D02*
X035163Y011511D01*
X035084Y011352D02*
X033498Y011352D01*
X033588Y011194D02*
X035067Y011194D01*
X035067Y011035D02*
X033622Y011035D01*
X033613Y010877D02*
X035067Y010877D01*
X035067Y010718D02*
X033547Y010718D01*
X033398Y010560D02*
X035073Y010560D01*
X035126Y010401D02*
X031186Y010401D01*
X031030Y010560D02*
X032178Y010560D01*
X032029Y010718D02*
X027976Y010718D01*
X027356Y010718D02*
X026976Y010718D01*
X027109Y010560D02*
X027224Y010560D01*
X027166Y010401D02*
X027166Y010401D01*
X027166Y010243D02*
X027166Y010243D01*
X027166Y010084D02*
X027166Y010084D01*
X027166Y009926D02*
X027166Y009926D01*
X027166Y009767D02*
X027166Y009767D01*
X027128Y009609D02*
X027205Y009609D01*
X027310Y009450D02*
X027022Y009450D01*
X026310Y009450D02*
X026022Y009450D01*
X026128Y009609D02*
X026205Y009609D01*
X026166Y009767D02*
X026166Y009767D01*
X026166Y009926D02*
X026166Y009926D01*
X026166Y010084D02*
X026166Y010084D01*
X025166Y010084D02*
X025166Y010084D01*
X025166Y009926D02*
X025166Y009926D01*
X025166Y009767D02*
X025166Y009767D01*
X025128Y009609D02*
X025205Y009609D01*
X025310Y009450D02*
X025022Y009450D01*
X024310Y009450D02*
X023776Y009450D01*
X023776Y009609D02*
X024205Y009609D01*
X024166Y009767D02*
X023741Y009767D01*
X023664Y009926D02*
X024166Y009926D01*
X024166Y010084D02*
X023497Y010084D01*
X024166Y010243D02*
X020055Y010243D01*
X020166Y010401D02*
X024166Y010401D01*
X024224Y010560D02*
X020166Y010560D01*
X020166Y010718D02*
X024356Y010718D01*
X024976Y010718D02*
X025356Y010718D01*
X025224Y010560D02*
X025109Y010560D01*
X025166Y010401D02*
X025166Y010401D01*
X025166Y010243D02*
X025166Y010243D01*
X026057Y010877D02*
X020058Y010877D01*
X019899Y011035D02*
X026216Y011035D01*
X026327Y011194D02*
X025921Y011194D01*
X025848Y011121D02*
X026106Y011379D01*
X026106Y011561D01*
X025666Y011561D01*
X025666Y011121D01*
X025484Y011121D01*
X025226Y011379D01*
X025226Y011561D01*
X025666Y011561D01*
X025666Y011561D01*
X025666Y011561D01*
X025666Y011121D01*
X025848Y011121D01*
X025666Y011194D02*
X025666Y011194D01*
X025666Y011352D02*
X025666Y011352D01*
X025666Y011511D02*
X025666Y011511D01*
X025666Y011561D02*
X025666Y011561D01*
X025226Y011561D01*
X025226Y011744D01*
X025484Y012001D01*
X025666Y012001D01*
X025666Y011561D01*
X025666Y011561D01*
X026106Y011561D01*
X026106Y011744D01*
X025848Y012001D01*
X025666Y012001D01*
X025666Y011561D01*
X025666Y011669D02*
X025666Y011669D01*
X025666Y011828D02*
X025666Y011828D01*
X025666Y011986D02*
X025666Y011986D01*
X025469Y011986D02*
X024363Y011986D01*
X024348Y012001D02*
X024166Y012001D01*
X023984Y012001D01*
X023726Y011744D01*
X023726Y011561D01*
X023726Y011379D01*
X023984Y011121D01*
X024166Y011121D01*
X024166Y011561D01*
X024166Y011561D01*
X023726Y011561D01*
X024166Y011561D01*
X024166Y011561D01*
X024166Y011121D01*
X024348Y011121D01*
X024606Y011379D01*
X024606Y011561D01*
X024166Y011561D01*
X024166Y011561D01*
X024166Y012001D01*
X024166Y011561D01*
X024166Y011561D01*
X024606Y011561D01*
X024606Y011744D01*
X024348Y012001D01*
X024166Y011986D02*
X024166Y011986D01*
X024166Y011828D02*
X024166Y011828D01*
X024166Y011669D02*
X024166Y011669D01*
X024166Y011511D02*
X024166Y011511D01*
X024166Y011352D02*
X024166Y011352D01*
X024166Y011194D02*
X024166Y011194D01*
X023911Y011194D02*
X023506Y011194D01*
X023373Y011061D02*
X023666Y011354D01*
X023666Y011768D01*
X023373Y012061D01*
X022959Y012061D01*
X022666Y011768D01*
X022666Y011354D01*
X022959Y011061D01*
X023373Y011061D01*
X023664Y011352D02*
X023753Y011352D01*
X023726Y011511D02*
X023666Y011511D01*
X023666Y011669D02*
X023726Y011669D01*
X023810Y011828D02*
X023607Y011828D01*
X023448Y011986D02*
X023969Y011986D01*
X024522Y011828D02*
X025310Y011828D01*
X025226Y011669D02*
X024606Y011669D01*
X024606Y011511D02*
X025226Y011511D01*
X025253Y011352D02*
X024579Y011352D01*
X024421Y011194D02*
X025411Y011194D01*
X026079Y011352D02*
X026168Y011352D01*
X026166Y011511D02*
X026106Y011511D01*
X026106Y011669D02*
X026166Y011669D01*
X026226Y011828D02*
X026022Y011828D01*
X025863Y011986D02*
X026384Y011986D01*
X026948Y011986D02*
X027884Y011986D01*
X027726Y011828D02*
X027107Y011828D01*
X027166Y011669D02*
X027666Y011669D01*
X027666Y011511D02*
X027166Y011511D01*
X028448Y011986D02*
X028884Y011986D01*
X028726Y011828D02*
X028607Y011828D01*
X028666Y011768D02*
X028666Y011361D01*
X028666Y011361D01*
X028666Y011768D01*
X028666Y011669D02*
X028666Y011669D01*
X028666Y011511D02*
X028666Y011511D01*
X029448Y011986D02*
X030866Y011986D01*
X030866Y011828D02*
X029607Y011828D01*
X029666Y011669D02*
X030866Y011669D01*
X030866Y011511D02*
X029666Y011511D01*
X030866Y012145D02*
X020643Y012145D01*
X020666Y012303D02*
X030866Y012303D01*
X030866Y012462D02*
X020666Y012462D01*
X020666Y012620D02*
X030866Y012620D01*
X030866Y012779D02*
X020666Y012779D01*
X020659Y012937D02*
X030866Y012937D01*
X030866Y013096D02*
X030563Y013096D01*
X030512Y013044D02*
X030683Y013216D01*
X030776Y013440D01*
X030776Y013683D01*
X030683Y013907D01*
X030512Y014078D01*
X030287Y014171D01*
X030045Y014171D01*
X029821Y014078D01*
X029649Y013907D01*
X029556Y013683D01*
X029556Y013440D01*
X029649Y013216D01*
X029821Y013044D01*
X030045Y012951D01*
X030287Y012951D01*
X030512Y013044D01*
X030699Y013254D02*
X030866Y013254D01*
X030866Y013413D02*
X030765Y013413D01*
X030776Y013571D02*
X030866Y013571D01*
X030866Y013730D02*
X030757Y013730D01*
X030691Y013888D02*
X030866Y013888D01*
X030866Y014047D02*
X030543Y014047D01*
X030866Y014205D02*
X024734Y014205D01*
X024576Y014047D02*
X025908Y014047D01*
X025878Y014032D02*
X025955Y014071D01*
X026037Y014098D01*
X026123Y014111D01*
X026158Y014111D01*
X026158Y013570D01*
X026175Y013570D01*
X026716Y013570D01*
X026716Y013605D01*
X026703Y013690D01*
X026676Y013772D01*
X026637Y013850D01*
X026586Y013920D01*
X026524Y013981D01*
X026454Y014032D01*
X026377Y014071D01*
X026295Y014098D01*
X026209Y014111D01*
X026175Y014111D01*
X026175Y013570D01*
X026175Y013553D01*
X026716Y013553D01*
X026716Y013518D01*
X026703Y013432D01*
X026676Y013350D01*
X026637Y013273D01*
X026586Y013203D01*
X026524Y013142D01*
X026454Y013091D01*
X026377Y013052D01*
X026295Y013025D01*
X026209Y013011D01*
X026175Y013011D01*
X026175Y013553D01*
X026158Y013553D01*
X026158Y013011D01*
X026123Y013011D01*
X026037Y013025D01*
X025955Y013052D01*
X025878Y013091D01*
X025808Y013142D01*
X025747Y013203D01*
X025696Y013273D01*
X025656Y013350D01*
X025630Y013432D01*
X025616Y013518D01*
X025616Y013553D01*
X026158Y013553D01*
X026158Y013570D01*
X025616Y013570D01*
X025616Y013605D01*
X025630Y013690D01*
X025656Y013772D01*
X025696Y013850D01*
X025747Y013920D01*
X025808Y013981D01*
X025878Y014032D01*
X025724Y013888D02*
X024417Y013888D01*
X024042Y014361D02*
X022588Y014361D01*
X022606Y014379D01*
X022606Y014561D01*
X022166Y014561D01*
X021726Y014561D01*
X021726Y014379D01*
X021744Y014361D01*
X021666Y014361D01*
X021666Y014637D01*
X021726Y014697D01*
X021726Y014561D01*
X022166Y014561D01*
X022166Y014561D01*
X022166Y014561D01*
X022606Y014561D01*
X022606Y014744D01*
X022588Y014761D01*
X023226Y014761D01*
X023336Y014807D01*
X023420Y014891D01*
X024400Y015870D01*
X024567Y015801D01*
X024766Y015801D01*
X024949Y015877D01*
X025090Y016018D01*
X025166Y016202D01*
X025166Y016637D01*
X025166Y016637D01*
X025166Y016202D01*
X025242Y016018D01*
X025383Y015877D01*
X025507Y015826D01*
X024042Y014361D01*
X024044Y014364D02*
X022591Y014364D01*
X022606Y014522D02*
X024203Y014522D01*
X024361Y014681D02*
X022606Y014681D01*
X023368Y014839D02*
X024520Y014839D01*
X024678Y014998D02*
X023527Y014998D01*
X023685Y015156D02*
X024837Y015156D01*
X024995Y015315D02*
X023844Y015315D01*
X024002Y015473D02*
X025154Y015473D01*
X025312Y015632D02*
X024161Y015632D01*
X024319Y015790D02*
X025471Y015790D01*
X025312Y015949D02*
X025021Y015949D01*
X025127Y016107D02*
X025205Y016107D01*
X025166Y016266D02*
X025166Y016266D01*
X025166Y016424D02*
X025166Y016424D01*
X025166Y016583D02*
X025166Y016583D01*
X024383Y017245D02*
X024242Y017105D01*
X024166Y016921D01*
X024166Y016486D01*
X024106Y016426D01*
X024106Y016561D01*
X023666Y016561D01*
X023226Y016561D01*
X023226Y016267D01*
X023237Y016198D01*
X023258Y016132D01*
X023290Y016071D01*
X023331Y016015D01*
X023380Y015966D01*
X023436Y015925D01*
X023497Y015894D01*
X023555Y015875D01*
X023042Y015361D01*
X021606Y015361D01*
X021496Y015316D01*
X021242Y015061D01*
X020966Y015061D01*
X020966Y017621D01*
X020920Y017731D01*
X020836Y017816D01*
X019920Y018731D01*
X019920Y018731D01*
X019836Y018816D01*
X019726Y018861D01*
X019290Y018861D01*
X018726Y019426D01*
X018765Y019426D01*
X018948Y019502D01*
X019088Y019642D01*
X019164Y019825D01*
X019164Y020022D01*
X019088Y020205D01*
X019032Y020261D01*
X020542Y020261D01*
X022912Y017891D01*
X022996Y017807D01*
X023106Y017761D01*
X025442Y017761D01*
X024933Y017252D01*
X024766Y017321D01*
X024567Y017321D01*
X024383Y017245D01*
X024355Y017217D02*
X023859Y017217D01*
X023835Y017229D02*
X023769Y017250D01*
X023701Y017261D01*
X023666Y017261D01*
X023632Y017261D01*
X023563Y017250D01*
X023497Y017229D01*
X023436Y017198D01*
X023380Y017157D01*
X023331Y017108D01*
X023290Y017052D01*
X023258Y016990D01*
X023237Y016924D01*
X023226Y016856D01*
X023226Y016561D01*
X023666Y016561D01*
X023666Y016561D01*
X023666Y016561D01*
X023666Y017261D01*
X023666Y016561D01*
X023666Y016561D01*
X024106Y016561D01*
X024106Y016856D01*
X024095Y016924D01*
X024074Y016990D01*
X024042Y017052D01*
X024002Y017108D01*
X023953Y017157D01*
X023897Y017198D01*
X023835Y017229D01*
X023666Y017217D02*
X023666Y017217D01*
X023666Y017058D02*
X023666Y017058D01*
X023666Y016900D02*
X023666Y016900D01*
X023666Y016741D02*
X023666Y016741D01*
X023666Y016583D02*
X023666Y016583D01*
X023226Y016583D02*
X023166Y016583D01*
X023166Y016741D02*
X023226Y016741D01*
X023233Y016900D02*
X023166Y016900D01*
X023166Y016921D02*
X023090Y017105D01*
X022949Y017245D01*
X022766Y017321D01*
X022567Y017321D01*
X022383Y017245D01*
X022242Y017105D01*
X022166Y016921D01*
X022166Y016202D01*
X022242Y016018D01*
X022383Y015877D01*
X022567Y015801D01*
X022766Y015801D01*
X022949Y015877D01*
X023090Y016018D01*
X023166Y016202D01*
X023166Y016921D01*
X023109Y017058D02*
X023294Y017058D01*
X023473Y017217D02*
X022978Y017217D01*
X022355Y017217D02*
X020966Y017217D01*
X020966Y017375D02*
X025056Y017375D01*
X025214Y017534D02*
X020966Y017534D01*
X020937Y017692D02*
X025373Y017692D01*
X024223Y017058D02*
X024038Y017058D01*
X024099Y016900D02*
X024166Y016900D01*
X024166Y016741D02*
X024106Y016741D01*
X024106Y016583D02*
X024166Y016583D01*
X023226Y016424D02*
X023166Y016424D01*
X023166Y016266D02*
X023226Y016266D01*
X023271Y016107D02*
X023127Y016107D01*
X023021Y015949D02*
X023403Y015949D01*
X023471Y015790D02*
X020966Y015790D01*
X020966Y015632D02*
X023312Y015632D01*
X023154Y015473D02*
X020966Y015473D01*
X020966Y015315D02*
X021495Y015315D01*
X021337Y015156D02*
X020966Y015156D01*
X020366Y015156D02*
X020038Y015156D01*
X020090Y015105D02*
X019949Y015245D01*
X019766Y015321D01*
X019567Y015321D01*
X019383Y015245D01*
X019242Y015105D01*
X019166Y014921D01*
X019166Y014202D01*
X019242Y014018D01*
X019383Y013877D01*
X019567Y013801D01*
X019766Y013801D01*
X019949Y013877D01*
X020090Y014018D01*
X020166Y014202D01*
X020166Y014921D01*
X020090Y015105D01*
X020134Y014998D02*
X020366Y014998D01*
X020366Y014839D02*
X020166Y014839D01*
X020166Y014681D02*
X020366Y014681D01*
X020366Y014522D02*
X020166Y014522D01*
X020166Y014364D02*
X020366Y014364D01*
X020366Y014205D02*
X020166Y014205D01*
X020102Y014047D02*
X020366Y014047D01*
X020415Y013888D02*
X019960Y013888D01*
X019422Y013730D02*
X025643Y013730D01*
X025616Y013571D02*
X019580Y013571D01*
X019739Y013413D02*
X025636Y013413D01*
X025709Y013254D02*
X020427Y013254D01*
X020594Y013096D02*
X025871Y013096D01*
X026158Y013096D02*
X026175Y013096D01*
X026158Y013254D02*
X026175Y013254D01*
X026158Y013413D02*
X026175Y013413D01*
X026158Y013571D02*
X026175Y013571D01*
X026158Y013730D02*
X026175Y013730D01*
X026158Y013888D02*
X026175Y013888D01*
X026158Y014047D02*
X026175Y014047D01*
X026425Y014047D02*
X029789Y014047D01*
X029641Y013888D02*
X026608Y013888D01*
X026690Y013730D02*
X029576Y013730D01*
X029556Y013571D02*
X026716Y013571D01*
X026696Y013413D02*
X029567Y013413D01*
X029633Y013254D02*
X026623Y013254D01*
X026461Y013096D02*
X029769Y013096D01*
X031466Y013096D02*
X032866Y013096D01*
X032866Y013254D02*
X031466Y013254D01*
X031466Y013413D02*
X032866Y013413D01*
X032866Y013571D02*
X032732Y013571D01*
X032866Y012937D02*
X031466Y012937D01*
X031466Y012779D02*
X032866Y012779D01*
X032866Y012620D02*
X032101Y012620D01*
X032310Y012462D02*
X032866Y012462D01*
X032866Y012303D02*
X032392Y012303D01*
X032420Y012145D02*
X032866Y012145D01*
X032866Y011986D02*
X032420Y011986D01*
X032420Y011828D02*
X032866Y011828D01*
X032866Y011669D02*
X032420Y011669D01*
X031964Y010877D02*
X031406Y010877D01*
X031466Y011035D02*
X031689Y011035D01*
X033466Y011828D02*
X036166Y011828D01*
X036166Y011986D02*
X033466Y011986D01*
X033466Y012145D02*
X036166Y012145D01*
X036166Y012303D02*
X033466Y012303D01*
X033466Y012462D02*
X036166Y012462D01*
X036166Y012620D02*
X033466Y012620D01*
X033466Y012779D02*
X036166Y012779D01*
X036166Y012937D02*
X033466Y012937D01*
X033466Y013096D02*
X036166Y013096D01*
X036166Y013254D02*
X033466Y013254D01*
X033466Y013413D02*
X036166Y013413D01*
X036166Y013571D02*
X033466Y013571D01*
X033466Y013730D02*
X036166Y013730D01*
X036166Y013888D02*
X033466Y013888D01*
X033466Y014047D02*
X036166Y014047D01*
X036166Y014205D02*
X033466Y014205D01*
X033466Y014364D02*
X036166Y014364D01*
X036166Y014522D02*
X033466Y014522D01*
X033466Y014681D02*
X036166Y014681D01*
X036166Y014839D02*
X033466Y014839D01*
X033466Y014998D02*
X036166Y014998D01*
X036166Y015156D02*
X033466Y015156D01*
X033466Y015315D02*
X036166Y015315D01*
X036166Y015473D02*
X033466Y015473D01*
X033466Y015632D02*
X036166Y015632D01*
X036166Y015790D02*
X033466Y015790D01*
X033466Y015949D02*
X036166Y015949D01*
X036166Y016107D02*
X033466Y016107D01*
X033466Y016266D02*
X035235Y016266D01*
X035233Y016267D02*
X035294Y016223D01*
X035361Y016189D01*
X035432Y016165D01*
X035507Y016154D01*
X035526Y016154D01*
X035526Y016909D01*
X035563Y016909D01*
X035563Y016946D01*
X036021Y016946D01*
X036021Y017262D01*
X036009Y017336D01*
X035986Y017407D01*
X035952Y017474D01*
X035908Y017535D01*
X035855Y017588D01*
X035794Y017632D01*
X035727Y017666D01*
X035656Y017689D01*
X035582Y017701D01*
X035563Y017701D01*
X035563Y016946D01*
X035526Y016946D01*
X035526Y017701D01*
X035507Y017701D01*
X035432Y017689D01*
X035361Y017666D01*
X035294Y017632D01*
X035233Y017588D01*
X035180Y017535D01*
X035136Y017474D01*
X035102Y017407D01*
X035079Y017336D01*
X035067Y017262D01*
X035067Y016946D01*
X035526Y016946D01*
X035526Y016909D01*
X035067Y016909D01*
X035067Y016593D01*
X035079Y016519D01*
X035102Y016448D01*
X035136Y016381D01*
X035180Y016320D01*
X035233Y016267D01*
X035114Y016424D02*
X033466Y016424D01*
X033466Y016583D02*
X035069Y016583D01*
X035067Y016741D02*
X033556Y016741D01*
X033622Y016900D02*
X035067Y016900D01*
X035067Y017058D02*
X033622Y017058D01*
X033579Y017217D02*
X035067Y017217D01*
X035092Y017375D02*
X033475Y017375D01*
X033214Y017534D02*
X035180Y017534D01*
X035451Y017692D02*
X032420Y017692D01*
X032420Y017851D02*
X036166Y017851D01*
X036166Y018009D02*
X032420Y018009D01*
X032420Y018168D02*
X036166Y018168D01*
X036166Y018326D02*
X032382Y018326D01*
X032287Y018485D02*
X036166Y018485D01*
X036166Y018643D02*
X032046Y018643D01*
X031720Y018643D02*
X023008Y018643D01*
X022850Y018802D02*
X023565Y018802D01*
X023567Y018801D02*
X023766Y018801D01*
X023949Y018877D01*
X024090Y019018D01*
X024166Y019202D01*
X024166Y019921D01*
X024090Y020105D01*
X023949Y020245D01*
X023766Y020321D01*
X023567Y020321D01*
X023383Y020245D01*
X023242Y020105D01*
X023166Y019921D01*
X023166Y019202D01*
X023242Y019018D01*
X023383Y018877D01*
X023567Y018801D01*
X023767Y018802D02*
X024565Y018802D01*
X024567Y018801D02*
X024766Y018801D01*
X024949Y018877D01*
X025090Y019018D01*
X025166Y019202D01*
X025166Y019921D01*
X025090Y020105D01*
X024949Y020245D01*
X024766Y020321D01*
X024567Y020321D01*
X024383Y020245D01*
X024242Y020105D01*
X024166Y019921D01*
X024166Y019202D01*
X024242Y019018D01*
X024383Y018877D01*
X024567Y018801D01*
X024767Y018802D02*
X025565Y018802D01*
X025567Y018801D02*
X025766Y018801D01*
X025949Y018877D01*
X026090Y019018D01*
X026166Y019202D01*
X026166Y019921D01*
X026090Y020105D01*
X025949Y020245D01*
X025766Y020321D01*
X025567Y020321D01*
X025383Y020245D01*
X025242Y020105D01*
X025166Y019921D01*
X025166Y019202D01*
X025242Y019018D01*
X025383Y018877D01*
X025567Y018801D01*
X025767Y018802D02*
X026565Y018802D01*
X026567Y018801D02*
X026766Y018801D01*
X026949Y018877D01*
X027090Y019018D01*
X027166Y019202D01*
X027166Y019921D01*
X027090Y020105D01*
X026949Y020245D01*
X026766Y020321D01*
X026567Y020321D01*
X026383Y020245D01*
X026242Y020105D01*
X026166Y019921D01*
X026166Y019202D01*
X026242Y019018D01*
X026383Y018877D01*
X026567Y018801D01*
X026767Y018802D02*
X027565Y018802D01*
X027567Y018801D02*
X027766Y018801D01*
X027949Y018877D01*
X028090Y019018D01*
X028166Y019202D01*
X028166Y019921D01*
X028090Y020105D01*
X027949Y020245D01*
X027766Y020321D01*
X027567Y020321D01*
X027383Y020245D01*
X027242Y020105D01*
X027166Y019921D01*
X027166Y019202D01*
X027242Y019018D01*
X027383Y018877D01*
X027567Y018801D01*
X027767Y018802D02*
X028565Y018802D01*
X028567Y018801D02*
X028766Y018801D01*
X028949Y018877D01*
X029090Y019018D01*
X029166Y019202D01*
X029166Y019921D01*
X029090Y020105D01*
X028949Y020245D01*
X028766Y020321D01*
X028567Y020321D01*
X028383Y020245D01*
X028242Y020105D01*
X028166Y019921D01*
X028166Y019202D01*
X028242Y019018D01*
X028383Y018877D01*
X028567Y018801D01*
X028767Y018802D02*
X029565Y018802D01*
X029567Y018801D02*
X029766Y018801D01*
X029949Y018877D01*
X030090Y019018D01*
X030166Y019202D01*
X030166Y019921D01*
X030090Y020105D01*
X029949Y020245D01*
X029766Y020321D01*
X029567Y020321D01*
X029383Y020245D01*
X029242Y020105D01*
X029166Y019921D01*
X029166Y019202D01*
X029242Y019018D01*
X029383Y018877D01*
X029567Y018801D01*
X029767Y018802D02*
X030565Y018802D01*
X030567Y018801D02*
X030766Y018801D01*
X030949Y018877D01*
X031090Y019018D01*
X031166Y019202D01*
X031166Y019921D01*
X031090Y020105D01*
X030949Y020245D01*
X030766Y020321D01*
X030567Y020321D01*
X030383Y020245D01*
X030242Y020105D01*
X030166Y019921D01*
X030166Y019202D01*
X030242Y019018D01*
X030383Y018877D01*
X030567Y018801D01*
X030767Y018802D02*
X036166Y018802D01*
X036166Y018960D02*
X031032Y018960D01*
X031132Y019119D02*
X036166Y019119D01*
X036166Y019277D02*
X031166Y019277D01*
X031166Y019436D02*
X036166Y019436D01*
X036166Y019594D02*
X031166Y019594D01*
X031166Y019753D02*
X035009Y019753D01*
X034616Y019911D02*
X031166Y019911D01*
X031104Y020070D02*
X034392Y020070D01*
X034241Y020228D02*
X030966Y020228D01*
X030787Y020451D02*
X031012Y020544D01*
X031183Y020716D01*
X031276Y020940D01*
X031276Y021183D01*
X031183Y021407D01*
X031012Y021578D01*
X030787Y021671D01*
X030545Y021671D01*
X030321Y021578D01*
X030166Y021424D01*
X030012Y021578D01*
X029787Y021671D01*
X029545Y021671D01*
X029321Y021578D01*
X029166Y021424D01*
X029012Y021578D01*
X028787Y021671D01*
X028545Y021671D01*
X028321Y021578D01*
X028166Y021424D01*
X028012Y021578D01*
X027787Y021671D01*
X027545Y021671D01*
X027321Y021578D01*
X027166Y021424D01*
X027012Y021578D01*
X026787Y021671D01*
X026545Y021671D01*
X026321Y021578D01*
X026166Y021424D01*
X026012Y021578D01*
X025787Y021671D01*
X025545Y021671D01*
X025321Y021578D01*
X025166Y021424D01*
X025012Y021578D01*
X024787Y021671D01*
X024545Y021671D01*
X024321Y021578D01*
X024166Y021424D01*
X024012Y021578D01*
X023787Y021671D01*
X023545Y021671D01*
X023321Y021578D01*
X023166Y021424D01*
X023012Y021578D01*
X022787Y021671D01*
X022545Y021671D01*
X022321Y021578D01*
X022166Y021424D01*
X022012Y021578D01*
X021787Y021671D01*
X021545Y021671D01*
X021321Y021578D01*
X021149Y021407D01*
X021056Y021183D01*
X021056Y020940D01*
X021149Y020716D01*
X021321Y020544D01*
X021545Y020451D01*
X021787Y020451D01*
X022012Y020544D01*
X022166Y020699D01*
X022321Y020544D01*
X022545Y020451D01*
X022787Y020451D01*
X023012Y020544D01*
X023166Y020699D01*
X023321Y020544D01*
X023545Y020451D01*
X023787Y020451D01*
X024012Y020544D01*
X024166Y020699D01*
X024321Y020544D01*
X024545Y020451D01*
X024787Y020451D01*
X025012Y020544D01*
X025166Y020699D01*
X025321Y020544D01*
X025545Y020451D01*
X025787Y020451D01*
X026012Y020544D01*
X026166Y020699D01*
X026321Y020544D01*
X026545Y020451D01*
X026787Y020451D01*
X027012Y020544D01*
X027166Y020699D01*
X027321Y020544D01*
X027545Y020451D01*
X027787Y020451D01*
X028012Y020544D01*
X028166Y020699D01*
X028321Y020544D01*
X028545Y020451D01*
X028787Y020451D01*
X029012Y020544D01*
X029166Y020699D01*
X029321Y020544D01*
X029545Y020451D01*
X029787Y020451D01*
X030012Y020544D01*
X030166Y020699D01*
X030321Y020544D01*
X030545Y020451D01*
X030787Y020451D01*
X031013Y020545D02*
X034044Y020545D01*
X033981Y020704D02*
X031171Y020704D01*
X031244Y020862D02*
X033947Y020862D01*
X033926Y021021D02*
X031276Y021021D01*
X031276Y021179D02*
X033918Y021179D01*
X033918Y021338D02*
X031212Y021338D01*
X031094Y021496D02*
X033918Y021496D01*
X033918Y021655D02*
X030827Y021655D01*
X030505Y021655D02*
X029827Y021655D01*
X030094Y021496D02*
X030238Y021496D01*
X029505Y021655D02*
X028827Y021655D01*
X029094Y021496D02*
X029238Y021496D01*
X028505Y021655D02*
X027827Y021655D01*
X028094Y021496D02*
X028238Y021496D01*
X027505Y021655D02*
X026827Y021655D01*
X027094Y021496D02*
X027238Y021496D01*
X026505Y021655D02*
X025827Y021655D01*
X026094Y021496D02*
X026238Y021496D01*
X025505Y021655D02*
X024827Y021655D01*
X025094Y021496D02*
X025238Y021496D01*
X024505Y021655D02*
X023827Y021655D01*
X024094Y021496D02*
X024238Y021496D01*
X023505Y021655D02*
X022827Y021655D01*
X023094Y021496D02*
X023238Y021496D01*
X022505Y021655D02*
X021827Y021655D01*
X022094Y021496D02*
X022238Y021496D01*
X021505Y021655D02*
X009997Y021655D01*
X009838Y021813D02*
X033918Y021813D01*
X033918Y021972D02*
X009618Y021972D01*
X010155Y021496D02*
X021238Y021496D01*
X021120Y021338D02*
X010314Y021338D01*
X010472Y021179D02*
X021056Y021179D01*
X021056Y021021D02*
X010631Y021021D01*
X010789Y020862D02*
X021088Y020862D01*
X021161Y020704D02*
X020948Y020704D01*
X021106Y020545D02*
X021319Y020545D01*
X021265Y020387D02*
X034126Y020387D01*
X031478Y018485D02*
X023167Y018485D01*
X022794Y018009D02*
X020642Y018009D01*
X020484Y018168D02*
X022635Y018168D01*
X022477Y018326D02*
X020325Y018326D01*
X020167Y018485D02*
X022318Y018485D01*
X022160Y018643D02*
X020008Y018643D01*
X019850Y018802D02*
X022001Y018802D01*
X021843Y018960D02*
X019191Y018960D01*
X019033Y019119D02*
X021684Y019119D01*
X021526Y019277D02*
X018874Y019277D01*
X018789Y019436D02*
X021367Y019436D01*
X021209Y019594D02*
X019041Y019594D01*
X019134Y019753D02*
X021050Y019753D01*
X020892Y019911D02*
X019164Y019911D01*
X019144Y020070D02*
X020733Y020070D01*
X020575Y020228D02*
X019065Y020228D01*
X018026Y019277D02*
X015806Y019277D01*
X015648Y019119D02*
X018184Y019119D01*
X018343Y018960D02*
X015489Y018960D01*
X015331Y018802D02*
X018501Y018802D01*
X018660Y018643D02*
X015172Y018643D01*
X015014Y018485D02*
X018818Y018485D01*
X018912Y018391D02*
X018996Y018307D01*
X019106Y018261D01*
X019422Y018261D01*
X019383Y018245D01*
X019242Y018105D01*
X019166Y017921D01*
X019090Y018105D01*
X018949Y018245D01*
X018766Y018321D01*
X018567Y018321D01*
X018383Y018245D01*
X018242Y018105D01*
X018166Y017921D01*
X018090Y018105D01*
X017949Y018245D01*
X017766Y018321D01*
X017567Y018321D01*
X017383Y018245D01*
X017242Y018105D01*
X017166Y017921D01*
X017090Y018105D01*
X016949Y018245D01*
X016766Y018321D01*
X016567Y018321D01*
X016383Y018245D01*
X016242Y018105D01*
X016166Y017921D01*
X016090Y018105D01*
X015949Y018245D01*
X015766Y018321D01*
X015567Y018321D01*
X015383Y018245D01*
X015242Y018105D01*
X015166Y017921D01*
X015090Y018105D01*
X014949Y018245D01*
X014826Y018296D01*
X016250Y019721D01*
X016485Y019486D01*
X016666Y019486D01*
X016666Y019923D01*
X016666Y019923D01*
X016666Y019486D01*
X016847Y019486D01*
X017104Y019742D01*
X017104Y019923D01*
X016666Y019923D01*
X016666Y019923D01*
X017104Y019923D01*
X017104Y020105D01*
X016947Y020261D01*
X017300Y020261D01*
X017244Y020205D01*
X017169Y020022D01*
X017169Y019825D01*
X017244Y019642D01*
X017384Y019502D01*
X017567Y019426D01*
X017765Y019426D01*
X017844Y019459D01*
X018912Y018391D01*
X018977Y018326D02*
X014855Y018326D01*
X015027Y018168D02*
X015306Y018168D01*
X015203Y018009D02*
X015129Y018009D01*
X015166Y017921D02*
X015166Y017202D01*
X015166Y017921D01*
X015166Y017851D02*
X015166Y017851D01*
X015166Y017692D02*
X015166Y017692D01*
X015166Y017534D02*
X015166Y017534D01*
X015166Y017375D02*
X015166Y017375D01*
X015166Y017217D02*
X015166Y017217D01*
X015166Y017202D02*
X015242Y017018D01*
X015383Y016877D01*
X015422Y016861D01*
X014910Y016861D01*
X014949Y016877D01*
X015090Y017018D01*
X015166Y017202D01*
X015107Y017058D02*
X015226Y017058D01*
X015361Y016900D02*
X014972Y016900D01*
X015910Y016861D02*
X015949Y016877D01*
X016090Y017018D01*
X016166Y017202D01*
X016166Y017921D01*
X016166Y017202D01*
X016242Y017018D01*
X016383Y016877D01*
X016422Y016861D01*
X015910Y016861D01*
X015972Y016900D02*
X016361Y016900D01*
X016226Y017058D02*
X016107Y017058D01*
X016166Y017217D02*
X016166Y017217D01*
X016166Y017375D02*
X016166Y017375D01*
X016166Y017534D02*
X016166Y017534D01*
X016166Y017692D02*
X016166Y017692D01*
X016166Y017851D02*
X016166Y017851D01*
X016129Y018009D02*
X016203Y018009D01*
X016306Y018168D02*
X016027Y018168D01*
X017027Y018168D02*
X017306Y018168D01*
X017203Y018009D02*
X017129Y018009D01*
X017166Y017921D02*
X017166Y017202D01*
X017090Y017018D01*
X016949Y016877D01*
X016910Y016861D01*
X017422Y016861D01*
X017383Y016877D01*
X017242Y017018D01*
X017166Y017202D01*
X017166Y017921D01*
X017166Y017851D02*
X017166Y017851D01*
X017166Y017692D02*
X017166Y017692D01*
X017166Y017534D02*
X017166Y017534D01*
X017166Y017375D02*
X017166Y017375D01*
X017166Y017217D02*
X017166Y017217D01*
X017107Y017058D02*
X017226Y017058D01*
X017361Y016900D02*
X016972Y016900D01*
X017910Y016861D02*
X017949Y016877D01*
X018090Y017018D01*
X018166Y017202D01*
X018166Y017921D01*
X018166Y017202D01*
X018242Y017018D01*
X018383Y016877D01*
X018422Y016861D01*
X017910Y016861D01*
X017972Y016900D02*
X018361Y016900D01*
X018226Y017058D02*
X018107Y017058D01*
X018166Y017217D02*
X018166Y017217D01*
X018166Y017375D02*
X018166Y017375D01*
X018166Y017534D02*
X018166Y017534D01*
X018166Y017692D02*
X018166Y017692D01*
X018166Y017851D02*
X018166Y017851D01*
X018129Y018009D02*
X018203Y018009D01*
X018306Y018168D02*
X018027Y018168D01*
X019027Y018168D02*
X019306Y018168D01*
X019203Y018009D02*
X019129Y018009D01*
X019166Y017921D02*
X019166Y017486D01*
X019166Y017486D01*
X019166Y017921D01*
X019166Y017851D02*
X019166Y017851D01*
X019166Y017692D02*
X019166Y017692D01*
X019166Y017534D02*
X019166Y017534D01*
X019270Y016741D02*
X020366Y016741D01*
X020366Y016583D02*
X019112Y016583D01*
X018953Y016424D02*
X020366Y016424D01*
X020366Y016266D02*
X018737Y016266D01*
X019972Y016900D02*
X020366Y016900D01*
X020366Y017058D02*
X020107Y017058D01*
X020166Y017217D02*
X020366Y017217D01*
X020366Y017375D02*
X020166Y017375D01*
X020166Y017534D02*
X020269Y017534D01*
X020801Y017851D02*
X022952Y017851D01*
X022223Y017058D02*
X020966Y017058D01*
X020966Y016900D02*
X022166Y016900D01*
X022166Y016741D02*
X020966Y016741D01*
X020966Y016583D02*
X022166Y016583D01*
X022166Y016424D02*
X020966Y016424D01*
X020966Y016266D02*
X022166Y016266D01*
X022205Y016107D02*
X020966Y016107D01*
X020966Y015949D02*
X022312Y015949D01*
X021726Y014681D02*
X021710Y014681D01*
X021726Y014522D02*
X021666Y014522D01*
X021666Y014364D02*
X021741Y014364D01*
X020366Y015315D02*
X019781Y015315D01*
X019551Y015315D02*
X018781Y015315D01*
X018551Y015315D02*
X017781Y015315D01*
X017551Y015315D02*
X016966Y015315D01*
X016966Y015473D02*
X020366Y015473D01*
X020366Y015632D02*
X016966Y015632D01*
X016966Y015790D02*
X020366Y015790D01*
X020366Y015949D02*
X016966Y015949D01*
X016966Y016107D02*
X020366Y016107D01*
X019294Y015156D02*
X019038Y015156D01*
X019134Y014998D02*
X019198Y014998D01*
X019166Y014839D02*
X019166Y014839D01*
X019166Y014681D02*
X019166Y014681D01*
X019166Y014522D02*
X019166Y014522D01*
X019166Y014364D02*
X019166Y014364D01*
X019166Y014205D02*
X019166Y014205D01*
X019102Y014047D02*
X019230Y014047D01*
X019372Y013888D02*
X018960Y013888D01*
X018422Y013861D02*
X017910Y013861D01*
X017949Y013877D01*
X018090Y014018D01*
X018166Y014202D01*
X018166Y014921D01*
X018166Y014202D01*
X018242Y014018D01*
X018383Y013877D01*
X018422Y013861D01*
X018372Y013888D02*
X017960Y013888D01*
X018102Y014047D02*
X018230Y014047D01*
X018166Y014205D02*
X018166Y014205D01*
X018166Y014364D02*
X018166Y014364D01*
X018166Y014522D02*
X018166Y014522D01*
X018166Y014681D02*
X018166Y014681D01*
X018166Y014839D02*
X018166Y014839D01*
X018134Y014998D02*
X018198Y014998D01*
X018294Y015156D02*
X018038Y015156D01*
X017294Y015156D02*
X017038Y015156D01*
X017134Y014998D02*
X017198Y014998D01*
X017166Y014921D02*
X017166Y014202D01*
X017090Y014018D01*
X016949Y013877D01*
X016910Y013861D01*
X017422Y013861D01*
X017383Y013877D01*
X017242Y014018D01*
X017166Y014202D01*
X017166Y014921D01*
X017166Y014839D02*
X017166Y014839D01*
X017166Y014681D02*
X017166Y014681D01*
X017166Y014522D02*
X017166Y014522D01*
X017166Y014364D02*
X017166Y014364D01*
X017166Y014205D02*
X017166Y014205D01*
X017102Y014047D02*
X017230Y014047D01*
X017372Y013888D02*
X016960Y013888D01*
X014905Y013254D02*
X014427Y013254D01*
X014594Y013096D02*
X014739Y013096D01*
X014673Y012937D02*
X014659Y012937D01*
X014666Y012779D02*
X014666Y012779D01*
X014666Y012620D02*
X014666Y012620D01*
X014666Y012462D02*
X014666Y012462D01*
X014666Y012303D02*
X014666Y012303D01*
X014643Y012145D02*
X014690Y012145D01*
X014774Y011986D02*
X014558Y011986D01*
X014330Y011828D02*
X015003Y011828D01*
X015330Y011828D02*
X015391Y011828D01*
X015634Y011669D02*
X014482Y011669D01*
X014641Y011511D02*
X015792Y011511D01*
X015951Y011352D02*
X014799Y011352D01*
X014958Y011194D02*
X022827Y011194D01*
X022668Y011352D02*
X018381Y011352D01*
X018540Y011511D02*
X022666Y011511D01*
X022666Y011669D02*
X018698Y011669D01*
X018857Y011828D02*
X019003Y011828D01*
X019330Y011828D02*
X020003Y011828D01*
X019774Y011986D02*
X019558Y011986D01*
X019643Y012145D02*
X019690Y012145D01*
X019666Y012303D02*
X019666Y012303D01*
X019666Y012462D02*
X019666Y012462D01*
X019666Y012620D02*
X019666Y012620D01*
X019897Y013254D02*
X019905Y013254D01*
X020558Y011986D02*
X022884Y011986D01*
X022726Y011828D02*
X020330Y011828D01*
X019433Y011035D02*
X017899Y011035D01*
X018058Y010877D02*
X019275Y010877D01*
X019666Y010061D02*
X019873Y010061D01*
X019666Y010061D01*
X019666Y010061D01*
X019896Y010084D02*
X022835Y010084D01*
X022668Y009926D02*
X020009Y009926D01*
X020166Y009767D02*
X022591Y009767D01*
X022556Y009609D02*
X020166Y009609D01*
X020166Y009450D02*
X022556Y009450D01*
X022618Y009292D02*
X020104Y009292D01*
X019945Y009133D02*
X022731Y009133D01*
X019666Y007707D02*
X019019Y007707D01*
X018873Y007561D02*
X018666Y007561D01*
X018666Y007561D01*
X018873Y007561D01*
X018886Y007548D02*
X019666Y007548D01*
X019666Y007390D02*
X019045Y007390D01*
X019166Y007231D02*
X019789Y007231D01*
X019948Y007073D02*
X019166Y007073D01*
X019166Y006914D02*
X020166Y006914D01*
X020265Y006756D02*
X019068Y006756D01*
X018909Y006597D02*
X020423Y006597D01*
X018423Y006597D02*
X017626Y006597D01*
X017785Y006756D02*
X018265Y006756D01*
X018166Y006914D02*
X017943Y006914D01*
X015742Y009061D02*
X015542Y008861D01*
X013106Y008861D01*
X012996Y008816D01*
X011996Y007816D01*
X011912Y007731D01*
X011866Y007621D01*
X011866Y006624D01*
X011666Y006424D01*
X011419Y006671D01*
X010913Y006671D01*
X010666Y006424D01*
X010419Y006671D01*
X009980Y006671D01*
X009836Y006816D01*
X009726Y006861D01*
X006966Y006861D01*
X006966Y009215D01*
X006970Y009207D01*
X007024Y009133D01*
X006966Y009133D01*
X007024Y009133D02*
X007088Y009069D01*
X007162Y009015D01*
X007243Y008974D01*
X007330Y008946D01*
X007420Y008931D01*
X007466Y008931D01*
X007466Y009911D01*
X007466Y009911D01*
X007466Y008931D01*
X007512Y008931D01*
X007602Y008946D01*
X007689Y008974D01*
X007770Y009015D01*
X007844Y009069D01*
X007909Y009133D01*
X007962Y009207D01*
X008004Y009289D01*
X008032Y009375D01*
X008046Y009466D01*
X008046Y009911D01*
X007466Y009911D01*
X007466Y009911D01*
X008046Y009911D01*
X008046Y010357D01*
X008032Y010447D01*
X008004Y010534D01*
X007962Y010615D01*
X007909Y010689D01*
X007844Y010754D01*
X007834Y010761D01*
X009461Y010761D01*
X009374Y010674D01*
X009276Y010439D01*
X009276Y009384D01*
X009374Y009149D01*
X009554Y008969D01*
X009789Y008871D01*
X010043Y008871D01*
X010279Y008969D01*
X010459Y009149D01*
X010556Y009384D01*
X010556Y010439D01*
X010459Y010674D01*
X010371Y010761D01*
X014042Y010761D01*
X014666Y010137D01*
X014666Y009854D01*
X014959Y009561D01*
X015166Y009561D01*
X015166Y009354D01*
X015459Y009061D01*
X015742Y009061D01*
X015655Y008975D02*
X010285Y008975D01*
X010443Y009133D02*
X015387Y009133D01*
X015229Y009292D02*
X010518Y009292D01*
X010556Y009450D02*
X015166Y009450D01*
X014912Y009609D02*
X010556Y009609D01*
X010556Y009767D02*
X014753Y009767D01*
X014666Y009926D02*
X010556Y009926D01*
X010556Y010084D02*
X014666Y010084D01*
X014560Y010243D02*
X010556Y010243D01*
X010556Y010401D02*
X014402Y010401D01*
X014243Y010560D02*
X010506Y010560D01*
X010414Y010718D02*
X014085Y010718D01*
X015116Y011035D02*
X015433Y011035D01*
X015899Y011035D02*
X017433Y011035D01*
X017275Y010877D02*
X016058Y010877D01*
X018966Y009450D02*
X019166Y009450D01*
X019229Y009292D02*
X018966Y009292D01*
X018966Y009133D02*
X019387Y009133D01*
X024971Y005963D02*
X025446Y005963D01*
X025484Y006001D02*
X025226Y005744D01*
X025226Y005561D01*
X025226Y005379D01*
X025484Y005121D01*
X025666Y005121D01*
X025666Y005561D01*
X025666Y005561D01*
X025226Y005561D01*
X025666Y005561D01*
X025666Y005561D01*
X025666Y005121D01*
X025848Y005121D01*
X026106Y005379D01*
X026106Y005561D01*
X025666Y005561D01*
X025666Y005561D01*
X025666Y006001D01*
X025484Y006001D01*
X025666Y006001D02*
X025848Y006001D01*
X026106Y005744D01*
X026106Y005561D01*
X025666Y005561D01*
X025666Y005561D01*
X025666Y006001D01*
X025666Y005963D02*
X025666Y005963D01*
X025666Y005805D02*
X025666Y005805D01*
X025666Y005646D02*
X025666Y005646D01*
X025666Y005488D02*
X025666Y005488D01*
X025666Y005329D02*
X025666Y005329D01*
X025666Y005171D02*
X025666Y005171D01*
X025434Y005171D02*
X024983Y005171D01*
X025141Y005329D02*
X025276Y005329D01*
X025226Y005488D02*
X025166Y005488D01*
X025166Y005646D02*
X025226Y005646D01*
X025287Y005805D02*
X025130Y005805D01*
X025886Y005963D02*
X028556Y005963D01*
X028612Y005805D02*
X026045Y005805D01*
X026106Y005646D02*
X028718Y005646D01*
X028957Y005488D02*
X026106Y005488D01*
X026056Y005329D02*
X033962Y005329D01*
X033927Y005171D02*
X025898Y005171D01*
X028011Y006439D02*
X028681Y006439D01*
X028866Y006597D02*
X028123Y006597D01*
X028166Y006756D02*
X036166Y006756D01*
X036166Y006914D02*
X028166Y006914D01*
X028166Y007073D02*
X036166Y007073D01*
X036166Y007231D02*
X028166Y007231D01*
X028166Y007390D02*
X036166Y007390D01*
X036166Y007548D02*
X032709Y007548D01*
X032857Y007707D02*
X036166Y007707D01*
X036166Y007865D02*
X032923Y007865D01*
X032931Y008024D02*
X036166Y008024D01*
X036166Y008182D02*
X032931Y008182D01*
X032931Y008341D02*
X036166Y008341D01*
X036166Y008499D02*
X032931Y008499D01*
X032931Y008658D02*
X036166Y008658D01*
X036166Y008816D02*
X032880Y008816D01*
X032080Y007548D02*
X028113Y007548D01*
X029466Y006597D02*
X030366Y006597D01*
X030321Y006578D02*
X030149Y006407D01*
X030056Y006183D01*
X030056Y005940D01*
X030149Y005716D01*
X030321Y005544D01*
X030545Y005451D01*
X030787Y005451D01*
X031012Y005544D01*
X031183Y005716D01*
X031276Y005940D01*
X031276Y006183D01*
X031183Y006407D01*
X031012Y006578D01*
X030787Y006671D01*
X030545Y006671D01*
X030321Y006578D01*
X030181Y006439D02*
X029651Y006439D01*
X029736Y006280D02*
X030097Y006280D01*
X030056Y006122D02*
X029776Y006122D01*
X029776Y005963D02*
X030056Y005963D01*
X030112Y005805D02*
X029720Y005805D01*
X029614Y005646D02*
X030218Y005646D01*
X030457Y005488D02*
X029376Y005488D01*
X030876Y005488D02*
X034011Y005488D01*
X034082Y005646D02*
X031114Y005646D01*
X031220Y005805D02*
X034178Y005805D01*
X034307Y005963D02*
X031276Y005963D01*
X031276Y006122D02*
X034484Y006122D01*
X034740Y006280D02*
X031236Y006280D01*
X031151Y006439D02*
X036166Y006439D01*
X036166Y006597D02*
X030966Y006597D01*
X033918Y004695D02*
X022216Y004695D01*
X022129Y004537D02*
X033918Y004537D01*
X033918Y004378D02*
X008414Y004378D01*
X008414Y004220D02*
X033918Y004220D01*
X033918Y004061D02*
X008414Y004061D01*
X008414Y004537D02*
X009913Y004537D01*
X009938Y004511D02*
X010146Y004511D01*
X010146Y005041D01*
X009616Y005041D01*
X009616Y004833D01*
X009938Y004511D01*
X010146Y004537D02*
X010186Y004537D01*
X010186Y004695D02*
X010146Y004695D01*
X010146Y004854D02*
X010186Y004854D01*
X010186Y005012D02*
X010146Y005012D01*
X009754Y004695D02*
X008414Y004695D01*
X008414Y004854D02*
X009616Y004854D01*
X009616Y005012D02*
X008414Y005012D01*
X008405Y005171D02*
X009616Y005171D01*
X009656Y005329D02*
X008370Y005329D01*
X008321Y005488D02*
X009815Y005488D01*
X009718Y005646D02*
X008251Y005646D01*
X008155Y005805D02*
X009560Y005805D01*
X009556Y005963D02*
X008026Y005963D01*
X007848Y006122D02*
X009556Y006122D01*
X009896Y006756D02*
X011866Y006756D01*
X011866Y006914D02*
X006966Y006914D01*
X006966Y007073D02*
X011866Y007073D01*
X011866Y007231D02*
X006966Y007231D01*
X006966Y007390D02*
X007973Y007390D01*
X007904Y007419D02*
X008139Y007321D01*
X009193Y007321D01*
X009429Y007419D01*
X009609Y007599D01*
X009706Y007834D01*
X009706Y008089D01*
X009609Y008324D01*
X009429Y008504D01*
X009193Y008601D01*
X008139Y008601D01*
X007904Y008504D01*
X007724Y008324D01*
X007626Y008089D01*
X007626Y007834D01*
X007724Y007599D01*
X007904Y007419D01*
X007774Y007548D02*
X006966Y007548D01*
X006966Y007707D02*
X007679Y007707D01*
X007626Y007865D02*
X006966Y007865D01*
X006966Y008024D02*
X007626Y008024D01*
X007665Y008182D02*
X006966Y008182D01*
X006966Y008341D02*
X007741Y008341D01*
X007899Y008499D02*
X006966Y008499D01*
X006966Y008658D02*
X012838Y008658D01*
X012680Y008499D02*
X009433Y008499D01*
X009592Y008341D02*
X012521Y008341D01*
X012363Y008182D02*
X009667Y008182D01*
X009706Y008024D02*
X012204Y008024D01*
X012046Y007865D02*
X009706Y007865D01*
X009653Y007707D02*
X011902Y007707D01*
X011866Y007548D02*
X009558Y007548D01*
X009359Y007390D02*
X011866Y007390D01*
X011839Y006597D02*
X011493Y006597D01*
X011651Y006439D02*
X011681Y006439D01*
X010839Y006597D02*
X010493Y006597D01*
X010651Y006439D02*
X010681Y006439D01*
X010669Y004695D02*
X010578Y004695D01*
X010419Y004537D02*
X010828Y004537D01*
X011504Y004537D02*
X011828Y004537D01*
X011669Y004695D02*
X011663Y004695D01*
X006392Y006439D02*
X006166Y006439D01*
X006166Y006597D02*
X006366Y006597D01*
X006366Y006756D02*
X006166Y006756D01*
X006166Y006914D02*
X006366Y006914D01*
X006366Y007073D02*
X006166Y007073D01*
X006166Y007231D02*
X006366Y007231D01*
X006366Y007390D02*
X006166Y007390D01*
X006166Y007548D02*
X006366Y007548D01*
X006366Y007707D02*
X006166Y007707D01*
X006166Y007865D02*
X006366Y007865D01*
X006366Y008024D02*
X006166Y008024D01*
X006166Y008182D02*
X006366Y008182D01*
X006366Y008341D02*
X006166Y008341D01*
X006166Y008499D02*
X006366Y008499D01*
X006366Y008658D02*
X006166Y008658D01*
X006166Y008816D02*
X006366Y008816D01*
X006366Y008975D02*
X006166Y008975D01*
X006166Y009133D02*
X006366Y009133D01*
X006366Y009292D02*
X006166Y009292D01*
X006166Y009450D02*
X006366Y009450D01*
X006366Y009609D02*
X006166Y009609D01*
X006166Y009767D02*
X006366Y009767D01*
X006366Y009926D02*
X006166Y009926D01*
X006166Y010084D02*
X006366Y010084D01*
X006366Y010243D02*
X006166Y010243D01*
X006166Y010401D02*
X006366Y010401D01*
X006366Y010560D02*
X006166Y010560D01*
X006166Y010718D02*
X006366Y010718D01*
X006366Y010877D02*
X006166Y010877D01*
X006166Y011035D02*
X006366Y011035D01*
X006366Y011194D02*
X006166Y011194D01*
X006166Y011352D02*
X006366Y011352D01*
X006366Y011511D02*
X006166Y011511D01*
X006166Y011669D02*
X006386Y011669D01*
X006508Y011828D02*
X006166Y011828D01*
X006166Y011986D02*
X006667Y011986D01*
X006825Y012145D02*
X006166Y012145D01*
X006166Y012303D02*
X006984Y012303D01*
X007142Y012462D02*
X006166Y012462D01*
X006166Y012620D02*
X007301Y012620D01*
X007459Y012779D02*
X006166Y012779D01*
X006166Y012937D02*
X007618Y012937D01*
X007776Y013096D02*
X007063Y013096D01*
X007199Y013254D02*
X007935Y013254D01*
X008093Y013413D02*
X007265Y013413D01*
X007276Y013571D02*
X008252Y013571D01*
X008410Y013730D02*
X007257Y013730D01*
X007191Y013888D02*
X008569Y013888D01*
X008727Y014047D02*
X007043Y014047D01*
X007173Y014205D02*
X008886Y014205D01*
X009044Y014364D02*
X007245Y014364D01*
X007276Y014522D02*
X009203Y014522D01*
X009361Y014681D02*
X007276Y014681D01*
X007211Y014839D02*
X009520Y014839D01*
X009678Y014998D02*
X007092Y014998D01*
X007124Y015156D02*
X009837Y015156D01*
X009995Y015315D02*
X007224Y015315D01*
X007276Y015473D02*
X008492Y015473D01*
X008545Y015451D02*
X008787Y015451D01*
X009012Y015544D01*
X009183Y015716D01*
X009276Y015940D01*
X009276Y016183D01*
X009183Y016407D01*
X009012Y016578D01*
X008787Y016671D01*
X008545Y016671D01*
X008321Y016578D01*
X008149Y016407D01*
X008056Y016183D01*
X008056Y015940D01*
X008149Y015716D01*
X008321Y015544D01*
X008545Y015451D01*
X008841Y015473D02*
X010154Y015473D01*
X010312Y015632D02*
X009099Y015632D01*
X009214Y015790D02*
X010471Y015790D01*
X010629Y015949D02*
X009276Y015949D01*
X009276Y016107D02*
X010788Y016107D01*
X010946Y016266D02*
X009242Y016266D01*
X009166Y016424D02*
X011105Y016424D01*
X011263Y016583D02*
X009001Y016583D01*
X008429Y016900D02*
X010485Y016900D01*
X010497Y016894D02*
X010563Y016872D01*
X010632Y016861D01*
X010666Y016861D01*
X010666Y017561D01*
X010666Y017561D01*
X010226Y017561D01*
X010226Y017267D01*
X010237Y017198D01*
X010258Y017132D01*
X010290Y017071D01*
X010331Y017015D01*
X010380Y016966D01*
X010436Y016925D01*
X010497Y016894D01*
X010666Y016900D02*
X010666Y016900D01*
X010666Y016861D02*
X010701Y016861D01*
X010769Y016872D01*
X010835Y016894D01*
X010897Y016925D01*
X010953Y016966D01*
X011002Y017015D01*
X011042Y017071D01*
X011074Y017132D01*
X011095Y017198D01*
X011106Y017267D01*
X011106Y017561D01*
X010666Y017561D01*
X010666Y017561D01*
X010666Y016861D01*
X010847Y016900D02*
X011361Y016900D01*
X011422Y016741D02*
X008270Y016741D01*
X008331Y016583D02*
X008112Y016583D01*
X008166Y016424D02*
X007953Y016424D01*
X008091Y016266D02*
X007795Y016266D01*
X007636Y016107D02*
X008056Y016107D01*
X008056Y015949D02*
X007478Y015949D01*
X007319Y015790D02*
X008118Y015790D01*
X008233Y015632D02*
X007276Y015632D01*
X006390Y016107D02*
X006166Y016107D01*
X006166Y015949D02*
X006191Y015949D01*
X006166Y016266D02*
X006946Y016266D01*
X007105Y016424D02*
X006166Y016424D01*
X006166Y016583D02*
X007263Y016583D01*
X007422Y016741D02*
X006166Y016741D01*
X006166Y016900D02*
X007580Y016900D01*
X007739Y017058D02*
X006166Y017058D01*
X006166Y017217D02*
X007897Y017217D01*
X008056Y017375D02*
X006166Y017375D01*
X006166Y017534D02*
X008214Y017534D01*
X008373Y017692D02*
X006166Y017692D01*
X006166Y017851D02*
X008581Y017851D01*
X008751Y018009D02*
X007920Y018009D01*
X008079Y018168D02*
X009036Y018168D01*
X009296Y018168D02*
X010395Y018168D01*
X010380Y018157D02*
X010331Y018108D01*
X010290Y018052D01*
X010258Y017990D01*
X010237Y017924D01*
X010226Y017856D01*
X010226Y017561D01*
X010666Y017561D01*
X010666Y017561D01*
X010666Y018261D01*
X010632Y018261D01*
X010563Y018250D01*
X010497Y018229D01*
X010436Y018198D01*
X010380Y018157D01*
X010268Y018009D02*
X009581Y018009D01*
X009706Y017851D02*
X010226Y017851D01*
X010226Y017692D02*
X009772Y017692D01*
X009776Y017534D02*
X010226Y017534D01*
X010226Y017375D02*
X009749Y017375D01*
X009684Y017217D02*
X010234Y017217D01*
X010299Y017058D02*
X009526Y017058D01*
X008806Y017058D02*
X008587Y017058D01*
X007412Y018009D02*
X006166Y018009D01*
X006166Y018168D02*
X006338Y018168D01*
X006180Y018326D02*
X006166Y018326D01*
X006666Y018326D02*
X006666Y018326D01*
X006666Y018168D02*
X006666Y018168D01*
X006666Y018485D02*
X006666Y018485D01*
X006666Y018561D02*
X006666Y019071D01*
X006666Y018561D01*
X006666Y018561D01*
X006666Y018643D02*
X006666Y018643D01*
X006666Y018802D02*
X006666Y018802D01*
X006666Y018960D02*
X006666Y018960D01*
X006344Y018960D02*
X006166Y018960D01*
X006166Y018802D02*
X006185Y018802D01*
X006166Y019119D02*
X007418Y019119D01*
X007259Y018960D02*
X006988Y018960D01*
X006166Y019277D02*
X014958Y019277D01*
X014799Y019119D02*
X007915Y019119D01*
X008073Y018960D02*
X014641Y018960D01*
X014482Y018802D02*
X008232Y018802D01*
X008236Y018643D02*
X014324Y018643D01*
X014165Y018485D02*
X008236Y018485D01*
X008236Y018326D02*
X014007Y018326D01*
X013306Y018168D02*
X013027Y018168D01*
X013129Y018009D02*
X013203Y018009D01*
X013166Y017921D02*
X013166Y017202D01*
X013090Y017018D01*
X012949Y016877D01*
X012910Y016861D01*
X013422Y016861D01*
X013383Y016877D01*
X013242Y017018D01*
X013166Y017202D01*
X013166Y017921D01*
X013166Y017851D02*
X013166Y017851D01*
X013166Y017692D02*
X013166Y017692D01*
X013166Y017534D02*
X013166Y017534D01*
X013166Y017375D02*
X013166Y017375D01*
X013166Y017217D02*
X013166Y017217D01*
X013107Y017058D02*
X013226Y017058D01*
X013361Y016900D02*
X012972Y016900D01*
X012422Y016861D02*
X011910Y016861D01*
X011949Y016877D01*
X012090Y017018D01*
X012166Y017202D01*
X012166Y017921D01*
X012166Y017202D01*
X012242Y017018D01*
X012383Y016877D01*
X012422Y016861D01*
X012361Y016900D02*
X011972Y016900D01*
X012107Y017058D02*
X012226Y017058D01*
X012166Y017217D02*
X012166Y017217D01*
X012166Y017375D02*
X012166Y017375D01*
X012166Y017534D02*
X012166Y017534D01*
X012166Y017692D02*
X012166Y017692D01*
X012166Y017851D02*
X012166Y017851D01*
X012129Y018009D02*
X012203Y018009D01*
X012306Y018168D02*
X012027Y018168D01*
X011306Y018168D02*
X010938Y018168D01*
X010953Y018157D02*
X010897Y018198D01*
X010835Y018229D01*
X010769Y018250D01*
X010701Y018261D01*
X010666Y018261D01*
X010666Y017561D01*
X010666Y017561D01*
X011106Y017561D01*
X011106Y017856D01*
X011095Y017924D01*
X011074Y017990D01*
X011042Y018052D01*
X011002Y018108D01*
X010953Y018157D01*
X011064Y018009D02*
X011203Y018009D01*
X011166Y017851D02*
X011106Y017851D01*
X011106Y017692D02*
X011166Y017692D01*
X011166Y017534D02*
X011106Y017534D01*
X011106Y017375D02*
X011166Y017375D01*
X011166Y017217D02*
X011098Y017217D01*
X011033Y017058D02*
X011226Y017058D01*
X010666Y017058D02*
X010666Y017058D01*
X010666Y017217D02*
X010666Y017217D01*
X010666Y017375D02*
X010666Y017375D01*
X010666Y017534D02*
X010666Y017534D01*
X010666Y017692D02*
X010666Y017692D01*
X010666Y017851D02*
X010666Y017851D01*
X010666Y018009D02*
X010666Y018009D01*
X010666Y018168D02*
X010666Y018168D01*
X010950Y019436D02*
X006166Y019436D01*
X006166Y019594D02*
X010792Y019594D01*
X010669Y019753D02*
X007324Y019753D01*
X007716Y019911D02*
X010669Y019911D01*
X010669Y020070D02*
X007940Y020070D01*
X008091Y020228D02*
X010575Y020228D01*
X010416Y020387D02*
X008206Y020387D01*
X008288Y020545D02*
X010258Y020545D01*
X010099Y020704D02*
X008351Y020704D01*
X008385Y020862D02*
X009941Y020862D01*
X009782Y021021D02*
X009455Y021021D01*
X008877Y021021D02*
X008407Y021021D01*
X008414Y021179D02*
X008685Y021179D01*
X008598Y021338D02*
X008414Y021338D01*
X008414Y021496D02*
X008556Y021496D01*
X008556Y021655D02*
X008414Y021655D01*
X008414Y021813D02*
X008610Y021813D01*
X008714Y021972D02*
X008414Y021972D01*
X010948Y020704D02*
X016384Y020704D01*
X016226Y020545D02*
X011106Y020545D01*
X011406Y020387D02*
X011985Y020387D01*
X012067Y020421D02*
X011884Y020345D01*
X011744Y020205D01*
X011669Y020022D01*
X011669Y019825D01*
X011744Y019642D01*
X011884Y019502D01*
X012067Y019426D01*
X012265Y019426D01*
X012448Y019502D01*
X012588Y019642D01*
X012664Y019825D01*
X012664Y020022D01*
X012588Y020205D01*
X012448Y020345D01*
X012265Y020421D01*
X012067Y020421D01*
X012348Y020387D02*
X016067Y020387D01*
X015909Y020228D02*
X013480Y020228D01*
X013500Y020208D02*
X013451Y020257D01*
X013395Y020298D01*
X013334Y020329D01*
X013269Y020350D01*
X013201Y020361D01*
X013166Y020361D01*
X013132Y020361D01*
X013064Y020350D01*
X012998Y020329D01*
X012937Y020298D01*
X012881Y020257D01*
X012832Y020208D01*
X012792Y020153D01*
X012761Y020091D01*
X012739Y020026D01*
X012729Y019958D01*
X012729Y019923D01*
X012729Y019889D01*
X012739Y019821D01*
X012761Y019756D01*
X012792Y019694D01*
X012832Y019638D01*
X012881Y019590D01*
X012937Y019549D01*
X012998Y019518D01*
X013064Y019497D01*
X013132Y019486D01*
X013166Y019486D01*
X013166Y019923D01*
X013166Y019923D01*
X013166Y019486D01*
X013201Y019486D01*
X013269Y019497D01*
X013334Y019518D01*
X013395Y019549D01*
X013451Y019590D01*
X013500Y019638D01*
X013540Y019694D01*
X013572Y019756D01*
X013593Y019821D01*
X013604Y019889D01*
X013604Y019923D01*
X013166Y019923D01*
X012729Y019923D01*
X013166Y019923D01*
X013166Y019923D01*
X013166Y019923D01*
X013604Y019923D01*
X013604Y019958D01*
X013593Y020026D01*
X013572Y020091D01*
X013540Y020153D01*
X013500Y020208D01*
X013579Y020070D02*
X015750Y020070D01*
X015592Y019911D02*
X013604Y019911D01*
X013570Y019753D02*
X015433Y019753D01*
X015275Y019594D02*
X013456Y019594D01*
X013166Y019594D02*
X013166Y019594D01*
X013166Y019753D02*
X013166Y019753D01*
X013166Y019911D02*
X013166Y019911D01*
X013166Y019924D02*
X013166Y020361D01*
X013166Y019924D01*
X013166Y019924D01*
X013166Y020070D02*
X013166Y020070D01*
X013166Y020228D02*
X013166Y020228D01*
X012852Y020228D02*
X012565Y020228D01*
X012644Y020070D02*
X012754Y020070D01*
X012729Y019911D02*
X012664Y019911D01*
X012634Y019753D02*
X012762Y019753D01*
X012877Y019594D02*
X012541Y019594D01*
X012289Y019436D02*
X015116Y019436D01*
X015965Y019436D02*
X017544Y019436D01*
X017789Y019436D02*
X017867Y019436D01*
X017292Y019594D02*
X016956Y019594D01*
X017104Y019753D02*
X017198Y019753D01*
X017169Y019911D02*
X017104Y019911D01*
X017104Y020070D02*
X017188Y020070D01*
X017267Y020228D02*
X016980Y020228D01*
X016666Y019911D02*
X016666Y019911D01*
X016666Y019753D02*
X016666Y019753D01*
X016666Y019594D02*
X016666Y019594D01*
X016377Y019594D02*
X016123Y019594D01*
X012044Y019436D02*
X011382Y019436D01*
X011541Y019594D02*
X011792Y019594D01*
X011698Y019753D02*
X011664Y019753D01*
X011664Y019911D02*
X011669Y019911D01*
X011664Y020070D02*
X011688Y020070D01*
X011767Y020228D02*
X011565Y020228D01*
X007254Y018168D02*
X006994Y018168D01*
X006269Y013096D02*
X006166Y013096D01*
X007879Y010718D02*
X009418Y010718D01*
X009326Y010560D02*
X007990Y010560D01*
X008039Y010401D02*
X009276Y010401D01*
X009276Y010243D02*
X008046Y010243D01*
X008046Y010084D02*
X009276Y010084D01*
X009276Y009926D02*
X008046Y009926D01*
X008046Y009767D02*
X009276Y009767D01*
X009276Y009609D02*
X008046Y009609D01*
X008044Y009450D02*
X009276Y009450D01*
X009314Y009292D02*
X008005Y009292D01*
X007908Y009133D02*
X009389Y009133D01*
X009548Y008975D02*
X007691Y008975D01*
X007466Y008975D02*
X007466Y008975D01*
X007466Y009133D02*
X007466Y009133D01*
X007466Y009292D02*
X007466Y009292D01*
X007466Y009450D02*
X007466Y009450D01*
X007466Y009609D02*
X007466Y009609D01*
X007466Y009767D02*
X007466Y009767D01*
X007242Y008975D02*
X006966Y008975D01*
X006966Y008816D02*
X012998Y008816D01*
X024893Y014364D02*
X030866Y014364D01*
X030866Y014522D02*
X030459Y014522D01*
X030512Y014544D02*
X030287Y014451D01*
X030045Y014451D01*
X029821Y014544D01*
X029649Y014716D01*
X029556Y014940D01*
X029556Y015183D01*
X029649Y015407D01*
X029821Y015578D01*
X030045Y015671D01*
X030287Y015671D01*
X030512Y015578D01*
X030683Y015407D01*
X030776Y015183D01*
X030776Y014940D01*
X030683Y014716D01*
X030512Y014544D01*
X030648Y014681D02*
X030866Y014681D01*
X030866Y014839D02*
X030734Y014839D01*
X030776Y014998D02*
X030866Y014998D01*
X030866Y015156D02*
X030776Y015156D01*
X030721Y015315D02*
X030866Y015315D01*
X030866Y015473D02*
X030617Y015473D01*
X030383Y015632D02*
X030866Y015632D01*
X030866Y015790D02*
X026319Y015790D01*
X026383Y015632D02*
X029949Y015632D01*
X029715Y015473D02*
X026617Y015473D01*
X026721Y015315D02*
X029611Y015315D01*
X029556Y015156D02*
X026776Y015156D01*
X026776Y014998D02*
X029556Y014998D01*
X029598Y014839D02*
X026734Y014839D01*
X026648Y014681D02*
X029684Y014681D01*
X029873Y014522D02*
X026459Y014522D01*
X025873Y014522D02*
X025051Y014522D01*
X025210Y014681D02*
X025684Y014681D01*
X025598Y014839D02*
X025368Y014839D01*
X025527Y014998D02*
X025556Y014998D01*
X027021Y015949D02*
X027312Y015949D01*
X027205Y016107D02*
X027127Y016107D01*
X027166Y016266D02*
X027166Y016266D01*
X027166Y016424D02*
X027166Y016424D01*
X027166Y016583D02*
X027166Y016583D01*
X027166Y016741D02*
X027166Y016741D01*
X027166Y016900D02*
X027166Y016900D01*
X027109Y017058D02*
X027223Y017058D01*
X027355Y017217D02*
X026978Y017217D01*
X027978Y017217D02*
X028355Y017217D01*
X028223Y017058D02*
X028109Y017058D01*
X028166Y016900D02*
X028166Y016900D01*
X028166Y016741D02*
X028166Y016741D01*
X028166Y016583D02*
X028166Y016583D01*
X028166Y016424D02*
X028166Y016424D01*
X028166Y016266D02*
X028166Y016266D01*
X028127Y016107D02*
X028205Y016107D01*
X028312Y015949D02*
X028021Y015949D01*
X029021Y015949D02*
X029312Y015949D01*
X029205Y016107D02*
X029127Y016107D01*
X029166Y016266D02*
X029166Y016266D01*
X029166Y016424D02*
X029166Y016424D01*
X029166Y016583D02*
X029166Y016583D01*
X029166Y016741D02*
X029166Y016741D01*
X029166Y016900D02*
X029166Y016900D01*
X029109Y017058D02*
X029223Y017058D01*
X029355Y017217D02*
X028978Y017217D01*
X030166Y016583D02*
X030166Y016583D01*
X030166Y016424D02*
X030166Y016424D01*
X030166Y016266D02*
X030166Y016266D01*
X030127Y016107D02*
X030205Y016107D01*
X030312Y015949D02*
X030021Y015949D01*
X031466Y015949D02*
X032866Y015949D01*
X032866Y016107D02*
X031466Y016107D01*
X031466Y016266D02*
X032866Y016266D01*
X032866Y016424D02*
X031466Y016424D01*
X031466Y016583D02*
X032155Y016583D01*
X032020Y016741D02*
X031466Y016741D01*
X031466Y016900D02*
X031954Y016900D01*
X031633Y017058D02*
X031466Y017058D01*
X031443Y017217D02*
X031426Y017217D01*
X031368Y017375D02*
X031276Y017375D01*
X031346Y017534D02*
X031118Y017534D01*
X030959Y017692D02*
X031346Y017692D01*
X031346Y017851D02*
X030801Y017851D01*
X030642Y018009D02*
X031346Y018009D01*
X031346Y018168D02*
X030484Y018168D01*
X030310Y018326D02*
X031383Y018326D01*
X030300Y018960D02*
X030032Y018960D01*
X030132Y019119D02*
X030201Y019119D01*
X030166Y019277D02*
X030166Y019277D01*
X030166Y019436D02*
X030166Y019436D01*
X030166Y019594D02*
X030166Y019594D01*
X030166Y019753D02*
X030166Y019753D01*
X030166Y019911D02*
X030166Y019911D01*
X030104Y020070D02*
X030228Y020070D01*
X030366Y020228D02*
X029966Y020228D01*
X030013Y020545D02*
X030319Y020545D01*
X029319Y020545D02*
X029013Y020545D01*
X028966Y020228D02*
X029366Y020228D01*
X029228Y020070D02*
X029104Y020070D01*
X029166Y019911D02*
X029166Y019911D01*
X029166Y019753D02*
X029166Y019753D01*
X029166Y019594D02*
X029166Y019594D01*
X029166Y019436D02*
X029166Y019436D01*
X029166Y019277D02*
X029166Y019277D01*
X029132Y019119D02*
X029201Y019119D01*
X029300Y018960D02*
X029032Y018960D01*
X028300Y018960D02*
X028032Y018960D01*
X028132Y019119D02*
X028201Y019119D01*
X028166Y019277D02*
X028166Y019277D01*
X028166Y019436D02*
X028166Y019436D01*
X028166Y019594D02*
X028166Y019594D01*
X028166Y019753D02*
X028166Y019753D01*
X028166Y019911D02*
X028166Y019911D01*
X028104Y020070D02*
X028228Y020070D01*
X028366Y020228D02*
X027966Y020228D01*
X028013Y020545D02*
X028319Y020545D01*
X027319Y020545D02*
X027013Y020545D01*
X026966Y020228D02*
X027366Y020228D01*
X027228Y020070D02*
X027104Y020070D01*
X027166Y019911D02*
X027166Y019911D01*
X027166Y019753D02*
X027166Y019753D01*
X027166Y019594D02*
X027166Y019594D01*
X027166Y019436D02*
X027166Y019436D01*
X027166Y019277D02*
X027166Y019277D01*
X027132Y019119D02*
X027201Y019119D01*
X027300Y018960D02*
X027032Y018960D01*
X026300Y018960D02*
X026032Y018960D01*
X026132Y019119D02*
X026201Y019119D01*
X026166Y019277D02*
X026166Y019277D01*
X026166Y019436D02*
X026166Y019436D01*
X026166Y019594D02*
X026166Y019594D01*
X026166Y019753D02*
X026166Y019753D01*
X026166Y019911D02*
X026166Y019911D01*
X026104Y020070D02*
X026228Y020070D01*
X026366Y020228D02*
X025966Y020228D01*
X026013Y020545D02*
X026319Y020545D01*
X025319Y020545D02*
X025013Y020545D01*
X024966Y020228D02*
X025366Y020228D01*
X025228Y020070D02*
X025104Y020070D01*
X025166Y019911D02*
X025166Y019911D01*
X025166Y019753D02*
X025166Y019753D01*
X025166Y019594D02*
X025166Y019594D01*
X025166Y019436D02*
X025166Y019436D01*
X025166Y019277D02*
X025166Y019277D01*
X025132Y019119D02*
X025201Y019119D01*
X025300Y018960D02*
X025032Y018960D01*
X024300Y018960D02*
X024032Y018960D01*
X024132Y019119D02*
X024201Y019119D01*
X024166Y019277D02*
X024166Y019277D01*
X024166Y019436D02*
X024166Y019436D01*
X024166Y019594D02*
X024166Y019594D01*
X024166Y019753D02*
X024166Y019753D01*
X024166Y019911D02*
X024166Y019911D01*
X024104Y020070D02*
X024228Y020070D01*
X024366Y020228D02*
X023966Y020228D01*
X024013Y020545D02*
X024319Y020545D01*
X023319Y020545D02*
X023013Y020545D01*
X022966Y020228D02*
X023366Y020228D01*
X023228Y020070D02*
X023104Y020070D01*
X023166Y019911D02*
X023166Y019911D01*
X023166Y019753D02*
X023166Y019753D01*
X023166Y019594D02*
X023166Y019594D01*
X023166Y019436D02*
X023166Y019436D01*
X023166Y019277D02*
X023166Y019277D01*
X023132Y019119D02*
X023201Y019119D01*
X023300Y018960D02*
X023032Y018960D01*
X022166Y019594D02*
X022057Y019594D01*
X022166Y019753D02*
X021899Y019753D01*
X021740Y019911D02*
X022166Y019911D01*
X022228Y020070D02*
X021582Y020070D01*
X021423Y020228D02*
X022366Y020228D01*
X022319Y020545D02*
X022013Y020545D01*
X020836Y017816D02*
X020836Y017816D01*
X031466Y015790D02*
X032866Y015790D01*
X032866Y015632D02*
X031466Y015632D01*
X031466Y015473D02*
X032866Y015473D01*
X032866Y015315D02*
X031466Y015315D01*
X031466Y015156D02*
X032866Y015156D01*
X032866Y014998D02*
X032742Y014998D01*
X032047Y014998D02*
X031466Y014998D01*
X031466Y014839D02*
X031918Y014839D01*
X031858Y014681D02*
X031466Y014681D01*
X031466Y014522D02*
X031858Y014522D01*
X031858Y014364D02*
X031466Y014364D01*
X031466Y014205D02*
X031858Y014205D01*
X031858Y014047D02*
X031466Y014047D01*
X031466Y013888D02*
X031858Y013888D01*
X031922Y013730D02*
X031466Y013730D01*
X031466Y013571D02*
X032057Y013571D01*
X031664Y012620D02*
X031466Y012620D01*
X035718Y011669D02*
X036166Y011669D01*
X036166Y011511D02*
X035925Y011511D01*
X036004Y011352D02*
X036166Y011352D01*
X036166Y011194D02*
X036021Y011194D01*
X036021Y011035D02*
X036166Y011035D01*
X036166Y010877D02*
X036021Y010877D01*
X036021Y010718D02*
X036166Y010718D01*
X036166Y010560D02*
X036016Y010560D01*
X035962Y010401D02*
X036166Y010401D01*
X036166Y010243D02*
X035822Y010243D01*
X035582Y016154D02*
X035656Y016165D01*
X035727Y016189D01*
X035794Y016223D01*
X035855Y016267D01*
X035908Y016320D01*
X035952Y016381D01*
X035986Y016448D01*
X036009Y016519D01*
X036021Y016593D01*
X036021Y016909D01*
X035563Y016909D01*
X035563Y016154D01*
X035582Y016154D01*
X035563Y016266D02*
X035526Y016266D01*
X035526Y016424D02*
X035563Y016424D01*
X035563Y016583D02*
X035526Y016583D01*
X035526Y016741D02*
X035563Y016741D01*
X035563Y016900D02*
X035526Y016900D01*
X035526Y017058D02*
X035563Y017058D01*
X035563Y017217D02*
X035526Y017217D01*
X035526Y017375D02*
X035563Y017375D01*
X035563Y017534D02*
X035526Y017534D01*
X035526Y017692D02*
X035563Y017692D01*
X035637Y017692D02*
X036166Y017692D01*
X036166Y017534D02*
X035909Y017534D01*
X035996Y017375D02*
X036166Y017375D01*
X036166Y017217D02*
X036021Y017217D01*
X036021Y017058D02*
X036166Y017058D01*
X036166Y016900D02*
X036021Y016900D01*
X036021Y016741D02*
X036166Y016741D01*
X036166Y016583D02*
X036019Y016583D01*
X035974Y016424D02*
X036166Y016424D01*
X036166Y016266D02*
X035853Y016266D01*
M02*
