%
M48
M72
T01C0.0120
T02C0.0315
T03C0.0320
T04C0.0354
T05C0.0394
T06C0.0400
T07C0.1260
%
T01
X13666Y7061
X16666Y9561
X15666Y12061
X15666Y15561
X11666Y16061
T02
X11166Y19923
X12166Y19923
X13166Y19923
X16666Y19923
X17666Y19923
X18666Y19923
T03
X8666Y7961
X7466Y9911
X9916Y9911
X13166Y12561
X14166Y12561
X15166Y12561
X16166Y12561
X17166Y12561
X18166Y12561
X19166Y12561
X20166Y12561
X19666Y10561
X19166Y10061
X19666Y9561
X17666Y9561
X17166Y10061
X17666Y10561
X15666Y10561
X15166Y10061
X15666Y9561
X14666Y8061
X14166Y7561
X14666Y7061
X16166Y7561
X16666Y7061
X16666Y8061
X18166Y7561
X18666Y7061
X18666Y8061
X20166Y7561
X20666Y7061
X20666Y8061
X24666Y7061
X25666Y7061
X26666Y7061
X27666Y7061
X25666Y5561
X24666Y5561
X24666Y10061
X25666Y10061
X26666Y10061
X27666Y10061
X28166Y11561
X29166Y11561
X26666Y11561
X25666Y11561
X24166Y11561
X23166Y11561
X22166Y14561
X21166Y14561
X19666Y14561
X18666Y14561
X17666Y14561
X16666Y14561
X15666Y14561
X14666Y14561
X13666Y14561
X12666Y14561
X11666Y14561
X10666Y14561
X10666Y17561
X11666Y17561
X12666Y17561
X13666Y17561
X14666Y17561
X15666Y17561
X16666Y17561
X17666Y17561
X18666Y17561
X19666Y17561
X22666Y16561
X23666Y16561
X24666Y16561
X25666Y16561
X26666Y16561
X27666Y16561
X28666Y16561
X29666Y16561
X30666Y16561
X30666Y19561
X29666Y19561
X28666Y19561
X27666Y19561
X26666Y19561
X25666Y19561
X24666Y19561
X23666Y19561
X22666Y19561
X7666Y18561
X6666Y18561
T04
X9166Y21561
X8666Y12061
X8666Y16061
X9166Y17561
X23166Y9561
X29166Y10061
X30666Y10061
X30166Y13561
X30166Y15061
X26166Y15061
X26166Y13561
X29166Y6061
X30666Y6061
X23166Y5561
T05
X32394Y8290
X32788Y11006
X31883Y11833
X32394Y14290
X35544Y16927
X32788Y17006
X31883Y17833
X35544Y10927
T06
X21666Y5061
X20666Y5061
X19666Y5061
X18666Y5061
X17666Y5061
X16666Y5061
X15666Y5061
X14666Y5061
X12166Y5061
X11166Y5061
X10166Y5061
X10166Y6061
X11166Y6061
X12166Y6061
X6666Y13561
X6666Y14561
X6666Y15561
X21666Y21061
X22666Y21061
X23666Y21061
X24666Y21061
X25666Y21061
X26666Y21061
X27666Y21061
X28666Y21061
X29666Y21061
X30666Y21061
T07
X6993Y4990
X6993Y21132
X35339Y21132
X35339Y4990
M30
