G75*
%MOIN*%
%OFA0B0*%
%FSLAX24Y24*%
%IPPOS*%
%LPD*%
%AMOC8*
5,1,8,0,0,1.08239X$1,22.5*
%
%ADD10C,0.0000*%
%ADD11C,0.0050*%
%ADD12C,0.0020*%
%ADD13C,0.0001*%
D10*
X006993Y003416D02*
X035339Y003416D01*
X034709Y004990D02*
X034711Y005040D01*
X034717Y005090D01*
X034727Y005139D01*
X034741Y005187D01*
X034758Y005234D01*
X034779Y005279D01*
X034804Y005323D01*
X034832Y005364D01*
X034864Y005403D01*
X034898Y005440D01*
X034935Y005474D01*
X034975Y005504D01*
X035017Y005531D01*
X035061Y005555D01*
X035107Y005576D01*
X035154Y005592D01*
X035202Y005605D01*
X035252Y005614D01*
X035301Y005619D01*
X035352Y005620D01*
X035402Y005617D01*
X035451Y005610D01*
X035500Y005599D01*
X035548Y005584D01*
X035594Y005566D01*
X035639Y005544D01*
X035682Y005518D01*
X035723Y005489D01*
X035762Y005457D01*
X035798Y005422D01*
X035830Y005384D01*
X035860Y005344D01*
X035887Y005301D01*
X035910Y005257D01*
X035929Y005211D01*
X035945Y005163D01*
X035957Y005114D01*
X035965Y005065D01*
X035969Y005015D01*
X035969Y004965D01*
X035965Y004915D01*
X035957Y004866D01*
X035945Y004817D01*
X035929Y004769D01*
X035910Y004723D01*
X035887Y004679D01*
X035860Y004636D01*
X035830Y004596D01*
X035798Y004558D01*
X035762Y004523D01*
X035723Y004491D01*
X035682Y004462D01*
X035639Y004436D01*
X035594Y004414D01*
X035548Y004396D01*
X035500Y004381D01*
X035451Y004370D01*
X035402Y004363D01*
X035352Y004360D01*
X035301Y004361D01*
X035252Y004366D01*
X035202Y004375D01*
X035154Y004388D01*
X035107Y004404D01*
X035061Y004425D01*
X035017Y004449D01*
X034975Y004476D01*
X034935Y004506D01*
X034898Y004540D01*
X034864Y004577D01*
X034832Y004616D01*
X034804Y004657D01*
X034779Y004701D01*
X034758Y004746D01*
X034741Y004793D01*
X034727Y004841D01*
X034717Y004890D01*
X034711Y004940D01*
X034709Y004990D01*
X035339Y003415D02*
X035416Y003417D01*
X035493Y003423D01*
X035570Y003432D01*
X035646Y003445D01*
X035722Y003462D01*
X035796Y003483D01*
X035870Y003507D01*
X035942Y003535D01*
X036012Y003566D01*
X036081Y003601D01*
X036149Y003639D01*
X036214Y003680D01*
X036277Y003725D01*
X036338Y003773D01*
X036397Y003823D01*
X036453Y003876D01*
X036506Y003932D01*
X036556Y003991D01*
X036604Y004052D01*
X036649Y004115D01*
X036690Y004180D01*
X036728Y004248D01*
X036763Y004317D01*
X036794Y004387D01*
X036822Y004459D01*
X036846Y004533D01*
X036867Y004607D01*
X036884Y004683D01*
X036897Y004759D01*
X036906Y004836D01*
X036912Y004913D01*
X036914Y004990D01*
X036914Y021132D01*
X034709Y021132D02*
X034711Y021182D01*
X034717Y021232D01*
X034727Y021281D01*
X034741Y021329D01*
X034758Y021376D01*
X034779Y021421D01*
X034804Y021465D01*
X034832Y021506D01*
X034864Y021545D01*
X034898Y021582D01*
X034935Y021616D01*
X034975Y021646D01*
X035017Y021673D01*
X035061Y021697D01*
X035107Y021718D01*
X035154Y021734D01*
X035202Y021747D01*
X035252Y021756D01*
X035301Y021761D01*
X035352Y021762D01*
X035402Y021759D01*
X035451Y021752D01*
X035500Y021741D01*
X035548Y021726D01*
X035594Y021708D01*
X035639Y021686D01*
X035682Y021660D01*
X035723Y021631D01*
X035762Y021599D01*
X035798Y021564D01*
X035830Y021526D01*
X035860Y021486D01*
X035887Y021443D01*
X035910Y021399D01*
X035929Y021353D01*
X035945Y021305D01*
X035957Y021256D01*
X035965Y021207D01*
X035969Y021157D01*
X035969Y021107D01*
X035965Y021057D01*
X035957Y021008D01*
X035945Y020959D01*
X035929Y020911D01*
X035910Y020865D01*
X035887Y020821D01*
X035860Y020778D01*
X035830Y020738D01*
X035798Y020700D01*
X035762Y020665D01*
X035723Y020633D01*
X035682Y020604D01*
X035639Y020578D01*
X035594Y020556D01*
X035548Y020538D01*
X035500Y020523D01*
X035451Y020512D01*
X035402Y020505D01*
X035352Y020502D01*
X035301Y020503D01*
X035252Y020508D01*
X035202Y020517D01*
X035154Y020530D01*
X035107Y020546D01*
X035061Y020567D01*
X035017Y020591D01*
X034975Y020618D01*
X034935Y020648D01*
X034898Y020682D01*
X034864Y020719D01*
X034832Y020758D01*
X034804Y020799D01*
X034779Y020843D01*
X034758Y020888D01*
X034741Y020935D01*
X034727Y020983D01*
X034717Y021032D01*
X034711Y021082D01*
X034709Y021132D01*
X035339Y022707D02*
X035416Y022705D01*
X035493Y022699D01*
X035570Y022690D01*
X035646Y022677D01*
X035722Y022660D01*
X035796Y022639D01*
X035870Y022615D01*
X035942Y022587D01*
X036012Y022556D01*
X036081Y022521D01*
X036149Y022483D01*
X036214Y022442D01*
X036277Y022397D01*
X036338Y022349D01*
X036397Y022299D01*
X036453Y022246D01*
X036506Y022190D01*
X036556Y022131D01*
X036604Y022070D01*
X036649Y022007D01*
X036690Y021942D01*
X036728Y021874D01*
X036763Y021805D01*
X036794Y021735D01*
X036822Y021663D01*
X036846Y021589D01*
X036867Y021515D01*
X036884Y021439D01*
X036897Y021363D01*
X036906Y021286D01*
X036912Y021209D01*
X036914Y021132D01*
X035339Y022707D02*
X006993Y022707D01*
X006363Y021132D02*
X006365Y021182D01*
X006371Y021232D01*
X006381Y021281D01*
X006395Y021329D01*
X006412Y021376D01*
X006433Y021421D01*
X006458Y021465D01*
X006486Y021506D01*
X006518Y021545D01*
X006552Y021582D01*
X006589Y021616D01*
X006629Y021646D01*
X006671Y021673D01*
X006715Y021697D01*
X006761Y021718D01*
X006808Y021734D01*
X006856Y021747D01*
X006906Y021756D01*
X006955Y021761D01*
X007006Y021762D01*
X007056Y021759D01*
X007105Y021752D01*
X007154Y021741D01*
X007202Y021726D01*
X007248Y021708D01*
X007293Y021686D01*
X007336Y021660D01*
X007377Y021631D01*
X007416Y021599D01*
X007452Y021564D01*
X007484Y021526D01*
X007514Y021486D01*
X007541Y021443D01*
X007564Y021399D01*
X007583Y021353D01*
X007599Y021305D01*
X007611Y021256D01*
X007619Y021207D01*
X007623Y021157D01*
X007623Y021107D01*
X007619Y021057D01*
X007611Y021008D01*
X007599Y020959D01*
X007583Y020911D01*
X007564Y020865D01*
X007541Y020821D01*
X007514Y020778D01*
X007484Y020738D01*
X007452Y020700D01*
X007416Y020665D01*
X007377Y020633D01*
X007336Y020604D01*
X007293Y020578D01*
X007248Y020556D01*
X007202Y020538D01*
X007154Y020523D01*
X007105Y020512D01*
X007056Y020505D01*
X007006Y020502D01*
X006955Y020503D01*
X006906Y020508D01*
X006856Y020517D01*
X006808Y020530D01*
X006761Y020546D01*
X006715Y020567D01*
X006671Y020591D01*
X006629Y020618D01*
X006589Y020648D01*
X006552Y020682D01*
X006518Y020719D01*
X006486Y020758D01*
X006458Y020799D01*
X006433Y020843D01*
X006412Y020888D01*
X006395Y020935D01*
X006381Y020983D01*
X006371Y021032D01*
X006365Y021082D01*
X006363Y021132D01*
X005418Y021132D02*
X005420Y021209D01*
X005426Y021286D01*
X005435Y021363D01*
X005448Y021439D01*
X005465Y021515D01*
X005486Y021589D01*
X005510Y021663D01*
X005538Y021735D01*
X005569Y021805D01*
X005604Y021874D01*
X005642Y021942D01*
X005683Y022007D01*
X005728Y022070D01*
X005776Y022131D01*
X005826Y022190D01*
X005879Y022246D01*
X005935Y022299D01*
X005994Y022349D01*
X006055Y022397D01*
X006118Y022442D01*
X006183Y022483D01*
X006251Y022521D01*
X006320Y022556D01*
X006390Y022587D01*
X006462Y022615D01*
X006536Y022639D01*
X006610Y022660D01*
X006686Y022677D01*
X006762Y022690D01*
X006839Y022699D01*
X006916Y022705D01*
X006993Y022707D01*
X005418Y021132D02*
X005418Y004990D01*
X006363Y004990D02*
X006365Y005040D01*
X006371Y005090D01*
X006381Y005139D01*
X006395Y005187D01*
X006412Y005234D01*
X006433Y005279D01*
X006458Y005323D01*
X006486Y005364D01*
X006518Y005403D01*
X006552Y005440D01*
X006589Y005474D01*
X006629Y005504D01*
X006671Y005531D01*
X006715Y005555D01*
X006761Y005576D01*
X006808Y005592D01*
X006856Y005605D01*
X006906Y005614D01*
X006955Y005619D01*
X007006Y005620D01*
X007056Y005617D01*
X007105Y005610D01*
X007154Y005599D01*
X007202Y005584D01*
X007248Y005566D01*
X007293Y005544D01*
X007336Y005518D01*
X007377Y005489D01*
X007416Y005457D01*
X007452Y005422D01*
X007484Y005384D01*
X007514Y005344D01*
X007541Y005301D01*
X007564Y005257D01*
X007583Y005211D01*
X007599Y005163D01*
X007611Y005114D01*
X007619Y005065D01*
X007623Y005015D01*
X007623Y004965D01*
X007619Y004915D01*
X007611Y004866D01*
X007599Y004817D01*
X007583Y004769D01*
X007564Y004723D01*
X007541Y004679D01*
X007514Y004636D01*
X007484Y004596D01*
X007452Y004558D01*
X007416Y004523D01*
X007377Y004491D01*
X007336Y004462D01*
X007293Y004436D01*
X007248Y004414D01*
X007202Y004396D01*
X007154Y004381D01*
X007105Y004370D01*
X007056Y004363D01*
X007006Y004360D01*
X006955Y004361D01*
X006906Y004366D01*
X006856Y004375D01*
X006808Y004388D01*
X006761Y004404D01*
X006715Y004425D01*
X006671Y004449D01*
X006629Y004476D01*
X006589Y004506D01*
X006552Y004540D01*
X006518Y004577D01*
X006486Y004616D01*
X006458Y004657D01*
X006433Y004701D01*
X006412Y004746D01*
X006395Y004793D01*
X006381Y004841D01*
X006371Y004890D01*
X006365Y004940D01*
X006363Y004990D01*
X005418Y004990D02*
X005420Y004913D01*
X005426Y004836D01*
X005435Y004759D01*
X005448Y004683D01*
X005465Y004607D01*
X005486Y004533D01*
X005510Y004459D01*
X005538Y004387D01*
X005569Y004317D01*
X005604Y004248D01*
X005642Y004180D01*
X005683Y004115D01*
X005728Y004052D01*
X005776Y003991D01*
X005826Y003932D01*
X005879Y003876D01*
X005935Y003823D01*
X005994Y003773D01*
X006055Y003725D01*
X006118Y003680D01*
X006183Y003639D01*
X006251Y003601D01*
X006320Y003566D01*
X006390Y003535D01*
X006462Y003507D01*
X006536Y003483D01*
X006610Y003462D01*
X006686Y003445D01*
X006762Y003432D01*
X006839Y003423D01*
X006916Y003417D01*
X006993Y003415D01*
X008241Y007805D02*
X008207Y007817D01*
X008176Y007836D01*
X008151Y007862D01*
X008132Y007892D01*
X008120Y007926D01*
X008116Y007961D01*
X008120Y007997D01*
X008132Y008031D01*
X008151Y008061D01*
X008176Y008086D01*
X008207Y008105D01*
X008241Y008117D01*
X008276Y008121D01*
X009056Y008121D01*
X009092Y008117D01*
X009126Y008105D01*
X009156Y008086D01*
X009181Y008061D01*
X009200Y008031D01*
X009212Y007997D01*
X009216Y007961D01*
X009212Y007926D01*
X009200Y007892D01*
X009181Y007862D01*
X009156Y007836D01*
X009126Y007817D01*
X009092Y007805D01*
X009056Y007801D01*
X008276Y007801D01*
X008241Y007805D01*
X007536Y009377D02*
X007502Y009365D01*
X007466Y009361D01*
X007431Y009365D01*
X007397Y009377D01*
X007366Y009396D01*
X007341Y009422D01*
X007322Y009452D01*
X007310Y009486D01*
X007306Y009521D01*
X007306Y010301D01*
X007310Y010337D01*
X007322Y010371D01*
X007341Y010401D01*
X007366Y010426D01*
X007397Y010445D01*
X007431Y010457D01*
X007466Y010461D01*
X007502Y010457D01*
X007536Y010445D01*
X007566Y010426D01*
X007591Y010401D01*
X007610Y010371D01*
X007622Y010337D01*
X007626Y010301D01*
X007626Y009521D01*
X007622Y009486D01*
X007610Y009452D01*
X007591Y009422D01*
X007566Y009396D01*
X007536Y009377D01*
X009756Y009521D02*
X009760Y009486D01*
X009772Y009452D01*
X009791Y009422D01*
X009816Y009396D01*
X009847Y009377D01*
X009881Y009365D01*
X009916Y009361D01*
X009952Y009365D01*
X009986Y009377D01*
X010016Y009396D01*
X010041Y009422D01*
X010060Y009452D01*
X010072Y009486D01*
X010076Y009521D01*
X010076Y010301D01*
X010072Y010337D01*
X010060Y010371D01*
X010041Y010401D01*
X010016Y010426D01*
X009986Y010445D01*
X009952Y010457D01*
X009916Y010461D01*
X009881Y010457D01*
X009847Y010445D01*
X009816Y010426D01*
X009791Y010401D01*
X009772Y010371D01*
X009760Y010337D01*
X009756Y010301D01*
X009756Y009521D01*
X031686Y011735D02*
X031686Y011931D01*
X031688Y011957D01*
X031693Y011982D01*
X031701Y012006D01*
X031712Y012030D01*
X031727Y012051D01*
X031744Y012070D01*
X031763Y012087D01*
X031785Y012102D01*
X031808Y012113D01*
X031832Y012121D01*
X031857Y012126D01*
X031883Y012128D01*
X031909Y012126D01*
X031934Y012121D01*
X031958Y012113D01*
X031982Y012102D01*
X032003Y012087D01*
X032022Y012070D01*
X032039Y012051D01*
X032054Y012030D01*
X032065Y012006D01*
X032073Y011982D01*
X032078Y011957D01*
X032080Y011931D01*
X032080Y011735D01*
X031883Y011538D02*
X031857Y011540D01*
X031832Y011545D01*
X031808Y011553D01*
X031785Y011564D01*
X031763Y011579D01*
X031744Y011596D01*
X031727Y011615D01*
X031712Y011637D01*
X031701Y011660D01*
X031693Y011684D01*
X031688Y011709D01*
X031686Y011735D01*
X031883Y011538D02*
X031909Y011540D01*
X031934Y011545D01*
X031958Y011553D01*
X031982Y011564D01*
X032003Y011579D01*
X032022Y011596D01*
X032039Y011615D01*
X032054Y011637D01*
X032065Y011660D01*
X032073Y011684D01*
X032078Y011709D01*
X032080Y011735D01*
X032591Y011203D02*
X032985Y011203D01*
X033182Y011006D02*
X033180Y010980D01*
X033175Y010955D01*
X033167Y010931D01*
X033156Y010908D01*
X033141Y010886D01*
X033124Y010867D01*
X033105Y010850D01*
X033084Y010835D01*
X033060Y010824D01*
X033036Y010816D01*
X033011Y010811D01*
X032985Y010809D01*
X032591Y010809D01*
X032394Y011006D02*
X032396Y011032D01*
X032401Y011057D01*
X032409Y011081D01*
X032420Y011105D01*
X032435Y011126D01*
X032452Y011145D01*
X032471Y011162D01*
X032493Y011177D01*
X032516Y011188D01*
X032540Y011196D01*
X032565Y011201D01*
X032591Y011203D01*
X032394Y011006D02*
X032396Y010980D01*
X032401Y010955D01*
X032409Y010931D01*
X032420Y010908D01*
X032435Y010886D01*
X032452Y010867D01*
X032471Y010850D01*
X032493Y010835D01*
X032516Y010824D01*
X032540Y010816D01*
X032565Y010811D01*
X032591Y010809D01*
X032985Y011203D02*
X033011Y011201D01*
X033036Y011196D01*
X033060Y011188D01*
X033084Y011177D01*
X033105Y011162D01*
X033124Y011145D01*
X033141Y011126D01*
X033156Y011105D01*
X033167Y011081D01*
X033175Y011057D01*
X033180Y011032D01*
X033182Y011006D01*
X035347Y011124D02*
X035347Y010731D01*
X035349Y010705D01*
X035354Y010680D01*
X035362Y010656D01*
X035373Y010633D01*
X035388Y010611D01*
X035405Y010592D01*
X035424Y010575D01*
X035446Y010560D01*
X035469Y010549D01*
X035493Y010541D01*
X035518Y010536D01*
X035544Y010534D01*
X035570Y010536D01*
X035595Y010541D01*
X035619Y010549D01*
X035643Y010560D01*
X035664Y010575D01*
X035683Y010592D01*
X035700Y010611D01*
X035715Y010633D01*
X035726Y010656D01*
X035734Y010680D01*
X035739Y010705D01*
X035741Y010731D01*
X035741Y011124D01*
X035544Y011321D02*
X035518Y011319D01*
X035493Y011314D01*
X035469Y011306D01*
X035446Y011295D01*
X035424Y011280D01*
X035405Y011263D01*
X035388Y011244D01*
X035373Y011223D01*
X035362Y011199D01*
X035354Y011175D01*
X035349Y011150D01*
X035347Y011124D01*
X035544Y011321D02*
X035570Y011319D01*
X035595Y011314D01*
X035619Y011306D01*
X035643Y011295D01*
X035664Y011280D01*
X035683Y011263D01*
X035700Y011244D01*
X035715Y011223D01*
X035726Y011199D01*
X035734Y011175D01*
X035739Y011150D01*
X035741Y011124D01*
X032591Y008388D02*
X032591Y008191D01*
X032394Y007994D02*
X032368Y007996D01*
X032343Y008001D01*
X032319Y008009D01*
X032296Y008020D01*
X032274Y008035D01*
X032255Y008052D01*
X032238Y008071D01*
X032223Y008093D01*
X032212Y008116D01*
X032204Y008140D01*
X032199Y008165D01*
X032197Y008191D01*
X032198Y008191D02*
X032198Y008388D01*
X032197Y008388D02*
X032199Y008414D01*
X032204Y008439D01*
X032212Y008463D01*
X032223Y008487D01*
X032238Y008508D01*
X032255Y008527D01*
X032274Y008544D01*
X032296Y008559D01*
X032319Y008570D01*
X032343Y008578D01*
X032368Y008583D01*
X032394Y008585D01*
X032420Y008583D01*
X032445Y008578D01*
X032469Y008570D01*
X032493Y008559D01*
X032514Y008544D01*
X032533Y008527D01*
X032550Y008508D01*
X032565Y008487D01*
X032576Y008463D01*
X032584Y008439D01*
X032589Y008414D01*
X032591Y008388D01*
X032591Y008191D02*
X032589Y008165D01*
X032584Y008140D01*
X032576Y008116D01*
X032565Y008093D01*
X032550Y008071D01*
X032533Y008052D01*
X032514Y008035D01*
X032493Y008020D01*
X032469Y008009D01*
X032445Y008001D01*
X032420Y007996D01*
X032394Y007994D01*
X032394Y013994D02*
X032368Y013996D01*
X032343Y014001D01*
X032319Y014009D01*
X032296Y014020D01*
X032274Y014035D01*
X032255Y014052D01*
X032238Y014071D01*
X032223Y014093D01*
X032212Y014116D01*
X032204Y014140D01*
X032199Y014165D01*
X032197Y014191D01*
X032198Y014191D02*
X032198Y014388D01*
X032197Y014388D02*
X032199Y014414D01*
X032204Y014439D01*
X032212Y014463D01*
X032223Y014487D01*
X032238Y014508D01*
X032255Y014527D01*
X032274Y014544D01*
X032296Y014559D01*
X032319Y014570D01*
X032343Y014578D01*
X032368Y014583D01*
X032394Y014585D01*
X032420Y014583D01*
X032445Y014578D01*
X032469Y014570D01*
X032493Y014559D01*
X032514Y014544D01*
X032533Y014527D01*
X032550Y014508D01*
X032565Y014487D01*
X032576Y014463D01*
X032584Y014439D01*
X032589Y014414D01*
X032591Y014388D01*
X032591Y014191D01*
X032589Y014165D01*
X032584Y014140D01*
X032576Y014116D01*
X032565Y014093D01*
X032550Y014071D01*
X032533Y014052D01*
X032514Y014035D01*
X032493Y014020D01*
X032469Y014009D01*
X032445Y014001D01*
X032420Y013996D01*
X032394Y013994D01*
X032591Y016809D02*
X032985Y016809D01*
X033011Y016811D01*
X033036Y016816D01*
X033060Y016824D01*
X033084Y016835D01*
X033105Y016850D01*
X033124Y016867D01*
X033141Y016886D01*
X033156Y016908D01*
X033167Y016931D01*
X033175Y016955D01*
X033180Y016980D01*
X033182Y017006D01*
X033180Y017032D01*
X033175Y017057D01*
X033167Y017081D01*
X033156Y017105D01*
X033141Y017126D01*
X033124Y017145D01*
X033105Y017162D01*
X033084Y017177D01*
X033060Y017188D01*
X033036Y017196D01*
X033011Y017201D01*
X032985Y017203D01*
X032591Y017203D01*
X032565Y017201D01*
X032540Y017196D01*
X032516Y017188D01*
X032493Y017177D01*
X032471Y017162D01*
X032452Y017145D01*
X032435Y017126D01*
X032420Y017105D01*
X032409Y017081D01*
X032401Y017057D01*
X032396Y017032D01*
X032394Y017006D01*
X032396Y016980D01*
X032401Y016955D01*
X032409Y016931D01*
X032420Y016908D01*
X032435Y016886D01*
X032452Y016867D01*
X032471Y016850D01*
X032493Y016835D01*
X032516Y016824D01*
X032540Y016816D01*
X032565Y016811D01*
X032591Y016809D01*
X032080Y017735D02*
X032080Y017931D01*
X031883Y018128D02*
X031857Y018126D01*
X031832Y018121D01*
X031808Y018113D01*
X031785Y018102D01*
X031763Y018087D01*
X031744Y018070D01*
X031727Y018051D01*
X031712Y018030D01*
X031701Y018006D01*
X031693Y017982D01*
X031688Y017957D01*
X031686Y017931D01*
X031686Y017735D01*
X031688Y017709D01*
X031693Y017684D01*
X031701Y017660D01*
X031712Y017637D01*
X031727Y017615D01*
X031744Y017596D01*
X031763Y017579D01*
X031785Y017564D01*
X031808Y017553D01*
X031832Y017545D01*
X031857Y017540D01*
X031883Y017538D01*
X031909Y017540D01*
X031934Y017545D01*
X031958Y017553D01*
X031982Y017564D01*
X032003Y017579D01*
X032022Y017596D01*
X032039Y017615D01*
X032054Y017637D01*
X032065Y017660D01*
X032073Y017684D01*
X032078Y017709D01*
X032080Y017735D01*
X032080Y017931D02*
X032078Y017957D01*
X032073Y017982D01*
X032065Y018006D01*
X032054Y018030D01*
X032039Y018051D01*
X032022Y018070D01*
X032003Y018087D01*
X031982Y018102D01*
X031958Y018113D01*
X031934Y018121D01*
X031909Y018126D01*
X031883Y018128D01*
X035347Y017124D02*
X035347Y016731D01*
X035349Y016705D01*
X035354Y016680D01*
X035362Y016656D01*
X035373Y016633D01*
X035388Y016611D01*
X035405Y016592D01*
X035424Y016575D01*
X035446Y016560D01*
X035469Y016549D01*
X035493Y016541D01*
X035518Y016536D01*
X035544Y016534D01*
X035570Y016536D01*
X035595Y016541D01*
X035619Y016549D01*
X035643Y016560D01*
X035664Y016575D01*
X035683Y016592D01*
X035700Y016611D01*
X035715Y016633D01*
X035726Y016656D01*
X035734Y016680D01*
X035739Y016705D01*
X035741Y016731D01*
X035741Y017124D01*
X035544Y017321D02*
X035518Y017319D01*
X035493Y017314D01*
X035469Y017306D01*
X035446Y017295D01*
X035424Y017280D01*
X035405Y017263D01*
X035388Y017244D01*
X035373Y017223D01*
X035362Y017199D01*
X035354Y017175D01*
X035349Y017150D01*
X035347Y017124D01*
X035544Y017321D02*
X035570Y017319D01*
X035595Y017314D01*
X035619Y017306D01*
X035643Y017295D01*
X035664Y017280D01*
X035683Y017263D01*
X035700Y017244D01*
X035715Y017223D01*
X035726Y017199D01*
X035734Y017175D01*
X035739Y017150D01*
X035741Y017124D01*
D11*
X009416Y009911D02*
X009216Y009811D01*
X009216Y010011D02*
X009416Y009911D01*
X008666Y009911D01*
X007966Y009911D01*
X008166Y009811D01*
X008166Y010011D02*
X007966Y009911D01*
X008666Y009911D02*
X008666Y009161D01*
X008666Y008861D02*
X008666Y008461D01*
X008766Y008661D01*
X008566Y008661D02*
X008666Y008461D01*
D12*
X008609Y008921D02*
X008719Y008921D01*
X008793Y008958D02*
X008793Y009031D01*
X008830Y009068D01*
X008904Y009068D01*
X008940Y009031D01*
X008940Y008958D01*
X008904Y008921D01*
X008830Y008921D01*
X008793Y008958D01*
X008719Y009068D02*
X008609Y009068D01*
X008572Y009031D01*
X008572Y008958D01*
X008609Y008921D01*
X008277Y008921D02*
X008277Y009031D01*
X008241Y009068D01*
X008167Y009068D01*
X008130Y009031D01*
X008057Y009068D02*
X007983Y009068D01*
X008020Y009105D02*
X008020Y008958D01*
X008057Y008921D01*
X008130Y008921D02*
X008130Y009141D01*
X007873Y009141D02*
X007873Y009178D01*
X007873Y009068D02*
X007873Y008921D01*
X007909Y008921D02*
X007836Y008921D01*
X007762Y008958D02*
X007762Y009068D01*
X007836Y009068D02*
X007873Y009068D01*
X007762Y008958D02*
X007725Y008921D01*
X007688Y008958D01*
X007652Y008921D01*
X007615Y008958D01*
X007615Y009068D01*
X007320Y009068D02*
X007210Y009068D01*
X007173Y009031D01*
X007210Y008995D01*
X007283Y008995D01*
X007320Y008958D01*
X007283Y008921D01*
X007173Y008921D01*
X007099Y008921D02*
X007026Y008921D01*
X007062Y008921D02*
X007062Y009141D01*
X007026Y009141D01*
X006915Y009141D02*
X006915Y008921D01*
X006878Y008921D02*
X006952Y008921D01*
X006804Y008921D02*
X006731Y008921D01*
X006768Y008921D02*
X006768Y009068D01*
X006731Y009068D01*
X006657Y009068D02*
X006620Y009068D01*
X006547Y008995D01*
X006547Y009068D02*
X006547Y008921D01*
X006473Y008958D02*
X006473Y009105D01*
X006436Y009141D01*
X006326Y009141D01*
X006326Y008921D01*
X006436Y008921D01*
X006473Y008958D01*
X006768Y009141D02*
X006768Y009178D01*
X006878Y009141D02*
X006915Y009141D01*
X006031Y009068D02*
X005957Y009068D01*
X005994Y009105D02*
X005994Y008958D01*
X006031Y008921D01*
X005883Y008958D02*
X005883Y009031D01*
X005847Y009068D01*
X005773Y009068D01*
X005736Y009031D01*
X005736Y008958D01*
X005773Y008921D01*
X005847Y008921D01*
X005883Y008958D01*
X005663Y008921D02*
X005589Y008921D01*
X005626Y008921D02*
X005626Y009141D01*
X005589Y009141D01*
X005515Y009105D02*
X005478Y009141D01*
X005405Y009141D01*
X005368Y009105D01*
X005368Y009068D01*
X005405Y009031D01*
X005478Y009031D01*
X005515Y008995D01*
X005515Y008958D01*
X005478Y008921D01*
X005405Y008921D01*
X005368Y008958D01*
X005073Y008958D02*
X005036Y008921D01*
X004963Y008921D01*
X004926Y008958D01*
X005000Y009031D02*
X005036Y009031D01*
X005073Y008995D01*
X005073Y008958D01*
X005036Y009031D02*
X005073Y009068D01*
X005073Y009105D01*
X005036Y009141D01*
X004963Y009141D01*
X004926Y009105D01*
X009014Y009068D02*
X009014Y008848D01*
X009014Y008921D02*
X009125Y008921D01*
X009161Y008958D01*
X009161Y009031D01*
X009125Y009068D01*
X009014Y009068D01*
X009235Y009068D02*
X009235Y008848D01*
X009235Y008921D02*
X009346Y008921D01*
X009382Y008958D01*
X009382Y009031D01*
X009346Y009068D01*
X009235Y009068D01*
X009456Y009031D02*
X009493Y009068D01*
X009566Y009068D01*
X009603Y009031D01*
X009603Y008995D01*
X009456Y008995D01*
X009456Y009031D02*
X009456Y008958D01*
X009493Y008921D01*
X009566Y008921D01*
X009677Y008921D02*
X009677Y009068D01*
X009677Y008995D02*
X009751Y009068D01*
X009787Y009068D01*
D13*
X009878Y009366D02*
X009954Y009366D01*
X009957Y009367D02*
X009876Y009367D01*
X009873Y009368D02*
X009960Y009368D01*
X009962Y009369D02*
X009870Y009369D01*
X009867Y009370D02*
X009965Y009370D01*
X009968Y009371D02*
X009864Y009371D01*
X009861Y009372D02*
X009971Y009372D01*
X009974Y009373D02*
X009858Y009373D01*
X009856Y009374D02*
X009977Y009374D01*
X009980Y009375D02*
X009853Y009375D01*
X009850Y009376D02*
X009982Y009376D01*
X009985Y009377D02*
X009847Y009377D01*
X009845Y009378D02*
X009987Y009378D01*
X009989Y009379D02*
X009844Y009379D01*
X009842Y009380D02*
X009990Y009380D01*
X009992Y009381D02*
X009840Y009381D01*
X009839Y009382D02*
X009993Y009382D01*
X009995Y009383D02*
X009837Y009383D01*
X009836Y009384D02*
X009997Y009384D01*
X009998Y009385D02*
X009834Y009385D01*
X009833Y009386D02*
X010000Y009386D01*
X010001Y009387D02*
X009831Y009387D01*
X009829Y009388D02*
X010003Y009388D01*
X010005Y009389D02*
X009828Y009389D01*
X009826Y009390D02*
X010006Y009390D01*
X010008Y009391D02*
X009825Y009391D01*
X009823Y009392D02*
X010009Y009392D01*
X010011Y009393D02*
X009821Y009393D01*
X009820Y009394D02*
X010012Y009394D01*
X010014Y009395D02*
X009818Y009395D01*
X009817Y009396D02*
X010016Y009396D01*
X010017Y009397D02*
X009816Y009397D01*
X009815Y009398D02*
X010018Y009398D01*
X010019Y009399D02*
X009814Y009399D01*
X009813Y009400D02*
X010020Y009400D01*
X010021Y009401D02*
X009812Y009401D01*
X009811Y009402D02*
X010022Y009402D01*
X010023Y009403D02*
X009810Y009403D01*
X009809Y009404D02*
X010024Y009404D01*
X010025Y009405D02*
X009808Y009405D01*
X009807Y009406D02*
X010026Y009406D01*
X010027Y009407D02*
X009806Y009407D01*
X009805Y009408D02*
X010028Y009408D01*
X010029Y009409D02*
X009804Y009409D01*
X009803Y009410D02*
X010030Y009410D01*
X010031Y009411D02*
X009802Y009411D01*
X009801Y009412D02*
X010032Y009412D01*
X010033Y009413D02*
X009800Y009413D01*
X009799Y009414D02*
X010034Y009414D01*
X010035Y009415D02*
X009798Y009415D01*
X009797Y009416D02*
X010036Y009416D01*
X010037Y009417D02*
X009796Y009417D01*
X009795Y009418D02*
X010038Y009418D01*
X010039Y009419D02*
X009794Y009419D01*
X009793Y009420D02*
X010040Y009420D01*
X010041Y009421D02*
X009792Y009421D01*
X009791Y009422D02*
X010042Y009422D01*
X010042Y009423D02*
X009790Y009423D01*
X009789Y009424D02*
X010043Y009424D01*
X010043Y009425D02*
X009789Y009425D01*
X009788Y009426D02*
X010044Y009426D01*
X010045Y009427D02*
X009788Y009427D01*
X009787Y009428D02*
X010045Y009428D01*
X010046Y009429D02*
X009786Y009429D01*
X009786Y009430D02*
X010047Y009430D01*
X010047Y009431D02*
X009785Y009431D01*
X009784Y009432D02*
X010048Y009432D01*
X010048Y009433D02*
X009784Y009433D01*
X009783Y009434D02*
X010049Y009434D01*
X010050Y009435D02*
X009783Y009435D01*
X009782Y009436D02*
X010050Y009436D01*
X010051Y009437D02*
X009781Y009437D01*
X009781Y009438D02*
X010052Y009438D01*
X010052Y009439D02*
X009780Y009439D01*
X009779Y009440D02*
X010053Y009440D01*
X010053Y009441D02*
X009779Y009441D01*
X009778Y009442D02*
X010054Y009442D01*
X010055Y009443D02*
X009778Y009443D01*
X009777Y009444D02*
X010055Y009444D01*
X010056Y009445D02*
X009776Y009445D01*
X009776Y009446D02*
X010057Y009446D01*
X010057Y009447D02*
X009775Y009447D01*
X009774Y009448D02*
X010058Y009448D01*
X010058Y009449D02*
X009774Y009449D01*
X009773Y009450D02*
X010059Y009450D01*
X010060Y009451D02*
X009773Y009451D01*
X009772Y009452D02*
X010060Y009452D01*
X010061Y009453D02*
X009772Y009453D01*
X009771Y009454D02*
X010061Y009454D01*
X010061Y009455D02*
X009771Y009455D01*
X009771Y009456D02*
X010062Y009456D01*
X010062Y009457D02*
X009770Y009457D01*
X009770Y009458D02*
X010062Y009458D01*
X010063Y009459D02*
X009770Y009459D01*
X009769Y009460D02*
X010063Y009460D01*
X010063Y009461D02*
X009769Y009461D01*
X009768Y009462D02*
X010064Y009462D01*
X010064Y009463D02*
X009768Y009463D01*
X009768Y009464D02*
X010065Y009464D01*
X010065Y009465D02*
X009767Y009465D01*
X009767Y009466D02*
X010065Y009466D01*
X010066Y009467D02*
X009767Y009467D01*
X009766Y009468D02*
X010066Y009468D01*
X010066Y009469D02*
X009766Y009469D01*
X009766Y009470D02*
X010067Y009470D01*
X010067Y009471D02*
X009765Y009471D01*
X009765Y009472D02*
X010067Y009472D01*
X010068Y009473D02*
X009765Y009473D01*
X009764Y009474D02*
X010068Y009474D01*
X010068Y009475D02*
X009764Y009475D01*
X009764Y009476D02*
X010069Y009476D01*
X010069Y009477D02*
X009763Y009477D01*
X009763Y009478D02*
X010069Y009478D01*
X010070Y009479D02*
X009763Y009479D01*
X009762Y009480D02*
X010070Y009480D01*
X010070Y009481D02*
X009762Y009481D01*
X009761Y009482D02*
X010071Y009482D01*
X010071Y009483D02*
X009761Y009483D01*
X009761Y009484D02*
X010072Y009484D01*
X010072Y009485D02*
X009760Y009485D01*
X009760Y009486D02*
X010072Y009486D01*
X010072Y009487D02*
X009760Y009487D01*
X009760Y009488D02*
X010072Y009488D01*
X010072Y009489D02*
X009760Y009489D01*
X009760Y009490D02*
X010073Y009490D01*
X010073Y009491D02*
X009760Y009491D01*
X009759Y009492D02*
X010073Y009492D01*
X010073Y009493D02*
X009759Y009493D01*
X009759Y009494D02*
X010073Y009494D01*
X010073Y009495D02*
X009759Y009495D01*
X009759Y009496D02*
X010073Y009496D01*
X010073Y009497D02*
X009759Y009497D01*
X009759Y009498D02*
X010074Y009498D01*
X010074Y009499D02*
X009759Y009499D01*
X009759Y009500D02*
X010074Y009500D01*
X010074Y009501D02*
X009758Y009501D01*
X009758Y009502D02*
X010074Y009502D01*
X010074Y009503D02*
X009758Y009503D01*
X009758Y009504D02*
X010074Y009504D01*
X010074Y009505D02*
X009758Y009505D01*
X009758Y009506D02*
X010074Y009506D01*
X010075Y009507D02*
X009758Y009507D01*
X009758Y009508D02*
X010075Y009508D01*
X010075Y009509D02*
X009758Y009509D01*
X009757Y009510D02*
X010075Y009510D01*
X010075Y009511D02*
X009757Y009511D01*
X009757Y009512D02*
X010075Y009512D01*
X010075Y009513D02*
X009757Y009513D01*
X009757Y009514D02*
X010075Y009514D01*
X010075Y009515D02*
X009757Y009515D01*
X009757Y009516D02*
X010076Y009516D01*
X010076Y009517D02*
X009757Y009517D01*
X009757Y009518D02*
X010076Y009518D01*
X010076Y009519D02*
X009756Y009519D01*
X009756Y009520D02*
X010076Y009520D01*
X010076Y009521D02*
X009756Y009521D01*
X009756Y009522D02*
X010076Y009522D01*
X010076Y009523D02*
X009756Y009523D01*
X009756Y009524D02*
X010076Y009524D01*
X010076Y009525D02*
X009756Y009525D01*
X009756Y009526D02*
X010076Y009526D01*
X010076Y009527D02*
X009756Y009527D01*
X009756Y009528D02*
X010076Y009528D01*
X010076Y009529D02*
X009756Y009529D01*
X009756Y009530D02*
X010076Y009530D01*
X010076Y009531D02*
X009756Y009531D01*
X009756Y009532D02*
X010076Y009532D01*
X010076Y009533D02*
X009756Y009533D01*
X009756Y009534D02*
X010076Y009534D01*
X010076Y009535D02*
X009756Y009535D01*
X009756Y009536D02*
X010076Y009536D01*
X010076Y009537D02*
X009756Y009537D01*
X009756Y009538D02*
X010076Y009538D01*
X010076Y009539D02*
X009756Y009539D01*
X009756Y009540D02*
X010076Y009540D01*
X010076Y009541D02*
X009756Y009541D01*
X009756Y009542D02*
X010076Y009542D01*
X010076Y009543D02*
X009756Y009543D01*
X009756Y009544D02*
X010076Y009544D01*
X010076Y009545D02*
X009756Y009545D01*
X009756Y009546D02*
X010076Y009546D01*
X010076Y009547D02*
X009756Y009547D01*
X009756Y009548D02*
X010076Y009548D01*
X010076Y009549D02*
X009756Y009549D01*
X009756Y009550D02*
X010076Y009550D01*
X010076Y009551D02*
X009756Y009551D01*
X009756Y009552D02*
X010076Y009552D01*
X010076Y009553D02*
X009756Y009553D01*
X009756Y009554D02*
X010076Y009554D01*
X010076Y009555D02*
X009756Y009555D01*
X009756Y009556D02*
X010076Y009556D01*
X010076Y009557D02*
X009756Y009557D01*
X009756Y009558D02*
X010076Y009558D01*
X010076Y009559D02*
X009756Y009559D01*
X009756Y009560D02*
X010076Y009560D01*
X010076Y009561D02*
X009756Y009561D01*
X009756Y009562D02*
X010076Y009562D01*
X010076Y009563D02*
X009756Y009563D01*
X009756Y009564D02*
X010076Y009564D01*
X010076Y009565D02*
X009756Y009565D01*
X009756Y009566D02*
X010076Y009566D01*
X010076Y009567D02*
X009756Y009567D01*
X009756Y009568D02*
X010076Y009568D01*
X010076Y009569D02*
X009756Y009569D01*
X009756Y009570D02*
X010076Y009570D01*
X010076Y009571D02*
X009756Y009571D01*
X009756Y009572D02*
X010076Y009572D01*
X010076Y009573D02*
X009756Y009573D01*
X009756Y009574D02*
X010076Y009574D01*
X010076Y009575D02*
X009756Y009575D01*
X009756Y009576D02*
X010076Y009576D01*
X010076Y009577D02*
X009756Y009577D01*
X009756Y009578D02*
X010076Y009578D01*
X010076Y009579D02*
X009756Y009579D01*
X009756Y009580D02*
X010076Y009580D01*
X010076Y009581D02*
X009756Y009581D01*
X009756Y009582D02*
X010076Y009582D01*
X010076Y009583D02*
X009756Y009583D01*
X009756Y009584D02*
X010076Y009584D01*
X010076Y009585D02*
X009756Y009585D01*
X009756Y009586D02*
X010076Y009586D01*
X010076Y009587D02*
X009756Y009587D01*
X009756Y009588D02*
X010076Y009588D01*
X010076Y009589D02*
X009756Y009589D01*
X009756Y009590D02*
X010076Y009590D01*
X010076Y009591D02*
X009756Y009591D01*
X009756Y009592D02*
X010076Y009592D01*
X010076Y009593D02*
X009756Y009593D01*
X009756Y009594D02*
X010076Y009594D01*
X010076Y009595D02*
X009756Y009595D01*
X009756Y009596D02*
X010076Y009596D01*
X010076Y009597D02*
X009756Y009597D01*
X009756Y009598D02*
X010076Y009598D01*
X010076Y009599D02*
X009756Y009599D01*
X009756Y009600D02*
X010076Y009600D01*
X010076Y009601D02*
X009756Y009601D01*
X009756Y009602D02*
X010076Y009602D01*
X010076Y009603D02*
X009756Y009603D01*
X009756Y009604D02*
X010076Y009604D01*
X010076Y009605D02*
X009756Y009605D01*
X009756Y009606D02*
X010076Y009606D01*
X010076Y009607D02*
X009756Y009607D01*
X009756Y009608D02*
X010076Y009608D01*
X010076Y009609D02*
X009756Y009609D01*
X009756Y009610D02*
X010076Y009610D01*
X010076Y009611D02*
X009756Y009611D01*
X009756Y009612D02*
X010076Y009612D01*
X010076Y009613D02*
X009756Y009613D01*
X009756Y009614D02*
X010076Y009614D01*
X010076Y009615D02*
X009756Y009615D01*
X009756Y009616D02*
X010076Y009616D01*
X010076Y009617D02*
X009756Y009617D01*
X009756Y009618D02*
X010076Y009618D01*
X010076Y009619D02*
X009756Y009619D01*
X009756Y009620D02*
X010076Y009620D01*
X010076Y009621D02*
X009756Y009621D01*
X009756Y009622D02*
X010076Y009622D01*
X010076Y009623D02*
X009756Y009623D01*
X009756Y009624D02*
X010076Y009624D01*
X010076Y009625D02*
X009756Y009625D01*
X009756Y009626D02*
X010076Y009626D01*
X010076Y009627D02*
X009756Y009627D01*
X009756Y009628D02*
X010076Y009628D01*
X010076Y009629D02*
X009756Y009629D01*
X009756Y009630D02*
X010076Y009630D01*
X010076Y009631D02*
X009756Y009631D01*
X009756Y009632D02*
X010076Y009632D01*
X010076Y009633D02*
X009756Y009633D01*
X009756Y009634D02*
X010076Y009634D01*
X010076Y009635D02*
X009756Y009635D01*
X009756Y009636D02*
X010076Y009636D01*
X010076Y009637D02*
X009756Y009637D01*
X009756Y009638D02*
X010076Y009638D01*
X010076Y009639D02*
X009756Y009639D01*
X009756Y009640D02*
X010076Y009640D01*
X010076Y009641D02*
X009756Y009641D01*
X009756Y009642D02*
X010076Y009642D01*
X010076Y009643D02*
X009756Y009643D01*
X009756Y009644D02*
X010076Y009644D01*
X010076Y009645D02*
X009756Y009645D01*
X009756Y009646D02*
X010076Y009646D01*
X010076Y009647D02*
X009756Y009647D01*
X009756Y009648D02*
X010076Y009648D01*
X010076Y009649D02*
X009756Y009649D01*
X009756Y009650D02*
X010076Y009650D01*
X010076Y009651D02*
X009756Y009651D01*
X009756Y009652D02*
X010076Y009652D01*
X010076Y009653D02*
X009756Y009653D01*
X009756Y009654D02*
X010076Y009654D01*
X010076Y009655D02*
X009756Y009655D01*
X009756Y009656D02*
X010076Y009656D01*
X010076Y009657D02*
X009756Y009657D01*
X009756Y009658D02*
X010076Y009658D01*
X010076Y009659D02*
X009756Y009659D01*
X009756Y009660D02*
X010076Y009660D01*
X010076Y009661D02*
X009756Y009661D01*
X009756Y009662D02*
X010076Y009662D01*
X010076Y009663D02*
X009756Y009663D01*
X009756Y009664D02*
X010076Y009664D01*
X010076Y009665D02*
X009756Y009665D01*
X009756Y009666D02*
X010076Y009666D01*
X010076Y009667D02*
X009756Y009667D01*
X009756Y009668D02*
X010076Y009668D01*
X010076Y009669D02*
X009756Y009669D01*
X009756Y009670D02*
X010076Y009670D01*
X010076Y009671D02*
X009756Y009671D01*
X009756Y009672D02*
X010076Y009672D01*
X010076Y009673D02*
X009756Y009673D01*
X009756Y009674D02*
X010076Y009674D01*
X010076Y009675D02*
X009756Y009675D01*
X009756Y009676D02*
X010076Y009676D01*
X010076Y009677D02*
X009756Y009677D01*
X009756Y009678D02*
X010076Y009678D01*
X010076Y009679D02*
X009756Y009679D01*
X009756Y009680D02*
X010076Y009680D01*
X010076Y009681D02*
X009756Y009681D01*
X009756Y009682D02*
X010076Y009682D01*
X010076Y009683D02*
X009756Y009683D01*
X009756Y009684D02*
X010076Y009684D01*
X010076Y009685D02*
X009756Y009685D01*
X009756Y009686D02*
X010076Y009686D01*
X010076Y009687D02*
X009756Y009687D01*
X009756Y009688D02*
X010076Y009688D01*
X010076Y009689D02*
X009756Y009689D01*
X009756Y009690D02*
X010076Y009690D01*
X010076Y009691D02*
X009756Y009691D01*
X009756Y009692D02*
X010076Y009692D01*
X010076Y009693D02*
X009756Y009693D01*
X009756Y009694D02*
X010076Y009694D01*
X010076Y009695D02*
X009756Y009695D01*
X009756Y009696D02*
X010076Y009696D01*
X010076Y009697D02*
X009756Y009697D01*
X009756Y009698D02*
X010076Y009698D01*
X010076Y009699D02*
X009756Y009699D01*
X009756Y009700D02*
X010076Y009700D01*
X010076Y009701D02*
X009756Y009701D01*
X009756Y009702D02*
X010076Y009702D01*
X010076Y009703D02*
X009756Y009703D01*
X009756Y009704D02*
X010076Y009704D01*
X010076Y009705D02*
X009756Y009705D01*
X009756Y009706D02*
X010076Y009706D01*
X010076Y009707D02*
X009756Y009707D01*
X009756Y009708D02*
X010076Y009708D01*
X010076Y009709D02*
X009756Y009709D01*
X009756Y009710D02*
X010076Y009710D01*
X010076Y009711D02*
X009756Y009711D01*
X009756Y009712D02*
X010076Y009712D01*
X010076Y009713D02*
X009756Y009713D01*
X009756Y009714D02*
X010076Y009714D01*
X010076Y009715D02*
X009756Y009715D01*
X009756Y009716D02*
X010076Y009716D01*
X010076Y009717D02*
X009756Y009717D01*
X009756Y009718D02*
X010076Y009718D01*
X010076Y009719D02*
X009756Y009719D01*
X009756Y009720D02*
X010076Y009720D01*
X010076Y009721D02*
X009756Y009721D01*
X009756Y009722D02*
X010076Y009722D01*
X010076Y009723D02*
X009756Y009723D01*
X009756Y009724D02*
X010076Y009724D01*
X010076Y009725D02*
X009756Y009725D01*
X009756Y009726D02*
X010076Y009726D01*
X010076Y009727D02*
X009756Y009727D01*
X009756Y009728D02*
X010076Y009728D01*
X010076Y009729D02*
X009756Y009729D01*
X009756Y009730D02*
X010076Y009730D01*
X010076Y009731D02*
X009756Y009731D01*
X009756Y009732D02*
X010076Y009732D01*
X010076Y009733D02*
X009756Y009733D01*
X009756Y009734D02*
X010076Y009734D01*
X010076Y009735D02*
X009756Y009735D01*
X009756Y009736D02*
X010076Y009736D01*
X010076Y009737D02*
X009756Y009737D01*
X009756Y009738D02*
X010076Y009738D01*
X010076Y009739D02*
X009756Y009739D01*
X009756Y009740D02*
X010076Y009740D01*
X010076Y009741D02*
X009756Y009741D01*
X009756Y009742D02*
X010076Y009742D01*
X010076Y009743D02*
X009756Y009743D01*
X009756Y009744D02*
X010076Y009744D01*
X010076Y009745D02*
X009756Y009745D01*
X009756Y009746D02*
X010076Y009746D01*
X010076Y009747D02*
X009756Y009747D01*
X009756Y009748D02*
X010076Y009748D01*
X010076Y009749D02*
X009756Y009749D01*
X009756Y009750D02*
X010076Y009750D01*
X010076Y009751D02*
X009756Y009751D01*
X009756Y009752D02*
X010076Y009752D01*
X010076Y009753D02*
X009756Y009753D01*
X009756Y009754D02*
X010076Y009754D01*
X010076Y009755D02*
X009756Y009755D01*
X009756Y009756D02*
X010076Y009756D01*
X010076Y009757D02*
X009756Y009757D01*
X009756Y009758D02*
X010076Y009758D01*
X010076Y009759D02*
X009756Y009759D01*
X009756Y009760D02*
X010076Y009760D01*
X010076Y009761D02*
X009756Y009761D01*
X009756Y009762D02*
X010076Y009762D01*
X010076Y009763D02*
X009756Y009763D01*
X009756Y009764D02*
X010076Y009764D01*
X010076Y009765D02*
X009756Y009765D01*
X009756Y009766D02*
X010076Y009766D01*
X010076Y009767D02*
X009756Y009767D01*
X009756Y009768D02*
X010076Y009768D01*
X010076Y009769D02*
X009756Y009769D01*
X009756Y009770D02*
X010076Y009770D01*
X010076Y009771D02*
X009756Y009771D01*
X009756Y009772D02*
X010076Y009772D01*
X010076Y009773D02*
X009756Y009773D01*
X009756Y009774D02*
X010076Y009774D01*
X010076Y009775D02*
X009756Y009775D01*
X009756Y009776D02*
X010076Y009776D01*
X010076Y009777D02*
X009756Y009777D01*
X009756Y009778D02*
X010076Y009778D01*
X010076Y009779D02*
X009756Y009779D01*
X009756Y009780D02*
X010076Y009780D01*
X010076Y009781D02*
X009756Y009781D01*
X009756Y009782D02*
X010076Y009782D01*
X010076Y009783D02*
X009756Y009783D01*
X009756Y009784D02*
X010076Y009784D01*
X010076Y009785D02*
X009756Y009785D01*
X009756Y009786D02*
X010076Y009786D01*
X010076Y009787D02*
X009756Y009787D01*
X009756Y009788D02*
X010076Y009788D01*
X010076Y009789D02*
X009756Y009789D01*
X009756Y009790D02*
X010076Y009790D01*
X010076Y009791D02*
X009756Y009791D01*
X009756Y009792D02*
X010076Y009792D01*
X010076Y009793D02*
X009756Y009793D01*
X009756Y009794D02*
X010076Y009794D01*
X010076Y009795D02*
X009756Y009795D01*
X009756Y009796D02*
X010076Y009796D01*
X010076Y009797D02*
X009756Y009797D01*
X009756Y009798D02*
X010076Y009798D01*
X010076Y009799D02*
X009756Y009799D01*
X009756Y009800D02*
X010076Y009800D01*
X010076Y009801D02*
X009756Y009801D01*
X009756Y009802D02*
X010076Y009802D01*
X010076Y009803D02*
X009756Y009803D01*
X009756Y009804D02*
X010076Y009804D01*
X010076Y009805D02*
X009756Y009805D01*
X009756Y009806D02*
X010076Y009806D01*
X010076Y009807D02*
X009756Y009807D01*
X009756Y009808D02*
X010076Y009808D01*
X010076Y009809D02*
X009756Y009809D01*
X009756Y009810D02*
X010076Y009810D01*
X010076Y009811D02*
X009756Y009811D01*
X009756Y009812D02*
X010076Y009812D01*
X010076Y009813D02*
X009756Y009813D01*
X009756Y009814D02*
X010076Y009814D01*
X010076Y009815D02*
X009756Y009815D01*
X009756Y009816D02*
X010076Y009816D01*
X010076Y009817D02*
X009756Y009817D01*
X009756Y009818D02*
X010076Y009818D01*
X010076Y009819D02*
X009756Y009819D01*
X009756Y009820D02*
X010076Y009820D01*
X010076Y009821D02*
X009756Y009821D01*
X009756Y009822D02*
X010076Y009822D01*
X010076Y009823D02*
X009756Y009823D01*
X009756Y009824D02*
X010076Y009824D01*
X010076Y009825D02*
X009756Y009825D01*
X009756Y009826D02*
X010076Y009826D01*
X010076Y009827D02*
X009756Y009827D01*
X009756Y009828D02*
X010076Y009828D01*
X010076Y009829D02*
X009756Y009829D01*
X009756Y009830D02*
X010076Y009830D01*
X010076Y009831D02*
X009756Y009831D01*
X009756Y009832D02*
X010076Y009832D01*
X010076Y009833D02*
X009756Y009833D01*
X009756Y009834D02*
X010076Y009834D01*
X010076Y009835D02*
X009756Y009835D01*
X009756Y009836D02*
X010076Y009836D01*
X010076Y009837D02*
X009756Y009837D01*
X009756Y009838D02*
X010076Y009838D01*
X010076Y009839D02*
X009756Y009839D01*
X009756Y009840D02*
X010076Y009840D01*
X010076Y009841D02*
X009756Y009841D01*
X009756Y009842D02*
X010076Y009842D01*
X010076Y009843D02*
X009756Y009843D01*
X009756Y009844D02*
X010076Y009844D01*
X010076Y009845D02*
X009756Y009845D01*
X009756Y009846D02*
X010076Y009846D01*
X010076Y009847D02*
X009756Y009847D01*
X009756Y009848D02*
X010076Y009848D01*
X010076Y009849D02*
X009756Y009849D01*
X009756Y009850D02*
X010076Y009850D01*
X010076Y009851D02*
X009756Y009851D01*
X009756Y009852D02*
X010076Y009852D01*
X010076Y009853D02*
X009756Y009853D01*
X009756Y009854D02*
X010076Y009854D01*
X010076Y009855D02*
X009756Y009855D01*
X009756Y009856D02*
X010076Y009856D01*
X010076Y009857D02*
X009756Y009857D01*
X009756Y009858D02*
X010076Y009858D01*
X010076Y009859D02*
X009756Y009859D01*
X009756Y009860D02*
X010076Y009860D01*
X010076Y009861D02*
X009756Y009861D01*
X009756Y009862D02*
X010076Y009862D01*
X010076Y009863D02*
X009756Y009863D01*
X009756Y009864D02*
X010076Y009864D01*
X010076Y009865D02*
X009756Y009865D01*
X009756Y009866D02*
X010076Y009866D01*
X010076Y009867D02*
X009756Y009867D01*
X009756Y009868D02*
X010076Y009868D01*
X010076Y009869D02*
X009756Y009869D01*
X009756Y009870D02*
X010076Y009870D01*
X010076Y009871D02*
X009756Y009871D01*
X009756Y009872D02*
X010076Y009872D01*
X010076Y009873D02*
X009756Y009873D01*
X009756Y009874D02*
X010076Y009874D01*
X010076Y009875D02*
X009756Y009875D01*
X009756Y009876D02*
X010076Y009876D01*
X010076Y009877D02*
X009756Y009877D01*
X009756Y009878D02*
X010076Y009878D01*
X010076Y009879D02*
X009756Y009879D01*
X009756Y009880D02*
X010076Y009880D01*
X010076Y009881D02*
X009756Y009881D01*
X009756Y009882D02*
X010076Y009882D01*
X010076Y009883D02*
X009756Y009883D01*
X009756Y009884D02*
X010076Y009884D01*
X010076Y009885D02*
X009756Y009885D01*
X009756Y009886D02*
X010076Y009886D01*
X010076Y009887D02*
X009756Y009887D01*
X009756Y009888D02*
X010076Y009888D01*
X010076Y009889D02*
X009756Y009889D01*
X009756Y009890D02*
X010076Y009890D01*
X010076Y009891D02*
X009756Y009891D01*
X009756Y009892D02*
X010076Y009892D01*
X010076Y009893D02*
X009756Y009893D01*
X009756Y009894D02*
X010076Y009894D01*
X010076Y009895D02*
X009756Y009895D01*
X009756Y009896D02*
X010076Y009896D01*
X010076Y009897D02*
X009756Y009897D01*
X009756Y009898D02*
X010076Y009898D01*
X010076Y009899D02*
X009756Y009899D01*
X009756Y009900D02*
X010076Y009900D01*
X010076Y009901D02*
X009756Y009901D01*
X009756Y009902D02*
X010076Y009902D01*
X010076Y009903D02*
X009756Y009903D01*
X009756Y009904D02*
X010076Y009904D01*
X010076Y009905D02*
X009756Y009905D01*
X009756Y009906D02*
X010076Y009906D01*
X010076Y009907D02*
X009756Y009907D01*
X009756Y009908D02*
X010076Y009908D01*
X010076Y009909D02*
X009756Y009909D01*
X009756Y009910D02*
X010076Y009910D01*
X010076Y009911D02*
X009756Y009911D01*
X009756Y009912D02*
X010076Y009912D01*
X010076Y009913D02*
X009756Y009913D01*
X009756Y009914D02*
X010076Y009914D01*
X010076Y009915D02*
X009756Y009915D01*
X009756Y009916D02*
X010076Y009916D01*
X010076Y009917D02*
X009756Y009917D01*
X009756Y009918D02*
X010076Y009918D01*
X010076Y009919D02*
X009756Y009919D01*
X009756Y009920D02*
X010076Y009920D01*
X010076Y009921D02*
X009756Y009921D01*
X009756Y009922D02*
X010076Y009922D01*
X010076Y009923D02*
X009756Y009923D01*
X009756Y009924D02*
X010076Y009924D01*
X010076Y009925D02*
X009756Y009925D01*
X009756Y009926D02*
X010076Y009926D01*
X010076Y009927D02*
X009756Y009927D01*
X009756Y009928D02*
X010076Y009928D01*
X010076Y009929D02*
X009756Y009929D01*
X009756Y009930D02*
X010076Y009930D01*
X010076Y009931D02*
X009756Y009931D01*
X009756Y009932D02*
X010076Y009932D01*
X010076Y009933D02*
X009756Y009933D01*
X009756Y009934D02*
X010076Y009934D01*
X009756Y009934D01*
X009756Y009935D02*
X010076Y009935D01*
X010076Y009936D02*
X009756Y009936D01*
X009756Y009937D02*
X010076Y009937D01*
X010076Y009938D02*
X009756Y009938D01*
X009756Y009939D02*
X010076Y009939D01*
X010076Y009940D02*
X009756Y009940D01*
X009756Y009941D02*
X010076Y009941D01*
X010076Y009942D02*
X009756Y009942D01*
X009756Y009943D02*
X010076Y009943D01*
X010076Y009944D02*
X009756Y009944D01*
X009756Y009945D02*
X010076Y009945D01*
X010076Y009946D02*
X009756Y009946D01*
X009756Y009947D02*
X010076Y009947D01*
X010076Y009948D02*
X009756Y009948D01*
X009756Y009949D02*
X010076Y009949D01*
X010076Y009950D02*
X009756Y009950D01*
X009756Y009951D02*
X010076Y009951D01*
X010076Y009952D02*
X009756Y009952D01*
X009756Y009953D02*
X010076Y009953D01*
X010076Y009954D02*
X009756Y009954D01*
X009756Y009955D02*
X010076Y009955D01*
X010076Y009956D02*
X009756Y009956D01*
X009756Y009957D02*
X010076Y009957D01*
X010076Y009958D02*
X009756Y009958D01*
X009756Y009959D02*
X010076Y009959D01*
X010076Y009960D02*
X009756Y009960D01*
X009756Y009961D02*
X010076Y009961D01*
X010076Y009962D02*
X009756Y009962D01*
X009756Y009963D02*
X010076Y009963D01*
X010076Y009964D02*
X009756Y009964D01*
X009756Y009965D02*
X010076Y009965D01*
X010076Y009966D02*
X009756Y009966D01*
X009756Y009967D02*
X010076Y009967D01*
X010076Y009968D02*
X009756Y009968D01*
X009756Y009969D02*
X010076Y009969D01*
X010076Y009970D02*
X009756Y009970D01*
X009756Y009971D02*
X010076Y009971D01*
X010076Y009972D02*
X009756Y009972D01*
X009756Y009973D02*
X010076Y009973D01*
X010076Y009974D02*
X009756Y009974D01*
X009756Y009975D02*
X010076Y009975D01*
X010076Y009976D02*
X009756Y009976D01*
X009756Y009977D02*
X010076Y009977D01*
X010076Y009978D02*
X009756Y009978D01*
X009756Y009979D02*
X010076Y009979D01*
X010076Y009980D02*
X009756Y009980D01*
X009756Y009981D02*
X010076Y009981D01*
X010076Y009982D02*
X009756Y009982D01*
X009756Y009983D02*
X010076Y009983D01*
X010076Y009984D02*
X009756Y009984D01*
X009756Y009985D02*
X010076Y009985D01*
X010076Y009986D02*
X009756Y009986D01*
X009756Y009987D02*
X010076Y009987D01*
X010076Y009988D02*
X009756Y009988D01*
X009756Y009989D02*
X010076Y009989D01*
X010076Y009990D02*
X009756Y009990D01*
X009756Y009991D02*
X010076Y009991D01*
X010076Y009992D02*
X009756Y009992D01*
X009756Y009993D02*
X010076Y009993D01*
X010076Y009994D02*
X009756Y009994D01*
X009756Y009995D02*
X010076Y009995D01*
X010076Y009996D02*
X009756Y009996D01*
X009756Y009997D02*
X010076Y009997D01*
X010076Y009998D02*
X009756Y009998D01*
X009756Y009999D02*
X010076Y009999D01*
X010076Y010000D02*
X009756Y010000D01*
X009756Y010001D02*
X010076Y010001D01*
X010076Y010002D02*
X009756Y010002D01*
X009756Y010003D02*
X010076Y010003D01*
X010076Y010004D02*
X009756Y010004D01*
X009756Y010005D02*
X010076Y010005D01*
X010076Y010006D02*
X009756Y010006D01*
X009756Y010007D02*
X010076Y010007D01*
X010076Y010008D02*
X009756Y010008D01*
X009756Y010009D02*
X010076Y010009D01*
X010076Y010010D02*
X009756Y010010D01*
X009756Y010011D02*
X010076Y010011D01*
X010076Y010012D02*
X009756Y010012D01*
X009756Y010013D02*
X010076Y010013D01*
X010076Y010014D02*
X009756Y010014D01*
X009756Y010015D02*
X010076Y010015D01*
X010076Y010016D02*
X009756Y010016D01*
X009756Y010017D02*
X010076Y010017D01*
X010076Y010018D02*
X009756Y010018D01*
X009756Y010019D02*
X010076Y010019D01*
X010076Y010020D02*
X009756Y010020D01*
X009756Y010021D02*
X010076Y010021D01*
X010076Y010022D02*
X009756Y010022D01*
X009756Y010023D02*
X010076Y010023D01*
X010076Y010024D02*
X009756Y010024D01*
X009756Y010025D02*
X010076Y010025D01*
X010076Y010026D02*
X009756Y010026D01*
X009756Y010027D02*
X010076Y010027D01*
X010076Y010028D02*
X009756Y010028D01*
X009756Y010029D02*
X010076Y010029D01*
X010076Y010030D02*
X009756Y010030D01*
X009756Y010031D02*
X010076Y010031D01*
X010076Y010032D02*
X009756Y010032D01*
X009756Y010033D02*
X010076Y010033D01*
X010076Y010034D02*
X009756Y010034D01*
X009756Y010035D02*
X010076Y010035D01*
X010076Y010036D02*
X009756Y010036D01*
X009756Y010037D02*
X010076Y010037D01*
X010076Y010038D02*
X009756Y010038D01*
X009756Y010039D02*
X010076Y010039D01*
X010076Y010040D02*
X009756Y010040D01*
X009756Y010041D02*
X010076Y010041D01*
X010076Y010042D02*
X009756Y010042D01*
X009756Y010043D02*
X010076Y010043D01*
X010076Y010044D02*
X009756Y010044D01*
X009756Y010045D02*
X010076Y010045D01*
X010076Y010046D02*
X009756Y010046D01*
X009756Y010047D02*
X010076Y010047D01*
X010076Y010048D02*
X009756Y010048D01*
X009756Y010049D02*
X010076Y010049D01*
X010076Y010050D02*
X009756Y010050D01*
X009756Y010051D02*
X010076Y010051D01*
X010076Y010052D02*
X009756Y010052D01*
X009756Y010053D02*
X010076Y010053D01*
X010076Y010054D02*
X009756Y010054D01*
X009756Y010055D02*
X010076Y010055D01*
X010076Y010056D02*
X009756Y010056D01*
X009756Y010057D02*
X010076Y010057D01*
X010076Y010058D02*
X009756Y010058D01*
X009756Y010059D02*
X010076Y010059D01*
X010076Y010060D02*
X009756Y010060D01*
X009756Y010061D02*
X010076Y010061D01*
X010076Y010062D02*
X009756Y010062D01*
X009756Y010063D02*
X010076Y010063D01*
X010076Y010064D02*
X009756Y010064D01*
X009756Y010065D02*
X010076Y010065D01*
X010076Y010066D02*
X009756Y010066D01*
X009756Y010067D02*
X010076Y010067D01*
X010076Y010068D02*
X009756Y010068D01*
X009756Y010069D02*
X010076Y010069D01*
X010076Y010070D02*
X009756Y010070D01*
X009756Y010071D02*
X010076Y010071D01*
X010076Y010072D02*
X009756Y010072D01*
X009756Y010073D02*
X010076Y010073D01*
X010076Y010074D02*
X009756Y010074D01*
X009756Y010075D02*
X010076Y010075D01*
X010076Y010076D02*
X009756Y010076D01*
X009756Y010077D02*
X010076Y010077D01*
X010076Y010078D02*
X009756Y010078D01*
X009756Y010079D02*
X010076Y010079D01*
X010076Y010080D02*
X009756Y010080D01*
X009756Y010081D02*
X010076Y010081D01*
X010076Y010082D02*
X009756Y010082D01*
X009756Y010083D02*
X010076Y010083D01*
X010076Y010084D02*
X009756Y010084D01*
X009756Y010085D02*
X010076Y010085D01*
X010076Y010086D02*
X009756Y010086D01*
X009756Y010087D02*
X010076Y010087D01*
X010076Y010088D02*
X009756Y010088D01*
X009756Y010089D02*
X010076Y010089D01*
X010076Y010090D02*
X009756Y010090D01*
X009756Y010091D02*
X010076Y010091D01*
X010076Y010092D02*
X009756Y010092D01*
X009756Y010093D02*
X010076Y010093D01*
X010076Y010094D02*
X009756Y010094D01*
X009756Y010095D02*
X010076Y010095D01*
X010076Y010096D02*
X009756Y010096D01*
X009756Y010097D02*
X010076Y010097D01*
X010076Y010098D02*
X009756Y010098D01*
X009756Y010099D02*
X010076Y010099D01*
X010076Y010100D02*
X009756Y010100D01*
X009756Y010101D02*
X010076Y010101D01*
X010076Y010102D02*
X009756Y010102D01*
X009756Y010103D02*
X010076Y010103D01*
X010076Y010104D02*
X009756Y010104D01*
X009756Y010105D02*
X010076Y010105D01*
X010076Y010106D02*
X009756Y010106D01*
X009756Y010107D02*
X010076Y010107D01*
X010076Y010108D02*
X009756Y010108D01*
X009756Y010109D02*
X010076Y010109D01*
X010076Y010110D02*
X009756Y010110D01*
X009756Y010111D02*
X010076Y010111D01*
X010076Y010112D02*
X009756Y010112D01*
X009756Y010113D02*
X010076Y010113D01*
X010076Y010114D02*
X009756Y010114D01*
X009756Y010115D02*
X010076Y010115D01*
X010076Y010116D02*
X009756Y010116D01*
X009756Y010117D02*
X010076Y010117D01*
X010076Y010118D02*
X009756Y010118D01*
X009756Y010119D02*
X010076Y010119D01*
X010076Y010120D02*
X009756Y010120D01*
X009756Y010121D02*
X010076Y010121D01*
X010076Y010122D02*
X009756Y010122D01*
X009756Y010123D02*
X010076Y010123D01*
X010076Y010124D02*
X009756Y010124D01*
X009756Y010125D02*
X010076Y010125D01*
X010076Y010126D02*
X009756Y010126D01*
X009756Y010127D02*
X010076Y010127D01*
X010076Y010128D02*
X009756Y010128D01*
X009756Y010129D02*
X010076Y010129D01*
X010076Y010130D02*
X009756Y010130D01*
X009756Y010131D02*
X010076Y010131D01*
X010076Y010132D02*
X009756Y010132D01*
X009756Y010133D02*
X010076Y010133D01*
X010076Y010134D02*
X009756Y010134D01*
X009756Y010135D02*
X010076Y010135D01*
X010076Y010136D02*
X009756Y010136D01*
X009756Y010137D02*
X010076Y010137D01*
X010076Y010138D02*
X009756Y010138D01*
X009756Y010139D02*
X010076Y010139D01*
X010076Y010140D02*
X009756Y010140D01*
X009756Y010141D02*
X010076Y010141D01*
X010076Y010142D02*
X009756Y010142D01*
X009756Y010143D02*
X010076Y010143D01*
X010076Y010144D02*
X009756Y010144D01*
X009756Y010145D02*
X010076Y010145D01*
X010076Y010146D02*
X009756Y010146D01*
X009756Y010147D02*
X010076Y010147D01*
X010076Y010148D02*
X009756Y010148D01*
X009756Y010149D02*
X010076Y010149D01*
X010076Y010150D02*
X009756Y010150D01*
X009756Y010151D02*
X010076Y010151D01*
X010076Y010152D02*
X009756Y010152D01*
X009756Y010153D02*
X010076Y010153D01*
X010076Y010154D02*
X009756Y010154D01*
X009756Y010155D02*
X010076Y010155D01*
X010076Y010156D02*
X009756Y010156D01*
X009756Y010157D02*
X010076Y010157D01*
X010076Y010158D02*
X009756Y010158D01*
X009756Y010159D02*
X010076Y010159D01*
X010076Y010160D02*
X009756Y010160D01*
X009756Y010161D02*
X010076Y010161D01*
X010076Y010162D02*
X009756Y010162D01*
X009756Y010163D02*
X010076Y010163D01*
X010076Y010164D02*
X009756Y010164D01*
X009756Y010165D02*
X010076Y010165D01*
X010076Y010166D02*
X009756Y010166D01*
X009756Y010167D02*
X010076Y010167D01*
X010076Y010168D02*
X009756Y010168D01*
X009756Y010169D02*
X010076Y010169D01*
X010076Y010170D02*
X009756Y010170D01*
X009756Y010171D02*
X010076Y010171D01*
X010076Y010172D02*
X009756Y010172D01*
X009756Y010173D02*
X010076Y010173D01*
X010076Y010174D02*
X009756Y010174D01*
X009756Y010175D02*
X010076Y010175D01*
X010076Y010176D02*
X009756Y010176D01*
X009756Y010177D02*
X010076Y010177D01*
X010076Y010178D02*
X009756Y010178D01*
X009756Y010179D02*
X010076Y010179D01*
X010076Y010180D02*
X009756Y010180D01*
X009756Y010181D02*
X010076Y010181D01*
X010076Y010182D02*
X009756Y010182D01*
X009756Y010183D02*
X010076Y010183D01*
X010076Y010184D02*
X009756Y010184D01*
X009756Y010185D02*
X010076Y010185D01*
X010076Y010186D02*
X009756Y010186D01*
X009756Y010187D02*
X010076Y010187D01*
X010076Y010188D02*
X009756Y010188D01*
X009756Y010189D02*
X010076Y010189D01*
X010076Y010190D02*
X009756Y010190D01*
X009756Y010191D02*
X010076Y010191D01*
X010076Y010192D02*
X009756Y010192D01*
X009756Y010193D02*
X010076Y010193D01*
X010076Y010194D02*
X009756Y010194D01*
X009756Y010195D02*
X010076Y010195D01*
X010076Y010196D02*
X009756Y010196D01*
X009756Y010197D02*
X010076Y010197D01*
X010076Y010198D02*
X009756Y010198D01*
X009756Y010199D02*
X010076Y010199D01*
X010076Y010200D02*
X009756Y010200D01*
X009756Y010201D02*
X010076Y010201D01*
X010076Y010202D02*
X009756Y010202D01*
X009756Y010203D02*
X010076Y010203D01*
X010076Y010204D02*
X009756Y010204D01*
X009756Y010205D02*
X010076Y010205D01*
X010076Y010206D02*
X009756Y010206D01*
X009756Y010207D02*
X010076Y010207D01*
X010076Y010208D02*
X009756Y010208D01*
X009756Y010209D02*
X010076Y010209D01*
X010076Y010210D02*
X009756Y010210D01*
X009756Y010211D02*
X010076Y010211D01*
X010076Y010212D02*
X009756Y010212D01*
X009756Y010213D02*
X010076Y010213D01*
X010076Y010214D02*
X009756Y010214D01*
X009756Y010215D02*
X010076Y010215D01*
X010076Y010216D02*
X009756Y010216D01*
X009756Y010217D02*
X010076Y010217D01*
X010076Y010218D02*
X009756Y010218D01*
X009756Y010219D02*
X010076Y010219D01*
X010076Y010220D02*
X009756Y010220D01*
X009756Y010221D02*
X010076Y010221D01*
X010076Y010222D02*
X009756Y010222D01*
X009756Y010223D02*
X010076Y010223D01*
X010076Y010224D02*
X009756Y010224D01*
X009756Y010225D02*
X010076Y010225D01*
X010076Y010226D02*
X009756Y010226D01*
X009756Y010227D02*
X010076Y010227D01*
X010076Y010228D02*
X009756Y010228D01*
X009756Y010229D02*
X010076Y010229D01*
X010076Y010230D02*
X009756Y010230D01*
X009756Y010231D02*
X010076Y010231D01*
X010076Y010232D02*
X009756Y010232D01*
X009756Y010233D02*
X010076Y010233D01*
X010076Y010234D02*
X009756Y010234D01*
X009756Y010235D02*
X010076Y010235D01*
X010076Y010236D02*
X009756Y010236D01*
X009756Y010237D02*
X010076Y010237D01*
X010076Y010238D02*
X009756Y010238D01*
X009756Y010239D02*
X010076Y010239D01*
X010076Y010240D02*
X009756Y010240D01*
X009756Y010241D02*
X010076Y010241D01*
X010076Y010242D02*
X009756Y010242D01*
X009756Y010243D02*
X010076Y010243D01*
X010076Y010244D02*
X009756Y010244D01*
X009756Y010245D02*
X010076Y010245D01*
X010076Y010246D02*
X009756Y010246D01*
X009756Y010247D02*
X010076Y010247D01*
X010076Y010248D02*
X009756Y010248D01*
X009756Y010249D02*
X010076Y010249D01*
X010076Y010250D02*
X009756Y010250D01*
X009756Y010251D02*
X010076Y010251D01*
X010076Y010252D02*
X009756Y010252D01*
X009756Y010253D02*
X010076Y010253D01*
X010076Y010254D02*
X009756Y010254D01*
X009756Y010255D02*
X010076Y010255D01*
X010076Y010256D02*
X009756Y010256D01*
X009756Y010257D02*
X010076Y010257D01*
X010076Y010258D02*
X009756Y010258D01*
X009756Y010259D02*
X010076Y010259D01*
X010076Y010260D02*
X009756Y010260D01*
X009756Y010261D02*
X010076Y010261D01*
X010076Y010262D02*
X009756Y010262D01*
X009756Y010263D02*
X010076Y010263D01*
X010076Y010264D02*
X009756Y010264D01*
X009756Y010265D02*
X010076Y010265D01*
X010076Y010266D02*
X009756Y010266D01*
X009756Y010267D02*
X010076Y010267D01*
X010076Y010268D02*
X009756Y010268D01*
X009756Y010269D02*
X010076Y010269D01*
X010076Y010270D02*
X009756Y010270D01*
X009756Y010271D02*
X010076Y010271D01*
X010076Y010272D02*
X009756Y010272D01*
X009756Y010273D02*
X010076Y010273D01*
X010076Y010274D02*
X009756Y010274D01*
X009756Y010275D02*
X010076Y010275D01*
X010076Y010276D02*
X009756Y010276D01*
X009756Y010277D02*
X010076Y010277D01*
X010076Y010278D02*
X009756Y010278D01*
X009756Y010279D02*
X010076Y010279D01*
X010076Y010280D02*
X009756Y010280D01*
X009756Y010281D02*
X010076Y010281D01*
X010076Y010282D02*
X009756Y010282D01*
X009756Y010283D02*
X010076Y010283D01*
X010076Y010284D02*
X009756Y010284D01*
X009756Y010285D02*
X010076Y010285D01*
X010076Y010286D02*
X009756Y010286D01*
X009756Y010287D02*
X010076Y010287D01*
X010076Y010288D02*
X009756Y010288D01*
X009756Y010289D02*
X010076Y010289D01*
X010076Y010290D02*
X009756Y010290D01*
X009756Y010291D02*
X010076Y010291D01*
X010076Y010292D02*
X009756Y010292D01*
X009756Y010293D02*
X010076Y010293D01*
X010076Y010294D02*
X009756Y010294D01*
X009756Y010295D02*
X010076Y010295D01*
X010076Y010296D02*
X009756Y010296D01*
X009756Y010297D02*
X010076Y010297D01*
X010076Y010298D02*
X009756Y010298D01*
X009756Y010299D02*
X010076Y010299D01*
X010076Y010300D02*
X009756Y010300D01*
X009756Y010301D02*
X010076Y010301D01*
X010076Y010302D02*
X009756Y010302D01*
X009756Y010303D02*
X010076Y010303D01*
X010076Y010304D02*
X009756Y010304D01*
X009757Y010305D02*
X010076Y010305D01*
X010076Y010306D02*
X009757Y010306D01*
X009757Y010307D02*
X010075Y010307D01*
X010075Y010308D02*
X009757Y010308D01*
X009757Y010309D02*
X010075Y010309D01*
X010075Y010310D02*
X009757Y010310D01*
X009757Y010311D02*
X010075Y010311D01*
X010075Y010312D02*
X009757Y010312D01*
X009757Y010313D02*
X010075Y010313D01*
X010075Y010314D02*
X009758Y010314D01*
X009758Y010315D02*
X010075Y010315D01*
X010074Y010316D02*
X009758Y010316D01*
X009758Y010317D02*
X010074Y010317D01*
X010074Y010318D02*
X009758Y010318D01*
X009758Y010319D02*
X010074Y010319D01*
X010074Y010320D02*
X009758Y010320D01*
X009758Y010321D02*
X010074Y010321D01*
X010074Y010322D02*
X009758Y010322D01*
X009759Y010323D02*
X010074Y010323D01*
X010074Y010324D02*
X009759Y010324D01*
X009759Y010325D02*
X010073Y010325D01*
X010073Y010326D02*
X009759Y010326D01*
X009759Y010327D02*
X010073Y010327D01*
X010073Y010328D02*
X009759Y010328D01*
X009759Y010329D02*
X010073Y010329D01*
X010073Y010330D02*
X009759Y010330D01*
X009760Y010331D02*
X010073Y010331D01*
X010073Y010332D02*
X009760Y010332D01*
X009760Y010333D02*
X010073Y010333D01*
X010072Y010334D02*
X009760Y010334D01*
X009760Y010335D02*
X010072Y010335D01*
X010072Y010336D02*
X009760Y010336D01*
X009760Y010337D02*
X010072Y010337D01*
X010072Y010338D02*
X009761Y010338D01*
X009761Y010339D02*
X010071Y010339D01*
X010071Y010340D02*
X009761Y010340D01*
X009762Y010341D02*
X010071Y010341D01*
X010070Y010342D02*
X009762Y010342D01*
X009762Y010343D02*
X010070Y010343D01*
X010070Y010344D02*
X009763Y010344D01*
X009763Y010345D02*
X010069Y010345D01*
X010069Y010346D02*
X009763Y010346D01*
X009764Y010347D02*
X010069Y010347D01*
X010068Y010348D02*
X009764Y010348D01*
X009764Y010349D02*
X010068Y010349D01*
X010068Y010350D02*
X009765Y010350D01*
X009765Y010351D02*
X010067Y010351D01*
X010067Y010352D02*
X009765Y010352D01*
X009766Y010353D02*
X010066Y010353D01*
X010066Y010354D02*
X009766Y010354D01*
X009767Y010355D02*
X010066Y010355D01*
X010065Y010356D02*
X009767Y010356D01*
X009767Y010357D02*
X010065Y010357D01*
X010065Y010358D02*
X009768Y010358D01*
X009768Y010359D02*
X010064Y010359D01*
X010064Y010360D02*
X009768Y010360D01*
X009769Y010361D02*
X010064Y010361D01*
X010063Y010362D02*
X009769Y010362D01*
X009769Y010363D02*
X010063Y010363D01*
X010063Y010364D02*
X009770Y010364D01*
X009770Y010365D02*
X010062Y010365D01*
X010062Y010366D02*
X009770Y010366D01*
X009771Y010367D02*
X010062Y010367D01*
X010061Y010368D02*
X009771Y010368D01*
X009771Y010369D02*
X010061Y010369D01*
X010061Y010370D02*
X009772Y010370D01*
X009772Y010371D02*
X010060Y010371D01*
X010059Y010372D02*
X009773Y010372D01*
X009773Y010373D02*
X010059Y010373D01*
X010058Y010374D02*
X009774Y010374D01*
X009775Y010375D02*
X010058Y010375D01*
X010057Y010376D02*
X009775Y010376D01*
X009776Y010377D02*
X010056Y010377D01*
X010056Y010378D02*
X009777Y010378D01*
X009777Y010379D02*
X010055Y010379D01*
X010054Y010380D02*
X009778Y010380D01*
X009778Y010381D02*
X010054Y010381D01*
X010053Y010382D02*
X009779Y010382D01*
X009780Y010383D02*
X010053Y010383D01*
X010052Y010384D02*
X009780Y010384D01*
X009781Y010385D02*
X010051Y010385D01*
X010051Y010386D02*
X009782Y010386D01*
X009782Y010387D02*
X010050Y010387D01*
X010049Y010388D02*
X009783Y010388D01*
X009784Y010389D02*
X010049Y010389D01*
X010048Y010390D02*
X009784Y010390D01*
X009785Y010391D02*
X010048Y010391D01*
X010047Y010392D02*
X009785Y010392D01*
X009786Y010393D02*
X010046Y010393D01*
X010046Y010394D02*
X009787Y010394D01*
X009787Y010395D02*
X010045Y010395D01*
X010044Y010396D02*
X009788Y010396D01*
X009789Y010397D02*
X010044Y010397D01*
X010043Y010398D02*
X009789Y010398D01*
X009790Y010399D02*
X010042Y010399D01*
X010042Y010400D02*
X009790Y010400D01*
X009791Y010401D02*
X010041Y010401D01*
X010040Y010402D02*
X009792Y010402D01*
X009793Y010403D02*
X010039Y010403D01*
X010038Y010404D02*
X009794Y010404D01*
X009795Y010405D02*
X010037Y010405D01*
X010036Y010406D02*
X009796Y010406D01*
X009797Y010407D02*
X010035Y010407D01*
X010034Y010408D02*
X009798Y010408D01*
X009799Y010409D02*
X010033Y010409D01*
X010032Y010410D02*
X009800Y010410D01*
X009801Y010411D02*
X010031Y010411D01*
X010030Y010412D02*
X009802Y010412D01*
X009803Y010413D02*
X010029Y010413D01*
X010028Y010414D02*
X009804Y010414D01*
X009805Y010415D02*
X010027Y010415D01*
X010026Y010416D02*
X009806Y010416D01*
X009807Y010417D02*
X010025Y010417D01*
X010024Y010418D02*
X009808Y010418D01*
X009809Y010419D02*
X010023Y010419D01*
X010022Y010420D02*
X009810Y010420D01*
X009811Y010421D02*
X010021Y010421D01*
X010020Y010422D02*
X009812Y010422D01*
X009813Y010423D02*
X010019Y010423D01*
X010018Y010424D02*
X009814Y010424D01*
X009815Y010425D02*
X010017Y010425D01*
X010016Y010426D02*
X009816Y010426D01*
X009817Y010427D02*
X010015Y010427D01*
X010013Y010428D02*
X009819Y010428D01*
X009821Y010429D02*
X010012Y010429D01*
X010010Y010430D02*
X009822Y010430D01*
X009824Y010431D02*
X010009Y010431D01*
X010007Y010432D02*
X009825Y010432D01*
X009827Y010433D02*
X010005Y010433D01*
X010004Y010434D02*
X009829Y010434D01*
X009830Y010435D02*
X010002Y010435D01*
X010001Y010436D02*
X009832Y010436D01*
X009833Y010437D02*
X009999Y010437D01*
X009997Y010438D02*
X009835Y010438D01*
X009836Y010439D02*
X009996Y010439D01*
X009994Y010440D02*
X009838Y010440D01*
X009840Y010441D02*
X009993Y010441D01*
X009991Y010442D02*
X009841Y010442D01*
X009843Y010443D02*
X009989Y010443D01*
X009988Y010444D02*
X009844Y010444D01*
X009846Y010445D02*
X009986Y010445D01*
X009984Y010446D02*
X009848Y010446D01*
X009851Y010447D02*
X009981Y010447D01*
X009978Y010448D02*
X009854Y010448D01*
X009857Y010449D02*
X009975Y010449D01*
X009973Y010450D02*
X009860Y010450D01*
X009863Y010451D02*
X009970Y010451D01*
X009967Y010452D02*
X009865Y010452D01*
X009868Y010453D02*
X009964Y010453D01*
X009961Y010454D02*
X009871Y010454D01*
X009874Y010455D02*
X009958Y010455D01*
X009955Y010456D02*
X009877Y010456D01*
X009880Y010457D02*
X009953Y010457D01*
X009945Y010458D02*
X009887Y010458D01*
X009896Y010459D02*
X009937Y010459D01*
X009928Y010460D02*
X009905Y010460D01*
X009913Y010461D02*
X009919Y010461D01*
X009883Y009365D02*
X009950Y009365D01*
X009941Y009364D02*
X009892Y009364D01*
X009900Y009363D02*
X009932Y009363D01*
X009923Y009362D02*
X009909Y009362D01*
X009126Y008105D02*
X008206Y008105D01*
X008205Y008104D02*
X009127Y008104D01*
X009129Y008103D02*
X008203Y008103D01*
X008202Y008102D02*
X009131Y008102D01*
X009132Y008101D02*
X008200Y008101D01*
X008199Y008100D02*
X009134Y008100D01*
X009135Y008099D02*
X008197Y008099D01*
X008195Y008098D02*
X009137Y008098D01*
X009139Y008097D02*
X008194Y008097D01*
X008192Y008096D02*
X009140Y008096D01*
X009142Y008095D02*
X008191Y008095D01*
X008189Y008094D02*
X009143Y008094D01*
X009145Y008093D02*
X008187Y008093D01*
X008186Y008092D02*
X009146Y008092D01*
X009148Y008091D02*
X008184Y008091D01*
X008183Y008090D02*
X009150Y008090D01*
X009151Y008089D02*
X008181Y008089D01*
X008179Y008088D02*
X009153Y008088D01*
X009154Y008087D02*
X008178Y008087D01*
X008176Y008086D02*
X009156Y008086D01*
X009157Y008085D02*
X008175Y008085D01*
X008174Y008084D02*
X009158Y008084D01*
X009159Y008083D02*
X008173Y008083D01*
X008172Y008082D02*
X009160Y008082D01*
X009161Y008081D02*
X008171Y008081D01*
X008170Y008080D02*
X009162Y008080D01*
X009163Y008079D02*
X008169Y008079D01*
X008168Y008078D02*
X009164Y008078D01*
X009165Y008077D02*
X008167Y008077D01*
X008166Y008076D02*
X009166Y008076D01*
X009167Y008075D02*
X008165Y008075D01*
X008164Y008074D02*
X009168Y008074D01*
X009169Y008073D02*
X008163Y008073D01*
X008162Y008072D02*
X009170Y008072D01*
X009171Y008071D02*
X008161Y008071D01*
X008160Y008070D02*
X009172Y008070D01*
X009173Y008069D02*
X008159Y008069D01*
X008158Y008068D02*
X009174Y008068D01*
X009175Y008067D02*
X008157Y008067D01*
X008156Y008066D02*
X009176Y008066D01*
X009177Y008065D02*
X008155Y008065D01*
X008154Y008064D02*
X009178Y008064D01*
X009179Y008063D02*
X008153Y008063D01*
X008152Y008062D02*
X009180Y008062D01*
X009181Y008061D02*
X008151Y008061D01*
X008151Y008060D02*
X009182Y008060D01*
X009182Y008059D02*
X008150Y008059D01*
X008149Y008058D02*
X009183Y008058D01*
X009184Y008057D02*
X008149Y008057D01*
X008148Y008056D02*
X009184Y008056D01*
X009185Y008055D02*
X008147Y008055D01*
X008147Y008054D02*
X009185Y008054D01*
X009186Y008053D02*
X008146Y008053D01*
X008146Y008052D02*
X009187Y008052D01*
X009187Y008051D02*
X008145Y008051D01*
X008144Y008050D02*
X009188Y008050D01*
X009189Y008049D02*
X008144Y008049D01*
X008143Y008048D02*
X009189Y008048D01*
X009190Y008047D02*
X008142Y008047D01*
X008142Y008046D02*
X009190Y008046D01*
X009191Y008045D02*
X008141Y008045D01*
X008141Y008044D02*
X009192Y008044D01*
X009192Y008043D02*
X008140Y008043D01*
X008139Y008042D02*
X009193Y008042D01*
X009194Y008041D02*
X008139Y008041D01*
X008138Y008040D02*
X009194Y008040D01*
X009195Y008039D02*
X008137Y008039D01*
X008137Y008038D02*
X009195Y008038D01*
X009196Y008037D02*
X008136Y008037D01*
X008136Y008036D02*
X009197Y008036D01*
X009197Y008035D02*
X008135Y008035D01*
X008134Y008034D02*
X009198Y008034D01*
X009199Y008033D02*
X008134Y008033D01*
X008133Y008032D02*
X009199Y008032D01*
X009200Y008031D02*
X008132Y008031D01*
X008132Y008030D02*
X009200Y008030D01*
X009201Y008029D02*
X008132Y008029D01*
X008131Y008028D02*
X009201Y008028D01*
X009201Y008027D02*
X008131Y008027D01*
X008130Y008026D02*
X009202Y008026D01*
X009202Y008025D02*
X008130Y008025D01*
X008130Y008024D02*
X009203Y008024D01*
X009203Y008023D02*
X008129Y008023D01*
X008129Y008022D02*
X009203Y008022D01*
X009204Y008021D02*
X008129Y008021D01*
X008128Y008020D02*
X009204Y008020D01*
X009204Y008019D02*
X008128Y008019D01*
X008128Y008018D02*
X009205Y008018D01*
X009205Y008017D02*
X008127Y008017D01*
X008127Y008016D02*
X009205Y008016D01*
X009206Y008015D02*
X008127Y008015D01*
X008126Y008014D02*
X009206Y008014D01*
X009206Y008013D02*
X008126Y008013D01*
X008126Y008012D02*
X009207Y008012D01*
X009207Y008011D02*
X008125Y008011D01*
X008125Y008010D02*
X009207Y008010D01*
X009208Y008009D02*
X008125Y008009D01*
X008124Y008008D02*
X009208Y008008D01*
X009208Y008007D02*
X008124Y008007D01*
X008123Y008006D02*
X009209Y008006D01*
X009209Y008005D02*
X008123Y008005D01*
X008123Y008004D02*
X009210Y008004D01*
X009210Y008003D02*
X008122Y008003D01*
X008122Y008002D02*
X009210Y008002D01*
X009211Y008001D02*
X008122Y008001D01*
X008121Y008000D02*
X009211Y008000D01*
X009211Y007999D02*
X008121Y007999D01*
X008121Y007998D02*
X009212Y007998D01*
X009212Y007997D02*
X008120Y007997D01*
X008120Y007996D02*
X009212Y007996D01*
X009212Y007995D02*
X008120Y007995D01*
X008120Y007994D02*
X009212Y007994D01*
X009213Y007993D02*
X008120Y007993D01*
X008120Y007992D02*
X009213Y007992D01*
X009213Y007991D02*
X008120Y007991D01*
X008119Y007990D02*
X009213Y007990D01*
X009213Y007989D02*
X008119Y007989D01*
X008119Y007988D02*
X009213Y007988D01*
X009213Y007987D02*
X008119Y007987D01*
X008119Y007986D02*
X009213Y007986D01*
X009213Y007985D02*
X008119Y007985D01*
X008119Y007984D02*
X009214Y007984D01*
X009214Y007983D02*
X008119Y007983D01*
X008119Y007982D02*
X009214Y007982D01*
X009214Y007981D02*
X008118Y007981D01*
X008118Y007980D02*
X009214Y007980D01*
X009214Y007979D02*
X008118Y007979D01*
X008118Y007978D02*
X009214Y007978D01*
X009214Y007977D02*
X008118Y007977D01*
X008118Y007976D02*
X009214Y007976D01*
X009215Y007975D02*
X008118Y007975D01*
X008118Y007974D02*
X009215Y007974D01*
X009215Y007973D02*
X008118Y007973D01*
X008117Y007972D02*
X009215Y007972D01*
X009215Y007971D02*
X008117Y007971D01*
X008117Y007970D02*
X009215Y007970D01*
X009215Y007969D02*
X008117Y007969D01*
X008117Y007968D02*
X009215Y007968D01*
X009215Y007967D02*
X008117Y007967D01*
X008117Y007966D02*
X009216Y007966D01*
X009216Y007965D02*
X008117Y007965D01*
X008116Y007964D02*
X009216Y007964D01*
X009216Y007963D02*
X008116Y007963D01*
X008116Y007962D02*
X009216Y007962D01*
X009216Y007961D02*
X008116Y007961D01*
X008116Y007960D02*
X009216Y007960D01*
X009216Y007959D02*
X008116Y007959D01*
X008116Y007958D02*
X009216Y007958D01*
X009216Y007957D02*
X008117Y007957D01*
X008117Y007956D02*
X009216Y007956D01*
X009215Y007955D02*
X008117Y007955D01*
X008117Y007954D02*
X009215Y007954D01*
X009215Y007953D02*
X008117Y007953D01*
X008117Y007952D02*
X009215Y007952D01*
X009215Y007951D02*
X008117Y007951D01*
X008117Y007950D02*
X009215Y007950D01*
X009215Y007949D02*
X008117Y007949D01*
X008118Y007948D02*
X009215Y007948D01*
X009215Y007947D02*
X008118Y007947D01*
X008118Y007946D02*
X009214Y007946D01*
X009214Y007945D02*
X008118Y007945D01*
X008118Y007944D02*
X009214Y007944D01*
X009214Y007943D02*
X008118Y007943D01*
X008118Y007942D02*
X009214Y007942D01*
X009214Y007941D02*
X008118Y007941D01*
X008118Y007940D02*
X009214Y007940D01*
X009214Y007939D02*
X008119Y007939D01*
X008119Y007938D02*
X009214Y007938D01*
X009213Y007937D02*
X008119Y007937D01*
X008119Y007936D02*
X009213Y007936D01*
X009213Y007935D02*
X008119Y007935D01*
X008119Y007934D02*
X009213Y007934D01*
X009213Y007933D02*
X008119Y007933D01*
X008119Y007932D02*
X009213Y007932D01*
X009213Y007931D02*
X008120Y007931D01*
X008120Y007930D02*
X009213Y007930D01*
X009213Y007929D02*
X008120Y007929D01*
X008120Y007928D02*
X009212Y007928D01*
X009212Y007927D02*
X008120Y007927D01*
X008120Y007926D02*
X009212Y007926D01*
X009212Y007925D02*
X008120Y007925D01*
X008121Y007924D02*
X009212Y007924D01*
X009211Y007923D02*
X008121Y007923D01*
X008121Y007922D02*
X009211Y007922D01*
X009211Y007921D02*
X008122Y007921D01*
X008122Y007920D02*
X009210Y007920D01*
X009210Y007919D02*
X008122Y007919D01*
X008123Y007918D02*
X009210Y007918D01*
X009209Y007917D02*
X008123Y007917D01*
X008123Y007916D02*
X009209Y007916D01*
X009209Y007915D02*
X008124Y007915D01*
X008124Y007914D02*
X009208Y007914D01*
X009208Y007913D02*
X008124Y007913D01*
X008125Y007912D02*
X009208Y007912D01*
X009207Y007911D02*
X008125Y007911D01*
X008125Y007910D02*
X009207Y007910D01*
X009206Y007909D02*
X008126Y007909D01*
X008126Y007908D02*
X009206Y007908D01*
X009206Y007907D02*
X008127Y007907D01*
X008127Y007906D02*
X009205Y007906D01*
X009205Y007905D02*
X008127Y007905D01*
X008128Y007904D02*
X009205Y007904D01*
X009204Y007904D02*
X008128Y007904D01*
X008128Y007903D02*
X009204Y007903D01*
X009204Y007902D02*
X008129Y007902D01*
X008129Y007901D02*
X009203Y007901D01*
X009203Y007900D02*
X008129Y007900D01*
X008130Y007899D02*
X009203Y007899D01*
X009202Y007898D02*
X008130Y007898D01*
X008130Y007897D02*
X009202Y007897D01*
X009202Y007896D02*
X008131Y007896D01*
X008131Y007895D02*
X009201Y007895D01*
X009201Y007894D02*
X008131Y007894D01*
X008132Y007893D02*
X009201Y007893D01*
X009200Y007892D02*
X008132Y007892D01*
X008133Y007891D02*
X009199Y007891D01*
X009199Y007890D02*
X008133Y007890D01*
X008134Y007889D02*
X009198Y007889D01*
X009198Y007888D02*
X008135Y007888D01*
X008135Y007887D02*
X009197Y007887D01*
X009196Y007886D02*
X008136Y007886D01*
X008137Y007885D02*
X009196Y007885D01*
X009195Y007884D02*
X008137Y007884D01*
X008138Y007883D02*
X009194Y007883D01*
X009194Y007882D02*
X008138Y007882D01*
X008139Y007881D02*
X009193Y007881D01*
X009193Y007880D02*
X008140Y007880D01*
X008140Y007879D02*
X009192Y007879D01*
X009191Y007878D02*
X008141Y007878D01*
X008142Y007877D02*
X009191Y007877D01*
X009190Y007876D02*
X008142Y007876D01*
X008143Y007875D02*
X009189Y007875D01*
X009189Y007874D02*
X008144Y007874D01*
X008144Y007873D02*
X009188Y007873D01*
X009188Y007872D02*
X008145Y007872D01*
X008145Y007871D02*
X009187Y007871D01*
X009186Y007870D02*
X008146Y007870D01*
X008147Y007869D02*
X009186Y007869D01*
X009185Y007868D02*
X008147Y007868D01*
X008148Y007867D02*
X009184Y007867D01*
X009184Y007866D02*
X008149Y007866D01*
X008149Y007865D02*
X009183Y007865D01*
X009183Y007864D02*
X008150Y007864D01*
X008150Y007863D02*
X009182Y007863D01*
X009181Y007862D02*
X008151Y007862D01*
X008152Y007861D02*
X009180Y007861D01*
X009179Y007860D02*
X008153Y007860D01*
X008154Y007859D02*
X009178Y007859D01*
X009177Y007858D02*
X008155Y007858D01*
X008156Y007857D02*
X009176Y007857D01*
X009175Y007856D02*
X008157Y007856D01*
X008158Y007855D02*
X009174Y007855D01*
X009173Y007854D02*
X008159Y007854D01*
X008160Y007853D02*
X009172Y007853D01*
X009171Y007852D02*
X008161Y007852D01*
X008162Y007851D02*
X009170Y007851D01*
X009169Y007850D02*
X008163Y007850D01*
X008164Y007849D02*
X009168Y007849D01*
X009167Y007848D02*
X008165Y007848D01*
X008166Y007847D02*
X009166Y007847D01*
X009165Y007846D02*
X008167Y007846D01*
X008168Y007845D02*
X009164Y007845D01*
X009163Y007844D02*
X008169Y007844D01*
X008170Y007843D02*
X009162Y007843D01*
X009161Y007842D02*
X008171Y007842D01*
X008172Y007841D02*
X009160Y007841D01*
X009159Y007840D02*
X008173Y007840D01*
X008174Y007839D02*
X009158Y007839D01*
X009157Y007838D02*
X008175Y007838D01*
X008176Y007837D02*
X009156Y007837D01*
X009155Y007836D02*
X008177Y007836D01*
X008179Y007835D02*
X009153Y007835D01*
X009152Y007834D02*
X008181Y007834D01*
X008182Y007833D02*
X009150Y007833D01*
X009149Y007832D02*
X008184Y007832D01*
X008185Y007831D02*
X009147Y007831D01*
X009145Y007830D02*
X008187Y007830D01*
X008189Y007829D02*
X009144Y007829D01*
X009142Y007828D02*
X008190Y007828D01*
X008192Y007827D02*
X009141Y007827D01*
X009139Y007826D02*
X008193Y007826D01*
X008195Y007825D02*
X009137Y007825D01*
X009136Y007824D02*
X008196Y007824D01*
X008198Y007823D02*
X009134Y007823D01*
X009133Y007822D02*
X008200Y007822D01*
X008201Y007821D02*
X009131Y007821D01*
X009129Y007820D02*
X008203Y007820D01*
X008204Y007819D02*
X009128Y007819D01*
X009126Y007818D02*
X008206Y007818D01*
X008208Y007817D02*
X009124Y007817D01*
X009121Y007816D02*
X008211Y007816D01*
X008214Y007815D02*
X009118Y007815D01*
X009115Y007814D02*
X008217Y007814D01*
X008220Y007813D02*
X009113Y007813D01*
X009110Y007812D02*
X008223Y007812D01*
X008225Y007811D02*
X009107Y007811D01*
X009104Y007810D02*
X008228Y007810D01*
X008231Y007809D02*
X009101Y007809D01*
X009098Y007808D02*
X008234Y007808D01*
X008237Y007807D02*
X009095Y007807D01*
X009093Y007806D02*
X008240Y007806D01*
X008247Y007805D02*
X009086Y007805D01*
X009077Y007804D02*
X008256Y007804D01*
X008264Y007803D02*
X009068Y007803D01*
X009059Y007802D02*
X008273Y007802D01*
X008209Y008106D02*
X009123Y008106D01*
X009120Y008107D02*
X008212Y008107D01*
X008215Y008108D02*
X009117Y008108D01*
X009115Y008109D02*
X008218Y008109D01*
X008221Y008110D02*
X009112Y008110D01*
X009109Y008111D02*
X008223Y008111D01*
X008226Y008112D02*
X009106Y008112D01*
X009103Y008113D02*
X008229Y008113D01*
X008232Y008114D02*
X009100Y008114D01*
X009097Y008115D02*
X008235Y008115D01*
X008238Y008116D02*
X009095Y008116D01*
X009092Y008117D02*
X008241Y008117D01*
X008250Y008118D02*
X009083Y008118D01*
X009074Y008119D02*
X008258Y008119D01*
X008267Y008120D02*
X009065Y008120D01*
X007591Y009421D02*
X007342Y009421D01*
X007343Y009420D02*
X007590Y009420D01*
X007589Y009419D02*
X007344Y009419D01*
X007345Y009418D02*
X007588Y009418D01*
X007587Y009417D02*
X007346Y009417D01*
X007347Y009416D02*
X007586Y009416D01*
X007585Y009415D02*
X007348Y009415D01*
X007349Y009414D02*
X007584Y009414D01*
X007583Y009413D02*
X007350Y009413D01*
X007351Y009412D02*
X007582Y009412D01*
X007581Y009411D02*
X007352Y009411D01*
X007353Y009410D02*
X007580Y009410D01*
X007579Y009409D02*
X007354Y009409D01*
X007355Y009408D02*
X007578Y009408D01*
X007577Y009407D02*
X007356Y009407D01*
X007357Y009406D02*
X007576Y009406D01*
X007575Y009405D02*
X007358Y009405D01*
X007359Y009404D02*
X007574Y009404D01*
X007573Y009403D02*
X007360Y009403D01*
X007361Y009402D02*
X007572Y009402D01*
X007571Y009401D02*
X007362Y009401D01*
X007363Y009400D02*
X007570Y009400D01*
X007569Y009399D02*
X007364Y009399D01*
X007365Y009398D02*
X007568Y009398D01*
X007567Y009397D02*
X007366Y009397D01*
X007367Y009396D02*
X007566Y009396D01*
X007564Y009395D02*
X007368Y009395D01*
X007370Y009394D02*
X007562Y009394D01*
X007561Y009393D02*
X007371Y009393D01*
X007373Y009392D02*
X007559Y009392D01*
X007558Y009391D02*
X007375Y009391D01*
X007376Y009390D02*
X007556Y009390D01*
X007555Y009389D02*
X007378Y009389D01*
X007379Y009388D02*
X007553Y009388D01*
X007551Y009387D02*
X007381Y009387D01*
X007383Y009386D02*
X007550Y009386D01*
X007548Y009385D02*
X007384Y009385D01*
X007386Y009384D02*
X007547Y009384D01*
X007545Y009383D02*
X007387Y009383D01*
X007389Y009382D02*
X007543Y009382D01*
X007542Y009381D02*
X007390Y009381D01*
X007392Y009380D02*
X007540Y009380D01*
X007539Y009379D02*
X007394Y009379D01*
X007395Y009378D02*
X007537Y009378D01*
X007535Y009377D02*
X007397Y009377D01*
X007400Y009376D02*
X007532Y009376D01*
X007530Y009375D02*
X007403Y009375D01*
X007406Y009374D02*
X007527Y009374D01*
X007524Y009373D02*
X007408Y009373D01*
X007411Y009372D02*
X007521Y009372D01*
X007518Y009371D02*
X007414Y009371D01*
X007417Y009370D02*
X007515Y009370D01*
X007512Y009369D02*
X007420Y009369D01*
X007423Y009368D02*
X007510Y009368D01*
X007507Y009367D02*
X007426Y009367D01*
X007428Y009366D02*
X007504Y009366D01*
X007500Y009365D02*
X007433Y009365D01*
X007442Y009364D02*
X007491Y009364D01*
X007482Y009363D02*
X007450Y009363D01*
X007459Y009362D02*
X007473Y009362D01*
X007592Y009422D02*
X007341Y009422D01*
X007340Y009423D02*
X007592Y009423D01*
X007593Y009424D02*
X007339Y009424D01*
X007339Y009425D02*
X007593Y009425D01*
X007594Y009426D02*
X007338Y009426D01*
X007338Y009427D02*
X007595Y009427D01*
X007595Y009428D02*
X007337Y009428D01*
X007336Y009429D02*
X007596Y009429D01*
X007597Y009430D02*
X007336Y009430D01*
X007335Y009431D02*
X007597Y009431D01*
X007598Y009432D02*
X007334Y009432D01*
X007334Y009433D02*
X007598Y009433D01*
X007599Y009434D02*
X007333Y009434D01*
X007333Y009435D02*
X007600Y009435D01*
X007600Y009436D02*
X007332Y009436D01*
X007331Y009437D02*
X007601Y009437D01*
X007602Y009438D02*
X007331Y009438D01*
X007330Y009439D02*
X007602Y009439D01*
X007603Y009440D02*
X007329Y009440D01*
X007329Y009441D02*
X007603Y009441D01*
X007604Y009442D02*
X007328Y009442D01*
X007328Y009443D02*
X007605Y009443D01*
X007605Y009444D02*
X007327Y009444D01*
X007326Y009445D02*
X007606Y009445D01*
X007607Y009446D02*
X007326Y009446D01*
X007325Y009447D02*
X007607Y009447D01*
X007608Y009448D02*
X007324Y009448D01*
X007324Y009449D02*
X007608Y009449D01*
X007609Y009450D02*
X007323Y009450D01*
X007323Y009451D02*
X007610Y009451D01*
X007610Y009452D02*
X007322Y009452D01*
X007322Y009453D02*
X007611Y009453D01*
X007611Y009454D02*
X007321Y009454D01*
X007321Y009455D02*
X007611Y009455D01*
X007612Y009456D02*
X007321Y009456D01*
X007320Y009457D02*
X007612Y009457D01*
X007612Y009458D02*
X007320Y009458D01*
X007320Y009459D02*
X007613Y009459D01*
X007613Y009460D02*
X007319Y009460D01*
X007319Y009461D02*
X007613Y009461D01*
X007614Y009462D02*
X007318Y009462D01*
X007318Y009463D02*
X007614Y009463D01*
X007615Y009464D02*
X007318Y009464D01*
X007317Y009465D02*
X007615Y009465D01*
X007615Y009466D02*
X007317Y009466D01*
X007317Y009467D02*
X007616Y009467D01*
X007616Y009468D02*
X007316Y009468D01*
X007316Y009469D02*
X007616Y009469D01*
X007617Y009470D02*
X007316Y009470D01*
X007315Y009471D02*
X007617Y009471D01*
X007617Y009472D02*
X007315Y009472D01*
X007315Y009473D02*
X007618Y009473D01*
X007618Y009474D02*
X007314Y009474D01*
X007314Y009475D02*
X007618Y009475D01*
X007619Y009476D02*
X007314Y009476D01*
X007313Y009477D02*
X007619Y009477D01*
X007619Y009478D02*
X007313Y009478D01*
X007313Y009479D02*
X007620Y009479D01*
X007620Y009480D02*
X007312Y009480D01*
X007312Y009481D02*
X007620Y009481D01*
X007621Y009482D02*
X007311Y009482D01*
X007311Y009483D02*
X007621Y009483D01*
X007622Y009484D02*
X007311Y009484D01*
X007310Y009485D02*
X007622Y009485D01*
X007622Y009486D02*
X007310Y009486D01*
X007310Y009487D02*
X007622Y009487D01*
X007622Y009488D02*
X007310Y009488D01*
X007310Y009489D02*
X007622Y009489D01*
X007623Y009490D02*
X007310Y009490D01*
X007310Y009491D02*
X007623Y009491D01*
X007623Y009492D02*
X007309Y009492D01*
X007309Y009493D02*
X007623Y009493D01*
X007623Y009494D02*
X007309Y009494D01*
X007309Y009495D02*
X007623Y009495D01*
X007623Y009496D02*
X007309Y009496D01*
X007309Y009497D02*
X007623Y009497D01*
X007624Y009498D02*
X007309Y009498D01*
X007309Y009499D02*
X007624Y009499D01*
X007624Y009500D02*
X007309Y009500D01*
X007308Y009501D02*
X007624Y009501D01*
X007624Y009502D02*
X007308Y009502D01*
X007308Y009503D02*
X007624Y009503D01*
X007624Y009504D02*
X007308Y009504D01*
X007308Y009505D02*
X007624Y009505D01*
X007624Y009506D02*
X007308Y009506D01*
X007308Y009507D02*
X007625Y009507D01*
X007625Y009508D02*
X007308Y009508D01*
X007308Y009509D02*
X007625Y009509D01*
X007625Y009510D02*
X007307Y009510D01*
X007307Y009511D02*
X007625Y009511D01*
X007625Y009512D02*
X007307Y009512D01*
X007307Y009513D02*
X007625Y009513D01*
X007625Y009514D02*
X007307Y009514D01*
X007307Y009515D02*
X007625Y009515D01*
X007626Y009516D02*
X007307Y009516D01*
X007307Y009517D02*
X007626Y009517D01*
X007626Y009518D02*
X007307Y009518D01*
X007306Y009519D02*
X007626Y009519D01*
X007626Y009520D02*
X007306Y009520D01*
X007306Y009521D02*
X007626Y009521D01*
X007626Y009522D02*
X007306Y009522D01*
X007306Y009523D02*
X007626Y009523D01*
X007626Y009524D02*
X007306Y009524D01*
X007306Y009525D02*
X007626Y009525D01*
X007626Y009526D02*
X007306Y009526D01*
X007306Y009527D02*
X007626Y009527D01*
X007626Y009528D02*
X007306Y009528D01*
X007306Y009529D02*
X007626Y009529D01*
X007626Y009530D02*
X007306Y009530D01*
X007306Y009531D02*
X007626Y009531D01*
X007626Y009532D02*
X007306Y009532D01*
X007306Y009533D02*
X007626Y009533D01*
X007626Y009534D02*
X007306Y009534D01*
X007306Y009535D02*
X007626Y009535D01*
X007626Y009536D02*
X007306Y009536D01*
X007306Y009537D02*
X007626Y009537D01*
X007626Y009538D02*
X007306Y009538D01*
X007306Y009539D02*
X007626Y009539D01*
X007626Y009540D02*
X007306Y009540D01*
X007306Y009541D02*
X007626Y009541D01*
X007626Y009542D02*
X007306Y009542D01*
X007306Y009543D02*
X007626Y009543D01*
X007626Y009544D02*
X007306Y009544D01*
X007306Y009545D02*
X007626Y009545D01*
X007626Y009546D02*
X007306Y009546D01*
X007306Y009547D02*
X007626Y009547D01*
X007626Y009548D02*
X007306Y009548D01*
X007306Y009549D02*
X007626Y009549D01*
X007626Y009550D02*
X007306Y009550D01*
X007306Y009551D02*
X007626Y009551D01*
X007626Y009552D02*
X007306Y009552D01*
X007306Y009553D02*
X007626Y009553D01*
X007626Y009554D02*
X007306Y009554D01*
X007306Y009555D02*
X007626Y009555D01*
X007626Y009556D02*
X007306Y009556D01*
X007306Y009557D02*
X007626Y009557D01*
X007626Y009558D02*
X007306Y009558D01*
X007306Y009559D02*
X007626Y009559D01*
X007626Y009560D02*
X007306Y009560D01*
X007306Y009561D02*
X007626Y009561D01*
X007626Y009562D02*
X007306Y009562D01*
X007306Y009563D02*
X007626Y009563D01*
X007626Y009564D02*
X007306Y009564D01*
X007306Y009565D02*
X007626Y009565D01*
X007626Y009566D02*
X007306Y009566D01*
X007306Y009567D02*
X007626Y009567D01*
X007626Y009568D02*
X007306Y009568D01*
X007306Y009569D02*
X007626Y009569D01*
X007626Y009570D02*
X007306Y009570D01*
X007306Y009571D02*
X007626Y009571D01*
X007626Y009572D02*
X007306Y009572D01*
X007306Y009573D02*
X007626Y009573D01*
X007626Y009574D02*
X007306Y009574D01*
X007306Y009575D02*
X007626Y009575D01*
X007626Y009576D02*
X007306Y009576D01*
X007306Y009577D02*
X007626Y009577D01*
X007626Y009578D02*
X007306Y009578D01*
X007306Y009579D02*
X007626Y009579D01*
X007626Y009580D02*
X007306Y009580D01*
X007306Y009581D02*
X007626Y009581D01*
X007626Y009582D02*
X007306Y009582D01*
X007306Y009583D02*
X007626Y009583D01*
X007626Y009584D02*
X007306Y009584D01*
X007306Y009585D02*
X007626Y009585D01*
X007626Y009586D02*
X007306Y009586D01*
X007306Y009587D02*
X007626Y009587D01*
X007626Y009588D02*
X007306Y009588D01*
X007306Y009589D02*
X007626Y009589D01*
X007626Y009590D02*
X007306Y009590D01*
X007306Y009591D02*
X007626Y009591D01*
X007626Y009592D02*
X007306Y009592D01*
X007306Y009593D02*
X007626Y009593D01*
X007626Y009594D02*
X007306Y009594D01*
X007306Y009595D02*
X007626Y009595D01*
X007626Y009596D02*
X007306Y009596D01*
X007306Y009597D02*
X007626Y009597D01*
X007626Y009598D02*
X007306Y009598D01*
X007306Y009599D02*
X007626Y009599D01*
X007626Y009600D02*
X007306Y009600D01*
X007306Y009601D02*
X007626Y009601D01*
X007626Y009602D02*
X007306Y009602D01*
X007306Y009603D02*
X007626Y009603D01*
X007626Y009604D02*
X007306Y009604D01*
X007306Y009605D02*
X007626Y009605D01*
X007626Y009606D02*
X007306Y009606D01*
X007306Y009607D02*
X007626Y009607D01*
X007626Y009608D02*
X007306Y009608D01*
X007306Y009609D02*
X007626Y009609D01*
X007626Y009610D02*
X007306Y009610D01*
X007306Y009611D02*
X007626Y009611D01*
X007626Y009612D02*
X007306Y009612D01*
X007306Y009613D02*
X007626Y009613D01*
X007626Y009614D02*
X007306Y009614D01*
X007306Y009615D02*
X007626Y009615D01*
X007626Y009616D02*
X007306Y009616D01*
X007306Y009617D02*
X007626Y009617D01*
X007626Y009618D02*
X007306Y009618D01*
X007306Y009619D02*
X007626Y009619D01*
X007626Y009620D02*
X007306Y009620D01*
X007306Y009621D02*
X007626Y009621D01*
X007626Y009622D02*
X007306Y009622D01*
X007306Y009623D02*
X007626Y009623D01*
X007626Y009624D02*
X007306Y009624D01*
X007306Y009625D02*
X007626Y009625D01*
X007626Y009626D02*
X007306Y009626D01*
X007306Y009627D02*
X007626Y009627D01*
X007626Y009628D02*
X007306Y009628D01*
X007306Y009629D02*
X007626Y009629D01*
X007626Y009630D02*
X007306Y009630D01*
X007306Y009631D02*
X007626Y009631D01*
X007626Y009632D02*
X007306Y009632D01*
X007306Y009633D02*
X007626Y009633D01*
X007626Y009634D02*
X007306Y009634D01*
X007306Y009635D02*
X007626Y009635D01*
X007626Y009636D02*
X007306Y009636D01*
X007306Y009637D02*
X007626Y009637D01*
X007626Y009638D02*
X007306Y009638D01*
X007306Y009639D02*
X007626Y009639D01*
X007626Y009640D02*
X007306Y009640D01*
X007306Y009641D02*
X007626Y009641D01*
X007626Y009642D02*
X007306Y009642D01*
X007306Y009643D02*
X007626Y009643D01*
X007626Y009644D02*
X007306Y009644D01*
X007306Y009645D02*
X007626Y009645D01*
X007626Y009646D02*
X007306Y009646D01*
X007306Y009647D02*
X007626Y009647D01*
X007626Y009648D02*
X007306Y009648D01*
X007306Y009649D02*
X007626Y009649D01*
X007626Y009650D02*
X007306Y009650D01*
X007306Y009651D02*
X007626Y009651D01*
X007626Y009652D02*
X007306Y009652D01*
X007306Y009653D02*
X007626Y009653D01*
X007626Y009654D02*
X007306Y009654D01*
X007306Y009655D02*
X007626Y009655D01*
X007626Y009656D02*
X007306Y009656D01*
X007306Y009657D02*
X007626Y009657D01*
X007626Y009658D02*
X007306Y009658D01*
X007306Y009659D02*
X007626Y009659D01*
X007626Y009660D02*
X007306Y009660D01*
X007306Y009661D02*
X007626Y009661D01*
X007626Y009662D02*
X007306Y009662D01*
X007306Y009663D02*
X007626Y009663D01*
X007626Y009664D02*
X007306Y009664D01*
X007306Y009665D02*
X007626Y009665D01*
X007626Y009666D02*
X007306Y009666D01*
X007306Y009667D02*
X007626Y009667D01*
X007626Y009668D02*
X007306Y009668D01*
X007306Y009669D02*
X007626Y009669D01*
X007626Y009670D02*
X007306Y009670D01*
X007306Y009671D02*
X007626Y009671D01*
X007626Y009672D02*
X007306Y009672D01*
X007306Y009673D02*
X007626Y009673D01*
X007626Y009674D02*
X007306Y009674D01*
X007306Y009675D02*
X007626Y009675D01*
X007626Y009676D02*
X007306Y009676D01*
X007306Y009677D02*
X007626Y009677D01*
X007626Y009678D02*
X007306Y009678D01*
X007306Y009679D02*
X007626Y009679D01*
X007626Y009680D02*
X007306Y009680D01*
X007306Y009681D02*
X007626Y009681D01*
X007626Y009682D02*
X007306Y009682D01*
X007306Y009683D02*
X007626Y009683D01*
X007626Y009684D02*
X007306Y009684D01*
X007306Y009685D02*
X007626Y009685D01*
X007626Y009686D02*
X007306Y009686D01*
X007306Y009687D02*
X007626Y009687D01*
X007626Y009688D02*
X007306Y009688D01*
X007306Y009689D02*
X007626Y009689D01*
X007626Y009690D02*
X007306Y009690D01*
X007306Y009691D02*
X007626Y009691D01*
X007626Y009692D02*
X007306Y009692D01*
X007306Y009693D02*
X007626Y009693D01*
X007626Y009694D02*
X007306Y009694D01*
X007306Y009695D02*
X007626Y009695D01*
X007626Y009696D02*
X007306Y009696D01*
X007306Y009697D02*
X007626Y009697D01*
X007626Y009698D02*
X007306Y009698D01*
X007306Y009699D02*
X007626Y009699D01*
X007626Y009700D02*
X007306Y009700D01*
X007306Y009701D02*
X007626Y009701D01*
X007626Y009702D02*
X007306Y009702D01*
X007306Y009703D02*
X007626Y009703D01*
X007626Y009704D02*
X007306Y009704D01*
X007306Y009705D02*
X007626Y009705D01*
X007626Y009706D02*
X007306Y009706D01*
X007306Y009707D02*
X007626Y009707D01*
X007626Y009708D02*
X007306Y009708D01*
X007306Y009709D02*
X007626Y009709D01*
X007626Y009710D02*
X007306Y009710D01*
X007306Y009711D02*
X007626Y009711D01*
X007626Y009712D02*
X007306Y009712D01*
X007306Y009713D02*
X007626Y009713D01*
X007626Y009714D02*
X007306Y009714D01*
X007306Y009715D02*
X007626Y009715D01*
X007626Y009716D02*
X007306Y009716D01*
X007306Y009717D02*
X007626Y009717D01*
X007626Y009718D02*
X007306Y009718D01*
X007306Y009719D02*
X007626Y009719D01*
X007626Y009720D02*
X007306Y009720D01*
X007306Y009721D02*
X007626Y009721D01*
X007626Y009722D02*
X007306Y009722D01*
X007306Y009723D02*
X007626Y009723D01*
X007626Y009724D02*
X007306Y009724D01*
X007306Y009725D02*
X007626Y009725D01*
X007626Y009726D02*
X007306Y009726D01*
X007306Y009727D02*
X007626Y009727D01*
X007626Y009728D02*
X007306Y009728D01*
X007306Y009729D02*
X007626Y009729D01*
X007626Y009730D02*
X007306Y009730D01*
X007306Y009731D02*
X007626Y009731D01*
X007626Y009732D02*
X007306Y009732D01*
X007306Y009733D02*
X007626Y009733D01*
X007626Y009734D02*
X007306Y009734D01*
X007306Y009735D02*
X007626Y009735D01*
X007626Y009736D02*
X007306Y009736D01*
X007306Y009737D02*
X007626Y009737D01*
X007626Y009738D02*
X007306Y009738D01*
X007306Y009739D02*
X007626Y009739D01*
X007626Y009740D02*
X007306Y009740D01*
X007306Y009741D02*
X007626Y009741D01*
X007626Y009742D02*
X007306Y009742D01*
X007306Y009743D02*
X007626Y009743D01*
X007626Y009744D02*
X007306Y009744D01*
X007306Y009745D02*
X007626Y009745D01*
X007626Y009746D02*
X007306Y009746D01*
X007306Y009747D02*
X007626Y009747D01*
X007626Y009748D02*
X007306Y009748D01*
X007306Y009749D02*
X007626Y009749D01*
X007626Y009750D02*
X007306Y009750D01*
X007306Y009751D02*
X007626Y009751D01*
X007626Y009752D02*
X007306Y009752D01*
X007306Y009753D02*
X007626Y009753D01*
X007626Y009754D02*
X007306Y009754D01*
X007306Y009755D02*
X007626Y009755D01*
X007626Y009756D02*
X007306Y009756D01*
X007306Y009757D02*
X007626Y009757D01*
X007626Y009758D02*
X007306Y009758D01*
X007306Y009759D02*
X007626Y009759D01*
X007626Y009760D02*
X007306Y009760D01*
X007306Y009761D02*
X007626Y009761D01*
X007626Y009762D02*
X007306Y009762D01*
X007306Y009763D02*
X007626Y009763D01*
X007626Y009764D02*
X007306Y009764D01*
X007306Y009765D02*
X007626Y009765D01*
X007626Y009766D02*
X007306Y009766D01*
X007306Y009767D02*
X007626Y009767D01*
X007626Y009768D02*
X007306Y009768D01*
X007306Y009769D02*
X007626Y009769D01*
X007626Y009770D02*
X007306Y009770D01*
X007306Y009771D02*
X007626Y009771D01*
X007626Y009772D02*
X007306Y009772D01*
X007306Y009773D02*
X007626Y009773D01*
X007626Y009774D02*
X007306Y009774D01*
X007306Y009775D02*
X007626Y009775D01*
X007626Y009776D02*
X007306Y009776D01*
X007306Y009777D02*
X007626Y009777D01*
X007626Y009778D02*
X007306Y009778D01*
X007306Y009779D02*
X007626Y009779D01*
X007626Y009780D02*
X007306Y009780D01*
X007306Y009781D02*
X007626Y009781D01*
X007626Y009782D02*
X007306Y009782D01*
X007306Y009783D02*
X007626Y009783D01*
X007626Y009784D02*
X007306Y009784D01*
X007306Y009785D02*
X007626Y009785D01*
X007626Y009786D02*
X007306Y009786D01*
X007306Y009787D02*
X007626Y009787D01*
X007626Y009788D02*
X007306Y009788D01*
X007306Y009789D02*
X007626Y009789D01*
X007626Y009790D02*
X007306Y009790D01*
X007306Y009791D02*
X007626Y009791D01*
X007626Y009792D02*
X007306Y009792D01*
X007306Y009793D02*
X007626Y009793D01*
X007626Y009794D02*
X007306Y009794D01*
X007306Y009795D02*
X007626Y009795D01*
X007626Y009796D02*
X007306Y009796D01*
X007306Y009797D02*
X007626Y009797D01*
X007626Y009798D02*
X007306Y009798D01*
X007306Y009799D02*
X007626Y009799D01*
X007626Y009800D02*
X007306Y009800D01*
X007306Y009801D02*
X007626Y009801D01*
X007626Y009802D02*
X007306Y009802D01*
X007306Y009803D02*
X007626Y009803D01*
X007626Y009804D02*
X007306Y009804D01*
X007306Y009805D02*
X007626Y009805D01*
X007626Y009806D02*
X007306Y009806D01*
X007306Y009807D02*
X007626Y009807D01*
X007626Y009808D02*
X007306Y009808D01*
X007306Y009809D02*
X007626Y009809D01*
X007626Y009810D02*
X007306Y009810D01*
X007306Y009811D02*
X007626Y009811D01*
X007626Y009812D02*
X007306Y009812D01*
X007306Y009813D02*
X007626Y009813D01*
X007626Y009814D02*
X007306Y009814D01*
X007306Y009815D02*
X007626Y009815D01*
X007626Y009816D02*
X007306Y009816D01*
X007306Y009817D02*
X007626Y009817D01*
X007626Y009818D02*
X007306Y009818D01*
X007306Y009819D02*
X007626Y009819D01*
X007626Y009820D02*
X007306Y009820D01*
X007306Y009821D02*
X007626Y009821D01*
X007626Y009822D02*
X007306Y009822D01*
X007306Y009823D02*
X007626Y009823D01*
X007626Y009824D02*
X007306Y009824D01*
X007306Y009825D02*
X007626Y009825D01*
X007626Y009826D02*
X007306Y009826D01*
X007306Y009827D02*
X007626Y009827D01*
X007626Y009828D02*
X007306Y009828D01*
X007306Y009829D02*
X007626Y009829D01*
X007626Y009830D02*
X007306Y009830D01*
X007306Y009831D02*
X007626Y009831D01*
X007626Y009832D02*
X007306Y009832D01*
X007306Y009833D02*
X007626Y009833D01*
X007626Y009834D02*
X007306Y009834D01*
X007306Y009835D02*
X007626Y009835D01*
X007626Y009836D02*
X007306Y009836D01*
X007306Y009837D02*
X007626Y009837D01*
X007626Y009838D02*
X007306Y009838D01*
X007306Y009839D02*
X007626Y009839D01*
X007626Y009840D02*
X007306Y009840D01*
X007306Y009841D02*
X007626Y009841D01*
X007626Y009842D02*
X007306Y009842D01*
X007306Y009843D02*
X007626Y009843D01*
X007626Y009844D02*
X007306Y009844D01*
X007306Y009845D02*
X007626Y009845D01*
X007626Y009846D02*
X007306Y009846D01*
X007306Y009847D02*
X007626Y009847D01*
X007626Y009848D02*
X007306Y009848D01*
X007306Y009849D02*
X007626Y009849D01*
X007626Y009850D02*
X007306Y009850D01*
X007306Y009851D02*
X007626Y009851D01*
X007626Y009852D02*
X007306Y009852D01*
X007306Y009853D02*
X007626Y009853D01*
X007626Y009854D02*
X007306Y009854D01*
X007306Y009855D02*
X007626Y009855D01*
X007626Y009856D02*
X007306Y009856D01*
X007306Y009857D02*
X007626Y009857D01*
X007626Y009858D02*
X007306Y009858D01*
X007306Y009859D02*
X007626Y009859D01*
X007626Y009860D02*
X007306Y009860D01*
X007306Y009861D02*
X007626Y009861D01*
X007626Y009862D02*
X007306Y009862D01*
X007306Y009863D02*
X007626Y009863D01*
X007626Y009864D02*
X007306Y009864D01*
X007306Y009865D02*
X007626Y009865D01*
X007626Y009866D02*
X007306Y009866D01*
X007306Y009867D02*
X007626Y009867D01*
X007626Y009868D02*
X007306Y009868D01*
X007306Y009869D02*
X007626Y009869D01*
X007626Y009870D02*
X007306Y009870D01*
X007306Y009871D02*
X007626Y009871D01*
X007626Y009872D02*
X007306Y009872D01*
X007306Y009873D02*
X007626Y009873D01*
X007626Y009874D02*
X007306Y009874D01*
X007306Y009875D02*
X007626Y009875D01*
X007626Y009876D02*
X007306Y009876D01*
X007306Y009877D02*
X007626Y009877D01*
X007626Y009878D02*
X007306Y009878D01*
X007306Y009879D02*
X007626Y009879D01*
X007626Y009880D02*
X007306Y009880D01*
X007306Y009881D02*
X007626Y009881D01*
X007626Y009882D02*
X007306Y009882D01*
X007306Y009883D02*
X007626Y009883D01*
X007626Y009884D02*
X007306Y009884D01*
X007306Y009885D02*
X007626Y009885D01*
X007626Y009886D02*
X007306Y009886D01*
X007306Y009887D02*
X007626Y009887D01*
X007626Y009888D02*
X007306Y009888D01*
X007306Y009889D02*
X007626Y009889D01*
X007626Y009890D02*
X007306Y009890D01*
X007306Y009891D02*
X007626Y009891D01*
X007626Y009892D02*
X007306Y009892D01*
X007306Y009893D02*
X007626Y009893D01*
X007626Y009894D02*
X007306Y009894D01*
X007306Y009895D02*
X007626Y009895D01*
X007626Y009896D02*
X007306Y009896D01*
X007306Y009897D02*
X007626Y009897D01*
X007626Y009898D02*
X007306Y009898D01*
X007306Y009899D02*
X007626Y009899D01*
X007626Y009900D02*
X007306Y009900D01*
X007306Y009901D02*
X007626Y009901D01*
X007626Y009902D02*
X007306Y009902D01*
X007306Y009903D02*
X007626Y009903D01*
X007626Y009904D02*
X007306Y009904D01*
X007306Y009905D02*
X007626Y009905D01*
X007626Y009906D02*
X007306Y009906D01*
X007306Y009907D02*
X007626Y009907D01*
X007626Y009908D02*
X007306Y009908D01*
X007306Y009909D02*
X007626Y009909D01*
X007626Y009910D02*
X007306Y009910D01*
X007306Y009911D02*
X007626Y009911D01*
X007626Y009912D02*
X007306Y009912D01*
X007306Y009913D02*
X007626Y009913D01*
X007626Y009914D02*
X007306Y009914D01*
X007306Y009915D02*
X007626Y009915D01*
X007626Y009916D02*
X007306Y009916D01*
X007306Y009917D02*
X007626Y009917D01*
X007626Y009918D02*
X007306Y009918D01*
X007306Y009919D02*
X007626Y009919D01*
X007626Y009920D02*
X007306Y009920D01*
X007306Y009921D02*
X007626Y009921D01*
X007626Y009922D02*
X007306Y009922D01*
X007306Y009923D02*
X007626Y009923D01*
X007626Y009924D02*
X007306Y009924D01*
X007306Y009925D02*
X007626Y009925D01*
X007626Y009926D02*
X007306Y009926D01*
X007306Y009927D02*
X007626Y009927D01*
X007626Y009928D02*
X007306Y009928D01*
X007306Y009929D02*
X007626Y009929D01*
X007626Y009930D02*
X007306Y009930D01*
X007306Y009931D02*
X007626Y009931D01*
X007626Y009932D02*
X007306Y009932D01*
X007306Y009933D02*
X007626Y009933D01*
X007626Y009934D02*
X007306Y009934D01*
X007626Y009934D01*
X007626Y009935D02*
X007306Y009935D01*
X007306Y009936D02*
X007626Y009936D01*
X007626Y009937D02*
X007306Y009937D01*
X007306Y009938D02*
X007626Y009938D01*
X007626Y009939D02*
X007306Y009939D01*
X007306Y009940D02*
X007626Y009940D01*
X007626Y009941D02*
X007306Y009941D01*
X007306Y009942D02*
X007626Y009942D01*
X007626Y009943D02*
X007306Y009943D01*
X007306Y009944D02*
X007626Y009944D01*
X007626Y009945D02*
X007306Y009945D01*
X007306Y009946D02*
X007626Y009946D01*
X007626Y009947D02*
X007306Y009947D01*
X007306Y009948D02*
X007626Y009948D01*
X007626Y009949D02*
X007306Y009949D01*
X007306Y009950D02*
X007626Y009950D01*
X007626Y009951D02*
X007306Y009951D01*
X007306Y009952D02*
X007626Y009952D01*
X007626Y009953D02*
X007306Y009953D01*
X007306Y009954D02*
X007626Y009954D01*
X007626Y009955D02*
X007306Y009955D01*
X007306Y009956D02*
X007626Y009956D01*
X007626Y009957D02*
X007306Y009957D01*
X007306Y009958D02*
X007626Y009958D01*
X007626Y009959D02*
X007306Y009959D01*
X007306Y009960D02*
X007626Y009960D01*
X007626Y009961D02*
X007306Y009961D01*
X007306Y009962D02*
X007626Y009962D01*
X007626Y009963D02*
X007306Y009963D01*
X007306Y009964D02*
X007626Y009964D01*
X007626Y009965D02*
X007306Y009965D01*
X007306Y009966D02*
X007626Y009966D01*
X007626Y009967D02*
X007306Y009967D01*
X007306Y009968D02*
X007626Y009968D01*
X007626Y009969D02*
X007306Y009969D01*
X007306Y009970D02*
X007626Y009970D01*
X007626Y009971D02*
X007306Y009971D01*
X007306Y009972D02*
X007626Y009972D01*
X007626Y009973D02*
X007306Y009973D01*
X007306Y009974D02*
X007626Y009974D01*
X007626Y009975D02*
X007306Y009975D01*
X007306Y009976D02*
X007626Y009976D01*
X007626Y009977D02*
X007306Y009977D01*
X007306Y009978D02*
X007626Y009978D01*
X007626Y009979D02*
X007306Y009979D01*
X007306Y009980D02*
X007626Y009980D01*
X007626Y009981D02*
X007306Y009981D01*
X007306Y009982D02*
X007626Y009982D01*
X007626Y009983D02*
X007306Y009983D01*
X007306Y009984D02*
X007626Y009984D01*
X007626Y009985D02*
X007306Y009985D01*
X007306Y009986D02*
X007626Y009986D01*
X007626Y009987D02*
X007306Y009987D01*
X007306Y009988D02*
X007626Y009988D01*
X007626Y009989D02*
X007306Y009989D01*
X007306Y009990D02*
X007626Y009990D01*
X007626Y009991D02*
X007306Y009991D01*
X007306Y009992D02*
X007626Y009992D01*
X007626Y009993D02*
X007306Y009993D01*
X007306Y009994D02*
X007626Y009994D01*
X007626Y009995D02*
X007306Y009995D01*
X007306Y009996D02*
X007626Y009996D01*
X007626Y009997D02*
X007306Y009997D01*
X007306Y009998D02*
X007626Y009998D01*
X007626Y009999D02*
X007306Y009999D01*
X007306Y010000D02*
X007626Y010000D01*
X007626Y010001D02*
X007306Y010001D01*
X007306Y010002D02*
X007626Y010002D01*
X007626Y010003D02*
X007306Y010003D01*
X007306Y010004D02*
X007626Y010004D01*
X007626Y010005D02*
X007306Y010005D01*
X007306Y010006D02*
X007626Y010006D01*
X007626Y010007D02*
X007306Y010007D01*
X007306Y010008D02*
X007626Y010008D01*
X007626Y010009D02*
X007306Y010009D01*
X007306Y010010D02*
X007626Y010010D01*
X007626Y010011D02*
X007306Y010011D01*
X007306Y010012D02*
X007626Y010012D01*
X007626Y010013D02*
X007306Y010013D01*
X007306Y010014D02*
X007626Y010014D01*
X007626Y010015D02*
X007306Y010015D01*
X007306Y010016D02*
X007626Y010016D01*
X007626Y010017D02*
X007306Y010017D01*
X007306Y010018D02*
X007626Y010018D01*
X007626Y010019D02*
X007306Y010019D01*
X007306Y010020D02*
X007626Y010020D01*
X007626Y010021D02*
X007306Y010021D01*
X007306Y010022D02*
X007626Y010022D01*
X007626Y010023D02*
X007306Y010023D01*
X007306Y010024D02*
X007626Y010024D01*
X007626Y010025D02*
X007306Y010025D01*
X007306Y010026D02*
X007626Y010026D01*
X007626Y010027D02*
X007306Y010027D01*
X007306Y010028D02*
X007626Y010028D01*
X007626Y010029D02*
X007306Y010029D01*
X007306Y010030D02*
X007626Y010030D01*
X007626Y010031D02*
X007306Y010031D01*
X007306Y010032D02*
X007626Y010032D01*
X007626Y010033D02*
X007306Y010033D01*
X007306Y010034D02*
X007626Y010034D01*
X007626Y010035D02*
X007306Y010035D01*
X007306Y010036D02*
X007626Y010036D01*
X007626Y010037D02*
X007306Y010037D01*
X007306Y010038D02*
X007626Y010038D01*
X007626Y010039D02*
X007306Y010039D01*
X007306Y010040D02*
X007626Y010040D01*
X007626Y010041D02*
X007306Y010041D01*
X007306Y010042D02*
X007626Y010042D01*
X007626Y010043D02*
X007306Y010043D01*
X007306Y010044D02*
X007626Y010044D01*
X007626Y010045D02*
X007306Y010045D01*
X007306Y010046D02*
X007626Y010046D01*
X007626Y010047D02*
X007306Y010047D01*
X007306Y010048D02*
X007626Y010048D01*
X007626Y010049D02*
X007306Y010049D01*
X007306Y010050D02*
X007626Y010050D01*
X007626Y010051D02*
X007306Y010051D01*
X007306Y010052D02*
X007626Y010052D01*
X007626Y010053D02*
X007306Y010053D01*
X007306Y010054D02*
X007626Y010054D01*
X007626Y010055D02*
X007306Y010055D01*
X007306Y010056D02*
X007626Y010056D01*
X007626Y010057D02*
X007306Y010057D01*
X007306Y010058D02*
X007626Y010058D01*
X007626Y010059D02*
X007306Y010059D01*
X007306Y010060D02*
X007626Y010060D01*
X007626Y010061D02*
X007306Y010061D01*
X007306Y010062D02*
X007626Y010062D01*
X007626Y010063D02*
X007306Y010063D01*
X007306Y010064D02*
X007626Y010064D01*
X007626Y010065D02*
X007306Y010065D01*
X007306Y010066D02*
X007626Y010066D01*
X007626Y010067D02*
X007306Y010067D01*
X007306Y010068D02*
X007626Y010068D01*
X007626Y010069D02*
X007306Y010069D01*
X007306Y010070D02*
X007626Y010070D01*
X007626Y010071D02*
X007306Y010071D01*
X007306Y010072D02*
X007626Y010072D01*
X007626Y010073D02*
X007306Y010073D01*
X007306Y010074D02*
X007626Y010074D01*
X007626Y010075D02*
X007306Y010075D01*
X007306Y010076D02*
X007626Y010076D01*
X007626Y010077D02*
X007306Y010077D01*
X007306Y010078D02*
X007626Y010078D01*
X007626Y010079D02*
X007306Y010079D01*
X007306Y010080D02*
X007626Y010080D01*
X007626Y010081D02*
X007306Y010081D01*
X007306Y010082D02*
X007626Y010082D01*
X007626Y010083D02*
X007306Y010083D01*
X007306Y010084D02*
X007626Y010084D01*
X007626Y010085D02*
X007306Y010085D01*
X007306Y010086D02*
X007626Y010086D01*
X007626Y010087D02*
X007306Y010087D01*
X007306Y010088D02*
X007626Y010088D01*
X007626Y010089D02*
X007306Y010089D01*
X007306Y010090D02*
X007626Y010090D01*
X007626Y010091D02*
X007306Y010091D01*
X007306Y010092D02*
X007626Y010092D01*
X007626Y010093D02*
X007306Y010093D01*
X007306Y010094D02*
X007626Y010094D01*
X007626Y010095D02*
X007306Y010095D01*
X007306Y010096D02*
X007626Y010096D01*
X007626Y010097D02*
X007306Y010097D01*
X007306Y010098D02*
X007626Y010098D01*
X007626Y010099D02*
X007306Y010099D01*
X007306Y010100D02*
X007626Y010100D01*
X007626Y010101D02*
X007306Y010101D01*
X007306Y010102D02*
X007626Y010102D01*
X007626Y010103D02*
X007306Y010103D01*
X007306Y010104D02*
X007626Y010104D01*
X007626Y010105D02*
X007306Y010105D01*
X007306Y010106D02*
X007626Y010106D01*
X007626Y010107D02*
X007306Y010107D01*
X007306Y010108D02*
X007626Y010108D01*
X007626Y010109D02*
X007306Y010109D01*
X007306Y010110D02*
X007626Y010110D01*
X007626Y010111D02*
X007306Y010111D01*
X007306Y010112D02*
X007626Y010112D01*
X007626Y010113D02*
X007306Y010113D01*
X007306Y010114D02*
X007626Y010114D01*
X007626Y010115D02*
X007306Y010115D01*
X007306Y010116D02*
X007626Y010116D01*
X007626Y010117D02*
X007306Y010117D01*
X007306Y010118D02*
X007626Y010118D01*
X007626Y010119D02*
X007306Y010119D01*
X007306Y010120D02*
X007626Y010120D01*
X007626Y010121D02*
X007306Y010121D01*
X007306Y010122D02*
X007626Y010122D01*
X007626Y010123D02*
X007306Y010123D01*
X007306Y010124D02*
X007626Y010124D01*
X007626Y010125D02*
X007306Y010125D01*
X007306Y010126D02*
X007626Y010126D01*
X007626Y010127D02*
X007306Y010127D01*
X007306Y010128D02*
X007626Y010128D01*
X007626Y010129D02*
X007306Y010129D01*
X007306Y010130D02*
X007626Y010130D01*
X007626Y010131D02*
X007306Y010131D01*
X007306Y010132D02*
X007626Y010132D01*
X007626Y010133D02*
X007306Y010133D01*
X007306Y010134D02*
X007626Y010134D01*
X007626Y010135D02*
X007306Y010135D01*
X007306Y010136D02*
X007626Y010136D01*
X007626Y010137D02*
X007306Y010137D01*
X007306Y010138D02*
X007626Y010138D01*
X007626Y010139D02*
X007306Y010139D01*
X007306Y010140D02*
X007626Y010140D01*
X007626Y010141D02*
X007306Y010141D01*
X007306Y010142D02*
X007626Y010142D01*
X007626Y010143D02*
X007306Y010143D01*
X007306Y010144D02*
X007626Y010144D01*
X007626Y010145D02*
X007306Y010145D01*
X007306Y010146D02*
X007626Y010146D01*
X007626Y010147D02*
X007306Y010147D01*
X007306Y010148D02*
X007626Y010148D01*
X007626Y010149D02*
X007306Y010149D01*
X007306Y010150D02*
X007626Y010150D01*
X007626Y010151D02*
X007306Y010151D01*
X007306Y010152D02*
X007626Y010152D01*
X007626Y010153D02*
X007306Y010153D01*
X007306Y010154D02*
X007626Y010154D01*
X007626Y010155D02*
X007306Y010155D01*
X007306Y010156D02*
X007626Y010156D01*
X007626Y010157D02*
X007306Y010157D01*
X007306Y010158D02*
X007626Y010158D01*
X007626Y010159D02*
X007306Y010159D01*
X007306Y010160D02*
X007626Y010160D01*
X007626Y010161D02*
X007306Y010161D01*
X007306Y010162D02*
X007626Y010162D01*
X007626Y010163D02*
X007306Y010163D01*
X007306Y010164D02*
X007626Y010164D01*
X007626Y010165D02*
X007306Y010165D01*
X007306Y010166D02*
X007626Y010166D01*
X007626Y010167D02*
X007306Y010167D01*
X007306Y010168D02*
X007626Y010168D01*
X007626Y010169D02*
X007306Y010169D01*
X007306Y010170D02*
X007626Y010170D01*
X007626Y010171D02*
X007306Y010171D01*
X007306Y010172D02*
X007626Y010172D01*
X007626Y010173D02*
X007306Y010173D01*
X007306Y010174D02*
X007626Y010174D01*
X007626Y010175D02*
X007306Y010175D01*
X007306Y010176D02*
X007626Y010176D01*
X007626Y010177D02*
X007306Y010177D01*
X007306Y010178D02*
X007626Y010178D01*
X007626Y010179D02*
X007306Y010179D01*
X007306Y010180D02*
X007626Y010180D01*
X007626Y010181D02*
X007306Y010181D01*
X007306Y010182D02*
X007626Y010182D01*
X007626Y010183D02*
X007306Y010183D01*
X007306Y010184D02*
X007626Y010184D01*
X007626Y010185D02*
X007306Y010185D01*
X007306Y010186D02*
X007626Y010186D01*
X007626Y010187D02*
X007306Y010187D01*
X007306Y010188D02*
X007626Y010188D01*
X007626Y010189D02*
X007306Y010189D01*
X007306Y010190D02*
X007626Y010190D01*
X007626Y010191D02*
X007306Y010191D01*
X007306Y010192D02*
X007626Y010192D01*
X007626Y010193D02*
X007306Y010193D01*
X007306Y010194D02*
X007626Y010194D01*
X007626Y010195D02*
X007306Y010195D01*
X007306Y010196D02*
X007626Y010196D01*
X007626Y010197D02*
X007306Y010197D01*
X007306Y010198D02*
X007626Y010198D01*
X007626Y010199D02*
X007306Y010199D01*
X007306Y010200D02*
X007626Y010200D01*
X007626Y010201D02*
X007306Y010201D01*
X007306Y010202D02*
X007626Y010202D01*
X007626Y010203D02*
X007306Y010203D01*
X007306Y010204D02*
X007626Y010204D01*
X007626Y010205D02*
X007306Y010205D01*
X007306Y010206D02*
X007626Y010206D01*
X007626Y010207D02*
X007306Y010207D01*
X007306Y010208D02*
X007626Y010208D01*
X007626Y010209D02*
X007306Y010209D01*
X007306Y010210D02*
X007626Y010210D01*
X007626Y010211D02*
X007306Y010211D01*
X007306Y010212D02*
X007626Y010212D01*
X007626Y010213D02*
X007306Y010213D01*
X007306Y010214D02*
X007626Y010214D01*
X007626Y010215D02*
X007306Y010215D01*
X007306Y010216D02*
X007626Y010216D01*
X007626Y010217D02*
X007306Y010217D01*
X007306Y010218D02*
X007626Y010218D01*
X007626Y010219D02*
X007306Y010219D01*
X007306Y010220D02*
X007626Y010220D01*
X007626Y010221D02*
X007306Y010221D01*
X007306Y010222D02*
X007626Y010222D01*
X007626Y010223D02*
X007306Y010223D01*
X007306Y010224D02*
X007626Y010224D01*
X007626Y010225D02*
X007306Y010225D01*
X007306Y010226D02*
X007626Y010226D01*
X007626Y010227D02*
X007306Y010227D01*
X007306Y010228D02*
X007626Y010228D01*
X007626Y010229D02*
X007306Y010229D01*
X007306Y010230D02*
X007626Y010230D01*
X007626Y010231D02*
X007306Y010231D01*
X007306Y010232D02*
X007626Y010232D01*
X007626Y010233D02*
X007306Y010233D01*
X007306Y010234D02*
X007626Y010234D01*
X007626Y010235D02*
X007306Y010235D01*
X007306Y010236D02*
X007626Y010236D01*
X007626Y010237D02*
X007306Y010237D01*
X007306Y010238D02*
X007626Y010238D01*
X007626Y010239D02*
X007306Y010239D01*
X007306Y010240D02*
X007626Y010240D01*
X007626Y010241D02*
X007306Y010241D01*
X007306Y010242D02*
X007626Y010242D01*
X007626Y010243D02*
X007306Y010243D01*
X007306Y010244D02*
X007626Y010244D01*
X007626Y010245D02*
X007306Y010245D01*
X007306Y010246D02*
X007626Y010246D01*
X007626Y010247D02*
X007306Y010247D01*
X007306Y010248D02*
X007626Y010248D01*
X007626Y010249D02*
X007306Y010249D01*
X007306Y010250D02*
X007626Y010250D01*
X007626Y010251D02*
X007306Y010251D01*
X007306Y010252D02*
X007626Y010252D01*
X007626Y010253D02*
X007306Y010253D01*
X007306Y010254D02*
X007626Y010254D01*
X007626Y010255D02*
X007306Y010255D01*
X007306Y010256D02*
X007626Y010256D01*
X007626Y010257D02*
X007306Y010257D01*
X007306Y010258D02*
X007626Y010258D01*
X007626Y010259D02*
X007306Y010259D01*
X007306Y010260D02*
X007626Y010260D01*
X007626Y010261D02*
X007306Y010261D01*
X007306Y010262D02*
X007626Y010262D01*
X007626Y010263D02*
X007306Y010263D01*
X007306Y010264D02*
X007626Y010264D01*
X007626Y010265D02*
X007306Y010265D01*
X007306Y010266D02*
X007626Y010266D01*
X007626Y010267D02*
X007306Y010267D01*
X007306Y010268D02*
X007626Y010268D01*
X007626Y010269D02*
X007306Y010269D01*
X007306Y010270D02*
X007626Y010270D01*
X007626Y010271D02*
X007306Y010271D01*
X007306Y010272D02*
X007626Y010272D01*
X007626Y010273D02*
X007306Y010273D01*
X007306Y010274D02*
X007626Y010274D01*
X007626Y010275D02*
X007306Y010275D01*
X007306Y010276D02*
X007626Y010276D01*
X007626Y010277D02*
X007306Y010277D01*
X007306Y010278D02*
X007626Y010278D01*
X007626Y010279D02*
X007306Y010279D01*
X007306Y010280D02*
X007626Y010280D01*
X007626Y010281D02*
X007306Y010281D01*
X007306Y010282D02*
X007626Y010282D01*
X007626Y010283D02*
X007306Y010283D01*
X007306Y010284D02*
X007626Y010284D01*
X007626Y010285D02*
X007306Y010285D01*
X007306Y010286D02*
X007626Y010286D01*
X007626Y010287D02*
X007306Y010287D01*
X007306Y010288D02*
X007626Y010288D01*
X007626Y010289D02*
X007306Y010289D01*
X007306Y010290D02*
X007626Y010290D01*
X007626Y010291D02*
X007306Y010291D01*
X007306Y010292D02*
X007626Y010292D01*
X007626Y010293D02*
X007306Y010293D01*
X007306Y010294D02*
X007626Y010294D01*
X007626Y010295D02*
X007306Y010295D01*
X007306Y010296D02*
X007626Y010296D01*
X007626Y010297D02*
X007306Y010297D01*
X007306Y010298D02*
X007626Y010298D01*
X007626Y010299D02*
X007306Y010299D01*
X007306Y010300D02*
X007626Y010300D01*
X007626Y010301D02*
X007306Y010301D01*
X007306Y010302D02*
X007626Y010302D01*
X007626Y010303D02*
X007306Y010303D01*
X007306Y010304D02*
X007626Y010304D01*
X007626Y010305D02*
X007307Y010305D01*
X007307Y010306D02*
X007626Y010306D01*
X007625Y010307D02*
X007307Y010307D01*
X007307Y010308D02*
X007625Y010308D01*
X007625Y010309D02*
X007307Y010309D01*
X007307Y010310D02*
X007625Y010310D01*
X007625Y010311D02*
X007307Y010311D01*
X007307Y010312D02*
X007625Y010312D01*
X007625Y010313D02*
X007307Y010313D01*
X007308Y010314D02*
X007625Y010314D01*
X007625Y010315D02*
X007308Y010315D01*
X007308Y010316D02*
X007624Y010316D01*
X007624Y010317D02*
X007308Y010317D01*
X007308Y010318D02*
X007624Y010318D01*
X007624Y010319D02*
X007308Y010319D01*
X007308Y010320D02*
X007624Y010320D01*
X007624Y010321D02*
X007308Y010321D01*
X007308Y010322D02*
X007624Y010322D01*
X007624Y010323D02*
X007309Y010323D01*
X007309Y010324D02*
X007624Y010324D01*
X007623Y010325D02*
X007309Y010325D01*
X007309Y010326D02*
X007623Y010326D01*
X007623Y010327D02*
X007309Y010327D01*
X007309Y010328D02*
X007623Y010328D01*
X007623Y010329D02*
X007309Y010329D01*
X007309Y010330D02*
X007623Y010330D01*
X007623Y010331D02*
X007310Y010331D01*
X007310Y010332D02*
X007623Y010332D01*
X007623Y010333D02*
X007310Y010333D01*
X007310Y010334D02*
X007622Y010334D01*
X007622Y010335D02*
X007310Y010335D01*
X007310Y010336D02*
X007622Y010336D01*
X007622Y010337D02*
X007310Y010337D01*
X007311Y010338D02*
X007622Y010338D01*
X007621Y010339D02*
X007311Y010339D01*
X007311Y010340D02*
X007621Y010340D01*
X007621Y010341D02*
X007312Y010341D01*
X007312Y010342D02*
X007620Y010342D01*
X007620Y010343D02*
X007312Y010343D01*
X007313Y010344D02*
X007620Y010344D01*
X007619Y010345D02*
X007313Y010345D01*
X007313Y010346D02*
X007619Y010346D01*
X007619Y010347D02*
X007314Y010347D01*
X007314Y010348D02*
X007618Y010348D01*
X007618Y010349D02*
X007314Y010349D01*
X007315Y010350D02*
X007618Y010350D01*
X007617Y010351D02*
X007315Y010351D01*
X007315Y010352D02*
X007617Y010352D01*
X007616Y010353D02*
X007316Y010353D01*
X007316Y010354D02*
X007616Y010354D01*
X007616Y010355D02*
X007317Y010355D01*
X007317Y010356D02*
X007615Y010356D01*
X007615Y010357D02*
X007317Y010357D01*
X007318Y010358D02*
X007615Y010358D01*
X007614Y010359D02*
X007318Y010359D01*
X007318Y010360D02*
X007614Y010360D01*
X007614Y010361D02*
X007319Y010361D01*
X007319Y010362D02*
X007613Y010362D01*
X007613Y010363D02*
X007319Y010363D01*
X007320Y010364D02*
X007613Y010364D01*
X007612Y010365D02*
X007320Y010365D01*
X007320Y010366D02*
X007612Y010366D01*
X007612Y010367D02*
X007321Y010367D01*
X007321Y010368D02*
X007611Y010368D01*
X007611Y010369D02*
X007321Y010369D01*
X007322Y010370D02*
X007611Y010370D01*
X007610Y010371D02*
X007322Y010371D01*
X007323Y010372D02*
X007609Y010372D01*
X007609Y010373D02*
X007323Y010373D01*
X007324Y010374D02*
X007608Y010374D01*
X007608Y010375D02*
X007325Y010375D01*
X007325Y010376D02*
X007607Y010376D01*
X007606Y010377D02*
X007326Y010377D01*
X007327Y010378D02*
X007606Y010378D01*
X007605Y010379D02*
X007327Y010379D01*
X007328Y010380D02*
X007604Y010380D01*
X007604Y010381D02*
X007328Y010381D01*
X007329Y010382D02*
X007603Y010382D01*
X007603Y010383D02*
X007330Y010383D01*
X007330Y010384D02*
X007602Y010384D01*
X007601Y010385D02*
X007331Y010385D01*
X007332Y010386D02*
X007601Y010386D01*
X007600Y010387D02*
X007332Y010387D01*
X007333Y010388D02*
X007599Y010388D01*
X007599Y010389D02*
X007334Y010389D01*
X007334Y010390D02*
X007598Y010390D01*
X007598Y010391D02*
X007335Y010391D01*
X007335Y010392D02*
X007597Y010392D01*
X007596Y010393D02*
X007336Y010393D01*
X007337Y010394D02*
X007596Y010394D01*
X007595Y010395D02*
X007337Y010395D01*
X007338Y010396D02*
X007594Y010396D01*
X007594Y010397D02*
X007339Y010397D01*
X007339Y010398D02*
X007593Y010398D01*
X007592Y010399D02*
X007340Y010399D01*
X007340Y010400D02*
X007592Y010400D01*
X007591Y010401D02*
X007341Y010401D01*
X007342Y010402D02*
X007590Y010402D01*
X007589Y010403D02*
X007343Y010403D01*
X007344Y010404D02*
X007588Y010404D01*
X007587Y010405D02*
X007345Y010405D01*
X007346Y010406D02*
X007586Y010406D01*
X007585Y010407D02*
X007347Y010407D01*
X007348Y010408D02*
X007584Y010408D01*
X007583Y010409D02*
X007349Y010409D01*
X007350Y010410D02*
X007582Y010410D01*
X007581Y010411D02*
X007351Y010411D01*
X007352Y010412D02*
X007580Y010412D01*
X007579Y010413D02*
X007353Y010413D01*
X007354Y010414D02*
X007578Y010414D01*
X007577Y010415D02*
X007355Y010415D01*
X007356Y010416D02*
X007576Y010416D01*
X007575Y010417D02*
X007357Y010417D01*
X007358Y010418D02*
X007574Y010418D01*
X007573Y010419D02*
X007359Y010419D01*
X007360Y010420D02*
X007572Y010420D01*
X007571Y010421D02*
X007361Y010421D01*
X007362Y010422D02*
X007570Y010422D01*
X007569Y010423D02*
X007363Y010423D01*
X007364Y010424D02*
X007568Y010424D01*
X007567Y010425D02*
X007365Y010425D01*
X007366Y010426D02*
X007566Y010426D01*
X007565Y010427D02*
X007367Y010427D01*
X007369Y010428D02*
X007563Y010428D01*
X007562Y010429D02*
X007371Y010429D01*
X007372Y010430D02*
X007560Y010430D01*
X007559Y010431D02*
X007374Y010431D01*
X007375Y010432D02*
X007557Y010432D01*
X007555Y010433D02*
X007377Y010433D01*
X007379Y010434D02*
X007554Y010434D01*
X007552Y010435D02*
X007380Y010435D01*
X007382Y010436D02*
X007551Y010436D01*
X007549Y010437D02*
X007383Y010437D01*
X007385Y010438D02*
X007547Y010438D01*
X007546Y010439D02*
X007386Y010439D01*
X007388Y010440D02*
X007544Y010440D01*
X007543Y010441D02*
X007390Y010441D01*
X007391Y010442D02*
X007541Y010442D01*
X007539Y010443D02*
X007393Y010443D01*
X007394Y010444D02*
X007538Y010444D01*
X007536Y010445D02*
X007396Y010445D01*
X007398Y010446D02*
X007534Y010446D01*
X007531Y010447D02*
X007401Y010447D01*
X007404Y010448D02*
X007528Y010448D01*
X007525Y010449D02*
X007407Y010449D01*
X007410Y010450D02*
X007523Y010450D01*
X007520Y010451D02*
X007413Y010451D01*
X007415Y010452D02*
X007517Y010452D01*
X007514Y010453D02*
X007418Y010453D01*
X007421Y010454D02*
X007511Y010454D01*
X007508Y010455D02*
X007424Y010455D01*
X007427Y010456D02*
X007505Y010456D01*
X007503Y010457D02*
X007430Y010457D01*
X007437Y010458D02*
X007495Y010458D01*
X007487Y010459D02*
X007446Y010459D01*
X007455Y010460D02*
X007478Y010460D01*
X007469Y010461D02*
X007463Y010461D01*
M02*
