G75*
%MOIN*%
%OFA0B0*%
%FSLAX24Y24*%
%IPPOS*%
%LPD*%
%AMOC8*
5,1,8,0,0,1.08239X$1,22.5*
%
%ADD10C,0.0520*%
%ADD11OC8,0.0520*%
%ADD12C,0.0594*%
%ADD13C,0.0740*%
%ADD14OC8,0.0515*%
%ADD15C,0.0515*%
%ADD16C,0.0000*%
%ADD17C,0.0800*%
%ADD18OC8,0.0740*%
%ADD19R,0.0740X0.0740*%
%ADD20OC8,0.0660*%
%ADD21C,0.0120*%
%ADD22C,0.0240*%
%ADD23C,0.0160*%
D10*
X013166Y012301D02*
X013166Y012821D01*
X014166Y012821D02*
X014166Y012301D01*
X015166Y012301D02*
X015166Y012821D01*
X016166Y012821D02*
X016166Y012301D01*
X017166Y012301D02*
X017166Y012821D01*
X018166Y012821D02*
X018166Y012301D01*
X019166Y012301D02*
X019166Y012821D01*
X020166Y012821D02*
X020166Y012301D01*
X019666Y014301D02*
X019666Y014821D01*
X018666Y014821D02*
X018666Y014301D01*
X017666Y014301D02*
X017666Y014821D01*
X016666Y014821D02*
X016666Y014301D01*
X015666Y014301D02*
X015666Y014821D01*
X014666Y014821D02*
X014666Y014301D01*
X013666Y014301D02*
X013666Y014821D01*
X012666Y014821D02*
X012666Y014301D01*
X011666Y014301D02*
X011666Y014821D01*
X010666Y014821D02*
X010666Y014301D01*
X010666Y017301D02*
X010666Y017821D01*
X011666Y017821D02*
X011666Y017301D01*
X012666Y017301D02*
X012666Y017821D01*
X013666Y017821D02*
X013666Y017301D01*
X014666Y017301D02*
X014666Y017821D01*
X015666Y017821D02*
X015666Y017301D01*
X016666Y017301D02*
X016666Y017821D01*
X017666Y017821D02*
X017666Y017301D01*
X018666Y017301D02*
X018666Y017821D01*
X019666Y017821D02*
X019666Y017301D01*
X022666Y016821D02*
X022666Y016301D01*
X023666Y016301D02*
X023666Y016821D01*
X024666Y016821D02*
X024666Y016301D01*
X025666Y016301D02*
X025666Y016821D01*
X026666Y016821D02*
X026666Y016301D01*
X027666Y016301D02*
X027666Y016821D01*
X028666Y016821D02*
X028666Y016301D01*
X029666Y016301D02*
X029666Y016821D01*
X030666Y016821D02*
X030666Y016301D01*
X030666Y019301D02*
X030666Y019821D01*
X029666Y019821D02*
X029666Y019301D01*
X028666Y019301D02*
X028666Y019821D01*
X027666Y019821D02*
X027666Y019301D01*
X026666Y019301D02*
X026666Y019821D01*
X025666Y019821D02*
X025666Y019301D01*
X024666Y019301D02*
X024666Y019821D01*
X023666Y019821D02*
X023666Y019301D01*
X022666Y019301D02*
X022666Y019821D01*
X024666Y010321D02*
X024666Y009801D01*
X025666Y009801D02*
X025666Y010321D01*
X026666Y010321D02*
X026666Y009801D01*
X027666Y009801D02*
X027666Y010321D01*
X027666Y007321D02*
X027666Y006801D01*
X026666Y006801D02*
X026666Y007321D01*
X025666Y007321D02*
X025666Y006801D01*
X024666Y006801D02*
X024666Y007321D01*
D11*
X024666Y005561D03*
X025666Y005561D03*
X020666Y007061D03*
X020166Y007561D03*
X020666Y008061D03*
X018666Y008061D03*
X018166Y007561D03*
X018666Y007061D03*
X016666Y007061D03*
X016166Y007561D03*
X016666Y008061D03*
X014666Y008061D03*
X014166Y007561D03*
X014666Y007061D03*
X015666Y009561D03*
X015166Y010061D03*
X015666Y010561D03*
X017166Y010061D03*
X017666Y009561D03*
X019166Y010061D03*
X019666Y009561D03*
X019666Y010561D03*
X017666Y010561D03*
X023166Y011561D03*
X024166Y011561D03*
X025666Y011561D03*
X026666Y011561D03*
X028166Y011561D03*
X029166Y011561D03*
X022166Y014561D03*
X021166Y014561D03*
D12*
X031883Y012130D02*
X031883Y011536D01*
X032491Y011006D02*
X033085Y011006D01*
X035544Y011224D02*
X035544Y010631D01*
X032394Y008586D02*
X032394Y007993D01*
X032394Y013993D02*
X032394Y014586D01*
X035544Y016631D02*
X035544Y017224D01*
X033085Y017006D02*
X032491Y017006D01*
X031883Y017536D02*
X031883Y018130D01*
D13*
X030666Y021061D03*
X029666Y021061D03*
X028666Y021061D03*
X027666Y021061D03*
X026666Y021061D03*
X025666Y021061D03*
X024666Y021061D03*
X023666Y021061D03*
X022666Y021061D03*
X021666Y021061D03*
X026166Y015061D03*
X026166Y013561D03*
X030166Y013561D03*
X030166Y015061D03*
X030666Y010061D03*
X029166Y010061D03*
X023166Y009561D03*
X029166Y006061D03*
X030666Y006061D03*
X023166Y005561D03*
X020666Y005061D03*
X019666Y005061D03*
X018666Y005061D03*
X017666Y005061D03*
X016666Y005061D03*
X015666Y005061D03*
X014666Y005061D03*
X008666Y012061D03*
X006666Y013561D03*
X006666Y014561D03*
X006666Y015561D03*
X008666Y016061D03*
X009166Y017561D03*
X009166Y021561D03*
D14*
X011166Y019923D03*
X016666Y019923D03*
D15*
X017666Y019923D03*
X018666Y019923D03*
X013166Y019923D03*
X012166Y019923D03*
D16*
X006993Y003416D02*
X035339Y003416D01*
X034709Y004990D02*
X034711Y005040D01*
X034717Y005090D01*
X034727Y005139D01*
X034741Y005187D01*
X034758Y005234D01*
X034779Y005279D01*
X034804Y005323D01*
X034832Y005364D01*
X034864Y005403D01*
X034898Y005440D01*
X034935Y005474D01*
X034975Y005504D01*
X035017Y005531D01*
X035061Y005555D01*
X035107Y005576D01*
X035154Y005592D01*
X035202Y005605D01*
X035252Y005614D01*
X035301Y005619D01*
X035352Y005620D01*
X035402Y005617D01*
X035451Y005610D01*
X035500Y005599D01*
X035548Y005584D01*
X035594Y005566D01*
X035639Y005544D01*
X035682Y005518D01*
X035723Y005489D01*
X035762Y005457D01*
X035798Y005422D01*
X035830Y005384D01*
X035860Y005344D01*
X035887Y005301D01*
X035910Y005257D01*
X035929Y005211D01*
X035945Y005163D01*
X035957Y005114D01*
X035965Y005065D01*
X035969Y005015D01*
X035969Y004965D01*
X035965Y004915D01*
X035957Y004866D01*
X035945Y004817D01*
X035929Y004769D01*
X035910Y004723D01*
X035887Y004679D01*
X035860Y004636D01*
X035830Y004596D01*
X035798Y004558D01*
X035762Y004523D01*
X035723Y004491D01*
X035682Y004462D01*
X035639Y004436D01*
X035594Y004414D01*
X035548Y004396D01*
X035500Y004381D01*
X035451Y004370D01*
X035402Y004363D01*
X035352Y004360D01*
X035301Y004361D01*
X035252Y004366D01*
X035202Y004375D01*
X035154Y004388D01*
X035107Y004404D01*
X035061Y004425D01*
X035017Y004449D01*
X034975Y004476D01*
X034935Y004506D01*
X034898Y004540D01*
X034864Y004577D01*
X034832Y004616D01*
X034804Y004657D01*
X034779Y004701D01*
X034758Y004746D01*
X034741Y004793D01*
X034727Y004841D01*
X034717Y004890D01*
X034711Y004940D01*
X034709Y004990D01*
X035339Y003415D02*
X035416Y003417D01*
X035493Y003423D01*
X035570Y003432D01*
X035646Y003445D01*
X035722Y003462D01*
X035796Y003483D01*
X035870Y003507D01*
X035942Y003535D01*
X036012Y003566D01*
X036081Y003601D01*
X036149Y003639D01*
X036214Y003680D01*
X036277Y003725D01*
X036338Y003773D01*
X036397Y003823D01*
X036453Y003876D01*
X036506Y003932D01*
X036556Y003991D01*
X036604Y004052D01*
X036649Y004115D01*
X036690Y004180D01*
X036728Y004248D01*
X036763Y004317D01*
X036794Y004387D01*
X036822Y004459D01*
X036846Y004533D01*
X036867Y004607D01*
X036884Y004683D01*
X036897Y004759D01*
X036906Y004836D01*
X036912Y004913D01*
X036914Y004990D01*
X036914Y021132D01*
X034709Y021132D02*
X034711Y021182D01*
X034717Y021232D01*
X034727Y021281D01*
X034741Y021329D01*
X034758Y021376D01*
X034779Y021421D01*
X034804Y021465D01*
X034832Y021506D01*
X034864Y021545D01*
X034898Y021582D01*
X034935Y021616D01*
X034975Y021646D01*
X035017Y021673D01*
X035061Y021697D01*
X035107Y021718D01*
X035154Y021734D01*
X035202Y021747D01*
X035252Y021756D01*
X035301Y021761D01*
X035352Y021762D01*
X035402Y021759D01*
X035451Y021752D01*
X035500Y021741D01*
X035548Y021726D01*
X035594Y021708D01*
X035639Y021686D01*
X035682Y021660D01*
X035723Y021631D01*
X035762Y021599D01*
X035798Y021564D01*
X035830Y021526D01*
X035860Y021486D01*
X035887Y021443D01*
X035910Y021399D01*
X035929Y021353D01*
X035945Y021305D01*
X035957Y021256D01*
X035965Y021207D01*
X035969Y021157D01*
X035969Y021107D01*
X035965Y021057D01*
X035957Y021008D01*
X035945Y020959D01*
X035929Y020911D01*
X035910Y020865D01*
X035887Y020821D01*
X035860Y020778D01*
X035830Y020738D01*
X035798Y020700D01*
X035762Y020665D01*
X035723Y020633D01*
X035682Y020604D01*
X035639Y020578D01*
X035594Y020556D01*
X035548Y020538D01*
X035500Y020523D01*
X035451Y020512D01*
X035402Y020505D01*
X035352Y020502D01*
X035301Y020503D01*
X035252Y020508D01*
X035202Y020517D01*
X035154Y020530D01*
X035107Y020546D01*
X035061Y020567D01*
X035017Y020591D01*
X034975Y020618D01*
X034935Y020648D01*
X034898Y020682D01*
X034864Y020719D01*
X034832Y020758D01*
X034804Y020799D01*
X034779Y020843D01*
X034758Y020888D01*
X034741Y020935D01*
X034727Y020983D01*
X034717Y021032D01*
X034711Y021082D01*
X034709Y021132D01*
X035339Y022707D02*
X035416Y022705D01*
X035493Y022699D01*
X035570Y022690D01*
X035646Y022677D01*
X035722Y022660D01*
X035796Y022639D01*
X035870Y022615D01*
X035942Y022587D01*
X036012Y022556D01*
X036081Y022521D01*
X036149Y022483D01*
X036214Y022442D01*
X036277Y022397D01*
X036338Y022349D01*
X036397Y022299D01*
X036453Y022246D01*
X036506Y022190D01*
X036556Y022131D01*
X036604Y022070D01*
X036649Y022007D01*
X036690Y021942D01*
X036728Y021874D01*
X036763Y021805D01*
X036794Y021735D01*
X036822Y021663D01*
X036846Y021589D01*
X036867Y021515D01*
X036884Y021439D01*
X036897Y021363D01*
X036906Y021286D01*
X036912Y021209D01*
X036914Y021132D01*
X035339Y022707D02*
X006993Y022707D01*
X006363Y021132D02*
X006365Y021182D01*
X006371Y021232D01*
X006381Y021281D01*
X006395Y021329D01*
X006412Y021376D01*
X006433Y021421D01*
X006458Y021465D01*
X006486Y021506D01*
X006518Y021545D01*
X006552Y021582D01*
X006589Y021616D01*
X006629Y021646D01*
X006671Y021673D01*
X006715Y021697D01*
X006761Y021718D01*
X006808Y021734D01*
X006856Y021747D01*
X006906Y021756D01*
X006955Y021761D01*
X007006Y021762D01*
X007056Y021759D01*
X007105Y021752D01*
X007154Y021741D01*
X007202Y021726D01*
X007248Y021708D01*
X007293Y021686D01*
X007336Y021660D01*
X007377Y021631D01*
X007416Y021599D01*
X007452Y021564D01*
X007484Y021526D01*
X007514Y021486D01*
X007541Y021443D01*
X007564Y021399D01*
X007583Y021353D01*
X007599Y021305D01*
X007611Y021256D01*
X007619Y021207D01*
X007623Y021157D01*
X007623Y021107D01*
X007619Y021057D01*
X007611Y021008D01*
X007599Y020959D01*
X007583Y020911D01*
X007564Y020865D01*
X007541Y020821D01*
X007514Y020778D01*
X007484Y020738D01*
X007452Y020700D01*
X007416Y020665D01*
X007377Y020633D01*
X007336Y020604D01*
X007293Y020578D01*
X007248Y020556D01*
X007202Y020538D01*
X007154Y020523D01*
X007105Y020512D01*
X007056Y020505D01*
X007006Y020502D01*
X006955Y020503D01*
X006906Y020508D01*
X006856Y020517D01*
X006808Y020530D01*
X006761Y020546D01*
X006715Y020567D01*
X006671Y020591D01*
X006629Y020618D01*
X006589Y020648D01*
X006552Y020682D01*
X006518Y020719D01*
X006486Y020758D01*
X006458Y020799D01*
X006433Y020843D01*
X006412Y020888D01*
X006395Y020935D01*
X006381Y020983D01*
X006371Y021032D01*
X006365Y021082D01*
X006363Y021132D01*
X005418Y021132D02*
X005420Y021209D01*
X005426Y021286D01*
X005435Y021363D01*
X005448Y021439D01*
X005465Y021515D01*
X005486Y021589D01*
X005510Y021663D01*
X005538Y021735D01*
X005569Y021805D01*
X005604Y021874D01*
X005642Y021942D01*
X005683Y022007D01*
X005728Y022070D01*
X005776Y022131D01*
X005826Y022190D01*
X005879Y022246D01*
X005935Y022299D01*
X005994Y022349D01*
X006055Y022397D01*
X006118Y022442D01*
X006183Y022483D01*
X006251Y022521D01*
X006320Y022556D01*
X006390Y022587D01*
X006462Y022615D01*
X006536Y022639D01*
X006610Y022660D01*
X006686Y022677D01*
X006762Y022690D01*
X006839Y022699D01*
X006916Y022705D01*
X006993Y022707D01*
X005418Y021132D02*
X005418Y004990D01*
X006363Y004990D02*
X006365Y005040D01*
X006371Y005090D01*
X006381Y005139D01*
X006395Y005187D01*
X006412Y005234D01*
X006433Y005279D01*
X006458Y005323D01*
X006486Y005364D01*
X006518Y005403D01*
X006552Y005440D01*
X006589Y005474D01*
X006629Y005504D01*
X006671Y005531D01*
X006715Y005555D01*
X006761Y005576D01*
X006808Y005592D01*
X006856Y005605D01*
X006906Y005614D01*
X006955Y005619D01*
X007006Y005620D01*
X007056Y005617D01*
X007105Y005610D01*
X007154Y005599D01*
X007202Y005584D01*
X007248Y005566D01*
X007293Y005544D01*
X007336Y005518D01*
X007377Y005489D01*
X007416Y005457D01*
X007452Y005422D01*
X007484Y005384D01*
X007514Y005344D01*
X007541Y005301D01*
X007564Y005257D01*
X007583Y005211D01*
X007599Y005163D01*
X007611Y005114D01*
X007619Y005065D01*
X007623Y005015D01*
X007623Y004965D01*
X007619Y004915D01*
X007611Y004866D01*
X007599Y004817D01*
X007583Y004769D01*
X007564Y004723D01*
X007541Y004679D01*
X007514Y004636D01*
X007484Y004596D01*
X007452Y004558D01*
X007416Y004523D01*
X007377Y004491D01*
X007336Y004462D01*
X007293Y004436D01*
X007248Y004414D01*
X007202Y004396D01*
X007154Y004381D01*
X007105Y004370D01*
X007056Y004363D01*
X007006Y004360D01*
X006955Y004361D01*
X006906Y004366D01*
X006856Y004375D01*
X006808Y004388D01*
X006761Y004404D01*
X006715Y004425D01*
X006671Y004449D01*
X006629Y004476D01*
X006589Y004506D01*
X006552Y004540D01*
X006518Y004577D01*
X006486Y004616D01*
X006458Y004657D01*
X006433Y004701D01*
X006412Y004746D01*
X006395Y004793D01*
X006381Y004841D01*
X006371Y004890D01*
X006365Y004940D01*
X006363Y004990D01*
X005418Y004990D02*
X005420Y004913D01*
X005426Y004836D01*
X005435Y004759D01*
X005448Y004683D01*
X005465Y004607D01*
X005486Y004533D01*
X005510Y004459D01*
X005538Y004387D01*
X005569Y004317D01*
X005604Y004248D01*
X005642Y004180D01*
X005683Y004115D01*
X005728Y004052D01*
X005776Y003991D01*
X005826Y003932D01*
X005879Y003876D01*
X005935Y003823D01*
X005994Y003773D01*
X006055Y003725D01*
X006118Y003680D01*
X006183Y003639D01*
X006251Y003601D01*
X006320Y003566D01*
X006390Y003535D01*
X006462Y003507D01*
X006536Y003483D01*
X006610Y003462D01*
X006686Y003445D01*
X006762Y003432D01*
X006839Y003423D01*
X006916Y003417D01*
X006993Y003415D01*
D17*
X008266Y007961D02*
X009066Y007961D01*
X009916Y009511D02*
X009916Y010311D01*
X007466Y010311D02*
X007466Y009511D01*
D18*
X010166Y006061D03*
X011166Y006061D03*
X012166Y006061D03*
X012166Y005061D03*
X011166Y005061D03*
X010166Y005061D03*
D19*
X021666Y005061D03*
D20*
X007666Y018561D03*
X006666Y018561D03*
D21*
X007666Y018561D02*
X008166Y018061D01*
X008166Y016561D01*
X008666Y016061D01*
X006666Y015561D02*
X008666Y013561D01*
X008666Y012061D01*
X007666Y012061D02*
X009666Y010061D01*
X009916Y009911D01*
X007666Y012061D02*
X007666Y013561D01*
X006666Y014561D01*
X011666Y016061D02*
X012166Y015561D01*
X012166Y007061D01*
X013166Y006061D01*
X013166Y005061D01*
X012166Y004061D01*
X011166Y004061D01*
X011166Y005061D01*
X011166Y006061D02*
X011166Y018561D01*
X011666Y018561D01*
X012166Y018061D01*
X012166Y016561D01*
X016666Y016561D01*
X018666Y014561D01*
X017666Y014561D02*
X016666Y013561D01*
X016666Y009561D01*
X017166Y010061D02*
X017166Y012561D01*
X018166Y012561D02*
X018166Y007561D01*
X018666Y007061D02*
X018666Y005061D01*
X017666Y005061D02*
X017666Y009561D01*
X019166Y010061D02*
X019166Y012561D01*
X020166Y012561D02*
X020166Y007561D01*
X020666Y007061D02*
X020666Y005061D01*
X019666Y005061D02*
X019666Y009561D01*
X019666Y010561D02*
X019666Y014561D01*
X021166Y014561D01*
X022666Y016561D02*
X021666Y017561D01*
X021666Y021061D01*
X021166Y020561D02*
X021166Y017061D01*
X026166Y012061D01*
X026166Y008561D01*
X027666Y007061D01*
X026666Y007061D02*
X025166Y008561D01*
X025166Y012561D01*
X020666Y017061D01*
X020666Y018061D01*
X018666Y020061D01*
X018666Y019923D01*
X021166Y020561D02*
X015666Y020561D01*
X012666Y017561D01*
X011666Y017561D02*
X011666Y016561D01*
X012666Y015561D01*
X014166Y015561D01*
X014166Y012561D01*
X014166Y007561D01*
X013666Y007061D02*
X013666Y014561D01*
X014666Y014561D02*
X015666Y013561D01*
X015666Y012061D01*
X015166Y012561D02*
X015166Y010061D01*
X015666Y009561D02*
X015666Y005061D01*
X014666Y005061D02*
X014666Y007061D01*
X016166Y007561D02*
X016166Y012561D01*
X016166Y015061D01*
X015666Y015561D01*
X012166Y019923D02*
X012166Y020061D01*
X014166Y022061D01*
X031666Y022061D01*
X031666Y019561D01*
X029666Y017561D01*
X025666Y017561D01*
X025666Y016561D01*
X026166Y015061D02*
X027666Y016561D01*
X028666Y016561D01*
X029666Y016561D02*
X030166Y016061D01*
X030166Y015061D01*
X030166Y013561D01*
X032394Y014290D02*
X032666Y014061D01*
X033666Y013061D01*
X033666Y009561D01*
X032394Y008290D01*
X030666Y006561D01*
X030666Y006061D01*
X029166Y006061D02*
X031666Y008561D01*
X031666Y011561D01*
X031883Y011833D01*
X031666Y012061D01*
X031666Y017561D01*
X031883Y017833D01*
X030666Y019561D02*
X030666Y021061D01*
X029666Y021061D02*
X029666Y019561D01*
X028666Y019561D02*
X028666Y021061D01*
X027666Y021061D02*
X027666Y019561D01*
X026666Y019561D02*
X026666Y021061D01*
X025666Y021061D02*
X025666Y019561D01*
X024666Y019561D02*
X024666Y021061D01*
X023666Y021061D02*
X023666Y019561D01*
X022666Y019561D02*
X022666Y021061D01*
X023166Y011561D02*
X023166Y010061D01*
X024666Y010061D01*
X023166Y010061D02*
X023166Y009561D01*
X020666Y008061D02*
X023166Y005561D01*
X024666Y005561D01*
X024666Y007061D01*
X026666Y010061D02*
X026666Y011561D01*
X028166Y011561D02*
X028166Y010561D01*
X027666Y010061D01*
X029166Y010061D02*
X030666Y010061D01*
X029166Y010061D02*
X029166Y011561D01*
X016666Y007061D02*
X016666Y005061D01*
D22*
X013666Y007061D03*
X016666Y009561D03*
X015666Y012061D03*
X015666Y015561D03*
X011666Y016061D03*
D23*
X010866Y016107D02*
X009276Y016107D01*
X009276Y016183D02*
X009183Y016407D01*
X009012Y016578D01*
X008787Y016671D01*
X008545Y016671D01*
X008499Y016652D01*
X008466Y016686D01*
X008466Y018121D01*
X008420Y018231D01*
X008336Y018316D01*
X008236Y018416D01*
X008236Y018797D01*
X007902Y019131D01*
X007430Y019131D01*
X007124Y018825D01*
X006877Y019071D01*
X006666Y019071D01*
X006455Y019071D01*
X006166Y018783D01*
X006166Y019711D01*
X006954Y019711D01*
X006962Y019708D01*
X007001Y019711D01*
X007041Y019711D01*
X007049Y019714D01*
X007148Y019722D01*
X007165Y019718D01*
X007195Y019725D01*
X007226Y019727D01*
X007241Y019735D01*
X007347Y019758D01*
X007365Y019757D01*
X007393Y019768D01*
X007423Y019775D01*
X007438Y019785D01*
X007539Y019822D01*
X007557Y019824D01*
X007584Y019839D01*
X007612Y019850D01*
X007625Y019862D01*
X007720Y019913D01*
X007737Y019918D01*
X007762Y019936D01*
X007788Y019951D01*
X007799Y019964D01*
X007886Y020029D01*
X007902Y020036D01*
X007924Y020058D01*
X007948Y020076D01*
X007957Y020091D01*
X008034Y020168D01*
X008049Y020177D01*
X008067Y020201D01*
X008089Y020223D01*
X008096Y020239D01*
X008161Y020326D01*
X008174Y020337D01*
X008189Y020364D01*
X008207Y020388D01*
X008212Y020405D01*
X008263Y020500D01*
X008275Y020513D01*
X008286Y020542D01*
X008301Y020568D01*
X008303Y020586D01*
X008341Y020687D01*
X008351Y020702D01*
X008357Y020732D01*
X008368Y020760D01*
X008367Y020778D01*
X008390Y020884D01*
X008398Y020899D01*
X008400Y020930D01*
X008407Y020960D01*
X008404Y020977D01*
X008411Y021076D01*
X008414Y021084D01*
X008414Y021124D01*
X008417Y021163D01*
X008414Y021171D01*
X008414Y022061D01*
X008803Y022061D01*
X008649Y021907D01*
X008556Y021683D01*
X008556Y021440D01*
X008649Y021216D01*
X008821Y021044D01*
X009045Y020951D01*
X009287Y020951D01*
X009512Y021044D01*
X009683Y021216D01*
X009776Y021440D01*
X009776Y021683D01*
X009683Y021907D01*
X009529Y022061D01*
X013742Y022061D01*
X012102Y020421D01*
X012067Y020421D01*
X011884Y020345D01*
X011744Y020205D01*
X011669Y020022D01*
X011669Y019825D01*
X011744Y019642D01*
X011884Y019502D01*
X012067Y019426D01*
X012265Y019426D01*
X012448Y019502D01*
X012588Y019642D01*
X012664Y019825D01*
X012664Y020022D01*
X012631Y020102D01*
X014290Y021761D01*
X031366Y021761D01*
X031366Y019686D01*
X031166Y019486D01*
X031166Y019921D01*
X031090Y020105D01*
X030966Y020228D01*
X031366Y020228D01*
X031366Y020070D02*
X031104Y020070D01*
X031166Y019911D02*
X031366Y019911D01*
X031366Y019753D02*
X031166Y019753D01*
X031166Y019594D02*
X031275Y019594D01*
X031648Y019119D02*
X036166Y019119D01*
X036166Y019277D02*
X031806Y019277D01*
X031836Y019307D02*
X031836Y019307D01*
X029920Y017391D01*
X029920Y017391D01*
X029836Y017307D01*
X029818Y017300D01*
X029949Y017245D01*
X030090Y017105D01*
X030166Y016921D01*
X030166Y016486D01*
X030166Y016486D01*
X030166Y016921D01*
X030242Y017105D01*
X030383Y017245D01*
X030567Y017321D01*
X030766Y017321D01*
X030949Y017245D01*
X031090Y017105D01*
X031166Y016921D01*
X031166Y016202D01*
X031090Y016018D01*
X030949Y015877D01*
X030766Y015801D01*
X030567Y015801D01*
X030466Y015843D01*
X030466Y015597D01*
X030512Y015578D01*
X030683Y015407D01*
X030776Y015183D01*
X030776Y014940D01*
X030683Y014716D01*
X030512Y014544D01*
X030466Y014525D01*
X030466Y014097D01*
X030512Y014078D01*
X030683Y013907D01*
X030776Y013683D01*
X030776Y013440D01*
X030683Y013216D01*
X030512Y013044D01*
X030287Y012951D01*
X030045Y012951D01*
X029821Y013044D01*
X029649Y013216D01*
X029556Y013440D01*
X029556Y013683D01*
X029649Y013907D01*
X029821Y014078D01*
X029866Y014097D01*
X029866Y014525D01*
X029821Y014544D01*
X029649Y014716D01*
X029556Y014940D01*
X029556Y015183D01*
X029649Y015407D01*
X029821Y015578D01*
X029866Y015597D01*
X029866Y015843D01*
X029766Y015801D01*
X029567Y015801D01*
X029383Y015877D01*
X029242Y016018D01*
X029166Y016202D01*
X029166Y016921D01*
X029090Y017105D01*
X028949Y017245D01*
X028910Y017261D01*
X029422Y017261D01*
X029383Y017245D01*
X029242Y017105D01*
X029166Y016921D01*
X029166Y016202D01*
X029090Y016018D01*
X028949Y015877D01*
X028766Y015801D01*
X028567Y015801D01*
X028383Y015877D01*
X028242Y016018D01*
X028166Y016202D01*
X028166Y016261D01*
X028166Y016202D01*
X028090Y016018D01*
X027949Y015877D01*
X027766Y015801D01*
X027567Y015801D01*
X027400Y015870D01*
X026757Y015228D01*
X026776Y015183D01*
X026776Y014940D01*
X026683Y014716D01*
X026512Y014544D01*
X026287Y014451D01*
X026045Y014451D01*
X025821Y014544D01*
X025649Y014716D01*
X025556Y014940D01*
X025556Y015183D01*
X025649Y015407D01*
X025821Y015578D01*
X026045Y015671D01*
X026287Y015671D01*
X026333Y015652D01*
X026507Y015826D01*
X026383Y015877D01*
X026242Y016018D01*
X026166Y016202D01*
X026166Y016921D01*
X026090Y017105D01*
X025966Y017228D01*
X025966Y017261D01*
X026422Y017261D01*
X026383Y017245D01*
X026242Y017105D01*
X026166Y016921D01*
X026166Y016202D01*
X026090Y016018D01*
X025949Y015877D01*
X025766Y015801D01*
X025567Y015801D01*
X025383Y015877D01*
X025242Y016018D01*
X025166Y016202D01*
X025166Y016921D01*
X025090Y017105D01*
X024949Y017245D01*
X024766Y017321D01*
X024567Y017321D01*
X024383Y017245D01*
X024242Y017105D01*
X024166Y016921D01*
X024166Y016202D01*
X024242Y016018D01*
X024383Y015877D01*
X024567Y015801D01*
X024766Y015801D01*
X024949Y015877D01*
X025090Y016018D01*
X025166Y016202D01*
X025166Y016921D01*
X025242Y017105D01*
X025366Y017228D01*
X025366Y017621D01*
X025412Y017731D01*
X025496Y017816D01*
X025606Y017861D01*
X029542Y017861D01*
X030507Y018826D01*
X030383Y018877D01*
X030242Y019018D01*
X030166Y019202D01*
X030166Y019921D01*
X030090Y020105D01*
X029966Y020228D01*
X030366Y020228D01*
X030242Y020105D01*
X030166Y019921D01*
X030166Y019202D01*
X030090Y019018D01*
X029949Y018877D01*
X029766Y018801D01*
X029567Y018801D01*
X029383Y018877D01*
X029242Y019018D01*
X029166Y019202D01*
X029166Y019921D01*
X029090Y020105D01*
X028966Y020228D01*
X029366Y020228D01*
X029242Y020105D01*
X029166Y019921D01*
X029166Y019202D01*
X029090Y019018D01*
X028949Y018877D01*
X028766Y018801D01*
X028567Y018801D01*
X028383Y018877D01*
X028242Y019018D01*
X028166Y019202D01*
X028166Y019921D01*
X028090Y020105D01*
X027966Y020228D01*
X028366Y020228D01*
X028242Y020105D01*
X028166Y019921D01*
X028166Y019202D01*
X028090Y019018D01*
X027949Y018877D01*
X027766Y018801D01*
X027567Y018801D01*
X027383Y018877D01*
X027242Y019018D01*
X027166Y019202D01*
X027166Y019921D01*
X027090Y020105D01*
X026966Y020228D01*
X027366Y020228D01*
X027242Y020105D01*
X027166Y019921D01*
X027166Y019202D01*
X027090Y019018D01*
X026949Y018877D01*
X026766Y018801D01*
X026567Y018801D01*
X026383Y018877D01*
X026242Y019018D01*
X026166Y019202D01*
X026166Y019921D01*
X026090Y020105D01*
X025966Y020228D01*
X026366Y020228D01*
X026242Y020105D01*
X026166Y019921D01*
X026166Y019202D01*
X026090Y019018D01*
X025949Y018877D01*
X025766Y018801D01*
X025567Y018801D01*
X025383Y018877D01*
X025242Y019018D01*
X025166Y019202D01*
X025166Y019921D01*
X025090Y020105D01*
X024966Y020228D01*
X025366Y020228D01*
X025242Y020105D01*
X025166Y019921D01*
X025166Y019202D01*
X025090Y019018D01*
X024949Y018877D01*
X024766Y018801D01*
X024567Y018801D01*
X024383Y018877D01*
X024242Y019018D01*
X024166Y019202D01*
X024166Y019921D01*
X024090Y020105D01*
X023966Y020228D01*
X024366Y020228D01*
X024242Y020105D01*
X024166Y019921D01*
X024166Y019202D01*
X024090Y019018D01*
X023949Y018877D01*
X023766Y018801D01*
X023567Y018801D01*
X023383Y018877D01*
X023242Y019018D01*
X023166Y019202D01*
X023166Y019921D01*
X023090Y020105D01*
X022966Y020228D01*
X023366Y020228D01*
X023242Y020105D01*
X023166Y019921D01*
X023166Y019202D01*
X023090Y019018D01*
X022949Y018877D01*
X022766Y018801D01*
X022567Y018801D01*
X022383Y018877D01*
X022242Y019018D01*
X022166Y019202D01*
X022166Y019921D01*
X022242Y020105D01*
X022366Y020228D01*
X021966Y020228D01*
X021966Y020070D02*
X022228Y020070D01*
X022166Y019911D02*
X021966Y019911D01*
X021966Y019753D02*
X022166Y019753D01*
X022166Y019594D02*
X021966Y019594D01*
X021966Y019436D02*
X022166Y019436D01*
X022166Y019277D02*
X021966Y019277D01*
X021966Y019119D02*
X022201Y019119D01*
X022300Y018960D02*
X021966Y018960D01*
X021966Y018802D02*
X022565Y018802D01*
X022767Y018802D02*
X023565Y018802D01*
X023767Y018802D02*
X024565Y018802D01*
X024767Y018802D02*
X025565Y018802D01*
X025767Y018802D02*
X026565Y018802D01*
X026767Y018802D02*
X027565Y018802D01*
X027767Y018802D02*
X028565Y018802D01*
X028767Y018802D02*
X029565Y018802D01*
X029767Y018802D02*
X030482Y018802D01*
X030324Y018643D02*
X021966Y018643D01*
X021966Y018485D02*
X030165Y018485D01*
X030007Y018326D02*
X021966Y018326D01*
X021966Y018168D02*
X029848Y018168D01*
X029690Y018009D02*
X021966Y018009D01*
X021966Y017851D02*
X025581Y017851D01*
X025396Y017692D02*
X021966Y017692D01*
X021966Y017686D02*
X021966Y020525D01*
X022012Y020544D01*
X022166Y020699D01*
X022321Y020544D01*
X022366Y020525D01*
X022366Y020228D01*
X022366Y020387D02*
X021966Y020387D01*
X022013Y020545D02*
X022319Y020545D01*
X022966Y020525D02*
X022966Y020228D01*
X022966Y020387D02*
X023366Y020387D01*
X023366Y020525D02*
X023366Y020228D01*
X023228Y020070D02*
X023104Y020070D01*
X023166Y019911D02*
X023166Y019911D01*
X023166Y019753D02*
X023166Y019753D01*
X023166Y019594D02*
X023166Y019594D01*
X023166Y019436D02*
X023166Y019436D01*
X023166Y019277D02*
X023166Y019277D01*
X023132Y019119D02*
X023201Y019119D01*
X023300Y018960D02*
X023032Y018960D01*
X024032Y018960D02*
X024300Y018960D01*
X024201Y019119D02*
X024132Y019119D01*
X024166Y019277D02*
X024166Y019277D01*
X024166Y019436D02*
X024166Y019436D01*
X024166Y019594D02*
X024166Y019594D01*
X024166Y019753D02*
X024166Y019753D01*
X024166Y019911D02*
X024166Y019911D01*
X024104Y020070D02*
X024228Y020070D01*
X024366Y020228D02*
X024366Y020525D01*
X024321Y020544D01*
X024166Y020699D01*
X024012Y020544D01*
X023966Y020525D01*
X023966Y020228D01*
X023966Y020387D02*
X024366Y020387D01*
X024319Y020545D02*
X024013Y020545D01*
X023366Y020525D02*
X023321Y020544D01*
X023166Y020699D01*
X023012Y020544D01*
X022966Y020525D01*
X023013Y020545D02*
X023319Y020545D01*
X023166Y021424D02*
X023012Y021578D01*
X022787Y021671D01*
X022545Y021671D01*
X022321Y021578D01*
X022166Y021424D01*
X022012Y021578D01*
X021787Y021671D01*
X021545Y021671D01*
X021321Y021578D01*
X021149Y021407D01*
X021056Y021183D01*
X021056Y020940D01*
X021089Y020861D01*
X015606Y020861D01*
X015496Y020816D01*
X015412Y020731D01*
X012933Y018252D01*
X012766Y018321D01*
X012567Y018321D01*
X012400Y018252D01*
X011920Y018731D01*
X011836Y018816D01*
X011726Y018861D01*
X011106Y018861D01*
X010996Y018816D01*
X010912Y018731D01*
X010866Y018621D01*
X010866Y018213D01*
X010835Y018229D01*
X010769Y018250D01*
X010701Y018261D01*
X010666Y018261D01*
X010632Y018261D01*
X010563Y018250D01*
X010497Y018229D01*
X010436Y018198D01*
X010380Y018157D01*
X010331Y018108D01*
X010290Y018052D01*
X010258Y017990D01*
X010237Y017924D01*
X010226Y017856D01*
X010226Y017561D01*
X010226Y017267D01*
X010237Y017198D01*
X010258Y017132D01*
X010290Y017071D01*
X010331Y017015D01*
X010380Y016966D01*
X010436Y016925D01*
X010497Y016894D01*
X010563Y016872D01*
X010632Y016861D01*
X010666Y016861D01*
X010666Y017561D01*
X010666Y017561D01*
X010226Y017561D01*
X010666Y017561D01*
X010666Y017561D01*
X010666Y016861D01*
X010701Y016861D01*
X010769Y016872D01*
X010835Y016894D01*
X010866Y016909D01*
X010866Y015280D01*
X010766Y015321D01*
X010567Y015321D01*
X010383Y015245D01*
X010242Y015105D01*
X010166Y014921D01*
X010166Y014202D01*
X010242Y014018D01*
X010383Y013877D01*
X010567Y013801D01*
X010766Y013801D01*
X010866Y013843D01*
X010866Y006624D01*
X010666Y006424D01*
X010419Y006671D01*
X009913Y006671D01*
X009556Y006314D01*
X009556Y005809D01*
X009846Y005519D01*
X009616Y005289D01*
X009616Y005081D01*
X010146Y005081D01*
X010146Y005041D01*
X010186Y005041D01*
X010186Y004511D01*
X010394Y004511D01*
X010624Y004741D01*
X010866Y004499D01*
X010866Y004061D01*
X008414Y004061D01*
X008414Y004952D01*
X008417Y004960D01*
X008414Y004999D01*
X008414Y005038D01*
X008411Y005046D01*
X008404Y005146D01*
X008407Y005163D01*
X008400Y005193D01*
X008398Y005223D01*
X008390Y005239D01*
X008367Y005345D01*
X008368Y005362D01*
X008357Y005391D01*
X008351Y005421D01*
X008341Y005435D01*
X008303Y005537D01*
X008301Y005554D01*
X008286Y005581D01*
X008275Y005610D01*
X008263Y005623D01*
X008212Y005718D01*
X008207Y005735D01*
X008189Y005759D01*
X008174Y005786D01*
X008161Y005797D01*
X008096Y005884D01*
X008089Y005900D01*
X008067Y005921D01*
X008049Y005946D01*
X008034Y005955D01*
X007957Y006031D01*
X007948Y006047D01*
X007924Y006065D01*
X007902Y006086D01*
X007886Y006093D01*
X007799Y006158D01*
X007788Y006172D01*
X007762Y006186D01*
X007737Y006205D01*
X007720Y006209D01*
X007625Y006261D01*
X007612Y006273D01*
X007584Y006284D01*
X007557Y006298D01*
X007539Y006300D01*
X007438Y006338D01*
X007423Y006348D01*
X007393Y006355D01*
X007365Y006365D01*
X007347Y006365D01*
X007241Y006388D01*
X007226Y006395D01*
X007195Y006398D01*
X007165Y006404D01*
X007148Y006401D01*
X007049Y006408D01*
X007041Y006412D01*
X007001Y006412D01*
X006962Y006414D01*
X006954Y006412D01*
X006166Y006412D01*
X006166Y013199D01*
X006321Y013044D01*
X006545Y012951D01*
X006787Y012951D01*
X007012Y013044D01*
X007183Y013216D01*
X007276Y013440D01*
X007276Y013527D01*
X007366Y013437D01*
X007366Y012002D01*
X007412Y011891D01*
X009276Y010027D01*
X009276Y009384D01*
X009374Y009149D01*
X009554Y008969D01*
X009789Y008871D01*
X010043Y008871D01*
X010279Y008969D01*
X010459Y009149D01*
X010556Y009384D01*
X010556Y010439D01*
X010459Y010674D01*
X010279Y010854D01*
X010043Y010951D01*
X009789Y010951D01*
X009554Y010854D01*
X009426Y010726D01*
X008700Y011451D01*
X008787Y011451D01*
X009012Y011544D01*
X009183Y011716D01*
X009276Y011940D01*
X009276Y012183D01*
X009183Y012407D01*
X009012Y012578D01*
X008966Y012597D01*
X008966Y013621D01*
X008920Y013731D01*
X008836Y013816D01*
X007257Y015394D01*
X007276Y015440D01*
X007276Y015683D01*
X007183Y015907D01*
X007012Y016078D01*
X006787Y016171D01*
X006545Y016171D01*
X006321Y016078D01*
X006166Y015924D01*
X006166Y018340D01*
X006455Y018051D01*
X006666Y018051D01*
X006666Y018561D01*
X006666Y018561D01*
X006666Y018051D01*
X006877Y018051D01*
X007124Y018298D01*
X007430Y017991D01*
X007812Y017991D01*
X007866Y017937D01*
X007866Y016502D01*
X007912Y016391D01*
X008075Y016228D01*
X008056Y016183D01*
X008056Y015940D01*
X008149Y015716D01*
X008321Y015544D01*
X008545Y015451D01*
X008787Y015451D01*
X009012Y015544D01*
X009183Y015716D01*
X009276Y015940D01*
X009276Y016183D01*
X009242Y016266D02*
X010866Y016266D01*
X010866Y016424D02*
X009166Y016424D01*
X009001Y016583D02*
X010866Y016583D01*
X010866Y016741D02*
X008466Y016741D01*
X008466Y016900D02*
X010485Y016900D01*
X010666Y016900D02*
X010666Y016900D01*
X010666Y017058D02*
X010666Y017058D01*
X010666Y017217D02*
X010666Y017217D01*
X010666Y017375D02*
X010666Y017375D01*
X010666Y017534D02*
X010666Y017534D01*
X010666Y017561D02*
X010866Y017561D01*
X010866Y017561D01*
X010666Y017561D01*
X010666Y017561D01*
X010666Y018261D01*
X010666Y017561D01*
X010666Y017561D01*
X010666Y017692D02*
X010666Y017692D01*
X010666Y017851D02*
X010666Y017851D01*
X010666Y018009D02*
X010666Y018009D01*
X010666Y018168D02*
X010666Y018168D01*
X010866Y018326D02*
X008325Y018326D01*
X008236Y018485D02*
X010866Y018485D01*
X010875Y018643D02*
X008236Y018643D01*
X008232Y018802D02*
X010982Y018802D01*
X010960Y019426D02*
X011372Y019426D01*
X011664Y019717D01*
X011664Y020130D01*
X011372Y020421D01*
X010960Y020421D01*
X010669Y020130D01*
X010669Y019717D01*
X010960Y019426D01*
X010950Y019436D02*
X006166Y019436D01*
X006166Y019594D02*
X010792Y019594D01*
X010669Y019753D02*
X007324Y019753D01*
X007716Y019911D02*
X010669Y019911D01*
X010669Y020070D02*
X007940Y020070D01*
X008091Y020228D02*
X010767Y020228D01*
X010926Y020387D02*
X008206Y020387D01*
X008288Y020545D02*
X012226Y020545D01*
X012384Y020704D02*
X008351Y020704D01*
X008385Y020862D02*
X012543Y020862D01*
X012701Y021021D02*
X009455Y021021D01*
X009647Y021179D02*
X012860Y021179D01*
X013018Y021338D02*
X009734Y021338D01*
X009776Y021496D02*
X013177Y021496D01*
X013335Y021655D02*
X009776Y021655D01*
X009722Y021813D02*
X013494Y021813D01*
X013652Y021972D02*
X009618Y021972D01*
X008714Y021972D02*
X008414Y021972D01*
X008414Y021813D02*
X008610Y021813D01*
X008556Y021655D02*
X008414Y021655D01*
X008414Y021496D02*
X008556Y021496D01*
X008598Y021338D02*
X008414Y021338D01*
X008414Y021179D02*
X008685Y021179D01*
X008877Y021021D02*
X008407Y021021D01*
X006166Y019277D02*
X013958Y019277D01*
X013799Y019119D02*
X007915Y019119D01*
X008073Y018960D02*
X013641Y018960D01*
X013482Y018802D02*
X011850Y018802D01*
X012008Y018643D02*
X013324Y018643D01*
X013165Y018485D02*
X012167Y018485D01*
X012325Y018326D02*
X013007Y018326D01*
X013826Y018296D02*
X015790Y020261D01*
X016385Y020261D01*
X016229Y020105D01*
X016229Y019923D01*
X016229Y019742D01*
X016485Y019486D01*
X016666Y019486D01*
X016666Y019923D01*
X016666Y019923D01*
X016666Y019486D01*
X016847Y019486D01*
X017104Y019742D01*
X017104Y019923D01*
X016666Y019923D01*
X016229Y019923D01*
X016666Y019923D01*
X016666Y019923D01*
X016666Y019923D01*
X017104Y019923D01*
X017104Y020105D01*
X016947Y020261D01*
X017300Y020261D01*
X017244Y020205D01*
X017169Y020022D01*
X017169Y019825D01*
X017244Y019642D01*
X017384Y019502D01*
X017567Y019426D01*
X017765Y019426D01*
X017948Y019502D01*
X018088Y019642D01*
X018164Y019825D01*
X018164Y020022D01*
X018088Y020205D01*
X018032Y020261D01*
X018300Y020261D01*
X018244Y020205D01*
X018169Y020022D01*
X018169Y019825D01*
X018244Y019642D01*
X018384Y019502D01*
X018567Y019426D01*
X018765Y019426D01*
X018844Y019459D01*
X020366Y017937D01*
X020366Y017002D01*
X020412Y016891D01*
X022302Y015001D01*
X022166Y015001D01*
X021984Y015001D01*
X021726Y014744D01*
X021726Y014561D01*
X021726Y014379D01*
X021984Y014121D01*
X022166Y014121D01*
X022166Y014561D01*
X022166Y014561D01*
X021726Y014561D01*
X022166Y014561D01*
X022166Y014561D01*
X022166Y014121D01*
X022348Y014121D01*
X022606Y014379D01*
X022606Y014561D01*
X022166Y014561D01*
X022166Y014561D01*
X022166Y015001D01*
X022166Y014561D01*
X022166Y014561D01*
X022606Y014561D01*
X022606Y014697D01*
X024866Y012437D01*
X024866Y010780D01*
X024766Y010821D01*
X024567Y010821D01*
X024383Y010745D01*
X024242Y010605D01*
X024166Y010421D01*
X024166Y010361D01*
X023466Y010361D01*
X023466Y011154D01*
X023666Y011354D01*
X023666Y011768D01*
X023373Y012061D01*
X022959Y012061D01*
X022666Y011768D01*
X022666Y011354D01*
X022866Y011154D01*
X022866Y010097D01*
X022821Y010078D01*
X022649Y009907D01*
X022556Y009683D01*
X022556Y009440D01*
X022649Y009216D01*
X022821Y009044D01*
X023045Y008951D01*
X023287Y008951D01*
X023512Y009044D01*
X023683Y009216D01*
X023776Y009440D01*
X023776Y009683D01*
X023744Y009761D01*
X024166Y009761D01*
X024166Y009702D01*
X024242Y009518D01*
X024383Y009377D01*
X024567Y009301D01*
X024766Y009301D01*
X024866Y009343D01*
X024866Y008502D01*
X024912Y008391D01*
X025555Y007748D01*
X025497Y007729D01*
X025436Y007698D01*
X025380Y007657D01*
X025331Y007608D01*
X025290Y007552D01*
X025258Y007490D01*
X025237Y007424D01*
X025226Y007356D01*
X025226Y007061D01*
X025226Y006767D01*
X025237Y006698D01*
X025258Y006632D01*
X025290Y006571D01*
X025331Y006515D01*
X025380Y006466D01*
X025436Y006425D01*
X025497Y006394D01*
X025563Y006372D01*
X025632Y006361D01*
X025666Y006361D01*
X025666Y007061D01*
X025666Y007061D01*
X025226Y007061D01*
X025666Y007061D01*
X025666Y007061D01*
X025666Y006361D01*
X025701Y006361D01*
X025769Y006372D01*
X025835Y006394D01*
X025897Y006425D01*
X025953Y006466D01*
X026002Y006515D01*
X026042Y006571D01*
X026074Y006632D01*
X026095Y006698D01*
X026106Y006767D01*
X026106Y007061D01*
X025666Y007061D01*
X025666Y007061D01*
X026106Y007061D01*
X026106Y007197D01*
X026166Y007137D01*
X026166Y006702D01*
X026242Y006518D01*
X026383Y006377D01*
X026567Y006301D01*
X026766Y006301D01*
X026949Y006377D01*
X027090Y006518D01*
X027166Y006702D01*
X027166Y007137D01*
X027166Y007137D01*
X027166Y006702D01*
X027242Y006518D01*
X027383Y006377D01*
X027567Y006301D01*
X027766Y006301D01*
X027949Y006377D01*
X028090Y006518D01*
X028166Y006702D01*
X028166Y007421D01*
X028090Y007605D01*
X027949Y007745D01*
X027766Y007821D01*
X027567Y007821D01*
X027400Y007752D01*
X026466Y008686D01*
X026466Y009343D01*
X026567Y009301D01*
X026766Y009301D01*
X026949Y009377D01*
X027090Y009518D01*
X027166Y009702D01*
X027166Y010421D01*
X027090Y010605D01*
X026966Y010728D01*
X026966Y011154D01*
X027166Y011354D01*
X027166Y011768D01*
X026873Y012061D01*
X026466Y012061D01*
X026466Y012121D01*
X026420Y012231D01*
X026336Y012316D01*
X022826Y015826D01*
X022949Y015877D01*
X023090Y016018D01*
X023166Y016202D01*
X023166Y016921D01*
X023090Y017105D01*
X022949Y017245D01*
X022766Y017321D01*
X022567Y017321D01*
X022400Y017252D01*
X021966Y017686D01*
X022118Y017534D02*
X025366Y017534D01*
X025366Y017375D02*
X022276Y017375D01*
X022978Y017217D02*
X023473Y017217D01*
X023497Y017229D02*
X023436Y017198D01*
X023380Y017157D01*
X023331Y017108D01*
X023290Y017052D01*
X023258Y016990D01*
X023237Y016924D01*
X023226Y016856D01*
X023226Y016561D01*
X023226Y016267D01*
X023237Y016198D01*
X023258Y016132D01*
X023290Y016071D01*
X023331Y016015D01*
X023380Y015966D01*
X023436Y015925D01*
X023497Y015894D01*
X023563Y015872D01*
X023632Y015861D01*
X023666Y015861D01*
X023666Y016561D01*
X023666Y016561D01*
X023226Y016561D01*
X023666Y016561D01*
X023666Y016561D01*
X023666Y015861D01*
X023701Y015861D01*
X023769Y015872D01*
X023835Y015894D01*
X023897Y015925D01*
X023953Y015966D01*
X024002Y016015D01*
X024042Y016071D01*
X024074Y016132D01*
X024095Y016198D01*
X024106Y016267D01*
X024106Y016561D01*
X023666Y016561D01*
X023666Y016561D01*
X023666Y017261D01*
X023632Y017261D01*
X023563Y017250D01*
X023497Y017229D01*
X023666Y017217D02*
X023666Y017217D01*
X023666Y017261D02*
X023666Y016561D01*
X023666Y016561D01*
X024106Y016561D01*
X024106Y016856D01*
X024095Y016924D01*
X024074Y016990D01*
X024042Y017052D01*
X024002Y017108D01*
X023953Y017157D01*
X023897Y017198D01*
X023835Y017229D01*
X023769Y017250D01*
X023701Y017261D01*
X023666Y017261D01*
X023859Y017217D02*
X024355Y017217D01*
X024223Y017058D02*
X024038Y017058D01*
X024099Y016900D02*
X024166Y016900D01*
X024166Y016741D02*
X024106Y016741D01*
X024106Y016583D02*
X024166Y016583D01*
X024166Y016424D02*
X024106Y016424D01*
X024106Y016266D02*
X024166Y016266D01*
X024205Y016107D02*
X024061Y016107D01*
X023930Y015949D02*
X024312Y015949D01*
X025021Y015949D02*
X025312Y015949D01*
X025205Y016107D02*
X025127Y016107D01*
X025166Y016266D02*
X025166Y016266D01*
X025166Y016424D02*
X025166Y016424D01*
X025166Y016583D02*
X025166Y016583D01*
X025166Y016741D02*
X025166Y016741D01*
X025166Y016900D02*
X025166Y016900D01*
X025109Y017058D02*
X025223Y017058D01*
X025355Y017217D02*
X024978Y017217D01*
X025978Y017217D02*
X026355Y017217D01*
X026223Y017058D02*
X026109Y017058D01*
X026166Y016900D02*
X026166Y016900D01*
X026166Y016741D02*
X026166Y016741D01*
X026166Y016583D02*
X026166Y016583D01*
X026166Y016424D02*
X026166Y016424D01*
X026166Y016266D02*
X026166Y016266D01*
X026127Y016107D02*
X026205Y016107D01*
X026312Y015949D02*
X026021Y015949D01*
X026471Y015790D02*
X022861Y015790D01*
X023020Y015632D02*
X025949Y015632D01*
X025715Y015473D02*
X023178Y015473D01*
X023337Y015315D02*
X025611Y015315D01*
X025556Y015156D02*
X023495Y015156D01*
X023654Y014998D02*
X025556Y014998D01*
X025598Y014839D02*
X023812Y014839D01*
X023971Y014681D02*
X025684Y014681D01*
X025873Y014522D02*
X024129Y014522D01*
X024288Y014364D02*
X029866Y014364D01*
X029866Y014522D02*
X026459Y014522D01*
X026648Y014681D02*
X029684Y014681D01*
X029598Y014839D02*
X026734Y014839D01*
X026776Y014998D02*
X029556Y014998D01*
X029556Y015156D02*
X026776Y015156D01*
X026844Y015315D02*
X029611Y015315D01*
X029715Y015473D02*
X027002Y015473D01*
X027161Y015632D02*
X029866Y015632D01*
X029866Y015790D02*
X027319Y015790D01*
X028021Y015949D02*
X028312Y015949D01*
X028205Y016107D02*
X028127Y016107D01*
X028166Y016261D02*
X028166Y016261D01*
X029021Y015949D02*
X029312Y015949D01*
X029205Y016107D02*
X029127Y016107D01*
X029166Y016266D02*
X029166Y016266D01*
X029166Y016424D02*
X029166Y016424D01*
X029166Y016583D02*
X029166Y016583D01*
X029166Y016741D02*
X029166Y016741D01*
X029166Y016900D02*
X029166Y016900D01*
X029109Y017058D02*
X029223Y017058D01*
X029355Y017217D02*
X028978Y017217D01*
X029904Y017375D02*
X031366Y017375D01*
X031366Y017380D02*
X031366Y012286D01*
X031346Y012237D01*
X031346Y011429D01*
X031366Y011380D01*
X031366Y008686D01*
X029333Y006652D01*
X029287Y006671D01*
X029045Y006671D01*
X028821Y006578D01*
X028649Y006407D01*
X028556Y006183D01*
X028556Y005940D01*
X028649Y005716D01*
X028821Y005544D01*
X029045Y005451D01*
X029287Y005451D01*
X029512Y005544D01*
X029683Y005716D01*
X029776Y005940D01*
X029776Y006183D01*
X029757Y006228D01*
X031836Y008307D01*
X031858Y008329D01*
X031858Y008177D01*
X030496Y006816D01*
X030412Y006731D01*
X030366Y006621D01*
X030366Y006597D01*
X030321Y006578D01*
X030149Y006407D01*
X030056Y006183D01*
X030056Y005940D01*
X030149Y005716D01*
X030321Y005544D01*
X030545Y005451D01*
X030787Y005451D01*
X031012Y005544D01*
X031183Y005716D01*
X031276Y005940D01*
X031276Y006183D01*
X031183Y006407D01*
X031060Y006530D01*
X032079Y007549D01*
X032090Y007538D01*
X032288Y007456D01*
X032501Y007456D01*
X032699Y007538D01*
X032850Y007689D01*
X032931Y007886D01*
X032931Y008402D01*
X033920Y009391D01*
X033966Y009502D01*
X033966Y013121D01*
X033920Y013231D01*
X033836Y013316D01*
X032931Y014220D01*
X032931Y014693D01*
X032850Y014891D01*
X032699Y015042D01*
X032501Y015123D01*
X032288Y015123D01*
X032090Y015042D01*
X031966Y014917D01*
X031966Y016871D01*
X032036Y016702D01*
X032187Y016551D01*
X032385Y016469D01*
X033192Y016469D01*
X033389Y016551D01*
X033540Y016702D01*
X033622Y016899D01*
X033622Y017113D01*
X033540Y017310D01*
X033389Y017461D01*
X033192Y017543D01*
X032420Y017543D01*
X032420Y018237D01*
X032338Y018434D01*
X032187Y018585D01*
X031989Y018667D01*
X031776Y018667D01*
X031579Y018585D01*
X031428Y018434D01*
X031346Y018237D01*
X031346Y017429D01*
X031366Y017380D01*
X031346Y017534D02*
X030063Y017534D01*
X030221Y017692D02*
X031346Y017692D01*
X031346Y017851D02*
X030380Y017851D01*
X030538Y018009D02*
X031346Y018009D01*
X031346Y018168D02*
X030697Y018168D01*
X030855Y018326D02*
X031383Y018326D01*
X031478Y018485D02*
X031014Y018485D01*
X031172Y018643D02*
X031720Y018643D01*
X032046Y018643D02*
X036166Y018643D01*
X036166Y018485D02*
X032287Y018485D01*
X032382Y018326D02*
X036166Y018326D01*
X036166Y018168D02*
X032420Y018168D01*
X032420Y018009D02*
X036166Y018009D01*
X036166Y017851D02*
X032420Y017851D01*
X032420Y017692D02*
X035451Y017692D01*
X035432Y017689D02*
X035361Y017666D01*
X035294Y017632D01*
X035233Y017588D01*
X035180Y017535D01*
X035136Y017474D01*
X035102Y017407D01*
X035079Y017336D01*
X035067Y017262D01*
X035067Y016946D01*
X035526Y016946D01*
X035526Y017701D01*
X035507Y017701D01*
X035432Y017689D01*
X035526Y017692D02*
X035563Y017692D01*
X035563Y017701D02*
X035563Y016946D01*
X036021Y016946D01*
X036021Y017262D01*
X036009Y017336D01*
X035986Y017407D01*
X035952Y017474D01*
X035908Y017535D01*
X035855Y017588D01*
X035794Y017632D01*
X035727Y017666D01*
X035656Y017689D01*
X035582Y017701D01*
X035563Y017701D01*
X035637Y017692D02*
X036166Y017692D01*
X036166Y017534D02*
X035909Y017534D01*
X035996Y017375D02*
X036166Y017375D01*
X036166Y017217D02*
X036021Y017217D01*
X036021Y017058D02*
X036166Y017058D01*
X036166Y016900D02*
X036021Y016900D01*
X036021Y016909D02*
X035563Y016909D01*
X035563Y016946D01*
X035526Y016946D01*
X035526Y016909D01*
X035563Y016909D01*
X035563Y016154D01*
X035582Y016154D01*
X035656Y016165D01*
X035727Y016189D01*
X035794Y016223D01*
X035855Y016267D01*
X035908Y016320D01*
X035952Y016381D01*
X035986Y016448D01*
X036009Y016519D01*
X036021Y016593D01*
X036021Y016909D01*
X036021Y016741D02*
X036166Y016741D01*
X036166Y016583D02*
X036019Y016583D01*
X035974Y016424D02*
X036166Y016424D01*
X036166Y016266D02*
X035853Y016266D01*
X035563Y016266D02*
X035526Y016266D01*
X035526Y016154D02*
X035526Y016909D01*
X035067Y016909D01*
X035067Y016593D01*
X035079Y016519D01*
X035102Y016448D01*
X035136Y016381D01*
X035180Y016320D01*
X035233Y016267D01*
X035294Y016223D01*
X035361Y016189D01*
X035432Y016165D01*
X035507Y016154D01*
X035526Y016154D01*
X035526Y016424D02*
X035563Y016424D01*
X035563Y016583D02*
X035526Y016583D01*
X035526Y016741D02*
X035563Y016741D01*
X035563Y016900D02*
X035526Y016900D01*
X035526Y017058D02*
X035563Y017058D01*
X035563Y017217D02*
X035526Y017217D01*
X035526Y017375D02*
X035563Y017375D01*
X035563Y017534D02*
X035526Y017534D01*
X035180Y017534D02*
X033214Y017534D01*
X033475Y017375D02*
X035092Y017375D01*
X035067Y017217D02*
X033579Y017217D01*
X033622Y017058D02*
X035067Y017058D01*
X035067Y016900D02*
X033622Y016900D01*
X033556Y016741D02*
X035067Y016741D01*
X035069Y016583D02*
X033421Y016583D01*
X032155Y016583D02*
X031966Y016583D01*
X031966Y016741D02*
X032020Y016741D01*
X031366Y016741D02*
X031166Y016741D01*
X031166Y016583D02*
X031366Y016583D01*
X031366Y016424D02*
X031166Y016424D01*
X031166Y016266D02*
X031366Y016266D01*
X031366Y016107D02*
X031127Y016107D01*
X031021Y015949D02*
X031366Y015949D01*
X031366Y015790D02*
X030466Y015790D01*
X030466Y015632D02*
X031366Y015632D01*
X031366Y015473D02*
X030617Y015473D01*
X030721Y015315D02*
X031366Y015315D01*
X031366Y015156D02*
X030776Y015156D01*
X030776Y014998D02*
X031366Y014998D01*
X031366Y014839D02*
X030734Y014839D01*
X030648Y014681D02*
X031366Y014681D01*
X031366Y014522D02*
X030466Y014522D01*
X030466Y014364D02*
X031366Y014364D01*
X031366Y014205D02*
X030466Y014205D01*
X030543Y014047D02*
X031366Y014047D01*
X031366Y013888D02*
X030691Y013888D01*
X030757Y013730D02*
X031366Y013730D01*
X031366Y013571D02*
X030776Y013571D01*
X030765Y013413D02*
X031366Y013413D01*
X031366Y013254D02*
X030699Y013254D01*
X030563Y013096D02*
X031366Y013096D01*
X031366Y012937D02*
X025714Y012937D01*
X025871Y013096D02*
X025556Y013096D01*
X025747Y013203D02*
X025808Y013142D01*
X025878Y013091D01*
X025955Y013052D01*
X026037Y013025D01*
X026123Y013011D01*
X026158Y013011D01*
X026158Y013553D01*
X026175Y013553D01*
X026175Y013570D01*
X026716Y013570D01*
X026716Y013605D01*
X026703Y013690D01*
X026676Y013772D01*
X026637Y013850D01*
X026586Y013920D01*
X026524Y013981D01*
X026454Y014032D01*
X026377Y014071D01*
X026295Y014098D01*
X026209Y014111D01*
X026175Y014111D01*
X026175Y013570D01*
X026158Y013570D01*
X026158Y014111D01*
X026123Y014111D01*
X026037Y014098D01*
X025955Y014071D01*
X025878Y014032D01*
X025808Y013981D01*
X025747Y013920D01*
X025696Y013850D01*
X025656Y013772D01*
X025630Y013690D01*
X025616Y013605D01*
X025616Y013570D01*
X026158Y013570D01*
X026158Y013553D01*
X025616Y013553D01*
X025616Y013518D01*
X025630Y013432D01*
X025656Y013350D01*
X025696Y013273D01*
X025747Y013203D01*
X025709Y013254D02*
X025397Y013254D01*
X025239Y013413D02*
X025636Y013413D01*
X025616Y013571D02*
X025080Y013571D01*
X024922Y013730D02*
X025643Y013730D01*
X025724Y013888D02*
X024763Y013888D01*
X024605Y014047D02*
X025908Y014047D01*
X026158Y014047D02*
X026175Y014047D01*
X026158Y013888D02*
X026175Y013888D01*
X026158Y013730D02*
X026175Y013730D01*
X026158Y013571D02*
X026175Y013571D01*
X026175Y013553D02*
X026716Y013553D01*
X026716Y013518D01*
X026703Y013432D01*
X026676Y013350D01*
X026637Y013273D01*
X026586Y013203D01*
X026524Y013142D01*
X026454Y013091D01*
X026377Y013052D01*
X026295Y013025D01*
X026209Y013011D01*
X026175Y013011D01*
X026175Y013553D01*
X026175Y013413D02*
X026158Y013413D01*
X026158Y013254D02*
X026175Y013254D01*
X026158Y013096D02*
X026175Y013096D01*
X026461Y013096D02*
X029769Y013096D01*
X029633Y013254D02*
X026623Y013254D01*
X026696Y013413D02*
X029567Y013413D01*
X029556Y013571D02*
X026716Y013571D01*
X026690Y013730D02*
X029576Y013730D01*
X029641Y013888D02*
X026608Y013888D01*
X026425Y014047D02*
X029789Y014047D01*
X029866Y014205D02*
X024446Y014205D01*
X023573Y013730D02*
X019966Y013730D01*
X019966Y013888D02*
X023415Y013888D01*
X023256Y014047D02*
X020102Y014047D01*
X020090Y014018D02*
X020166Y014202D01*
X020166Y014261D01*
X020759Y014261D01*
X020959Y014061D01*
X021373Y014061D01*
X021666Y014354D01*
X021666Y014768D01*
X021373Y015061D01*
X020959Y015061D01*
X020759Y014861D01*
X020166Y014861D01*
X020166Y014921D01*
X020090Y015105D01*
X019949Y015245D01*
X019766Y015321D01*
X019567Y015321D01*
X019383Y015245D01*
X019242Y015105D01*
X019166Y014921D01*
X019090Y015105D01*
X018949Y015245D01*
X018766Y015321D01*
X018567Y015321D01*
X018400Y015252D01*
X016920Y016731D01*
X016836Y016816D01*
X016818Y016823D01*
X016949Y016877D01*
X017090Y017018D01*
X017166Y017202D01*
X017166Y017921D01*
X017090Y018105D01*
X016949Y018245D01*
X016766Y018321D01*
X016567Y018321D01*
X016383Y018245D01*
X016242Y018105D01*
X016166Y017921D01*
X016090Y018105D01*
X015949Y018245D01*
X015766Y018321D01*
X015567Y018321D01*
X015383Y018245D01*
X015242Y018105D01*
X015166Y017921D01*
X015090Y018105D01*
X014949Y018245D01*
X014766Y018321D01*
X014567Y018321D01*
X014383Y018245D01*
X014242Y018105D01*
X014166Y017921D01*
X014090Y018105D01*
X013949Y018245D01*
X013826Y018296D01*
X013855Y018326D02*
X019977Y018326D01*
X019949Y018245D02*
X019766Y018321D01*
X019567Y018321D01*
X019383Y018245D01*
X019242Y018105D01*
X019166Y017921D01*
X019090Y018105D01*
X018949Y018245D01*
X018766Y018321D01*
X018567Y018321D01*
X018383Y018245D01*
X018242Y018105D01*
X018166Y017921D01*
X018090Y018105D01*
X017949Y018245D01*
X017766Y018321D01*
X017567Y018321D01*
X017383Y018245D01*
X017242Y018105D01*
X017166Y017921D01*
X017166Y017202D01*
X017242Y017018D01*
X017383Y016877D01*
X017567Y016801D01*
X017766Y016801D01*
X017949Y016877D01*
X018090Y017018D01*
X018166Y017202D01*
X018166Y017921D01*
X018166Y017202D01*
X018242Y017018D01*
X018383Y016877D01*
X018567Y016801D01*
X018766Y016801D01*
X018949Y016877D01*
X019090Y017018D01*
X019166Y017202D01*
X019166Y017921D01*
X019166Y017202D01*
X019242Y017018D01*
X019383Y016877D01*
X019567Y016801D01*
X019766Y016801D01*
X019949Y016877D01*
X020090Y017018D01*
X020166Y017202D01*
X020166Y017921D01*
X020090Y018105D01*
X019949Y018245D01*
X020027Y018168D02*
X020135Y018168D01*
X020129Y018009D02*
X020294Y018009D01*
X020366Y017851D02*
X020166Y017851D01*
X020166Y017692D02*
X020366Y017692D01*
X020366Y017534D02*
X020166Y017534D01*
X020166Y017375D02*
X020366Y017375D01*
X020366Y017217D02*
X020166Y017217D01*
X020107Y017058D02*
X020366Y017058D01*
X020408Y016900D02*
X019972Y016900D01*
X019361Y016900D02*
X018972Y016900D01*
X019107Y017058D02*
X019226Y017058D01*
X019166Y017217D02*
X019166Y017217D01*
X019166Y017375D02*
X019166Y017375D01*
X019166Y017534D02*
X019166Y017534D01*
X019166Y017692D02*
X019166Y017692D01*
X019166Y017851D02*
X019166Y017851D01*
X019129Y018009D02*
X019203Y018009D01*
X019306Y018168D02*
X019027Y018168D01*
X018306Y018168D02*
X018027Y018168D01*
X018129Y018009D02*
X018203Y018009D01*
X018166Y017851D02*
X018166Y017851D01*
X018166Y017692D02*
X018166Y017692D01*
X018166Y017534D02*
X018166Y017534D01*
X018166Y017375D02*
X018166Y017375D01*
X018166Y017217D02*
X018166Y017217D01*
X018107Y017058D02*
X018226Y017058D01*
X018361Y016900D02*
X017972Y016900D01*
X017361Y016900D02*
X016972Y016900D01*
X016910Y016741D02*
X020562Y016741D01*
X020720Y016583D02*
X017069Y016583D01*
X017227Y016424D02*
X020879Y016424D01*
X021037Y016266D02*
X017386Y016266D01*
X017544Y016107D02*
X021196Y016107D01*
X021354Y015949D02*
X017703Y015949D01*
X017861Y015790D02*
X021513Y015790D01*
X021671Y015632D02*
X018020Y015632D01*
X018178Y015473D02*
X021830Y015473D01*
X021988Y015315D02*
X019781Y015315D01*
X019551Y015315D02*
X018781Y015315D01*
X018551Y015315D02*
X018337Y015315D01*
X019038Y015156D02*
X019294Y015156D01*
X019198Y014998D02*
X019134Y014998D01*
X019166Y014921D02*
X019166Y014202D01*
X019090Y014018D01*
X018949Y013877D01*
X018766Y013801D01*
X018567Y013801D01*
X018383Y013877D01*
X018242Y014018D01*
X018166Y014202D01*
X018166Y014637D01*
X018166Y014637D01*
X018166Y014202D01*
X018090Y014018D01*
X017949Y013877D01*
X017766Y013801D01*
X017567Y013801D01*
X017400Y013870D01*
X016966Y013437D01*
X016966Y013280D01*
X017067Y013321D01*
X017266Y013321D01*
X017449Y013245D01*
X017590Y013105D01*
X017666Y012921D01*
X017666Y012202D01*
X017590Y012018D01*
X017466Y011894D01*
X017466Y011061D01*
X017866Y011061D01*
X017866Y011894D01*
X017742Y012018D01*
X017666Y012202D01*
X017666Y012921D01*
X017742Y013105D01*
X017883Y013245D01*
X018067Y013321D01*
X018266Y013321D01*
X018449Y013245D01*
X018590Y013105D01*
X018666Y012921D01*
X018666Y012202D01*
X018590Y012018D01*
X018466Y011894D01*
X018466Y008561D01*
X018873Y008561D01*
X019166Y008268D01*
X019166Y007854D01*
X018873Y007561D01*
X018666Y007561D01*
X018666Y007561D01*
X018873Y007561D01*
X019166Y007268D01*
X019166Y006854D01*
X018966Y006654D01*
X018966Y005597D01*
X019012Y005578D01*
X019166Y005424D01*
X019321Y005578D01*
X019366Y005597D01*
X019366Y009154D01*
X019166Y009354D01*
X019166Y009561D01*
X018959Y009561D01*
X018666Y009854D01*
X018666Y010268D01*
X018866Y010468D01*
X018866Y011894D01*
X018742Y012018D01*
X018666Y012202D01*
X018666Y012921D01*
X018742Y013105D01*
X018883Y013245D01*
X019067Y013321D01*
X019266Y013321D01*
X019366Y013280D01*
X019366Y013894D01*
X019242Y014018D01*
X019166Y014202D01*
X019166Y014921D01*
X019166Y014839D02*
X019166Y014839D01*
X019166Y014681D02*
X019166Y014681D01*
X019166Y014522D02*
X019166Y014522D01*
X019166Y014364D02*
X019166Y014364D01*
X019166Y014205D02*
X019166Y014205D01*
X019102Y014047D02*
X019230Y014047D01*
X019366Y013888D02*
X018960Y013888D01*
X019366Y013730D02*
X017259Y013730D01*
X017100Y013571D02*
X019366Y013571D01*
X019366Y013413D02*
X016966Y013413D01*
X017427Y013254D02*
X017905Y013254D01*
X017739Y013096D02*
X017594Y013096D01*
X017659Y012937D02*
X017673Y012937D01*
X017666Y012779D02*
X017666Y012779D01*
X017666Y012620D02*
X017666Y012620D01*
X017666Y012462D02*
X017666Y012462D01*
X017666Y012303D02*
X017666Y012303D01*
X017643Y012145D02*
X017690Y012145D01*
X017774Y011986D02*
X017558Y011986D01*
X017466Y011828D02*
X017866Y011828D01*
X017866Y011669D02*
X017466Y011669D01*
X017466Y011511D02*
X017866Y011511D01*
X017866Y011352D02*
X017466Y011352D01*
X017466Y011194D02*
X017866Y011194D01*
X018466Y011194D02*
X018866Y011194D01*
X018866Y011352D02*
X018466Y011352D01*
X018466Y011511D02*
X018866Y011511D01*
X018866Y011669D02*
X018466Y011669D01*
X018466Y011828D02*
X018866Y011828D01*
X018774Y011986D02*
X018558Y011986D01*
X018643Y012145D02*
X018690Y012145D01*
X018666Y012303D02*
X018666Y012303D01*
X018666Y012462D02*
X018666Y012462D01*
X018666Y012620D02*
X018666Y012620D01*
X018666Y012779D02*
X018666Y012779D01*
X018659Y012937D02*
X018673Y012937D01*
X018739Y013096D02*
X018594Y013096D01*
X018427Y013254D02*
X018905Y013254D01*
X019966Y013280D02*
X019966Y013894D01*
X020090Y014018D01*
X020166Y014205D02*
X020815Y014205D01*
X021517Y014205D02*
X021900Y014205D01*
X021741Y014364D02*
X021666Y014364D01*
X021666Y014522D02*
X021726Y014522D01*
X021726Y014681D02*
X021666Y014681D01*
X021595Y014839D02*
X021822Y014839D01*
X021980Y014998D02*
X021437Y014998D01*
X020896Y014998D02*
X020134Y014998D01*
X020038Y015156D02*
X022147Y015156D01*
X022166Y014998D02*
X022166Y014998D01*
X022166Y014839D02*
X022166Y014839D01*
X022166Y014681D02*
X022166Y014681D01*
X022166Y014522D02*
X022166Y014522D01*
X022166Y014364D02*
X022166Y014364D01*
X022166Y014205D02*
X022166Y014205D01*
X022432Y014205D02*
X023098Y014205D01*
X022939Y014364D02*
X022591Y014364D01*
X022606Y014522D02*
X022781Y014522D01*
X022622Y014681D02*
X022606Y014681D01*
X023021Y015949D02*
X023403Y015949D01*
X023271Y016107D02*
X023127Y016107D01*
X023166Y016266D02*
X023226Y016266D01*
X023226Y016424D02*
X023166Y016424D01*
X023166Y016583D02*
X023226Y016583D01*
X023226Y016741D02*
X023166Y016741D01*
X023166Y016900D02*
X023233Y016900D01*
X023294Y017058D02*
X023109Y017058D01*
X023666Y017058D02*
X023666Y017058D01*
X023666Y016900D02*
X023666Y016900D01*
X023666Y016741D02*
X023666Y016741D01*
X023666Y016583D02*
X023666Y016583D01*
X023666Y016424D02*
X023666Y016424D01*
X023666Y016266D02*
X023666Y016266D01*
X023666Y016107D02*
X023666Y016107D01*
X023666Y015949D02*
X023666Y015949D01*
X019818Y018485D02*
X014014Y018485D01*
X014172Y018643D02*
X019660Y018643D01*
X019501Y018802D02*
X014331Y018802D01*
X014489Y018960D02*
X019343Y018960D01*
X019184Y019119D02*
X014648Y019119D01*
X014806Y019277D02*
X019026Y019277D01*
X018867Y019436D02*
X018789Y019436D01*
X018544Y019436D02*
X017789Y019436D01*
X017544Y019436D02*
X014965Y019436D01*
X015123Y019594D02*
X016377Y019594D01*
X016229Y019753D02*
X015282Y019753D01*
X015440Y019911D02*
X016229Y019911D01*
X016229Y020070D02*
X015599Y020070D01*
X015757Y020228D02*
X016352Y020228D01*
X016666Y019911D02*
X016666Y019911D01*
X016666Y019753D02*
X016666Y019753D01*
X016666Y019594D02*
X016666Y019594D01*
X016956Y019594D02*
X017292Y019594D01*
X017198Y019753D02*
X017104Y019753D01*
X017104Y019911D02*
X017169Y019911D01*
X017188Y020070D02*
X017104Y020070D01*
X016980Y020228D02*
X017267Y020228D01*
X018065Y020228D02*
X018267Y020228D01*
X018188Y020070D02*
X018144Y020070D01*
X018164Y019911D02*
X018169Y019911D01*
X018198Y019753D02*
X018134Y019753D01*
X018041Y019594D02*
X018292Y019594D01*
X017306Y018168D02*
X017027Y018168D01*
X017129Y018009D02*
X017203Y018009D01*
X017166Y017851D02*
X017166Y017851D01*
X017166Y017692D02*
X017166Y017692D01*
X017166Y017534D02*
X017166Y017534D01*
X017166Y017375D02*
X017166Y017375D01*
X017166Y017217D02*
X017166Y017217D01*
X017107Y017058D02*
X017226Y017058D01*
X016422Y016861D02*
X015910Y016861D01*
X015949Y016877D01*
X016090Y017018D01*
X016166Y017202D01*
X016166Y017921D01*
X016166Y017202D01*
X016242Y017018D01*
X016383Y016877D01*
X016422Y016861D01*
X016361Y016900D02*
X015972Y016900D01*
X016107Y017058D02*
X016226Y017058D01*
X016166Y017217D02*
X016166Y017217D01*
X016166Y017375D02*
X016166Y017375D01*
X016166Y017534D02*
X016166Y017534D01*
X016166Y017692D02*
X016166Y017692D01*
X016166Y017851D02*
X016166Y017851D01*
X016129Y018009D02*
X016203Y018009D01*
X016306Y018168D02*
X016027Y018168D01*
X015306Y018168D02*
X015027Y018168D01*
X015129Y018009D02*
X015203Y018009D01*
X015166Y017921D02*
X015166Y017202D01*
X015090Y017018D01*
X014949Y016877D01*
X014910Y016861D01*
X015422Y016861D01*
X015383Y016877D01*
X015242Y017018D01*
X015166Y017202D01*
X015166Y017921D01*
X015166Y017851D02*
X015166Y017851D01*
X015166Y017692D02*
X015166Y017692D01*
X015166Y017534D02*
X015166Y017534D01*
X015166Y017375D02*
X015166Y017375D01*
X015166Y017217D02*
X015166Y017217D01*
X015107Y017058D02*
X015226Y017058D01*
X015361Y016900D02*
X014972Y016900D01*
X014422Y016861D02*
X013910Y016861D01*
X013949Y016877D01*
X014090Y017018D01*
X014166Y017202D01*
X014166Y017921D01*
X014166Y017202D01*
X014242Y017018D01*
X014383Y016877D01*
X014422Y016861D01*
X014361Y016900D02*
X013972Y016900D01*
X014107Y017058D02*
X014226Y017058D01*
X014166Y017217D02*
X014166Y017217D01*
X014166Y017375D02*
X014166Y017375D01*
X014166Y017534D02*
X014166Y017534D01*
X014166Y017692D02*
X014166Y017692D01*
X014166Y017851D02*
X014166Y017851D01*
X014129Y018009D02*
X014203Y018009D01*
X014306Y018168D02*
X014027Y018168D01*
X014116Y019436D02*
X012289Y019436D01*
X012044Y019436D02*
X011382Y019436D01*
X011541Y019594D02*
X011792Y019594D01*
X011698Y019753D02*
X011664Y019753D01*
X011664Y019911D02*
X011669Y019911D01*
X011664Y020070D02*
X011688Y020070D01*
X011767Y020228D02*
X011565Y020228D01*
X011406Y020387D02*
X011985Y020387D01*
X012644Y020070D02*
X012754Y020070D01*
X012761Y020091D02*
X012739Y020026D01*
X012729Y019958D01*
X012729Y019923D01*
X012729Y019889D01*
X012739Y019821D01*
X012761Y019756D01*
X012792Y019694D01*
X012832Y019638D01*
X012881Y019590D01*
X012937Y019549D01*
X012998Y019518D01*
X013064Y019497D01*
X013132Y019486D01*
X013166Y019486D01*
X013166Y019923D01*
X013166Y019923D01*
X013166Y019486D01*
X013201Y019486D01*
X013269Y019497D01*
X013334Y019518D01*
X013395Y019549D01*
X013451Y019590D01*
X013500Y019638D01*
X013540Y019694D01*
X013572Y019756D01*
X013593Y019821D01*
X013604Y019889D01*
X013604Y019923D01*
X013166Y019923D01*
X012729Y019923D01*
X013166Y019923D01*
X013166Y019923D01*
X013166Y019923D01*
X013604Y019923D01*
X013604Y019958D01*
X013593Y020026D01*
X013572Y020091D01*
X013540Y020153D01*
X013500Y020208D01*
X013451Y020257D01*
X013395Y020298D01*
X013334Y020329D01*
X013269Y020350D01*
X013201Y020361D01*
X013166Y020361D01*
X013132Y020361D01*
X013064Y020350D01*
X012998Y020329D01*
X012937Y020298D01*
X012881Y020257D01*
X012832Y020208D01*
X012792Y020153D01*
X012761Y020091D01*
X012757Y020228D02*
X012852Y020228D01*
X012916Y020387D02*
X015067Y020387D01*
X014909Y020228D02*
X013480Y020228D01*
X013579Y020070D02*
X014750Y020070D01*
X014592Y019911D02*
X013604Y019911D01*
X013570Y019753D02*
X014433Y019753D01*
X014275Y019594D02*
X013456Y019594D01*
X013166Y019594D02*
X013166Y019594D01*
X013166Y019753D02*
X013166Y019753D01*
X013166Y019911D02*
X013166Y019911D01*
X013166Y019924D02*
X013166Y020361D01*
X013166Y019924D01*
X013166Y019924D01*
X013166Y020070D02*
X013166Y020070D01*
X013166Y020228D02*
X013166Y020228D01*
X013074Y020545D02*
X015226Y020545D01*
X015384Y020704D02*
X013233Y020704D01*
X013391Y020862D02*
X021088Y020862D01*
X021056Y021021D02*
X013550Y021021D01*
X013708Y021179D02*
X021056Y021179D01*
X021120Y021338D02*
X013867Y021338D01*
X014025Y021496D02*
X021238Y021496D01*
X021505Y021655D02*
X014184Y021655D01*
X012729Y019911D02*
X012664Y019911D01*
X012634Y019753D02*
X012762Y019753D01*
X012877Y019594D02*
X012541Y019594D01*
X010395Y018168D02*
X009296Y018168D01*
X009287Y018171D02*
X009045Y018171D01*
X008821Y018078D01*
X008649Y017907D01*
X008556Y017683D01*
X008556Y017440D01*
X008649Y017216D01*
X008821Y017044D01*
X009045Y016951D01*
X009287Y016951D01*
X009512Y017044D01*
X009683Y017216D01*
X009776Y017440D01*
X009776Y017683D01*
X009683Y017907D01*
X009512Y018078D01*
X009287Y018171D01*
X009036Y018168D02*
X008447Y018168D01*
X008466Y018009D02*
X008751Y018009D01*
X008626Y017851D02*
X008466Y017851D01*
X008466Y017692D02*
X008560Y017692D01*
X008556Y017534D02*
X008466Y017534D01*
X008466Y017375D02*
X008583Y017375D01*
X008649Y017217D02*
X008466Y017217D01*
X008466Y017058D02*
X008806Y017058D01*
X009526Y017058D02*
X010299Y017058D01*
X010234Y017217D02*
X009684Y017217D01*
X009749Y017375D02*
X010226Y017375D01*
X010226Y017534D02*
X009776Y017534D01*
X009772Y017692D02*
X010226Y017692D01*
X010226Y017851D02*
X009706Y017851D01*
X009581Y018009D02*
X010268Y018009D01*
X010847Y016900D02*
X010866Y016900D01*
X010866Y015949D02*
X009276Y015949D01*
X009214Y015790D02*
X010866Y015790D01*
X010866Y015632D02*
X009099Y015632D01*
X008841Y015473D02*
X010866Y015473D01*
X010866Y015315D02*
X010781Y015315D01*
X010551Y015315D02*
X007337Y015315D01*
X007276Y015473D02*
X008492Y015473D01*
X008233Y015632D02*
X007276Y015632D01*
X007232Y015790D02*
X008118Y015790D01*
X008056Y015949D02*
X007141Y015949D01*
X006942Y016107D02*
X008056Y016107D01*
X008037Y016266D02*
X006166Y016266D01*
X006166Y016424D02*
X007898Y016424D01*
X007866Y016583D02*
X006166Y016583D01*
X006166Y016741D02*
X007866Y016741D01*
X007866Y016900D02*
X006166Y016900D01*
X006166Y017058D02*
X007866Y017058D01*
X007866Y017217D02*
X006166Y017217D01*
X006166Y017375D02*
X007866Y017375D01*
X007866Y017534D02*
X006166Y017534D01*
X006166Y017692D02*
X007866Y017692D01*
X007866Y017851D02*
X006166Y017851D01*
X006166Y018009D02*
X007412Y018009D01*
X007254Y018168D02*
X006994Y018168D01*
X006666Y018168D02*
X006666Y018168D01*
X006666Y018326D02*
X006666Y018326D01*
X006666Y018485D02*
X006666Y018485D01*
X006666Y018561D02*
X006666Y019071D01*
X006666Y018561D01*
X006666Y018561D01*
X006666Y018643D02*
X006666Y018643D01*
X006666Y018802D02*
X006666Y018802D01*
X006666Y018960D02*
X006666Y018960D01*
X006344Y018960D02*
X006166Y018960D01*
X006166Y018802D02*
X006185Y018802D01*
X006166Y019119D02*
X007418Y019119D01*
X007259Y018960D02*
X006988Y018960D01*
X006180Y018326D02*
X006166Y018326D01*
X006166Y018168D02*
X006338Y018168D01*
X006390Y016107D02*
X006166Y016107D01*
X006166Y015949D02*
X006191Y015949D01*
X007495Y015156D02*
X010294Y015156D01*
X010198Y014998D02*
X007654Y014998D01*
X007812Y014839D02*
X010166Y014839D01*
X010166Y014681D02*
X007971Y014681D01*
X008129Y014522D02*
X010166Y014522D01*
X010166Y014364D02*
X008288Y014364D01*
X008446Y014205D02*
X010166Y014205D01*
X010230Y014047D02*
X008605Y014047D01*
X008763Y013888D02*
X010372Y013888D01*
X010866Y013730D02*
X008921Y013730D01*
X008966Y013571D02*
X010866Y013571D01*
X010866Y013413D02*
X008966Y013413D01*
X008966Y013254D02*
X010866Y013254D01*
X010866Y013096D02*
X008966Y013096D01*
X008966Y012937D02*
X010866Y012937D01*
X010866Y012779D02*
X008966Y012779D01*
X008966Y012620D02*
X010866Y012620D01*
X010866Y012462D02*
X009128Y012462D01*
X009226Y012303D02*
X010866Y012303D01*
X010866Y012145D02*
X009276Y012145D01*
X009276Y011986D02*
X010866Y011986D01*
X010866Y011828D02*
X009230Y011828D01*
X009137Y011669D02*
X010866Y011669D01*
X010866Y011511D02*
X008931Y011511D01*
X008799Y011352D02*
X010866Y011352D01*
X010866Y011194D02*
X008958Y011194D01*
X009116Y011035D02*
X010866Y011035D01*
X010866Y010877D02*
X010223Y010877D01*
X010414Y010718D02*
X010866Y010718D01*
X010866Y010560D02*
X010506Y010560D01*
X010556Y010401D02*
X010866Y010401D01*
X010866Y010243D02*
X010556Y010243D01*
X010556Y010084D02*
X010866Y010084D01*
X010866Y009926D02*
X010556Y009926D01*
X010556Y009767D02*
X010866Y009767D01*
X010866Y009609D02*
X010556Y009609D01*
X010556Y009450D02*
X010866Y009450D01*
X010866Y009292D02*
X010518Y009292D01*
X010443Y009133D02*
X010866Y009133D01*
X010866Y008975D02*
X010285Y008975D01*
X010866Y008816D02*
X006166Y008816D01*
X006166Y008658D02*
X010866Y008658D01*
X010866Y008499D02*
X009433Y008499D01*
X009429Y008504D02*
X009193Y008601D01*
X008139Y008601D01*
X007904Y008504D01*
X007724Y008324D01*
X007626Y008089D01*
X007626Y007834D01*
X007724Y007599D01*
X007904Y007419D01*
X008139Y007321D01*
X009193Y007321D01*
X009429Y007419D01*
X009609Y007599D01*
X009706Y007834D01*
X009706Y008089D01*
X009609Y008324D01*
X009429Y008504D01*
X009592Y008341D02*
X010866Y008341D01*
X010866Y008182D02*
X009667Y008182D01*
X009706Y008024D02*
X010866Y008024D01*
X010866Y007865D02*
X009706Y007865D01*
X009653Y007707D02*
X010866Y007707D01*
X010866Y007548D02*
X009558Y007548D01*
X009359Y007390D02*
X010866Y007390D01*
X010866Y007231D02*
X006166Y007231D01*
X006166Y007073D02*
X010866Y007073D01*
X010866Y006914D02*
X006166Y006914D01*
X006166Y006756D02*
X010866Y006756D01*
X010839Y006597D02*
X010493Y006597D01*
X010651Y006439D02*
X010681Y006439D01*
X009839Y006597D02*
X006166Y006597D01*
X006166Y006439D02*
X009681Y006439D01*
X009556Y006280D02*
X007593Y006280D01*
X007848Y006122D02*
X009556Y006122D01*
X009556Y005963D02*
X008026Y005963D01*
X008155Y005805D02*
X009560Y005805D01*
X009718Y005646D02*
X008251Y005646D01*
X008321Y005488D02*
X009815Y005488D01*
X009656Y005329D02*
X008370Y005329D01*
X008405Y005171D02*
X009616Y005171D01*
X009616Y005041D02*
X009616Y004833D01*
X009938Y004511D01*
X010146Y004511D01*
X010146Y005041D01*
X009616Y005041D01*
X009616Y005012D02*
X008414Y005012D01*
X008414Y004854D02*
X009616Y004854D01*
X009754Y004695D02*
X008414Y004695D01*
X008414Y004537D02*
X009913Y004537D01*
X010146Y004537D02*
X010186Y004537D01*
X010186Y004695D02*
X010146Y004695D01*
X010146Y004854D02*
X010186Y004854D01*
X010186Y005012D02*
X010146Y005012D01*
X010578Y004695D02*
X010669Y004695D01*
X010828Y004537D02*
X010419Y004537D01*
X010866Y004378D02*
X008414Y004378D01*
X008414Y004220D02*
X010866Y004220D01*
X010866Y004061D02*
X008414Y004061D01*
X012590Y004061D02*
X033918Y004061D01*
X012590Y004061D01*
X013420Y004891D01*
X013466Y005002D01*
X013466Y006121D01*
X013420Y006231D01*
X013336Y006316D01*
X012466Y007186D01*
X012466Y013843D01*
X012567Y013801D01*
X012766Y013801D01*
X012949Y013877D01*
X013090Y014018D01*
X013166Y014202D01*
X013166Y014921D01*
X013090Y015105D01*
X012949Y015245D01*
X012910Y015261D01*
X013422Y015261D01*
X013383Y015245D01*
X013242Y015105D01*
X013166Y014921D01*
X013166Y014202D01*
X013242Y014018D01*
X013366Y013894D01*
X013366Y013280D01*
X013266Y013321D01*
X013067Y013321D01*
X012883Y013245D01*
X012742Y013105D01*
X012666Y012921D01*
X012666Y012202D01*
X012742Y012018D01*
X012883Y011877D01*
X013067Y011801D01*
X013266Y011801D01*
X013366Y011843D01*
X013366Y007270D01*
X013361Y007265D01*
X013306Y007133D01*
X013306Y006990D01*
X013361Y006857D01*
X013462Y006756D01*
X013595Y006701D01*
X013738Y006701D01*
X013870Y006756D01*
X013971Y006857D01*
X014026Y006990D01*
X014026Y007061D01*
X014166Y007061D01*
X014166Y006854D01*
X014366Y006654D01*
X014366Y005597D01*
X014321Y005578D01*
X014149Y005407D01*
X014056Y005183D01*
X014056Y004940D01*
X014149Y004716D01*
X014321Y004544D01*
X014545Y004451D01*
X014787Y004451D01*
X015012Y004544D01*
X015166Y004699D01*
X015321Y004544D01*
X015545Y004451D01*
X015787Y004451D01*
X016012Y004544D01*
X016166Y004699D01*
X016321Y004544D01*
X016545Y004451D01*
X016787Y004451D01*
X017012Y004544D01*
X017166Y004699D01*
X017321Y004544D01*
X017545Y004451D01*
X017787Y004451D01*
X018012Y004544D01*
X018166Y004699D01*
X018321Y004544D01*
X018545Y004451D01*
X018787Y004451D01*
X019012Y004544D01*
X019166Y004699D01*
X019321Y004544D01*
X019545Y004451D01*
X019787Y004451D01*
X020012Y004544D01*
X020166Y004699D01*
X020321Y004544D01*
X020545Y004451D01*
X020787Y004451D01*
X021012Y004544D01*
X021120Y004653D01*
X021128Y004622D01*
X021152Y004581D01*
X021186Y004547D01*
X021227Y004524D01*
X021272Y004511D01*
X021646Y004511D01*
X021646Y005041D01*
X021686Y005041D01*
X021686Y004511D01*
X022060Y004511D01*
X022106Y004524D01*
X022147Y004547D01*
X022180Y004581D01*
X022204Y004622D01*
X022216Y004668D01*
X022216Y005041D01*
X021686Y005041D01*
X021686Y005081D01*
X022216Y005081D01*
X022216Y005455D01*
X022204Y005501D01*
X022180Y005542D01*
X022147Y005575D01*
X022106Y005599D01*
X022060Y005611D01*
X021686Y005611D01*
X021686Y005081D01*
X021646Y005081D01*
X021646Y005611D01*
X021272Y005611D01*
X021227Y005599D01*
X021186Y005575D01*
X021152Y005542D01*
X021128Y005501D01*
X021120Y005470D01*
X021012Y005578D01*
X020966Y005597D01*
X020966Y006654D01*
X021166Y006854D01*
X021166Y007137D01*
X022575Y005728D01*
X022556Y005683D01*
X022556Y005440D01*
X022649Y005216D01*
X022821Y005044D01*
X023045Y004951D01*
X023287Y004951D01*
X023512Y005044D01*
X023683Y005216D01*
X023702Y005261D01*
X024259Y005261D01*
X024459Y005061D01*
X024873Y005061D01*
X025166Y005354D01*
X025166Y005768D01*
X024966Y005968D01*
X024966Y006394D01*
X025090Y006518D01*
X025166Y006702D01*
X025166Y007421D01*
X025090Y007605D01*
X024949Y007745D01*
X024766Y007821D01*
X024567Y007821D01*
X024383Y007745D01*
X024242Y007605D01*
X024166Y007421D01*
X024166Y006702D01*
X024242Y006518D01*
X024366Y006394D01*
X024366Y005968D01*
X024259Y005861D01*
X023702Y005861D01*
X023683Y005907D01*
X023512Y006078D01*
X023287Y006171D01*
X023045Y006171D01*
X022999Y006152D01*
X021166Y007986D01*
X021166Y008268D01*
X020873Y008561D01*
X020466Y008561D01*
X020466Y011894D01*
X020590Y012018D01*
X020666Y012202D01*
X020666Y012921D01*
X020590Y013105D01*
X020449Y013245D01*
X020266Y013321D01*
X020067Y013321D01*
X019966Y013280D01*
X019966Y013413D02*
X023890Y013413D01*
X023732Y013571D02*
X019966Y013571D01*
X020427Y013254D02*
X024049Y013254D01*
X024207Y013096D02*
X020594Y013096D01*
X020659Y012937D02*
X024366Y012937D01*
X024524Y012779D02*
X020666Y012779D01*
X020666Y012620D02*
X024683Y012620D01*
X024841Y012462D02*
X020666Y012462D01*
X020666Y012303D02*
X024866Y012303D01*
X024866Y012145D02*
X020643Y012145D01*
X020558Y011986D02*
X022884Y011986D01*
X022726Y011828D02*
X020466Y011828D01*
X020466Y011669D02*
X022666Y011669D01*
X022666Y011511D02*
X020466Y011511D01*
X020466Y011352D02*
X022668Y011352D01*
X022827Y011194D02*
X020466Y011194D01*
X020466Y011035D02*
X022866Y011035D01*
X022866Y010877D02*
X020466Y010877D01*
X020466Y010718D02*
X022866Y010718D01*
X022866Y010560D02*
X020466Y010560D01*
X020466Y010401D02*
X022866Y010401D01*
X022866Y010243D02*
X020466Y010243D01*
X020466Y010084D02*
X022835Y010084D01*
X022668Y009926D02*
X020466Y009926D01*
X020466Y009767D02*
X022591Y009767D01*
X022556Y009609D02*
X020466Y009609D01*
X020466Y009450D02*
X022556Y009450D01*
X022618Y009292D02*
X020466Y009292D01*
X020466Y009133D02*
X022731Y009133D01*
X022988Y008975D02*
X020466Y008975D01*
X020466Y008816D02*
X024866Y008816D01*
X024866Y008658D02*
X020466Y008658D01*
X020935Y008499D02*
X024867Y008499D01*
X024962Y008341D02*
X021094Y008341D01*
X021166Y008182D02*
X025121Y008182D01*
X025279Y008024D02*
X021166Y008024D01*
X021286Y007865D02*
X025438Y007865D01*
X025454Y007707D02*
X024988Y007707D01*
X025113Y007548D02*
X025288Y007548D01*
X025232Y007390D02*
X025166Y007390D01*
X025166Y007231D02*
X025226Y007231D01*
X025226Y007073D02*
X025166Y007073D01*
X025166Y006914D02*
X025226Y006914D01*
X025228Y006756D02*
X025166Y006756D01*
X025123Y006597D02*
X025276Y006597D01*
X025417Y006439D02*
X025011Y006439D01*
X024966Y006280D02*
X028597Y006280D01*
X028556Y006122D02*
X024966Y006122D01*
X024971Y005963D02*
X025446Y005963D01*
X025484Y006001D02*
X025226Y005744D01*
X025226Y005561D01*
X025226Y005379D01*
X025484Y005121D01*
X025666Y005121D01*
X025666Y005561D01*
X025666Y005561D01*
X025226Y005561D01*
X025666Y005561D01*
X025666Y005561D01*
X025666Y005121D01*
X025848Y005121D01*
X026106Y005379D01*
X026106Y005561D01*
X025666Y005561D01*
X025666Y005561D01*
X025666Y006001D01*
X025484Y006001D01*
X025666Y006001D02*
X025848Y006001D01*
X026106Y005744D01*
X026106Y005561D01*
X025666Y005561D01*
X025666Y005561D01*
X025666Y006001D01*
X025666Y005963D02*
X025666Y005963D01*
X025666Y005805D02*
X025666Y005805D01*
X025666Y005646D02*
X025666Y005646D01*
X025666Y005488D02*
X025666Y005488D01*
X025666Y005329D02*
X025666Y005329D01*
X025666Y005171D02*
X025666Y005171D01*
X025434Y005171D02*
X024983Y005171D01*
X025141Y005329D02*
X025276Y005329D01*
X025226Y005488D02*
X025166Y005488D01*
X025166Y005646D02*
X025226Y005646D01*
X025287Y005805D02*
X025130Y005805D01*
X025886Y005963D02*
X028556Y005963D01*
X028612Y005805D02*
X026045Y005805D01*
X026106Y005646D02*
X028718Y005646D01*
X028957Y005488D02*
X026106Y005488D01*
X026056Y005329D02*
X033962Y005329D01*
X033965Y005345D02*
X033942Y005239D01*
X033934Y005223D01*
X033932Y005193D01*
X033926Y005163D01*
X033929Y005146D01*
X033922Y005046D01*
X033918Y005038D01*
X033918Y004999D01*
X033915Y004960D01*
X033918Y004952D01*
X033918Y004061D01*
X033918Y004220D02*
X012749Y004220D01*
X012907Y004378D02*
X033918Y004378D01*
X033918Y004537D02*
X022129Y004537D01*
X022216Y004695D02*
X033918Y004695D01*
X033918Y004854D02*
X022216Y004854D01*
X022216Y005012D02*
X022898Y005012D01*
X022694Y005171D02*
X022216Y005171D01*
X022216Y005329D02*
X022602Y005329D01*
X022556Y005488D02*
X022207Y005488D01*
X022556Y005646D02*
X020966Y005646D01*
X020966Y005805D02*
X022498Y005805D01*
X022340Y005963D02*
X020966Y005963D01*
X020966Y006122D02*
X022181Y006122D01*
X022023Y006280D02*
X020966Y006280D01*
X020966Y006439D02*
X021864Y006439D01*
X021706Y006597D02*
X020966Y006597D01*
X021068Y006756D02*
X021547Y006756D01*
X021389Y006914D02*
X021166Y006914D01*
X021166Y007073D02*
X021230Y007073D01*
X021603Y007548D02*
X024219Y007548D01*
X024166Y007390D02*
X021762Y007390D01*
X021920Y007231D02*
X024166Y007231D01*
X024166Y007073D02*
X022079Y007073D01*
X022237Y006914D02*
X024166Y006914D01*
X024166Y006756D02*
X022396Y006756D01*
X022554Y006597D02*
X024209Y006597D01*
X024322Y006439D02*
X022713Y006439D01*
X022871Y006280D02*
X024366Y006280D01*
X024366Y006122D02*
X023407Y006122D01*
X023627Y005963D02*
X024361Y005963D01*
X024350Y005171D02*
X023638Y005171D01*
X023435Y005012D02*
X033918Y005012D01*
X033927Y005171D02*
X025898Y005171D01*
X025916Y006439D02*
X026322Y006439D01*
X026209Y006597D02*
X026056Y006597D01*
X026104Y006756D02*
X026166Y006756D01*
X026166Y006914D02*
X026106Y006914D01*
X026106Y007073D02*
X026166Y007073D01*
X025666Y006914D02*
X025666Y006914D01*
X025666Y006756D02*
X025666Y006756D01*
X025666Y006597D02*
X025666Y006597D01*
X025666Y006439D02*
X025666Y006439D01*
X027011Y006439D02*
X027322Y006439D01*
X027209Y006597D02*
X027123Y006597D01*
X027166Y006756D02*
X027166Y006756D01*
X027166Y006914D02*
X027166Y006914D01*
X027166Y007073D02*
X027166Y007073D01*
X028166Y007073D02*
X029753Y007073D01*
X029595Y006914D02*
X028166Y006914D01*
X028166Y006756D02*
X029436Y006756D01*
X028866Y006597D02*
X028123Y006597D01*
X028011Y006439D02*
X028681Y006439D01*
X028166Y007231D02*
X029912Y007231D01*
X030070Y007390D02*
X028166Y007390D01*
X028113Y007548D02*
X030229Y007548D01*
X030387Y007707D02*
X027988Y007707D01*
X027286Y007865D02*
X030546Y007865D01*
X030704Y008024D02*
X027128Y008024D01*
X026969Y008182D02*
X030863Y008182D01*
X031021Y008341D02*
X026811Y008341D01*
X026652Y008499D02*
X031180Y008499D01*
X031338Y008658D02*
X026494Y008658D01*
X026466Y008816D02*
X031366Y008816D01*
X031366Y008975D02*
X026466Y008975D01*
X026466Y009133D02*
X031366Y009133D01*
X031366Y009292D02*
X026466Y009292D01*
X027022Y009450D02*
X027310Y009450D01*
X027242Y009518D02*
X027383Y009377D01*
X027567Y009301D01*
X027766Y009301D01*
X027949Y009377D01*
X028090Y009518D01*
X028166Y009702D01*
X028166Y010137D01*
X028336Y010307D01*
X028420Y010391D01*
X028466Y010502D01*
X028466Y011154D01*
X028666Y011354D01*
X028866Y011154D01*
X028866Y010597D01*
X028821Y010578D01*
X028649Y010407D01*
X028556Y010183D01*
X028556Y009940D01*
X028649Y009716D01*
X028821Y009544D01*
X029045Y009451D01*
X029287Y009451D01*
X029512Y009544D01*
X029683Y009716D01*
X029702Y009761D01*
X030130Y009761D01*
X030149Y009716D01*
X030321Y009544D01*
X030545Y009451D01*
X030787Y009451D01*
X031012Y009544D01*
X031183Y009716D01*
X031276Y009940D01*
X031276Y010183D01*
X031183Y010407D01*
X031012Y010578D01*
X030787Y010671D01*
X030545Y010671D01*
X030321Y010578D01*
X030149Y010407D01*
X030130Y010361D01*
X029702Y010361D01*
X029683Y010407D01*
X029512Y010578D01*
X029466Y010597D01*
X029466Y011154D01*
X029666Y011354D01*
X029666Y011768D01*
X029373Y012061D01*
X028959Y012061D01*
X028666Y011768D01*
X028373Y012061D01*
X027959Y012061D01*
X027666Y011768D01*
X027666Y011354D01*
X027866Y011154D01*
X027866Y010780D01*
X027766Y010821D01*
X027567Y010821D01*
X027383Y010745D01*
X027242Y010605D01*
X027166Y010421D01*
X027166Y009702D01*
X027242Y009518D01*
X027205Y009609D02*
X027128Y009609D01*
X027166Y009767D02*
X027166Y009767D01*
X027166Y009926D02*
X027166Y009926D01*
X027166Y010084D02*
X027166Y010084D01*
X027166Y010243D02*
X027166Y010243D01*
X027166Y010401D02*
X027166Y010401D01*
X027109Y010560D02*
X027224Y010560D01*
X027356Y010718D02*
X026976Y010718D01*
X026966Y010877D02*
X027866Y010877D01*
X027866Y011035D02*
X026966Y011035D01*
X027006Y011194D02*
X027827Y011194D01*
X027668Y011352D02*
X027164Y011352D01*
X027166Y011511D02*
X027666Y011511D01*
X027666Y011669D02*
X027166Y011669D01*
X027107Y011828D02*
X027726Y011828D01*
X027884Y011986D02*
X026948Y011986D01*
X026456Y012145D02*
X031346Y012145D01*
X031346Y011986D02*
X029448Y011986D01*
X029607Y011828D02*
X031346Y011828D01*
X031346Y011669D02*
X029666Y011669D01*
X029666Y011511D02*
X031346Y011511D01*
X031366Y011352D02*
X029664Y011352D01*
X029506Y011194D02*
X031366Y011194D01*
X031366Y011035D02*
X029466Y011035D01*
X029466Y010877D02*
X031366Y010877D01*
X031366Y010718D02*
X029466Y010718D01*
X029530Y010560D02*
X030302Y010560D01*
X030147Y010401D02*
X029686Y010401D01*
X028866Y010718D02*
X028466Y010718D01*
X028466Y010560D02*
X028802Y010560D01*
X028647Y010401D02*
X028425Y010401D01*
X028272Y010243D02*
X028581Y010243D01*
X028556Y010084D02*
X028166Y010084D01*
X028166Y009926D02*
X028562Y009926D01*
X028628Y009767D02*
X028166Y009767D01*
X028128Y009609D02*
X028756Y009609D01*
X028022Y009450D02*
X031366Y009450D01*
X031366Y009609D02*
X031076Y009609D01*
X031205Y009767D02*
X031366Y009767D01*
X031366Y009926D02*
X031270Y009926D01*
X031276Y010084D02*
X031366Y010084D01*
X031366Y010243D02*
X031251Y010243D01*
X031186Y010401D02*
X031366Y010401D01*
X031366Y010560D02*
X031030Y010560D01*
X030256Y009609D02*
X029576Y009609D01*
X028866Y010877D02*
X028466Y010877D01*
X028466Y011035D02*
X028866Y011035D01*
X028827Y011194D02*
X028506Y011194D01*
X028664Y011352D02*
X028668Y011352D01*
X028666Y011354D02*
X028666Y011768D01*
X028666Y011354D01*
X028666Y011511D02*
X028666Y011511D01*
X028666Y011669D02*
X028666Y011669D01*
X028607Y011828D02*
X028726Y011828D01*
X028884Y011986D02*
X028448Y011986D01*
X026348Y012303D02*
X031366Y012303D01*
X031366Y012462D02*
X026190Y012462D01*
X026031Y012620D02*
X031366Y012620D01*
X031366Y012779D02*
X025873Y012779D01*
X025466Y012337D02*
X025802Y012001D01*
X025666Y012001D01*
X025484Y012001D01*
X025466Y011984D01*
X025466Y012337D01*
X025466Y012303D02*
X025500Y012303D01*
X025466Y012145D02*
X025658Y012145D01*
X025666Y012001D02*
X025666Y011561D01*
X025666Y011121D01*
X025484Y011121D01*
X025466Y011139D01*
X025466Y010780D01*
X025567Y010821D01*
X025766Y010821D01*
X025866Y010780D01*
X025866Y011139D01*
X025848Y011121D01*
X025666Y011121D01*
X025666Y011561D01*
X025666Y011561D01*
X025666Y011561D01*
X025666Y012001D01*
X025666Y011986D02*
X025666Y011986D01*
X025666Y011828D02*
X025666Y011828D01*
X025666Y011669D02*
X025666Y011669D01*
X025666Y011511D02*
X025666Y011511D01*
X025666Y011352D02*
X025666Y011352D01*
X025666Y011194D02*
X025666Y011194D01*
X025466Y011035D02*
X025866Y011035D01*
X025866Y010877D02*
X025466Y010877D01*
X024866Y010877D02*
X023466Y010877D01*
X023466Y011035D02*
X024866Y011035D01*
X024866Y011194D02*
X024421Y011194D01*
X024348Y011121D02*
X024606Y011379D01*
X024606Y011561D01*
X024166Y011561D01*
X024166Y011121D01*
X023984Y011121D01*
X023726Y011379D01*
X023726Y011561D01*
X024166Y011561D01*
X024166Y011561D01*
X024166Y011561D01*
X024166Y011121D01*
X024348Y011121D01*
X024166Y011194D02*
X024166Y011194D01*
X024166Y011352D02*
X024166Y011352D01*
X024166Y011511D02*
X024166Y011511D01*
X024166Y011561D02*
X024166Y011561D01*
X023726Y011561D01*
X023726Y011744D01*
X023984Y012001D01*
X024166Y012001D01*
X024166Y011561D01*
X024166Y011561D01*
X024606Y011561D01*
X024606Y011744D01*
X024348Y012001D01*
X024166Y012001D01*
X024166Y011561D01*
X024166Y011669D02*
X024166Y011669D01*
X024166Y011828D02*
X024166Y011828D01*
X024166Y011986D02*
X024166Y011986D01*
X023969Y011986D02*
X023448Y011986D01*
X023607Y011828D02*
X023810Y011828D01*
X023726Y011669D02*
X023666Y011669D01*
X023666Y011511D02*
X023726Y011511D01*
X023753Y011352D02*
X023664Y011352D01*
X023506Y011194D02*
X023911Y011194D01*
X024579Y011352D02*
X024866Y011352D01*
X024866Y011511D02*
X024606Y011511D01*
X024606Y011669D02*
X024866Y011669D01*
X024866Y011828D02*
X024522Y011828D01*
X024363Y011986D02*
X024866Y011986D01*
X025466Y011986D02*
X025469Y011986D01*
X024356Y010718D02*
X023466Y010718D01*
X023466Y010560D02*
X024224Y010560D01*
X024166Y010401D02*
X023466Y010401D01*
X023776Y009609D02*
X024205Y009609D01*
X024310Y009450D02*
X023776Y009450D01*
X023715Y009292D02*
X024866Y009292D01*
X024866Y009133D02*
X023601Y009133D01*
X023344Y008975D02*
X024866Y008975D01*
X024345Y007707D02*
X021445Y007707D01*
X019366Y007707D02*
X019019Y007707D01*
X018886Y007548D02*
X019366Y007548D01*
X019366Y007390D02*
X019045Y007390D01*
X019166Y007231D02*
X019366Y007231D01*
X019366Y007073D02*
X019166Y007073D01*
X019166Y006914D02*
X019366Y006914D01*
X019366Y006756D02*
X019068Y006756D01*
X018966Y006597D02*
X019366Y006597D01*
X019366Y006439D02*
X018966Y006439D01*
X018966Y006280D02*
X019366Y006280D01*
X019366Y006122D02*
X018966Y006122D01*
X018966Y005963D02*
X019366Y005963D01*
X019366Y005805D02*
X018966Y005805D01*
X018966Y005646D02*
X019366Y005646D01*
X019230Y005488D02*
X019102Y005488D01*
X019163Y004695D02*
X019169Y004695D01*
X019338Y004537D02*
X018994Y004537D01*
X018338Y004537D02*
X017994Y004537D01*
X018163Y004695D02*
X018169Y004695D01*
X017338Y004537D02*
X016994Y004537D01*
X017163Y004695D02*
X017169Y004695D01*
X016338Y004537D02*
X015994Y004537D01*
X016163Y004695D02*
X016169Y004695D01*
X015338Y004537D02*
X014994Y004537D01*
X015163Y004695D02*
X015169Y004695D01*
X014338Y004537D02*
X013066Y004537D01*
X013224Y004695D02*
X014169Y004695D01*
X014092Y004854D02*
X013383Y004854D01*
X013466Y005012D02*
X014056Y005012D01*
X014056Y005171D02*
X013466Y005171D01*
X013466Y005329D02*
X014117Y005329D01*
X014230Y005488D02*
X013466Y005488D01*
X013466Y005646D02*
X014366Y005646D01*
X014366Y005805D02*
X013466Y005805D01*
X013466Y005963D02*
X014366Y005963D01*
X014366Y006122D02*
X013466Y006122D01*
X013371Y006280D02*
X014366Y006280D01*
X014366Y006439D02*
X013213Y006439D01*
X013054Y006597D02*
X014366Y006597D01*
X014265Y006756D02*
X013869Y006756D01*
X013995Y006914D02*
X014166Y006914D01*
X013463Y006756D02*
X012896Y006756D01*
X012737Y006914D02*
X013337Y006914D01*
X013306Y007073D02*
X012579Y007073D01*
X012466Y007231D02*
X013347Y007231D01*
X013366Y007390D02*
X012466Y007390D01*
X012466Y007548D02*
X013366Y007548D01*
X013366Y007707D02*
X012466Y007707D01*
X012466Y007865D02*
X013366Y007865D01*
X013366Y008024D02*
X012466Y008024D01*
X012466Y008182D02*
X013366Y008182D01*
X013366Y008341D02*
X012466Y008341D01*
X012466Y008499D02*
X013366Y008499D01*
X013366Y008658D02*
X012466Y008658D01*
X012466Y008816D02*
X013366Y008816D01*
X013366Y008975D02*
X012466Y008975D01*
X012466Y009133D02*
X013366Y009133D01*
X013366Y009292D02*
X012466Y009292D01*
X012466Y009450D02*
X013366Y009450D01*
X013366Y009609D02*
X012466Y009609D01*
X012466Y009767D02*
X013366Y009767D01*
X013366Y009926D02*
X012466Y009926D01*
X012466Y010084D02*
X013366Y010084D01*
X013366Y010243D02*
X012466Y010243D01*
X012466Y010401D02*
X013366Y010401D01*
X013366Y010560D02*
X012466Y010560D01*
X012466Y010718D02*
X013366Y010718D01*
X013366Y010877D02*
X012466Y010877D01*
X012466Y011035D02*
X013366Y011035D01*
X013366Y011194D02*
X012466Y011194D01*
X012466Y011352D02*
X013366Y011352D01*
X013366Y011511D02*
X012466Y011511D01*
X012466Y011669D02*
X013366Y011669D01*
X013366Y011828D02*
X013330Y011828D01*
X013003Y011828D02*
X012466Y011828D01*
X012466Y011986D02*
X012774Y011986D01*
X012690Y012145D02*
X012466Y012145D01*
X012466Y012303D02*
X012666Y012303D01*
X012666Y012462D02*
X012466Y012462D01*
X012466Y012620D02*
X012666Y012620D01*
X012666Y012779D02*
X012466Y012779D01*
X012466Y012937D02*
X012673Y012937D01*
X012739Y013096D02*
X012466Y013096D01*
X012466Y013254D02*
X012905Y013254D01*
X012466Y013413D02*
X013366Y013413D01*
X013366Y013571D02*
X012466Y013571D01*
X012466Y013730D02*
X013366Y013730D01*
X013366Y013888D02*
X012960Y013888D01*
X013102Y014047D02*
X013230Y014047D01*
X013166Y014205D02*
X013166Y014205D01*
X013166Y014364D02*
X013166Y014364D01*
X013166Y014522D02*
X013166Y014522D01*
X013166Y014681D02*
X013166Y014681D01*
X013166Y014839D02*
X013166Y014839D01*
X013134Y014998D02*
X013198Y014998D01*
X013294Y015156D02*
X013038Y015156D01*
X017960Y013888D02*
X018372Y013888D01*
X018230Y014047D02*
X018102Y014047D01*
X018166Y014205D02*
X018166Y014205D01*
X018166Y014364D02*
X018166Y014364D01*
X018166Y014522D02*
X018166Y014522D01*
X018466Y011035D02*
X018866Y011035D01*
X018866Y010877D02*
X018466Y010877D01*
X018466Y010718D02*
X018866Y010718D01*
X018866Y010560D02*
X018466Y010560D01*
X018466Y010401D02*
X018799Y010401D01*
X018666Y010243D02*
X018466Y010243D01*
X018466Y010084D02*
X018666Y010084D01*
X018666Y009926D02*
X018466Y009926D01*
X018466Y009767D02*
X018753Y009767D01*
X018912Y009609D02*
X018466Y009609D01*
X018466Y009450D02*
X019166Y009450D01*
X019229Y009292D02*
X018466Y009292D01*
X018466Y009133D02*
X019366Y009133D01*
X019366Y008975D02*
X018466Y008975D01*
X018466Y008816D02*
X019366Y008816D01*
X019366Y008658D02*
X018466Y008658D01*
X018935Y008499D02*
X019366Y008499D01*
X019366Y008341D02*
X019094Y008341D01*
X019166Y008182D02*
X019366Y008182D01*
X019366Y008024D02*
X019166Y008024D01*
X019166Y007865D02*
X019366Y007865D01*
X021102Y005488D02*
X021125Y005488D01*
X021646Y005488D02*
X021686Y005488D01*
X021686Y005329D02*
X021646Y005329D01*
X021646Y005171D02*
X021686Y005171D01*
X021686Y005012D02*
X021646Y005012D01*
X021646Y004854D02*
X021686Y004854D01*
X021686Y004695D02*
X021646Y004695D01*
X021646Y004537D02*
X021686Y004537D01*
X021204Y004537D02*
X020994Y004537D01*
X020338Y004537D02*
X019994Y004537D01*
X020163Y004695D02*
X020169Y004695D01*
X029376Y005488D02*
X030457Y005488D01*
X030218Y005646D02*
X029614Y005646D01*
X029720Y005805D02*
X030112Y005805D01*
X030056Y005963D02*
X029776Y005963D01*
X029776Y006122D02*
X030056Y006122D01*
X030097Y006280D02*
X029809Y006280D01*
X029968Y006439D02*
X030181Y006439D01*
X030126Y006597D02*
X030366Y006597D01*
X030436Y006756D02*
X030285Y006756D01*
X030443Y006914D02*
X030595Y006914D01*
X030602Y007073D02*
X030753Y007073D01*
X030760Y007231D02*
X030912Y007231D01*
X030919Y007390D02*
X031070Y007390D01*
X031077Y007548D02*
X031229Y007548D01*
X031236Y007707D02*
X031387Y007707D01*
X031394Y007865D02*
X031546Y007865D01*
X031553Y008024D02*
X031704Y008024D01*
X031711Y008182D02*
X031858Y008182D01*
X032077Y007548D02*
X032080Y007548D01*
X031919Y007390D02*
X036166Y007390D01*
X036166Y007548D02*
X032709Y007548D01*
X032857Y007707D02*
X036166Y007707D01*
X036166Y007865D02*
X032923Y007865D01*
X032931Y008024D02*
X036166Y008024D01*
X036166Y008182D02*
X032931Y008182D01*
X032931Y008341D02*
X036166Y008341D01*
X036166Y008499D02*
X033028Y008499D01*
X033187Y008658D02*
X036166Y008658D01*
X036166Y008816D02*
X033345Y008816D01*
X033504Y008975D02*
X036166Y008975D01*
X036166Y009133D02*
X033662Y009133D01*
X033821Y009292D02*
X036166Y009292D01*
X036166Y009450D02*
X033945Y009450D01*
X033966Y009609D02*
X036166Y009609D01*
X036166Y009767D02*
X033966Y009767D01*
X033966Y009926D02*
X036166Y009926D01*
X036166Y010084D02*
X033966Y010084D01*
X033966Y010243D02*
X035267Y010243D01*
X035294Y010223D02*
X035361Y010189D01*
X035432Y010165D01*
X035507Y010154D01*
X035526Y010154D01*
X035526Y010909D01*
X035563Y010909D01*
X035563Y010946D01*
X036021Y010946D01*
X036021Y011262D01*
X036009Y011336D01*
X035986Y011407D01*
X035952Y011474D01*
X035908Y011535D01*
X035855Y011588D01*
X035794Y011632D01*
X035727Y011666D01*
X035656Y011689D01*
X035582Y011701D01*
X035563Y011701D01*
X035563Y010946D01*
X035526Y010946D01*
X035526Y011701D01*
X035507Y011701D01*
X035432Y011689D01*
X035361Y011666D01*
X035294Y011632D01*
X035233Y011588D01*
X035180Y011535D01*
X035136Y011474D01*
X035102Y011407D01*
X035079Y011336D01*
X035067Y011262D01*
X035067Y010946D01*
X035526Y010946D01*
X035526Y010909D01*
X035067Y010909D01*
X035067Y010593D01*
X035079Y010519D01*
X035102Y010448D01*
X035136Y010381D01*
X035180Y010320D01*
X035233Y010267D01*
X035294Y010223D01*
X035526Y010243D02*
X035563Y010243D01*
X035563Y010154D02*
X035582Y010154D01*
X035656Y010165D01*
X035727Y010189D01*
X035794Y010223D01*
X035855Y010267D01*
X035908Y010320D01*
X035952Y010381D01*
X035986Y010448D01*
X036009Y010519D01*
X036021Y010593D01*
X036021Y010909D01*
X035563Y010909D01*
X035563Y010154D01*
X035563Y010401D02*
X035526Y010401D01*
X035526Y010560D02*
X035563Y010560D01*
X035563Y010718D02*
X035526Y010718D01*
X035526Y010877D02*
X035563Y010877D01*
X035563Y011035D02*
X035526Y011035D01*
X035526Y011194D02*
X035563Y011194D01*
X035563Y011352D02*
X035526Y011352D01*
X035526Y011511D02*
X035563Y011511D01*
X035563Y011669D02*
X035526Y011669D01*
X035371Y011669D02*
X033966Y011669D01*
X033966Y011511D02*
X035163Y011511D01*
X035084Y011352D02*
X033966Y011352D01*
X033966Y011194D02*
X035067Y011194D01*
X035067Y011035D02*
X033966Y011035D01*
X033966Y010877D02*
X035067Y010877D01*
X035067Y010718D02*
X033966Y010718D01*
X033966Y010560D02*
X035073Y010560D01*
X035126Y010401D02*
X033966Y010401D01*
X035822Y010243D02*
X036166Y010243D01*
X036166Y010401D02*
X035962Y010401D01*
X036016Y010560D02*
X036166Y010560D01*
X036166Y010718D02*
X036021Y010718D01*
X036021Y010877D02*
X036166Y010877D01*
X036166Y011035D02*
X036021Y011035D01*
X036021Y011194D02*
X036166Y011194D01*
X036166Y011352D02*
X036004Y011352D01*
X035925Y011511D02*
X036166Y011511D01*
X036166Y011669D02*
X035718Y011669D01*
X036166Y011828D02*
X033966Y011828D01*
X033966Y011986D02*
X036166Y011986D01*
X036166Y012145D02*
X033966Y012145D01*
X033966Y012303D02*
X036166Y012303D01*
X036166Y012462D02*
X033966Y012462D01*
X033966Y012620D02*
X036166Y012620D01*
X036166Y012779D02*
X033966Y012779D01*
X033966Y012937D02*
X036166Y012937D01*
X036166Y013096D02*
X033966Y013096D01*
X033897Y013254D02*
X036166Y013254D01*
X036166Y013413D02*
X033739Y013413D01*
X033580Y013571D02*
X036166Y013571D01*
X036166Y013730D02*
X033422Y013730D01*
X033263Y013888D02*
X036166Y013888D01*
X036166Y014047D02*
X033105Y014047D01*
X032946Y014205D02*
X036166Y014205D01*
X036166Y014364D02*
X032931Y014364D01*
X032931Y014522D02*
X036166Y014522D01*
X036166Y014681D02*
X032931Y014681D01*
X032871Y014839D02*
X036166Y014839D01*
X036166Y014998D02*
X032742Y014998D01*
X032047Y014998D02*
X031966Y014998D01*
X031966Y015156D02*
X036166Y015156D01*
X036166Y015315D02*
X031966Y015315D01*
X031966Y015473D02*
X036166Y015473D01*
X036166Y015632D02*
X031966Y015632D01*
X031966Y015790D02*
X036166Y015790D01*
X036166Y015949D02*
X031966Y015949D01*
X031966Y016107D02*
X036166Y016107D01*
X035235Y016266D02*
X031966Y016266D01*
X031966Y016424D02*
X035114Y016424D01*
X031366Y016900D02*
X031166Y016900D01*
X031109Y017058D02*
X031366Y017058D01*
X031366Y017217D02*
X030978Y017217D01*
X030355Y017217D02*
X029978Y017217D01*
X030109Y017058D02*
X030223Y017058D01*
X030166Y016900D02*
X030166Y016900D01*
X030166Y016741D02*
X030166Y016741D01*
X030166Y016583D02*
X030166Y016583D01*
X030032Y018960D02*
X030300Y018960D01*
X030201Y019119D02*
X030132Y019119D01*
X030166Y019277D02*
X030166Y019277D01*
X030166Y019436D02*
X030166Y019436D01*
X030166Y019594D02*
X030166Y019594D01*
X030166Y019753D02*
X030166Y019753D01*
X030166Y019911D02*
X030166Y019911D01*
X030104Y020070D02*
X030228Y020070D01*
X030366Y020228D02*
X030366Y020525D01*
X030321Y020544D01*
X030166Y020699D01*
X030012Y020544D01*
X029966Y020525D01*
X029966Y020228D01*
X029966Y020387D02*
X030366Y020387D01*
X030319Y020545D02*
X030013Y020545D01*
X029366Y020525D02*
X029366Y020228D01*
X029366Y020387D02*
X028966Y020387D01*
X028966Y020525D02*
X029012Y020544D01*
X029166Y020699D01*
X029321Y020544D01*
X029366Y020525D01*
X029319Y020545D02*
X029013Y020545D01*
X028966Y020525D02*
X028966Y020228D01*
X029104Y020070D02*
X029228Y020070D01*
X029166Y019911D02*
X029166Y019911D01*
X029166Y019753D02*
X029166Y019753D01*
X029166Y019594D02*
X029166Y019594D01*
X029166Y019436D02*
X029166Y019436D01*
X029166Y019277D02*
X029166Y019277D01*
X029132Y019119D02*
X029201Y019119D01*
X029300Y018960D02*
X029032Y018960D01*
X028300Y018960D02*
X028032Y018960D01*
X028132Y019119D02*
X028201Y019119D01*
X028166Y019277D02*
X028166Y019277D01*
X028166Y019436D02*
X028166Y019436D01*
X028166Y019594D02*
X028166Y019594D01*
X028166Y019753D02*
X028166Y019753D01*
X028166Y019911D02*
X028166Y019911D01*
X028104Y020070D02*
X028228Y020070D01*
X028366Y020228D02*
X028366Y020525D01*
X028321Y020544D01*
X028166Y020699D01*
X028012Y020544D01*
X027966Y020525D01*
X027966Y020228D01*
X027966Y020387D02*
X028366Y020387D01*
X028319Y020545D02*
X028013Y020545D01*
X027366Y020525D02*
X027366Y020228D01*
X027366Y020387D02*
X026966Y020387D01*
X026966Y020525D02*
X027012Y020544D01*
X027166Y020699D01*
X027321Y020544D01*
X027366Y020525D01*
X027319Y020545D02*
X027013Y020545D01*
X026966Y020525D02*
X026966Y020228D01*
X027104Y020070D02*
X027228Y020070D01*
X027166Y019911D02*
X027166Y019911D01*
X027166Y019753D02*
X027166Y019753D01*
X027166Y019594D02*
X027166Y019594D01*
X027166Y019436D02*
X027166Y019436D01*
X027166Y019277D02*
X027166Y019277D01*
X027132Y019119D02*
X027201Y019119D01*
X027300Y018960D02*
X027032Y018960D01*
X026300Y018960D02*
X026032Y018960D01*
X026132Y019119D02*
X026201Y019119D01*
X026166Y019277D02*
X026166Y019277D01*
X026166Y019436D02*
X026166Y019436D01*
X026166Y019594D02*
X026166Y019594D01*
X026166Y019753D02*
X026166Y019753D01*
X026166Y019911D02*
X026166Y019911D01*
X026104Y020070D02*
X026228Y020070D01*
X026366Y020228D02*
X026366Y020525D01*
X026321Y020544D01*
X026166Y020699D01*
X026012Y020544D01*
X025966Y020525D01*
X025966Y020228D01*
X025966Y020387D02*
X026366Y020387D01*
X026319Y020545D02*
X026013Y020545D01*
X025366Y020525D02*
X025366Y020228D01*
X025366Y020387D02*
X024966Y020387D01*
X024966Y020525D02*
X025012Y020544D01*
X025166Y020699D01*
X025321Y020544D01*
X025366Y020525D01*
X025319Y020545D02*
X025013Y020545D01*
X024966Y020525D02*
X024966Y020228D01*
X025104Y020070D02*
X025228Y020070D01*
X025166Y019911D02*
X025166Y019911D01*
X025166Y019753D02*
X025166Y019753D01*
X025166Y019594D02*
X025166Y019594D01*
X025166Y019436D02*
X025166Y019436D01*
X025166Y019277D02*
X025166Y019277D01*
X025132Y019119D02*
X025201Y019119D01*
X025300Y018960D02*
X025032Y018960D01*
X025166Y021424D02*
X025012Y021578D01*
X024787Y021671D01*
X024545Y021671D01*
X024321Y021578D01*
X024166Y021424D01*
X024012Y021578D01*
X023787Y021671D01*
X023545Y021671D01*
X023321Y021578D01*
X023166Y021424D01*
X023094Y021496D02*
X023238Y021496D01*
X023505Y021655D02*
X022827Y021655D01*
X022505Y021655D02*
X021827Y021655D01*
X022094Y021496D02*
X022238Y021496D01*
X023827Y021655D02*
X024505Y021655D01*
X024238Y021496D02*
X024094Y021496D01*
X024827Y021655D02*
X025505Y021655D01*
X025545Y021671D02*
X025321Y021578D01*
X025166Y021424D01*
X025094Y021496D02*
X025238Y021496D01*
X025545Y021671D02*
X025787Y021671D01*
X026012Y021578D01*
X026166Y021424D01*
X026321Y021578D01*
X026545Y021671D01*
X026787Y021671D01*
X027012Y021578D01*
X027166Y021424D01*
X027321Y021578D01*
X027545Y021671D01*
X027787Y021671D01*
X028012Y021578D01*
X028166Y021424D01*
X028321Y021578D01*
X028545Y021671D01*
X028787Y021671D01*
X029012Y021578D01*
X029166Y021424D01*
X029321Y021578D01*
X029545Y021671D01*
X029787Y021671D01*
X030012Y021578D01*
X030166Y021424D01*
X030321Y021578D01*
X030545Y021671D01*
X030787Y021671D01*
X031012Y021578D01*
X031183Y021407D01*
X031276Y021183D01*
X031276Y020940D01*
X031183Y020716D01*
X031012Y020544D01*
X030966Y020525D01*
X030966Y020228D01*
X030966Y020387D02*
X031366Y020387D01*
X031366Y020545D02*
X031013Y020545D01*
X031171Y020704D02*
X031366Y020704D01*
X031366Y020862D02*
X031244Y020862D01*
X031276Y021021D02*
X031366Y021021D01*
X031366Y021179D02*
X031276Y021179D01*
X031212Y021338D02*
X031366Y021338D01*
X031366Y021496D02*
X031094Y021496D01*
X030827Y021655D02*
X031366Y021655D01*
X031966Y021655D02*
X033918Y021655D01*
X033918Y021813D02*
X031966Y021813D01*
X031966Y021972D02*
X033918Y021972D01*
X033918Y022061D02*
X033918Y021171D01*
X033915Y021163D01*
X033918Y021124D01*
X033918Y021084D01*
X033922Y021076D01*
X033929Y020977D01*
X033926Y020960D01*
X033932Y020930D01*
X033934Y020899D01*
X033942Y020884D01*
X033965Y020778D01*
X033965Y020760D01*
X033975Y020732D01*
X033982Y020702D01*
X033992Y020687D01*
X034030Y020586D01*
X034031Y020568D01*
X034046Y020542D01*
X034057Y020513D01*
X034069Y020500D01*
X034121Y020405D01*
X034125Y020388D01*
X034143Y020364D01*
X034158Y020337D01*
X034172Y020326D01*
X034237Y020239D01*
X034243Y020223D01*
X034265Y020201D01*
X034283Y020177D01*
X034298Y020168D01*
X034375Y020091D01*
X034384Y020076D01*
X034408Y020058D01*
X034430Y020036D01*
X034446Y020029D01*
X034533Y019964D01*
X034544Y019951D01*
X034571Y019936D01*
X034595Y019918D01*
X034612Y019913D01*
X034707Y019862D01*
X034720Y019850D01*
X034749Y019839D01*
X034776Y019824D01*
X034793Y019822D01*
X034894Y019785D01*
X034909Y019775D01*
X034939Y019768D01*
X034967Y019757D01*
X034985Y019758D01*
X035091Y019735D01*
X035107Y019727D01*
X035137Y019725D01*
X035167Y019718D01*
X035184Y019722D01*
X035283Y019714D01*
X035292Y019711D01*
X035331Y019711D01*
X035370Y019708D01*
X035378Y019711D01*
X036166Y019711D01*
X036166Y006412D01*
X035378Y006412D01*
X035370Y006414D01*
X035331Y006412D01*
X035292Y006412D01*
X035283Y006408D01*
X035184Y006401D01*
X035167Y006404D01*
X035137Y006398D01*
X035107Y006395D01*
X035091Y006388D01*
X034985Y006365D01*
X034967Y006365D01*
X034939Y006355D01*
X034909Y006348D01*
X034894Y006338D01*
X034793Y006300D01*
X034776Y006298D01*
X034749Y006284D01*
X034720Y006273D01*
X034707Y006261D01*
X034612Y006209D01*
X034595Y006205D01*
X034571Y006186D01*
X034544Y006172D01*
X034533Y006158D01*
X034446Y006093D01*
X034430Y006086D01*
X034408Y006065D01*
X034384Y006047D01*
X034375Y006031D01*
X034298Y005955D01*
X034283Y005946D01*
X034265Y005921D01*
X034243Y005900D01*
X034237Y005884D01*
X034172Y005797D01*
X034158Y005786D01*
X034143Y005759D01*
X034125Y005735D01*
X034121Y005718D01*
X034069Y005623D01*
X034057Y005610D01*
X034046Y005581D01*
X034031Y005554D01*
X034030Y005537D01*
X033992Y005435D01*
X033982Y005421D01*
X033975Y005391D01*
X033965Y005362D01*
X033965Y005345D01*
X034011Y005488D02*
X030876Y005488D01*
X031114Y005646D02*
X034082Y005646D01*
X034178Y005805D02*
X031220Y005805D01*
X031276Y005963D02*
X034307Y005963D01*
X034484Y006122D02*
X031276Y006122D01*
X031236Y006280D02*
X034740Y006280D01*
X036166Y006439D02*
X031151Y006439D01*
X031126Y006597D02*
X036166Y006597D01*
X036166Y006756D02*
X031285Y006756D01*
X031443Y006914D02*
X036166Y006914D01*
X036166Y007073D02*
X031602Y007073D01*
X031760Y007231D02*
X036166Y007231D01*
X036166Y018802D02*
X031331Y018802D01*
X031489Y018960D02*
X036166Y018960D01*
X036166Y019436D02*
X031939Y019436D01*
X031920Y019391D02*
X031966Y019502D01*
X031966Y022061D01*
X033918Y022061D01*
X033918Y021496D02*
X031966Y021496D01*
X031966Y021338D02*
X033918Y021338D01*
X033918Y021179D02*
X031966Y021179D01*
X031966Y021021D02*
X033926Y021021D01*
X033947Y020862D02*
X031966Y020862D01*
X031966Y020704D02*
X033981Y020704D01*
X034044Y020545D02*
X031966Y020545D01*
X031966Y020387D02*
X034126Y020387D01*
X034241Y020228D02*
X031966Y020228D01*
X031966Y020070D02*
X034392Y020070D01*
X034616Y019911D02*
X031966Y019911D01*
X031966Y019753D02*
X035009Y019753D01*
X036166Y019594D02*
X031966Y019594D01*
X031920Y019391D02*
X031836Y019307D01*
X030238Y021496D02*
X030094Y021496D01*
X029827Y021655D02*
X030505Y021655D01*
X029505Y021655D02*
X028827Y021655D01*
X029094Y021496D02*
X029238Y021496D01*
X028505Y021655D02*
X027827Y021655D01*
X028094Y021496D02*
X028238Y021496D01*
X027505Y021655D02*
X026827Y021655D01*
X027094Y021496D02*
X027238Y021496D01*
X026505Y021655D02*
X025827Y021655D01*
X026094Y021496D02*
X026238Y021496D01*
X009609Y010877D02*
X009275Y010877D01*
X008902Y010401D02*
X008039Y010401D01*
X008046Y010357D02*
X008032Y010447D01*
X008004Y010534D01*
X007962Y010615D01*
X007909Y010689D01*
X007844Y010754D01*
X007770Y010807D01*
X007689Y010849D01*
X007602Y010877D01*
X007512Y010891D01*
X007466Y010891D01*
X007420Y010891D01*
X007330Y010877D01*
X007243Y010849D01*
X007162Y010807D01*
X007088Y010754D01*
X007024Y010689D01*
X006970Y010615D01*
X006929Y010534D01*
X006900Y010447D01*
X006886Y010357D01*
X006886Y009911D01*
X006886Y009466D01*
X006900Y009375D01*
X006929Y009289D01*
X006970Y009207D01*
X007024Y009133D01*
X006166Y009133D01*
X006166Y008975D02*
X007242Y008975D01*
X007243Y008974D02*
X007330Y008946D01*
X007420Y008931D01*
X007466Y008931D01*
X007466Y009911D01*
X007466Y009911D01*
X006886Y009911D01*
X007466Y009911D01*
X007466Y009911D01*
X007466Y008931D01*
X007512Y008931D01*
X007602Y008946D01*
X007689Y008974D01*
X007770Y009015D01*
X007844Y009069D01*
X007909Y009133D01*
X007962Y009207D01*
X008004Y009289D01*
X008032Y009375D01*
X008046Y009466D01*
X008046Y009911D01*
X007466Y009911D01*
X007466Y009911D01*
X007466Y010891D01*
X007466Y009911D01*
X007466Y009911D01*
X008046Y009911D01*
X008046Y010357D01*
X008046Y010243D02*
X009060Y010243D01*
X009219Y010084D02*
X008046Y010084D01*
X008046Y009926D02*
X009276Y009926D01*
X009276Y009767D02*
X008046Y009767D01*
X008046Y009609D02*
X009276Y009609D01*
X009276Y009450D02*
X008044Y009450D01*
X008005Y009292D02*
X009314Y009292D01*
X009389Y009133D02*
X007908Y009133D01*
X007691Y008975D02*
X009548Y008975D01*
X007899Y008499D02*
X006166Y008499D01*
X006166Y008341D02*
X007741Y008341D01*
X007665Y008182D02*
X006166Y008182D01*
X006166Y008024D02*
X007626Y008024D01*
X007626Y007865D02*
X006166Y007865D01*
X006166Y007707D02*
X007679Y007707D01*
X007774Y007548D02*
X006166Y007548D01*
X006166Y007390D02*
X007973Y007390D01*
X007466Y008975D02*
X007466Y008975D01*
X007466Y009133D02*
X007466Y009133D01*
X007466Y009292D02*
X007466Y009292D01*
X007466Y009450D02*
X007466Y009450D01*
X007466Y009609D02*
X007466Y009609D01*
X007466Y009767D02*
X007466Y009767D01*
X007466Y009926D02*
X007466Y009926D01*
X007466Y010084D02*
X007466Y010084D01*
X007466Y010243D02*
X007466Y010243D01*
X007466Y010401D02*
X007466Y010401D01*
X007466Y010560D02*
X007466Y010560D01*
X007466Y010718D02*
X007466Y010718D01*
X007466Y010877D02*
X007466Y010877D01*
X007330Y010877D02*
X006166Y010877D01*
X006166Y011035D02*
X008268Y011035D01*
X008426Y010877D02*
X007603Y010877D01*
X007879Y010718D02*
X008585Y010718D01*
X008743Y010560D02*
X007990Y010560D01*
X008109Y011194D02*
X006166Y011194D01*
X006166Y011352D02*
X007951Y011352D01*
X007792Y011511D02*
X006166Y011511D01*
X006166Y011669D02*
X007634Y011669D01*
X007475Y011828D02*
X006166Y011828D01*
X006166Y011986D02*
X007372Y011986D01*
X007366Y012145D02*
X006166Y012145D01*
X006166Y012303D02*
X007366Y012303D01*
X007366Y012462D02*
X006166Y012462D01*
X006166Y012620D02*
X007366Y012620D01*
X007366Y012779D02*
X006166Y012779D01*
X006166Y012937D02*
X007366Y012937D01*
X007366Y013096D02*
X007063Y013096D01*
X007199Y013254D02*
X007366Y013254D01*
X007366Y013413D02*
X007265Y013413D01*
X006269Y013096D02*
X006166Y013096D01*
X006166Y010718D02*
X007053Y010718D01*
X006942Y010560D02*
X006166Y010560D01*
X006166Y010401D02*
X006893Y010401D01*
X006886Y010243D02*
X006166Y010243D01*
X006166Y010084D02*
X006886Y010084D01*
X006886Y009926D02*
X006166Y009926D01*
X006166Y009767D02*
X006886Y009767D01*
X006886Y009609D02*
X006166Y009609D01*
X006166Y009450D02*
X006889Y009450D01*
X006928Y009292D02*
X006166Y009292D01*
X007024Y009133D02*
X007088Y009069D01*
X007162Y009015D01*
X007243Y008974D01*
M02*
