G75*
%MOIN*%
%OFA0B0*%
%FSLAX24Y24*%
%IPPOS*%
%LPD*%
%AMOC8*
5,1,8,0,0,1.08239X$1,22.5*
%
%ADD10C,0.0560*%
%ADD11OC8,0.0560*%
%ADD12C,0.0634*%
%ADD13C,0.0780*%
%ADD14OC8,0.0555*%
%ADD15C,0.0555*%
%ADD16C,0.0000*%
%ADD17C,0.1300*%
%ADD18C,0.0840*%
%ADD19OC8,0.0780*%
%ADD20R,0.0780X0.0780*%
%ADD21OC8,0.0700*%
D10*
X013166Y012301D02*
X013166Y012821D01*
X014166Y012821D02*
X014166Y012301D01*
X015166Y012301D02*
X015166Y012821D01*
X016166Y012821D02*
X016166Y012301D01*
X017166Y012301D02*
X017166Y012821D01*
X018166Y012821D02*
X018166Y012301D01*
X019166Y012301D02*
X019166Y012821D01*
X020166Y012821D02*
X020166Y012301D01*
X019666Y014301D02*
X019666Y014821D01*
X018666Y014821D02*
X018666Y014301D01*
X017666Y014301D02*
X017666Y014821D01*
X016666Y014821D02*
X016666Y014301D01*
X015666Y014301D02*
X015666Y014821D01*
X014666Y014821D02*
X014666Y014301D01*
X013666Y014301D02*
X013666Y014821D01*
X012666Y014821D02*
X012666Y014301D01*
X011666Y014301D02*
X011666Y014821D01*
X010666Y014821D02*
X010666Y014301D01*
X010666Y017301D02*
X010666Y017821D01*
X011666Y017821D02*
X011666Y017301D01*
X012666Y017301D02*
X012666Y017821D01*
X013666Y017821D02*
X013666Y017301D01*
X014666Y017301D02*
X014666Y017821D01*
X015666Y017821D02*
X015666Y017301D01*
X016666Y017301D02*
X016666Y017821D01*
X017666Y017821D02*
X017666Y017301D01*
X018666Y017301D02*
X018666Y017821D01*
X019666Y017821D02*
X019666Y017301D01*
X022666Y016821D02*
X022666Y016301D01*
X023666Y016301D02*
X023666Y016821D01*
X024666Y016821D02*
X024666Y016301D01*
X025666Y016301D02*
X025666Y016821D01*
X026666Y016821D02*
X026666Y016301D01*
X027666Y016301D02*
X027666Y016821D01*
X028666Y016821D02*
X028666Y016301D01*
X029666Y016301D02*
X029666Y016821D01*
X030666Y016821D02*
X030666Y016301D01*
X030666Y019301D02*
X030666Y019821D01*
X029666Y019821D02*
X029666Y019301D01*
X028666Y019301D02*
X028666Y019821D01*
X027666Y019821D02*
X027666Y019301D01*
X026666Y019301D02*
X026666Y019821D01*
X025666Y019821D02*
X025666Y019301D01*
X024666Y019301D02*
X024666Y019821D01*
X023666Y019821D02*
X023666Y019301D01*
X022666Y019301D02*
X022666Y019821D01*
X024666Y010321D02*
X024666Y009801D01*
X025666Y009801D02*
X025666Y010321D01*
X026666Y010321D02*
X026666Y009801D01*
X027666Y009801D02*
X027666Y010321D01*
X027666Y007321D02*
X027666Y006801D01*
X026666Y006801D02*
X026666Y007321D01*
X025666Y007321D02*
X025666Y006801D01*
X024666Y006801D02*
X024666Y007321D01*
D11*
X024666Y005561D03*
X025666Y005561D03*
X020666Y007061D03*
X020166Y007561D03*
X020666Y008061D03*
X018666Y008061D03*
X018166Y007561D03*
X018666Y007061D03*
X016666Y007061D03*
X016166Y007561D03*
X016666Y008061D03*
X014666Y008061D03*
X014166Y007561D03*
X014666Y007061D03*
X015666Y009561D03*
X015166Y010061D03*
X015666Y010561D03*
X017166Y010061D03*
X017666Y009561D03*
X019166Y010061D03*
X019666Y009561D03*
X019666Y010561D03*
X017666Y010561D03*
X023166Y011561D03*
X024166Y011561D03*
X025666Y011561D03*
X026666Y011561D03*
X028166Y011561D03*
X029166Y011561D03*
X022166Y014561D03*
X021166Y014561D03*
D12*
X031883Y012130D02*
X031883Y011536D01*
X032491Y011006D02*
X033085Y011006D01*
X035544Y011224D02*
X035544Y010631D01*
X032394Y008586D02*
X032394Y007993D01*
X032394Y013993D02*
X032394Y014586D01*
X035544Y016631D02*
X035544Y017224D01*
X033085Y017006D02*
X032491Y017006D01*
X031883Y017536D02*
X031883Y018130D01*
D13*
X030666Y021061D03*
X029666Y021061D03*
X028666Y021061D03*
X027666Y021061D03*
X026666Y021061D03*
X025666Y021061D03*
X024666Y021061D03*
X023666Y021061D03*
X022666Y021061D03*
X021666Y021061D03*
X026166Y015061D03*
X026166Y013561D03*
X030166Y013561D03*
X030166Y015061D03*
X030666Y010061D03*
X029166Y010061D03*
X023166Y009561D03*
X029166Y006061D03*
X030666Y006061D03*
X023166Y005561D03*
X020666Y005061D03*
X019666Y005061D03*
X018666Y005061D03*
X017666Y005061D03*
X016666Y005061D03*
X015666Y005061D03*
X014666Y005061D03*
X008666Y012061D03*
X006666Y013561D03*
X006666Y014561D03*
X006666Y015561D03*
X008666Y016061D03*
X009166Y017561D03*
X009166Y021561D03*
D14*
X011166Y019923D03*
X016666Y019923D03*
D15*
X017666Y019923D03*
X018666Y019923D03*
X013166Y019923D03*
X012166Y019923D03*
D16*
X006993Y003416D02*
X035339Y003416D01*
X034709Y004990D02*
X034711Y005040D01*
X034717Y005090D01*
X034727Y005139D01*
X034741Y005187D01*
X034758Y005234D01*
X034779Y005279D01*
X034804Y005323D01*
X034832Y005364D01*
X034864Y005403D01*
X034898Y005440D01*
X034935Y005474D01*
X034975Y005504D01*
X035017Y005531D01*
X035061Y005555D01*
X035107Y005576D01*
X035154Y005592D01*
X035202Y005605D01*
X035252Y005614D01*
X035301Y005619D01*
X035352Y005620D01*
X035402Y005617D01*
X035451Y005610D01*
X035500Y005599D01*
X035548Y005584D01*
X035594Y005566D01*
X035639Y005544D01*
X035682Y005518D01*
X035723Y005489D01*
X035762Y005457D01*
X035798Y005422D01*
X035830Y005384D01*
X035860Y005344D01*
X035887Y005301D01*
X035910Y005257D01*
X035929Y005211D01*
X035945Y005163D01*
X035957Y005114D01*
X035965Y005065D01*
X035969Y005015D01*
X035969Y004965D01*
X035965Y004915D01*
X035957Y004866D01*
X035945Y004817D01*
X035929Y004769D01*
X035910Y004723D01*
X035887Y004679D01*
X035860Y004636D01*
X035830Y004596D01*
X035798Y004558D01*
X035762Y004523D01*
X035723Y004491D01*
X035682Y004462D01*
X035639Y004436D01*
X035594Y004414D01*
X035548Y004396D01*
X035500Y004381D01*
X035451Y004370D01*
X035402Y004363D01*
X035352Y004360D01*
X035301Y004361D01*
X035252Y004366D01*
X035202Y004375D01*
X035154Y004388D01*
X035107Y004404D01*
X035061Y004425D01*
X035017Y004449D01*
X034975Y004476D01*
X034935Y004506D01*
X034898Y004540D01*
X034864Y004577D01*
X034832Y004616D01*
X034804Y004657D01*
X034779Y004701D01*
X034758Y004746D01*
X034741Y004793D01*
X034727Y004841D01*
X034717Y004890D01*
X034711Y004940D01*
X034709Y004990D01*
X035339Y003415D02*
X035416Y003417D01*
X035493Y003423D01*
X035570Y003432D01*
X035646Y003445D01*
X035722Y003462D01*
X035796Y003483D01*
X035870Y003507D01*
X035942Y003535D01*
X036012Y003566D01*
X036081Y003601D01*
X036149Y003639D01*
X036214Y003680D01*
X036277Y003725D01*
X036338Y003773D01*
X036397Y003823D01*
X036453Y003876D01*
X036506Y003932D01*
X036556Y003991D01*
X036604Y004052D01*
X036649Y004115D01*
X036690Y004180D01*
X036728Y004248D01*
X036763Y004317D01*
X036794Y004387D01*
X036822Y004459D01*
X036846Y004533D01*
X036867Y004607D01*
X036884Y004683D01*
X036897Y004759D01*
X036906Y004836D01*
X036912Y004913D01*
X036914Y004990D01*
X036914Y021132D01*
X034709Y021132D02*
X034711Y021182D01*
X034717Y021232D01*
X034727Y021281D01*
X034741Y021329D01*
X034758Y021376D01*
X034779Y021421D01*
X034804Y021465D01*
X034832Y021506D01*
X034864Y021545D01*
X034898Y021582D01*
X034935Y021616D01*
X034975Y021646D01*
X035017Y021673D01*
X035061Y021697D01*
X035107Y021718D01*
X035154Y021734D01*
X035202Y021747D01*
X035252Y021756D01*
X035301Y021761D01*
X035352Y021762D01*
X035402Y021759D01*
X035451Y021752D01*
X035500Y021741D01*
X035548Y021726D01*
X035594Y021708D01*
X035639Y021686D01*
X035682Y021660D01*
X035723Y021631D01*
X035762Y021599D01*
X035798Y021564D01*
X035830Y021526D01*
X035860Y021486D01*
X035887Y021443D01*
X035910Y021399D01*
X035929Y021353D01*
X035945Y021305D01*
X035957Y021256D01*
X035965Y021207D01*
X035969Y021157D01*
X035969Y021107D01*
X035965Y021057D01*
X035957Y021008D01*
X035945Y020959D01*
X035929Y020911D01*
X035910Y020865D01*
X035887Y020821D01*
X035860Y020778D01*
X035830Y020738D01*
X035798Y020700D01*
X035762Y020665D01*
X035723Y020633D01*
X035682Y020604D01*
X035639Y020578D01*
X035594Y020556D01*
X035548Y020538D01*
X035500Y020523D01*
X035451Y020512D01*
X035402Y020505D01*
X035352Y020502D01*
X035301Y020503D01*
X035252Y020508D01*
X035202Y020517D01*
X035154Y020530D01*
X035107Y020546D01*
X035061Y020567D01*
X035017Y020591D01*
X034975Y020618D01*
X034935Y020648D01*
X034898Y020682D01*
X034864Y020719D01*
X034832Y020758D01*
X034804Y020799D01*
X034779Y020843D01*
X034758Y020888D01*
X034741Y020935D01*
X034727Y020983D01*
X034717Y021032D01*
X034711Y021082D01*
X034709Y021132D01*
X035339Y022707D02*
X035416Y022705D01*
X035493Y022699D01*
X035570Y022690D01*
X035646Y022677D01*
X035722Y022660D01*
X035796Y022639D01*
X035870Y022615D01*
X035942Y022587D01*
X036012Y022556D01*
X036081Y022521D01*
X036149Y022483D01*
X036214Y022442D01*
X036277Y022397D01*
X036338Y022349D01*
X036397Y022299D01*
X036453Y022246D01*
X036506Y022190D01*
X036556Y022131D01*
X036604Y022070D01*
X036649Y022007D01*
X036690Y021942D01*
X036728Y021874D01*
X036763Y021805D01*
X036794Y021735D01*
X036822Y021663D01*
X036846Y021589D01*
X036867Y021515D01*
X036884Y021439D01*
X036897Y021363D01*
X036906Y021286D01*
X036912Y021209D01*
X036914Y021132D01*
X035339Y022707D02*
X006993Y022707D01*
X006363Y021132D02*
X006365Y021182D01*
X006371Y021232D01*
X006381Y021281D01*
X006395Y021329D01*
X006412Y021376D01*
X006433Y021421D01*
X006458Y021465D01*
X006486Y021506D01*
X006518Y021545D01*
X006552Y021582D01*
X006589Y021616D01*
X006629Y021646D01*
X006671Y021673D01*
X006715Y021697D01*
X006761Y021718D01*
X006808Y021734D01*
X006856Y021747D01*
X006906Y021756D01*
X006955Y021761D01*
X007006Y021762D01*
X007056Y021759D01*
X007105Y021752D01*
X007154Y021741D01*
X007202Y021726D01*
X007248Y021708D01*
X007293Y021686D01*
X007336Y021660D01*
X007377Y021631D01*
X007416Y021599D01*
X007452Y021564D01*
X007484Y021526D01*
X007514Y021486D01*
X007541Y021443D01*
X007564Y021399D01*
X007583Y021353D01*
X007599Y021305D01*
X007611Y021256D01*
X007619Y021207D01*
X007623Y021157D01*
X007623Y021107D01*
X007619Y021057D01*
X007611Y021008D01*
X007599Y020959D01*
X007583Y020911D01*
X007564Y020865D01*
X007541Y020821D01*
X007514Y020778D01*
X007484Y020738D01*
X007452Y020700D01*
X007416Y020665D01*
X007377Y020633D01*
X007336Y020604D01*
X007293Y020578D01*
X007248Y020556D01*
X007202Y020538D01*
X007154Y020523D01*
X007105Y020512D01*
X007056Y020505D01*
X007006Y020502D01*
X006955Y020503D01*
X006906Y020508D01*
X006856Y020517D01*
X006808Y020530D01*
X006761Y020546D01*
X006715Y020567D01*
X006671Y020591D01*
X006629Y020618D01*
X006589Y020648D01*
X006552Y020682D01*
X006518Y020719D01*
X006486Y020758D01*
X006458Y020799D01*
X006433Y020843D01*
X006412Y020888D01*
X006395Y020935D01*
X006381Y020983D01*
X006371Y021032D01*
X006365Y021082D01*
X006363Y021132D01*
X005418Y021132D02*
X005420Y021209D01*
X005426Y021286D01*
X005435Y021363D01*
X005448Y021439D01*
X005465Y021515D01*
X005486Y021589D01*
X005510Y021663D01*
X005538Y021735D01*
X005569Y021805D01*
X005604Y021874D01*
X005642Y021942D01*
X005683Y022007D01*
X005728Y022070D01*
X005776Y022131D01*
X005826Y022190D01*
X005879Y022246D01*
X005935Y022299D01*
X005994Y022349D01*
X006055Y022397D01*
X006118Y022442D01*
X006183Y022483D01*
X006251Y022521D01*
X006320Y022556D01*
X006390Y022587D01*
X006462Y022615D01*
X006536Y022639D01*
X006610Y022660D01*
X006686Y022677D01*
X006762Y022690D01*
X006839Y022699D01*
X006916Y022705D01*
X006993Y022707D01*
X005418Y021132D02*
X005418Y004990D01*
X006363Y004990D02*
X006365Y005040D01*
X006371Y005090D01*
X006381Y005139D01*
X006395Y005187D01*
X006412Y005234D01*
X006433Y005279D01*
X006458Y005323D01*
X006486Y005364D01*
X006518Y005403D01*
X006552Y005440D01*
X006589Y005474D01*
X006629Y005504D01*
X006671Y005531D01*
X006715Y005555D01*
X006761Y005576D01*
X006808Y005592D01*
X006856Y005605D01*
X006906Y005614D01*
X006955Y005619D01*
X007006Y005620D01*
X007056Y005617D01*
X007105Y005610D01*
X007154Y005599D01*
X007202Y005584D01*
X007248Y005566D01*
X007293Y005544D01*
X007336Y005518D01*
X007377Y005489D01*
X007416Y005457D01*
X007452Y005422D01*
X007484Y005384D01*
X007514Y005344D01*
X007541Y005301D01*
X007564Y005257D01*
X007583Y005211D01*
X007599Y005163D01*
X007611Y005114D01*
X007619Y005065D01*
X007623Y005015D01*
X007623Y004965D01*
X007619Y004915D01*
X007611Y004866D01*
X007599Y004817D01*
X007583Y004769D01*
X007564Y004723D01*
X007541Y004679D01*
X007514Y004636D01*
X007484Y004596D01*
X007452Y004558D01*
X007416Y004523D01*
X007377Y004491D01*
X007336Y004462D01*
X007293Y004436D01*
X007248Y004414D01*
X007202Y004396D01*
X007154Y004381D01*
X007105Y004370D01*
X007056Y004363D01*
X007006Y004360D01*
X006955Y004361D01*
X006906Y004366D01*
X006856Y004375D01*
X006808Y004388D01*
X006761Y004404D01*
X006715Y004425D01*
X006671Y004449D01*
X006629Y004476D01*
X006589Y004506D01*
X006552Y004540D01*
X006518Y004577D01*
X006486Y004616D01*
X006458Y004657D01*
X006433Y004701D01*
X006412Y004746D01*
X006395Y004793D01*
X006381Y004841D01*
X006371Y004890D01*
X006365Y004940D01*
X006363Y004990D01*
X005418Y004990D02*
X005420Y004913D01*
X005426Y004836D01*
X005435Y004759D01*
X005448Y004683D01*
X005465Y004607D01*
X005486Y004533D01*
X005510Y004459D01*
X005538Y004387D01*
X005569Y004317D01*
X005604Y004248D01*
X005642Y004180D01*
X005683Y004115D01*
X005728Y004052D01*
X005776Y003991D01*
X005826Y003932D01*
X005879Y003876D01*
X005935Y003823D01*
X005994Y003773D01*
X006055Y003725D01*
X006118Y003680D01*
X006183Y003639D01*
X006251Y003601D01*
X006320Y003566D01*
X006390Y003535D01*
X006462Y003507D01*
X006536Y003483D01*
X006610Y003462D01*
X006686Y003445D01*
X006762Y003432D01*
X006839Y003423D01*
X006916Y003417D01*
X006993Y003415D01*
D17*
X006993Y004990D03*
X006993Y021132D03*
X035339Y021132D03*
X035339Y004990D03*
D18*
X009916Y009511D02*
X009916Y010311D01*
X007466Y010311D02*
X007466Y009511D01*
X008266Y007961D02*
X009066Y007961D01*
D19*
X010166Y006061D03*
X011166Y006061D03*
X012166Y006061D03*
X012166Y005061D03*
X011166Y005061D03*
X010166Y005061D03*
D20*
X021666Y005061D03*
D21*
X007666Y018561D03*
X006666Y018561D03*
M02*
