G75*
%MOIN*%
%OFA0B0*%
%FSLAX24Y24*%
%IPPOS*%
%LPD*%
%AMOC8*
5,1,8,0,0,1.08239X$1,22.5*
%
%ADD10C,0.0080*%
%ADD11C,0.0060*%
%ADD12C,0.0110*%
%ADD13C,0.0050*%
%ADD14C,0.0100*%
%ADD15C,0.0000*%
%ADD16C,0.0006*%
%ADD17C,0.0010*%
D10*
X009666Y004811D02*
X009916Y004561D01*
X010416Y004561D01*
X010666Y004811D01*
X010666Y006311D01*
X010416Y006561D01*
X009916Y006561D01*
X009666Y006311D01*
X009666Y004811D01*
X010666Y004811D02*
X010916Y004561D01*
X011416Y004561D01*
X011666Y004811D01*
X011666Y006311D01*
X011416Y006561D01*
X010916Y006561D01*
X010666Y006311D01*
X010456Y006851D02*
X010316Y006851D01*
X010246Y006921D01*
X010386Y007061D02*
X010456Y007061D01*
X010526Y006991D01*
X010526Y006921D01*
X010456Y006851D01*
X010456Y007061D02*
X010526Y007132D01*
X010526Y007202D01*
X010456Y007272D01*
X010316Y007272D01*
X010246Y007202D01*
X010066Y007272D02*
X009925Y007272D01*
X009996Y007272D02*
X009996Y006921D01*
X009925Y006851D01*
X009855Y006851D01*
X009785Y006921D01*
X011478Y006851D02*
X011619Y006851D01*
X011548Y006851D02*
X011548Y007272D01*
X011478Y007272D02*
X011619Y007272D01*
X011785Y007202D02*
X011785Y007132D01*
X011855Y007061D01*
X011996Y007061D01*
X012066Y006991D01*
X012066Y006921D01*
X011996Y006851D01*
X011855Y006851D01*
X011785Y006921D01*
X011916Y006693D02*
X012416Y006693D01*
X012416Y006561D02*
X011916Y006561D01*
X011666Y006311D01*
X012416Y006561D02*
X012666Y006311D01*
X012666Y004811D01*
X012416Y004561D01*
X011916Y004561D01*
X011666Y004811D01*
X013456Y006421D02*
X013456Y006561D01*
X013526Y006632D01*
X013806Y006632D01*
X013876Y006561D01*
X013876Y006421D01*
X013806Y006351D01*
X013526Y006351D01*
X013456Y006421D01*
X013736Y006491D02*
X013876Y006632D01*
X013876Y006812D02*
X013876Y007092D01*
X013876Y006952D02*
X013456Y006952D01*
X013596Y006812D01*
X012526Y007061D02*
X012526Y007202D01*
X012456Y007272D01*
X012246Y007272D01*
X012246Y006851D01*
X012246Y006991D02*
X012456Y006991D01*
X012526Y007061D01*
X012066Y007202D02*
X011996Y007272D01*
X011855Y007272D01*
X011785Y007202D01*
X011277Y008058D02*
X010996Y008338D01*
X011066Y008268D02*
X010856Y008058D01*
X010856Y008338D02*
X011277Y008338D01*
X011206Y008518D02*
X011277Y008588D01*
X011277Y008728D01*
X011206Y008799D01*
X010926Y008799D01*
X010856Y008728D01*
X010856Y008588D01*
X010926Y008518D01*
X010856Y008979D02*
X011136Y008979D01*
X011277Y009119D01*
X011136Y009259D01*
X010856Y009259D01*
X011066Y009259D02*
X011066Y008979D01*
X011277Y009439D02*
X011277Y009579D01*
X011277Y009509D02*
X010926Y009509D01*
X010856Y009579D01*
X010856Y009649D01*
X010926Y009719D01*
X010856Y009899D02*
X010996Y010040D01*
X010996Y009970D02*
X010996Y010180D01*
X010856Y010180D02*
X011277Y010180D01*
X011277Y009970D01*
X011206Y009899D01*
X011066Y009899D01*
X010996Y009970D01*
X010856Y010360D02*
X010856Y010640D01*
X011277Y010640D01*
X011277Y010360D01*
X011066Y010500D02*
X011066Y010640D01*
X010856Y010820D02*
X011277Y010820D01*
X011277Y011101D02*
X010856Y011101D01*
X010996Y010960D01*
X010856Y010820D01*
X010926Y011281D02*
X011206Y011281D01*
X011277Y011351D01*
X011277Y011491D01*
X011206Y011561D01*
X010926Y011561D01*
X010856Y011491D01*
X010856Y011351D01*
X010926Y011281D01*
X011066Y011741D02*
X010996Y011811D01*
X010996Y012021D01*
X010856Y012021D02*
X011277Y012021D01*
X011277Y011811D01*
X011206Y011741D01*
X011066Y011741D01*
X012706Y013101D02*
X012706Y013522D01*
X012916Y013522D01*
X012986Y013452D01*
X012986Y013311D01*
X012916Y013241D01*
X012706Y013241D01*
X012846Y013241D02*
X012986Y013101D01*
X013167Y013101D02*
X013167Y013522D01*
X013447Y013101D01*
X013447Y013522D01*
X013627Y013382D02*
X013767Y013522D01*
X013767Y013101D01*
X013627Y013101D02*
X013907Y013101D01*
X009139Y012821D02*
X009139Y015301D01*
X008194Y015301D01*
X008194Y012821D01*
X009139Y012821D01*
X008816Y013701D02*
X008396Y013701D01*
X008396Y013911D01*
X008466Y013982D01*
X008606Y013982D01*
X008676Y013911D01*
X008676Y013701D01*
X008676Y013841D02*
X008816Y013982D01*
X008816Y014162D02*
X008816Y014442D01*
X008816Y014302D02*
X008396Y014302D01*
X008536Y014162D01*
X007272Y013022D02*
X007272Y016101D01*
X006060Y016101D01*
X006060Y013022D01*
X007272Y013022D01*
X006307Y011772D02*
X006167Y011632D01*
X006307Y011772D02*
X006307Y011351D01*
X006167Y011351D02*
X006447Y011351D01*
X005916Y011421D02*
X005916Y011772D01*
X005846Y011772D02*
X005986Y011772D01*
X005916Y011421D02*
X005846Y011351D01*
X005776Y011351D01*
X005706Y011421D01*
X006376Y016401D02*
X006306Y016471D01*
X006376Y016401D02*
X006516Y016401D01*
X006586Y016471D01*
X006586Y016541D01*
X006516Y016611D01*
X006376Y016611D01*
X006306Y016682D01*
X006306Y016752D01*
X006376Y016822D01*
X006516Y016822D01*
X006586Y016752D01*
X006767Y016682D02*
X006907Y016822D01*
X006907Y016401D01*
X006767Y016401D02*
X007047Y016401D01*
X006056Y018001D02*
X005916Y018001D01*
X005846Y018072D01*
X005846Y018282D01*
X005706Y018282D02*
X006127Y018282D01*
X006127Y018072D01*
X006056Y018001D01*
X005846Y018142D02*
X005706Y018001D01*
X005706Y018462D02*
X006127Y018462D01*
X006127Y018742D02*
X005706Y018742D01*
X005846Y018602D01*
X005706Y018462D01*
X005916Y018922D02*
X005846Y018992D01*
X005846Y019202D01*
X005706Y019202D02*
X006127Y019202D01*
X006127Y018992D01*
X006056Y018922D01*
X005916Y018922D01*
X008694Y018321D02*
X008694Y020801D01*
X009639Y020801D01*
X009639Y018321D01*
X008694Y018321D01*
X008956Y019151D02*
X008956Y019361D01*
X009026Y019432D01*
X009166Y019432D01*
X009236Y019361D01*
X009236Y019151D01*
X009376Y019151D02*
X008956Y019151D01*
X009236Y019291D02*
X009376Y019432D01*
X009376Y019612D02*
X009096Y019892D01*
X009026Y019892D01*
X008956Y019822D01*
X008956Y019682D01*
X009026Y019612D01*
X009376Y019612D02*
X009376Y019892D01*
X010706Y019272D02*
X010916Y019272D01*
X010986Y019202D01*
X010986Y019061D01*
X010916Y018991D01*
X010706Y018991D01*
X010706Y018851D02*
X010706Y019272D01*
X011167Y019202D02*
X011167Y019132D01*
X011237Y019061D01*
X011377Y019061D01*
X011447Y018991D01*
X011447Y018921D01*
X011377Y018851D01*
X011237Y018851D01*
X011167Y018921D01*
X011167Y018991D01*
X011237Y019061D01*
X011377Y019061D02*
X011447Y019132D01*
X011447Y019202D01*
X011377Y019272D01*
X011237Y019272D01*
X011167Y019202D01*
X010846Y018991D02*
X010986Y018851D01*
X012206Y018851D02*
X012486Y019132D01*
X012486Y019202D01*
X012416Y019272D01*
X012276Y019272D01*
X012206Y019202D01*
X012206Y018851D02*
X012486Y018851D01*
X012667Y018851D02*
X012667Y019272D01*
X012737Y019061D02*
X012947Y018851D01*
X012667Y018991D02*
X012947Y019272D01*
X016206Y019272D02*
X016206Y018851D01*
X016206Y018991D02*
X016416Y018991D01*
X016486Y019061D01*
X016486Y019202D01*
X016416Y019272D01*
X016206Y019272D01*
X016667Y019202D02*
X016667Y019132D01*
X016737Y019061D01*
X016947Y019061D01*
X016947Y018921D02*
X016947Y019202D01*
X016877Y019272D01*
X016737Y019272D01*
X016667Y019202D01*
X016667Y018921D02*
X016737Y018851D01*
X016877Y018851D01*
X016947Y018921D01*
X016486Y018851D02*
X016346Y018991D01*
X017706Y018851D02*
X017986Y018851D01*
X017846Y018851D02*
X017846Y019272D01*
X017706Y019132D01*
X018167Y019202D02*
X018167Y018921D01*
X018447Y019202D01*
X018447Y018921D01*
X018377Y018851D01*
X018237Y018851D01*
X018167Y018921D01*
X018167Y019202D02*
X018237Y019272D01*
X018377Y019272D01*
X018447Y019202D01*
X018627Y019272D02*
X018627Y018851D01*
X018627Y018991D02*
X018907Y019272D01*
X018697Y019061D02*
X018907Y018851D01*
X021166Y020811D02*
X021416Y020561D01*
X021916Y020561D01*
X022166Y020811D01*
X022416Y020561D01*
X022916Y020561D01*
X023166Y020811D01*
X023416Y020561D01*
X023916Y020561D01*
X024166Y020811D01*
X024416Y020561D01*
X024916Y020561D01*
X025166Y020811D01*
X025416Y020561D01*
X025916Y020561D01*
X026166Y020811D01*
X026416Y020561D01*
X026916Y020561D01*
X027166Y020811D01*
X027416Y020561D01*
X027916Y020561D01*
X028166Y020811D01*
X028416Y020561D01*
X028916Y020561D01*
X029166Y020811D01*
X029416Y020561D01*
X029916Y020561D01*
X030166Y020811D01*
X030416Y020561D01*
X030916Y020561D01*
X031166Y020811D01*
X031166Y021311D01*
X030916Y021561D01*
X030416Y021561D01*
X030166Y021311D01*
X029916Y021561D01*
X029416Y021561D01*
X029166Y021311D01*
X028916Y021561D01*
X028416Y021561D01*
X028166Y021311D01*
X027916Y021561D01*
X027416Y021561D01*
X027166Y021311D01*
X026916Y021561D01*
X026416Y021561D01*
X026166Y021311D01*
X025916Y021561D01*
X025416Y021561D01*
X025166Y021311D01*
X024916Y021561D01*
X024416Y021561D01*
X024166Y021311D01*
X023916Y021561D01*
X023416Y021561D01*
X023166Y021311D01*
X022916Y021561D01*
X022416Y021561D01*
X022166Y021311D01*
X021916Y021561D01*
X021416Y021561D01*
X021166Y021311D01*
X021166Y020811D01*
X022956Y018272D02*
X022956Y017851D01*
X023236Y017851D01*
X023417Y017851D02*
X023417Y018272D01*
X023557Y018132D01*
X023697Y018272D01*
X023697Y017851D01*
X023877Y017921D02*
X023947Y017851D01*
X024087Y017851D01*
X024157Y017921D01*
X024157Y017991D01*
X024087Y018061D01*
X024017Y018061D01*
X024087Y018061D02*
X024157Y018132D01*
X024157Y018202D01*
X024087Y018272D01*
X023947Y018272D01*
X023877Y018202D01*
X024337Y018202D02*
X024407Y018272D01*
X024547Y018272D01*
X024618Y018202D01*
X024618Y017921D01*
X024547Y017851D01*
X024407Y017851D01*
X024337Y017921D01*
X024407Y018061D02*
X024618Y018061D01*
X024798Y018132D02*
X024938Y018272D01*
X024938Y017851D01*
X024798Y017851D02*
X025078Y017851D01*
X025258Y017921D02*
X025328Y017851D01*
X025468Y017851D01*
X025538Y017921D01*
X025538Y018061D01*
X025468Y018132D01*
X025398Y018132D01*
X025258Y018061D01*
X025258Y018272D01*
X025538Y018272D01*
X025718Y018272D02*
X025999Y017851D01*
X025999Y018272D01*
X025718Y018272D02*
X025718Y017851D01*
X024407Y018061D02*
X024337Y018132D01*
X024337Y018202D01*
X024416Y015572D02*
X024206Y015361D01*
X024486Y015361D01*
X024416Y015151D02*
X024416Y015572D01*
X024667Y015572D02*
X024947Y015572D01*
X024947Y015502D01*
X024667Y015221D01*
X024667Y015151D01*
X025127Y015221D02*
X025407Y015502D01*
X025407Y015221D01*
X025337Y015151D01*
X025197Y015151D01*
X025127Y015221D01*
X025127Y015502D01*
X025197Y015572D01*
X025337Y015572D01*
X025407Y015502D01*
X026926Y015534D02*
X026926Y014589D01*
X029406Y014589D01*
X029406Y015534D01*
X026926Y015534D01*
X027556Y015272D02*
X027766Y015272D01*
X027836Y015202D01*
X027836Y015061D01*
X027766Y014991D01*
X027556Y014991D01*
X027556Y014851D02*
X027556Y015272D01*
X027696Y014991D02*
X027836Y014851D01*
X028017Y014851D02*
X028297Y014851D01*
X028157Y014851D02*
X028157Y015272D01*
X028017Y015132D01*
X028477Y015202D02*
X028547Y015272D01*
X028687Y015272D01*
X028757Y015202D01*
X028757Y015132D01*
X028687Y015061D01*
X028757Y014991D01*
X028757Y014921D01*
X028687Y014851D01*
X028547Y014851D01*
X028477Y014921D01*
X028617Y015061D02*
X028687Y015061D01*
X029406Y014034D02*
X026926Y014034D01*
X026926Y013089D01*
X029406Y013089D01*
X029406Y014034D01*
X028706Y013772D02*
X028496Y013561D01*
X028776Y013561D01*
X028706Y013351D02*
X028706Y013772D01*
X028175Y013772D02*
X028175Y013351D01*
X028035Y013351D02*
X028316Y013351D01*
X027855Y013351D02*
X027715Y013491D01*
X027785Y013491D02*
X027575Y013491D01*
X027575Y013351D02*
X027575Y013772D01*
X027785Y013772D01*
X027855Y013702D01*
X027855Y013561D01*
X027785Y013491D01*
X028035Y013632D02*
X028175Y013772D01*
X028016Y012622D02*
X027876Y012622D01*
X027806Y012552D01*
X027806Y012271D01*
X027876Y012201D01*
X028016Y012201D01*
X028086Y012271D01*
X028267Y012201D02*
X028547Y012482D01*
X028547Y012552D01*
X028477Y012622D01*
X028337Y012622D01*
X028267Y012552D01*
X028086Y012552D02*
X028016Y012622D01*
X028267Y012201D02*
X028547Y012201D01*
X026047Y012271D02*
X025977Y012201D01*
X025837Y012201D01*
X025767Y012271D01*
X025586Y012271D02*
X025516Y012201D01*
X025376Y012201D01*
X025306Y012271D01*
X025306Y012552D01*
X025376Y012622D01*
X025516Y012622D01*
X025586Y012552D01*
X025767Y012552D02*
X025837Y012622D01*
X025977Y012622D01*
X026047Y012552D01*
X026047Y012482D01*
X025977Y012411D01*
X026047Y012341D01*
X026047Y012271D01*
X025977Y012411D02*
X025907Y012411D01*
X025337Y013651D02*
X025197Y013651D01*
X025127Y013721D01*
X025407Y014002D01*
X025407Y013721D01*
X025337Y013651D01*
X025127Y013721D02*
X025127Y014002D01*
X025197Y014072D01*
X025337Y014072D01*
X025407Y014002D01*
X024947Y014002D02*
X024877Y014072D01*
X024737Y014072D01*
X024667Y014002D01*
X024486Y014002D02*
X024486Y013932D01*
X024416Y013861D01*
X024276Y013861D01*
X024206Y013932D01*
X024206Y014002D01*
X024276Y014072D01*
X024416Y014072D01*
X024486Y014002D01*
X024416Y013861D02*
X024486Y013791D01*
X024486Y013721D01*
X024416Y013651D01*
X024276Y013651D01*
X024206Y013721D01*
X024206Y013791D01*
X024276Y013861D01*
X024667Y013651D02*
X024947Y013932D01*
X024947Y014002D01*
X024947Y013651D02*
X024667Y013651D01*
X023477Y012622D02*
X023267Y012411D01*
X023547Y012411D01*
X023477Y012201D02*
X023477Y012622D01*
X023086Y012552D02*
X023016Y012622D01*
X022876Y012622D01*
X022806Y012552D01*
X022806Y012271D01*
X022876Y012201D01*
X023016Y012201D01*
X023086Y012271D01*
X022566Y012122D02*
X022146Y012122D01*
X022146Y012332D01*
X022216Y012402D01*
X022356Y012402D01*
X022426Y012332D01*
X022426Y012122D01*
X022356Y011942D02*
X022426Y011872D01*
X022426Y011732D01*
X022356Y011662D01*
X022356Y011482D02*
X022426Y011411D01*
X022426Y011271D01*
X022356Y011201D01*
X022216Y011341D02*
X022216Y011411D01*
X022286Y011482D01*
X022356Y011482D01*
X022216Y011411D02*
X022146Y011482D01*
X022076Y011482D01*
X022006Y011411D01*
X022006Y011271D01*
X022076Y011201D01*
X022076Y011662D02*
X022006Y011732D01*
X022006Y011872D01*
X022076Y011942D01*
X022146Y011942D01*
X022216Y011872D01*
X022286Y011942D01*
X022356Y011942D01*
X022216Y011872D02*
X022216Y011802D01*
X022216Y012582D02*
X022216Y012723D01*
X022006Y012582D02*
X022006Y012863D01*
X022006Y012582D02*
X022426Y012582D01*
X022356Y013501D02*
X022216Y013501D01*
X022146Y013571D01*
X022146Y013711D02*
X022286Y013782D01*
X022356Y013782D01*
X022426Y013711D01*
X022426Y013571D01*
X022356Y013501D01*
X022146Y013711D02*
X022146Y013922D01*
X022426Y013922D01*
X021966Y013852D02*
X021896Y013922D01*
X021755Y013922D01*
X021685Y013852D01*
X021685Y013571D01*
X021755Y013501D01*
X021896Y013501D01*
X021966Y013571D01*
X018806Y009592D02*
X018736Y009592D01*
X018666Y009522D01*
X018666Y009312D01*
X018806Y009312D01*
X018876Y009382D01*
X018876Y009522D01*
X018806Y009592D01*
X018526Y009452D02*
X018666Y009312D01*
X018526Y009452D02*
X018456Y009592D01*
X018526Y009132D02*
X018806Y009132D01*
X018876Y009061D01*
X018876Y008921D01*
X018806Y008851D01*
X018526Y008851D01*
X018456Y008921D01*
X018456Y009061D01*
X018526Y009132D01*
X018736Y008991D02*
X018876Y009132D01*
X016876Y009132D02*
X016736Y008991D01*
X016876Y008921D02*
X016806Y008851D01*
X016526Y008851D01*
X016456Y008921D01*
X016456Y009061D01*
X016526Y009132D01*
X016806Y009132D01*
X016876Y009061D01*
X016876Y008921D01*
X016666Y009312D02*
X016666Y009592D01*
X016876Y009522D02*
X016456Y009522D01*
X016666Y009312D01*
X014876Y009312D02*
X014596Y009592D01*
X014526Y009592D01*
X014456Y009522D01*
X014456Y009382D01*
X014526Y009312D01*
X014526Y009132D02*
X014806Y009132D01*
X014876Y009061D01*
X014876Y008921D01*
X014806Y008851D01*
X014526Y008851D01*
X014456Y008921D01*
X014456Y009061D01*
X014526Y009132D01*
X014736Y008991D02*
X014876Y009132D01*
X014876Y009312D02*
X014876Y009592D01*
X015526Y007092D02*
X015596Y007092D01*
X015666Y007022D01*
X015736Y007092D01*
X015806Y007092D01*
X015876Y007022D01*
X015876Y006882D01*
X015806Y006812D01*
X015806Y006632D02*
X015876Y006561D01*
X015876Y006421D01*
X015806Y006351D01*
X015526Y006351D01*
X015456Y006421D01*
X015456Y006561D01*
X015526Y006632D01*
X015806Y006632D01*
X015876Y006632D02*
X015736Y006491D01*
X015526Y006812D02*
X015456Y006882D01*
X015456Y007022D01*
X015526Y007092D01*
X015666Y007022D02*
X015666Y006952D01*
X017456Y007092D02*
X017456Y006812D01*
X017666Y006812D01*
X017596Y006952D01*
X017596Y007022D01*
X017666Y007092D01*
X017806Y007092D01*
X017876Y007022D01*
X017876Y006882D01*
X017806Y006812D01*
X017806Y006632D02*
X017526Y006632D01*
X017456Y006561D01*
X017456Y006421D01*
X017526Y006351D01*
X017806Y006351D01*
X017876Y006421D01*
X017876Y006561D01*
X017806Y006632D01*
X017876Y006632D02*
X017736Y006491D01*
X017916Y005561D02*
X017416Y005561D01*
X017166Y005311D01*
X016916Y005561D01*
X016416Y005561D01*
X016166Y005311D01*
X015916Y005561D01*
X015416Y005561D01*
X015166Y005311D01*
X014916Y005561D01*
X014416Y005561D01*
X014166Y005311D01*
X014166Y004811D01*
X014416Y004561D01*
X014916Y004561D01*
X015166Y004811D01*
X015416Y004561D01*
X015916Y004561D01*
X016166Y004811D01*
X016416Y004561D01*
X016916Y004561D01*
X017166Y004811D01*
X017416Y004561D01*
X017916Y004561D01*
X018166Y004811D01*
X018416Y004561D01*
X018916Y004561D01*
X019166Y004811D01*
X019416Y004561D01*
X019916Y004561D01*
X020166Y004811D01*
X020416Y004561D01*
X020916Y004561D01*
X021166Y004811D01*
X021416Y004561D01*
X021916Y004561D01*
X022166Y004811D01*
X022166Y005311D01*
X021916Y005561D01*
X021416Y005561D01*
X021166Y005311D01*
X020916Y005561D01*
X020416Y005561D01*
X020166Y005311D01*
X019916Y005561D01*
X019416Y005561D01*
X019166Y005311D01*
X018916Y005561D01*
X018416Y005561D01*
X018166Y005311D01*
X017916Y005561D01*
X019456Y006421D02*
X019456Y006561D01*
X019526Y006632D01*
X019806Y006632D01*
X019876Y006561D01*
X019876Y006421D01*
X019806Y006351D01*
X019526Y006351D01*
X019456Y006421D01*
X019736Y006491D02*
X019876Y006632D01*
X019876Y006812D02*
X019806Y006812D01*
X019526Y007092D01*
X019456Y007092D01*
X019456Y006812D01*
X020776Y005991D02*
X020846Y005921D01*
X020916Y005921D01*
X020986Y005991D01*
X020986Y006342D01*
X020916Y006342D02*
X021056Y006342D01*
X021237Y006342D02*
X021447Y006342D01*
X021517Y006272D01*
X021517Y006131D01*
X021447Y006061D01*
X021237Y006061D01*
X021237Y005921D02*
X021237Y006342D01*
X021697Y006272D02*
X021767Y006342D01*
X021907Y006342D01*
X021977Y006272D01*
X021977Y006202D01*
X021697Y005921D01*
X021977Y005921D01*
X022694Y006321D02*
X022694Y008801D01*
X023639Y008801D01*
X023639Y006321D01*
X022694Y006321D01*
X022476Y006801D02*
X022196Y007082D01*
X022126Y007082D01*
X022056Y007011D01*
X022056Y006871D01*
X022126Y006801D01*
X022476Y006801D02*
X022476Y007082D01*
X022406Y007262D02*
X022126Y007542D01*
X022406Y007542D01*
X022476Y007472D01*
X022476Y007332D01*
X022406Y007262D01*
X022126Y007262D01*
X022056Y007332D01*
X022056Y007472D01*
X022126Y007542D01*
X022126Y007722D02*
X022056Y007792D01*
X022056Y007932D01*
X022126Y008002D01*
X022406Y007722D01*
X022476Y007792D01*
X022476Y007932D01*
X022406Y008002D01*
X022126Y008002D01*
X022056Y008182D02*
X022476Y008182D01*
X022336Y008182D02*
X022056Y008463D01*
X022266Y008253D02*
X022476Y008463D01*
X022956Y008082D02*
X022956Y007942D01*
X023026Y007872D01*
X022956Y008082D02*
X023026Y008152D01*
X023096Y008152D01*
X023376Y007872D01*
X023376Y008152D01*
X023376Y007692D02*
X023376Y007412D01*
X023376Y007552D02*
X022956Y007552D01*
X023096Y007412D01*
X023166Y007232D02*
X023236Y007161D01*
X023236Y006951D01*
X023376Y006951D02*
X022956Y006951D01*
X022956Y007161D01*
X023026Y007232D01*
X023166Y007232D01*
X023236Y007091D02*
X023376Y007232D01*
X022406Y007722D02*
X022126Y007722D01*
X024806Y008351D02*
X024806Y008772D01*
X024946Y008632D01*
X025086Y008772D01*
X025086Y008351D01*
X025267Y008421D02*
X025337Y008351D01*
X025477Y008351D01*
X025547Y008421D01*
X025547Y008491D01*
X025477Y008561D01*
X025337Y008561D01*
X025267Y008632D01*
X025267Y008702D01*
X025337Y008772D01*
X025477Y008772D01*
X025547Y008702D01*
X025727Y008702D02*
X025727Y008421D01*
X025797Y008351D01*
X025937Y008351D01*
X026007Y008421D01*
X026007Y008561D01*
X025867Y008561D01*
X025727Y008702D02*
X025797Y008772D01*
X025937Y008772D01*
X026007Y008702D01*
X026187Y008772D02*
X026187Y008351D01*
X026468Y008351D01*
X026648Y008421D02*
X026718Y008351D01*
X026858Y008351D01*
X026928Y008421D01*
X026928Y008702D01*
X026858Y008772D01*
X026718Y008772D01*
X026648Y008702D01*
X026648Y008421D01*
X026788Y008491D02*
X026928Y008351D01*
X027108Y008351D02*
X027108Y008421D01*
X027388Y008702D01*
X027388Y008772D01*
X027108Y008772D01*
X026468Y008772D02*
X026187Y008772D01*
X026187Y008561D02*
X026327Y008561D01*
X028694Y009301D02*
X029639Y009301D01*
X029639Y006821D01*
X028694Y006821D01*
X028694Y009301D01*
X029026Y008652D02*
X029306Y008372D01*
X029376Y008442D01*
X029376Y008582D01*
X029306Y008652D01*
X029026Y008652D01*
X028956Y008582D01*
X028956Y008442D01*
X029026Y008372D01*
X029306Y008372D01*
X029376Y008192D02*
X029376Y007912D01*
X029376Y008052D02*
X028956Y008052D01*
X029096Y007912D01*
X029166Y007732D02*
X029236Y007661D01*
X029236Y007451D01*
X029376Y007451D02*
X028956Y007451D01*
X028956Y007661D01*
X029026Y007732D01*
X029166Y007732D01*
X029236Y007591D02*
X029376Y007732D01*
X030456Y007661D02*
X030526Y007732D01*
X030666Y007732D01*
X030736Y007661D01*
X030736Y007451D01*
X030876Y007451D02*
X030456Y007451D01*
X030456Y007661D01*
X030596Y007912D02*
X030456Y008052D01*
X030876Y008052D01*
X030876Y007912D02*
X030876Y008192D01*
X030876Y008372D02*
X030876Y008652D01*
X030876Y008512D02*
X030456Y008512D01*
X030596Y008372D01*
X030876Y007732D02*
X030736Y007591D01*
X031139Y006821D02*
X030194Y006821D01*
X030194Y009301D01*
X031139Y009301D01*
X031139Y006821D01*
X031756Y006851D02*
X031756Y007132D01*
X031896Y007272D01*
X032036Y007132D01*
X032036Y006851D01*
X032216Y006921D02*
X032286Y006851D01*
X032426Y006851D01*
X032496Y006921D01*
X032496Y007272D01*
X032676Y007272D02*
X032887Y007272D01*
X032957Y007202D01*
X032957Y006921D01*
X032887Y006851D01*
X032676Y006851D01*
X032676Y007272D01*
X032216Y007272D02*
X032216Y006921D01*
X032036Y007061D02*
X031756Y007061D01*
X031843Y007738D02*
X031843Y011301D01*
X031843Y012384D02*
X036489Y012384D01*
X036489Y007738D01*
X031843Y007738D01*
X033137Y007272D02*
X033277Y007272D01*
X033207Y007272D02*
X033207Y006851D01*
X033137Y006851D02*
X033277Y006851D01*
X033444Y006921D02*
X033514Y006851D01*
X033654Y006851D01*
X033724Y006921D01*
X033724Y007202D01*
X033654Y007272D01*
X033514Y007272D01*
X033444Y007202D01*
X033444Y006921D01*
X033904Y006781D02*
X034184Y006781D01*
X034365Y006921D02*
X034435Y006851D01*
X034575Y006851D01*
X034645Y006921D01*
X034825Y006921D02*
X034895Y006851D01*
X035035Y006851D01*
X035105Y006921D01*
X035105Y007202D01*
X035035Y007272D01*
X034895Y007272D01*
X034825Y007202D01*
X034825Y006921D01*
X034365Y006921D02*
X034365Y007202D01*
X034435Y007272D01*
X034575Y007272D01*
X034645Y007202D01*
X035285Y007272D02*
X035566Y006851D01*
X035566Y007272D01*
X035746Y007202D02*
X035816Y007272D01*
X035956Y007272D01*
X036026Y007202D01*
X036026Y007132D01*
X035746Y006851D01*
X036026Y006851D01*
X035285Y006851D02*
X035285Y007272D01*
X032208Y004822D02*
X032067Y004682D01*
X031887Y004752D02*
X031887Y004611D01*
X031817Y004541D01*
X031607Y004541D01*
X031607Y004401D02*
X031607Y004822D01*
X031817Y004822D01*
X031887Y004752D01*
X031747Y004541D02*
X031887Y004401D01*
X032067Y004401D02*
X032348Y004401D01*
X032208Y004401D02*
X032208Y004822D01*
X030967Y004752D02*
X030967Y004471D01*
X030896Y004401D01*
X030756Y004401D01*
X030686Y004471D01*
X030967Y004752D01*
X030896Y004822D01*
X030756Y004822D01*
X030686Y004752D01*
X030686Y004471D01*
X030506Y004401D02*
X030226Y004401D01*
X030366Y004401D02*
X030366Y004822D01*
X030226Y004682D01*
X030046Y004682D02*
X029765Y004401D01*
X029765Y004682D02*
X030046Y004401D01*
X029125Y004401D02*
X028915Y004401D01*
X028845Y004471D01*
X028845Y004611D01*
X028915Y004682D01*
X029125Y004682D01*
X029125Y004822D02*
X029125Y004401D01*
X028665Y004401D02*
X028665Y004611D01*
X028594Y004682D01*
X028384Y004682D01*
X028384Y004401D01*
X028204Y004401D02*
X027994Y004401D01*
X027924Y004471D01*
X027994Y004541D01*
X028204Y004541D01*
X028204Y004611D02*
X028204Y004401D01*
X028204Y004611D02*
X028134Y004682D01*
X027994Y004682D01*
X027744Y004611D02*
X027674Y004682D01*
X027464Y004682D01*
X027464Y004822D02*
X027464Y004401D01*
X027674Y004401D01*
X027744Y004471D01*
X027744Y004611D01*
X027283Y004611D02*
X027003Y004611D01*
X026823Y004752D02*
X026543Y004471D01*
X026543Y004401D01*
X026543Y004822D02*
X026823Y004822D01*
X026823Y004752D01*
X025902Y004682D02*
X025622Y004401D01*
X025455Y004401D02*
X025315Y004401D01*
X025385Y004401D02*
X025385Y004682D01*
X025315Y004682D01*
X025385Y004822D02*
X025385Y004892D01*
X025622Y004682D02*
X025902Y004401D01*
X025135Y004471D02*
X025135Y004611D01*
X025065Y004682D01*
X024855Y004682D01*
X024855Y004822D02*
X024855Y004401D01*
X025065Y004401D01*
X025135Y004471D01*
X024674Y004401D02*
X024674Y004682D01*
X024394Y004682D02*
X024394Y004471D01*
X024464Y004401D01*
X024674Y004401D01*
X024214Y004401D02*
X024004Y004401D01*
X023934Y004471D01*
X023934Y004682D01*
X023697Y004682D02*
X023697Y004401D01*
X023627Y004401D02*
X023767Y004401D01*
X023697Y004682D02*
X023627Y004682D01*
X023697Y004822D02*
X023697Y004892D01*
X023447Y004611D02*
X023377Y004682D01*
X023167Y004682D01*
X023167Y004822D02*
X023167Y004401D01*
X023377Y004401D01*
X023447Y004471D01*
X023447Y004611D01*
X022986Y004682D02*
X022986Y004401D01*
X022776Y004401D01*
X022706Y004471D01*
X022706Y004682D01*
X024074Y004261D02*
X024144Y004261D01*
X024214Y004331D01*
X024214Y004682D01*
X026306Y005671D02*
X026306Y005952D01*
X026376Y006022D01*
X026516Y006022D01*
X026586Y005952D01*
X026767Y005882D02*
X026907Y006022D01*
X026907Y005601D01*
X026767Y005601D02*
X027047Y005601D01*
X026586Y005671D02*
X026516Y005601D01*
X026376Y005601D01*
X026306Y005671D01*
X031843Y013738D02*
X031843Y017301D01*
X031843Y018384D02*
X036489Y018384D01*
X036489Y013738D01*
X031843Y013738D01*
X031956Y018601D02*
X031956Y018882D01*
X032096Y019022D01*
X032236Y018882D01*
X032236Y018601D01*
X032417Y018671D02*
X032487Y018601D01*
X032627Y018601D01*
X032697Y018671D01*
X032697Y019022D01*
X032877Y019022D02*
X033087Y019022D01*
X033157Y018952D01*
X033157Y018671D01*
X033087Y018601D01*
X032877Y018601D01*
X032877Y019022D01*
X033337Y019022D02*
X033477Y019022D01*
X033407Y019022D02*
X033407Y018601D01*
X033337Y018601D02*
X033477Y018601D01*
X033644Y018671D02*
X033714Y018601D01*
X033854Y018601D01*
X033924Y018671D01*
X033924Y018952D01*
X033854Y019022D01*
X033714Y019022D01*
X033644Y018952D01*
X033644Y018671D01*
X034105Y018531D02*
X034385Y018531D01*
X034565Y018671D02*
X034635Y018601D01*
X034775Y018601D01*
X034845Y018671D01*
X035025Y018671D02*
X035095Y018601D01*
X035236Y018601D01*
X035306Y018671D01*
X035306Y018952D01*
X035236Y019022D01*
X035095Y019022D01*
X035025Y018952D01*
X035025Y018671D01*
X034845Y018952D02*
X034775Y019022D01*
X034635Y019022D01*
X034565Y018952D01*
X034565Y018671D01*
X035486Y018601D02*
X035486Y019022D01*
X035766Y018601D01*
X035766Y019022D01*
X035946Y018882D02*
X036086Y019022D01*
X036086Y018601D01*
X035946Y018601D02*
X036226Y018601D01*
X032417Y018671D02*
X032417Y019022D01*
X032236Y018811D02*
X031956Y018811D01*
X031816Y020821D02*
X031886Y020891D01*
X031886Y021242D01*
X031816Y021242D02*
X031956Y021242D01*
X032137Y021242D02*
X032347Y021242D01*
X032417Y021172D01*
X032417Y021031D01*
X032347Y020961D01*
X032137Y020961D01*
X032137Y020821D02*
X032137Y021242D01*
X031816Y020821D02*
X031746Y020821D01*
X031676Y020891D01*
X032597Y020821D02*
X032877Y020821D01*
X032737Y020821D02*
X032737Y021242D01*
X032597Y021102D01*
D11*
X031166Y019211D02*
X031166Y016911D01*
X022166Y016911D01*
X022166Y017661D01*
X022205Y017663D01*
X022244Y017669D01*
X022282Y017678D01*
X022319Y017691D01*
X022355Y017708D01*
X022388Y017728D01*
X022420Y017752D01*
X022449Y017778D01*
X022475Y017807D01*
X022499Y017839D01*
X022519Y017872D01*
X022536Y017908D01*
X022549Y017945D01*
X022558Y017983D01*
X022564Y018022D01*
X022566Y018061D01*
X022564Y018100D01*
X022558Y018139D01*
X022549Y018177D01*
X022536Y018214D01*
X022519Y018250D01*
X022499Y018283D01*
X022475Y018315D01*
X022449Y018344D01*
X022420Y018370D01*
X022388Y018394D01*
X022355Y018414D01*
X022319Y018431D01*
X022282Y018444D01*
X022244Y018453D01*
X022205Y018459D01*
X022166Y018461D01*
X022166Y019211D01*
X031166Y019211D01*
X022616Y014961D02*
X022616Y014161D01*
X022614Y014144D01*
X022610Y014127D01*
X022603Y014111D01*
X022593Y014097D01*
X022580Y014084D01*
X022566Y014074D01*
X022550Y014067D01*
X022533Y014063D01*
X022516Y014061D01*
X020816Y014061D01*
X020799Y014063D01*
X020782Y014067D01*
X020766Y014074D01*
X020752Y014084D01*
X020739Y014097D01*
X020729Y014111D01*
X020722Y014127D01*
X020718Y014144D01*
X020716Y014161D01*
X020716Y014961D01*
X020718Y014978D01*
X020722Y014995D01*
X020729Y015011D01*
X020739Y015025D01*
X020752Y015038D01*
X020766Y015048D01*
X020782Y015055D01*
X020799Y015059D01*
X020816Y015061D01*
X022516Y015061D01*
X022533Y015059D01*
X022550Y015055D01*
X022566Y015048D01*
X022580Y015038D01*
X022593Y015025D01*
X022603Y015011D01*
X022610Y014995D01*
X022614Y014978D01*
X022616Y014961D01*
X021816Y014561D02*
X021766Y014561D01*
X021566Y014561D02*
X021516Y014561D01*
X020366Y014961D02*
X009966Y014961D01*
X009966Y017161D01*
X020366Y017161D01*
X020366Y016311D01*
X020336Y016309D01*
X020306Y016304D01*
X020277Y016295D01*
X020250Y016282D01*
X020224Y016267D01*
X020200Y016248D01*
X020179Y016227D01*
X020160Y016203D01*
X020145Y016177D01*
X020132Y016150D01*
X020123Y016121D01*
X020118Y016091D01*
X020116Y016061D01*
X020118Y016031D01*
X020123Y016001D01*
X020132Y015972D01*
X020145Y015945D01*
X020160Y015919D01*
X020179Y015895D01*
X020200Y015874D01*
X020224Y015855D01*
X020250Y015840D01*
X020277Y015827D01*
X020306Y015818D01*
X020336Y015813D01*
X020366Y015811D01*
X020366Y014961D01*
X020466Y012961D02*
X012866Y012961D01*
X012816Y012911D02*
X013516Y012911D01*
X013516Y012211D01*
X012816Y012211D01*
X012816Y012911D01*
X012866Y012961D02*
X012840Y012959D01*
X012814Y012954D01*
X012789Y012946D01*
X012766Y012934D01*
X012744Y012920D01*
X012725Y012902D01*
X012707Y012883D01*
X012693Y012861D01*
X012681Y012838D01*
X012673Y012813D01*
X012668Y012787D01*
X012666Y012761D01*
X012666Y012361D01*
X012668Y012335D01*
X012673Y012309D01*
X012681Y012284D01*
X012693Y012261D01*
X012707Y012239D01*
X012725Y012220D01*
X012744Y012202D01*
X012766Y012188D01*
X012789Y012176D01*
X012814Y012168D01*
X012840Y012163D01*
X012866Y012161D01*
X020466Y012161D01*
X020492Y012163D01*
X020518Y012168D01*
X020543Y012176D01*
X020566Y012188D01*
X020588Y012202D01*
X020607Y012220D01*
X020625Y012239D01*
X020639Y012261D01*
X020651Y012284D01*
X020659Y012309D01*
X020664Y012335D01*
X020666Y012361D01*
X020666Y012761D01*
X020664Y012787D01*
X020659Y012813D01*
X020651Y012838D01*
X020639Y012861D01*
X020625Y012883D01*
X020607Y012902D01*
X020588Y012920D01*
X020566Y012934D01*
X020543Y012946D01*
X020518Y012954D01*
X020492Y012959D01*
X020466Y012961D01*
X022716Y011961D02*
X022716Y011161D01*
X022718Y011144D01*
X022722Y011127D01*
X022729Y011111D01*
X022739Y011097D01*
X022752Y011084D01*
X022766Y011074D01*
X022782Y011067D01*
X022799Y011063D01*
X022816Y011061D01*
X024516Y011061D01*
X024533Y011063D01*
X024550Y011067D01*
X024566Y011074D01*
X024580Y011084D01*
X024593Y011097D01*
X024603Y011111D01*
X024610Y011127D01*
X024614Y011144D01*
X024616Y011161D01*
X024616Y011961D01*
X024614Y011978D01*
X024610Y011995D01*
X024603Y012011D01*
X024593Y012025D01*
X024580Y012038D01*
X024566Y012048D01*
X024550Y012055D01*
X024533Y012059D01*
X024516Y012061D01*
X022816Y012061D01*
X022799Y012059D01*
X022782Y012055D01*
X022766Y012048D01*
X022752Y012038D01*
X022739Y012025D01*
X022729Y012011D01*
X022722Y011995D01*
X022718Y011978D01*
X022716Y011961D01*
X023516Y011561D02*
X023566Y011561D01*
X023766Y011561D02*
X023816Y011561D01*
X025216Y011961D02*
X025216Y011161D01*
X025218Y011144D01*
X025222Y011127D01*
X025229Y011111D01*
X025239Y011097D01*
X025252Y011084D01*
X025266Y011074D01*
X025282Y011067D01*
X025299Y011063D01*
X025316Y011061D01*
X027016Y011061D01*
X027033Y011063D01*
X027050Y011067D01*
X027066Y011074D01*
X027080Y011084D01*
X027093Y011097D01*
X027103Y011111D01*
X027110Y011127D01*
X027114Y011144D01*
X027116Y011161D01*
X027116Y011961D01*
X027114Y011978D01*
X027110Y011995D01*
X027103Y012011D01*
X027093Y012025D01*
X027080Y012038D01*
X027066Y012048D01*
X027050Y012055D01*
X027033Y012059D01*
X027016Y012061D01*
X025316Y012061D01*
X025299Y012059D01*
X025282Y012055D01*
X025266Y012048D01*
X025252Y012038D01*
X025239Y012025D01*
X025229Y012011D01*
X025222Y011995D01*
X025218Y011978D01*
X025216Y011961D01*
X026016Y011561D02*
X026066Y011561D01*
X026266Y011561D02*
X026316Y011561D01*
X027716Y011161D02*
X027716Y011961D01*
X027718Y011978D01*
X027722Y011995D01*
X027729Y012011D01*
X027739Y012025D01*
X027752Y012038D01*
X027766Y012048D01*
X027782Y012055D01*
X027799Y012059D01*
X027816Y012061D01*
X029516Y012061D01*
X029533Y012059D01*
X029550Y012055D01*
X029566Y012048D01*
X029580Y012038D01*
X029593Y012025D01*
X029603Y012011D01*
X029610Y011995D01*
X029614Y011978D01*
X029616Y011961D01*
X029616Y011161D01*
X029614Y011144D01*
X029610Y011127D01*
X029603Y011111D01*
X029593Y011097D01*
X029580Y011084D01*
X029566Y011074D01*
X029550Y011067D01*
X029533Y011063D01*
X029516Y011061D01*
X027816Y011061D01*
X027799Y011063D01*
X027782Y011067D01*
X027766Y011074D01*
X027752Y011084D01*
X027739Y011097D01*
X027729Y011111D01*
X027722Y011127D01*
X027718Y011144D01*
X027716Y011161D01*
X028516Y011561D02*
X028566Y011561D01*
X028766Y011561D02*
X028816Y011561D01*
X028166Y009711D02*
X028166Y007411D01*
X024166Y007411D01*
X024166Y008161D01*
X024205Y008163D01*
X024244Y008169D01*
X024282Y008178D01*
X024319Y008191D01*
X024355Y008208D01*
X024388Y008228D01*
X024420Y008252D01*
X024449Y008278D01*
X024475Y008307D01*
X024499Y008339D01*
X024519Y008372D01*
X024536Y008408D01*
X024549Y008445D01*
X024558Y008483D01*
X024564Y008522D01*
X024566Y008561D01*
X024564Y008600D01*
X024558Y008639D01*
X024549Y008677D01*
X024536Y008714D01*
X024519Y008750D01*
X024499Y008783D01*
X024475Y008815D01*
X024449Y008844D01*
X024420Y008870D01*
X024388Y008894D01*
X024355Y008914D01*
X024319Y008931D01*
X024282Y008944D01*
X024244Y008953D01*
X024205Y008959D01*
X024166Y008961D01*
X024166Y009711D01*
X028166Y009711D01*
X026016Y006061D02*
X024316Y006061D01*
X024299Y006059D01*
X024282Y006055D01*
X024266Y006048D01*
X024252Y006038D01*
X024239Y006025D01*
X024229Y006011D01*
X024222Y005995D01*
X024218Y005978D01*
X024216Y005961D01*
X024216Y005161D01*
X024218Y005144D01*
X024222Y005127D01*
X024229Y005111D01*
X024239Y005097D01*
X024252Y005084D01*
X024266Y005074D01*
X024282Y005067D01*
X024299Y005063D01*
X024316Y005061D01*
X026016Y005061D01*
X026033Y005063D01*
X026050Y005067D01*
X026066Y005074D01*
X026080Y005084D01*
X026093Y005097D01*
X026103Y005111D01*
X026110Y005127D01*
X026114Y005144D01*
X026116Y005161D01*
X026116Y005961D01*
X026114Y005978D01*
X026110Y005995D01*
X026103Y006011D01*
X026093Y006025D01*
X026080Y006038D01*
X026066Y006048D01*
X026050Y006055D01*
X026033Y006059D01*
X026016Y006061D01*
X025316Y005561D02*
X025266Y005561D01*
X025066Y005561D02*
X025016Y005561D01*
D12*
X018970Y015815D02*
X018577Y016208D01*
X018773Y016208D02*
X018773Y015815D01*
X018577Y015815D02*
X018970Y016208D01*
X018970Y016012D02*
X018577Y016012D01*
X018326Y016012D02*
X018227Y015913D01*
X017932Y015913D01*
X017932Y015716D02*
X017932Y016307D01*
X018227Y016307D01*
X018326Y016208D01*
X018326Y016012D01*
X017681Y016012D02*
X017287Y016012D01*
X017287Y016208D02*
X017681Y015815D01*
X017484Y015815D02*
X017484Y016208D01*
X017681Y016208D02*
X017287Y015815D01*
X017037Y016012D02*
X016643Y016012D01*
X016392Y016110D02*
X016294Y016012D01*
X016392Y015913D01*
X016392Y015815D01*
X016294Y015716D01*
X016097Y015716D01*
X015998Y015815D01*
X015747Y015716D02*
X015354Y015716D01*
X015551Y015716D02*
X015551Y016307D01*
X015354Y016110D01*
X015103Y016110D02*
X015005Y016012D01*
X015103Y015913D01*
X015103Y015815D01*
X015005Y015716D01*
X014808Y015716D01*
X014709Y015815D01*
X014458Y015716D02*
X014065Y015716D01*
X014458Y016110D01*
X014458Y016208D01*
X014360Y016307D01*
X014163Y016307D01*
X014065Y016208D01*
X013814Y016208D02*
X013814Y016307D01*
X013814Y016208D02*
X013617Y016012D01*
X013617Y015716D01*
X013617Y016012D02*
X013420Y016208D01*
X013420Y016307D01*
X013169Y016307D02*
X013169Y015716D01*
X012776Y016307D01*
X012776Y015716D01*
X012543Y015716D02*
X012346Y015716D01*
X012444Y015716D02*
X012444Y016307D01*
X012346Y016307D02*
X012543Y016307D01*
X012095Y016307D02*
X011701Y016307D01*
X011898Y016307D02*
X011898Y015716D01*
X014709Y016208D02*
X014808Y016307D01*
X015005Y016307D01*
X015103Y016208D01*
X015103Y016110D01*
X015005Y016012D02*
X014906Y016012D01*
X015998Y016208D02*
X016097Y016307D01*
X016294Y016307D01*
X016392Y016208D01*
X016392Y016110D01*
X016294Y016012D02*
X016195Y016012D01*
D13*
X016166Y019411D02*
X019166Y019411D01*
X019166Y020561D01*
X018166Y021561D02*
X017166Y021561D01*
X016166Y020561D02*
X016121Y020632D01*
X016080Y020704D01*
X016041Y020779D01*
X016007Y020855D01*
X015976Y020933D01*
X015949Y021012D01*
X015925Y021092D01*
X015905Y021174D01*
X015889Y021256D01*
X015877Y021338D01*
X015868Y021422D01*
X015864Y021505D01*
X015863Y021589D01*
X015866Y021673D01*
X015874Y021756D01*
X015885Y021839D01*
X015899Y021921D01*
X015918Y022003D01*
X015940Y022084D01*
X015967Y022163D01*
X015996Y022241D01*
X016030Y022318D01*
X016067Y022393D01*
X016107Y022467D01*
X016151Y022538D01*
X016198Y022607D01*
X016248Y022674D01*
X016301Y022739D01*
X016357Y022801D01*
X016416Y022860D01*
X016478Y022917D01*
X016542Y022971D01*
X016609Y023021D01*
X016677Y023069D01*
X016748Y023113D01*
X016821Y023154D01*
X016896Y023191D01*
X016973Y023225D01*
X017051Y023256D01*
X017130Y023283D01*
X017211Y023306D01*
X017292Y023325D01*
X017374Y023340D01*
X017457Y023352D01*
X017541Y023360D01*
X017624Y023364D01*
X017708Y023364D01*
X017791Y023360D01*
X017875Y023352D01*
X017958Y023340D01*
X018040Y023325D01*
X018121Y023306D01*
X018202Y023283D01*
X018281Y023256D01*
X018359Y023225D01*
X018436Y023191D01*
X018511Y023154D01*
X018584Y023113D01*
X018655Y023069D01*
X018723Y023021D01*
X018790Y022971D01*
X018854Y022917D01*
X018916Y022860D01*
X018975Y022801D01*
X019031Y022739D01*
X019084Y022674D01*
X019134Y022607D01*
X019181Y022538D01*
X019225Y022467D01*
X019265Y022393D01*
X019302Y022318D01*
X019336Y022241D01*
X019365Y022163D01*
X019392Y022084D01*
X019414Y022003D01*
X019433Y021921D01*
X019447Y021839D01*
X019458Y021756D01*
X019466Y021673D01*
X019469Y021589D01*
X019468Y021505D01*
X019464Y021422D01*
X019455Y021338D01*
X019443Y021256D01*
X019427Y021174D01*
X019407Y021092D01*
X019383Y021012D01*
X019356Y020933D01*
X019325Y020855D01*
X019291Y020779D01*
X019252Y020704D01*
X019211Y020632D01*
X019166Y020561D01*
X017666Y021061D02*
X017666Y022061D01*
X017166Y021561D02*
X017168Y021605D01*
X017174Y021649D01*
X017184Y021692D01*
X017197Y021734D01*
X017214Y021775D01*
X017235Y021814D01*
X017259Y021851D01*
X017286Y021886D01*
X017316Y021918D01*
X017349Y021948D01*
X017385Y021974D01*
X017422Y021998D01*
X017462Y022017D01*
X017503Y022034D01*
X017546Y022046D01*
X017589Y022055D01*
X017633Y022060D01*
X017677Y022061D01*
X017721Y022058D01*
X017765Y022051D01*
X017808Y022040D01*
X017850Y022026D01*
X017890Y022008D01*
X017929Y021986D01*
X017965Y021962D01*
X017999Y021934D01*
X018031Y021903D01*
X018060Y021869D01*
X018086Y021833D01*
X018108Y021795D01*
X018127Y021755D01*
X018142Y021713D01*
X018154Y021671D01*
X018162Y021627D01*
X018166Y021583D01*
X018166Y021539D01*
X018162Y021495D01*
X018154Y021451D01*
X018142Y021409D01*
X018127Y021367D01*
X018108Y021327D01*
X018086Y021289D01*
X018060Y021253D01*
X018031Y021219D01*
X017999Y021188D01*
X017965Y021160D01*
X017929Y021136D01*
X017890Y021114D01*
X017850Y021096D01*
X017808Y021082D01*
X017765Y021071D01*
X017721Y021064D01*
X017677Y021061D01*
X017633Y021062D01*
X017589Y021067D01*
X017546Y021076D01*
X017503Y021088D01*
X017462Y021105D01*
X017422Y021124D01*
X017385Y021148D01*
X017349Y021174D01*
X017316Y021204D01*
X017286Y021236D01*
X017259Y021271D01*
X017235Y021308D01*
X017214Y021347D01*
X017197Y021388D01*
X017184Y021430D01*
X017174Y021473D01*
X017168Y021517D01*
X017166Y021561D01*
X016166Y020561D02*
X016166Y019411D01*
X013666Y019411D02*
X013666Y020561D01*
X012666Y021561D02*
X011666Y021561D01*
X010666Y020561D02*
X010621Y020632D01*
X010580Y020704D01*
X010541Y020779D01*
X010507Y020855D01*
X010476Y020933D01*
X010449Y021012D01*
X010425Y021092D01*
X010405Y021174D01*
X010389Y021256D01*
X010377Y021338D01*
X010368Y021422D01*
X010364Y021505D01*
X010363Y021589D01*
X010366Y021673D01*
X010374Y021756D01*
X010385Y021839D01*
X010399Y021921D01*
X010418Y022003D01*
X010440Y022084D01*
X010467Y022163D01*
X010496Y022241D01*
X010530Y022318D01*
X010567Y022393D01*
X010607Y022467D01*
X010651Y022538D01*
X010698Y022607D01*
X010748Y022674D01*
X010801Y022739D01*
X010857Y022801D01*
X010916Y022860D01*
X010978Y022917D01*
X011042Y022971D01*
X011109Y023021D01*
X011177Y023069D01*
X011248Y023113D01*
X011321Y023154D01*
X011396Y023191D01*
X011473Y023225D01*
X011551Y023256D01*
X011630Y023283D01*
X011711Y023306D01*
X011792Y023325D01*
X011874Y023340D01*
X011957Y023352D01*
X012041Y023360D01*
X012124Y023364D01*
X012208Y023364D01*
X012291Y023360D01*
X012375Y023352D01*
X012458Y023340D01*
X012540Y023325D01*
X012621Y023306D01*
X012702Y023283D01*
X012781Y023256D01*
X012859Y023225D01*
X012936Y023191D01*
X013011Y023154D01*
X013084Y023113D01*
X013155Y023069D01*
X013223Y023021D01*
X013290Y022971D01*
X013354Y022917D01*
X013416Y022860D01*
X013475Y022801D01*
X013531Y022739D01*
X013584Y022674D01*
X013634Y022607D01*
X013681Y022538D01*
X013725Y022467D01*
X013765Y022393D01*
X013802Y022318D01*
X013836Y022241D01*
X013865Y022163D01*
X013892Y022084D01*
X013914Y022003D01*
X013933Y021921D01*
X013947Y021839D01*
X013958Y021756D01*
X013966Y021673D01*
X013969Y021589D01*
X013968Y021505D01*
X013964Y021422D01*
X013955Y021338D01*
X013943Y021256D01*
X013927Y021174D01*
X013907Y021092D01*
X013883Y021012D01*
X013856Y020933D01*
X013825Y020855D01*
X013791Y020779D01*
X013752Y020704D01*
X013711Y020632D01*
X013666Y020561D01*
X012166Y021061D02*
X012166Y022061D01*
X011666Y021561D02*
X011668Y021605D01*
X011674Y021649D01*
X011684Y021692D01*
X011697Y021734D01*
X011714Y021775D01*
X011735Y021814D01*
X011759Y021851D01*
X011786Y021886D01*
X011816Y021918D01*
X011849Y021948D01*
X011885Y021974D01*
X011922Y021998D01*
X011962Y022017D01*
X012003Y022034D01*
X012046Y022046D01*
X012089Y022055D01*
X012133Y022060D01*
X012177Y022061D01*
X012221Y022058D01*
X012265Y022051D01*
X012308Y022040D01*
X012350Y022026D01*
X012390Y022008D01*
X012429Y021986D01*
X012465Y021962D01*
X012499Y021934D01*
X012531Y021903D01*
X012560Y021869D01*
X012586Y021833D01*
X012608Y021795D01*
X012627Y021755D01*
X012642Y021713D01*
X012654Y021671D01*
X012662Y021627D01*
X012666Y021583D01*
X012666Y021539D01*
X012662Y021495D01*
X012654Y021451D01*
X012642Y021409D01*
X012627Y021367D01*
X012608Y021327D01*
X012586Y021289D01*
X012560Y021253D01*
X012531Y021219D01*
X012499Y021188D01*
X012465Y021160D01*
X012429Y021136D01*
X012390Y021114D01*
X012350Y021096D01*
X012308Y021082D01*
X012265Y021071D01*
X012221Y021064D01*
X012177Y021061D01*
X012133Y021062D01*
X012089Y021067D01*
X012046Y021076D01*
X012003Y021088D01*
X011962Y021105D01*
X011922Y021124D01*
X011885Y021148D01*
X011849Y021174D01*
X011816Y021204D01*
X011786Y021236D01*
X011759Y021271D01*
X011735Y021308D01*
X011714Y021347D01*
X011697Y021388D01*
X011684Y021430D01*
X011674Y021473D01*
X011668Y021517D01*
X011666Y021561D01*
X010666Y020561D02*
X010666Y019411D01*
X013666Y019411D01*
X008186Y017881D02*
X007896Y017881D01*
X008046Y017731D02*
X008046Y018041D01*
X012405Y012727D02*
X012405Y012386D01*
X012518Y012386D02*
X012291Y012386D01*
X012291Y012613D02*
X012405Y012727D01*
X009916Y011161D02*
X009916Y007961D01*
X005416Y007961D01*
X005416Y011161D01*
X009916Y011161D01*
X014166Y008561D02*
X014666Y008561D01*
X014710Y008559D01*
X014753Y008553D01*
X014795Y008544D01*
X014837Y008531D01*
X014877Y008514D01*
X014916Y008494D01*
X014953Y008471D01*
X014987Y008444D01*
X015020Y008415D01*
X015049Y008382D01*
X015076Y008348D01*
X015099Y008311D01*
X015119Y008272D01*
X015136Y008232D01*
X015149Y008190D01*
X015158Y008148D01*
X015164Y008105D01*
X015166Y008061D01*
X015166Y007061D01*
X015164Y007017D01*
X015158Y006974D01*
X015149Y006932D01*
X015136Y006890D01*
X015119Y006850D01*
X015099Y006811D01*
X015076Y006774D01*
X015049Y006740D01*
X015020Y006707D01*
X014987Y006678D01*
X014953Y006651D01*
X014916Y006628D01*
X014877Y006608D01*
X014837Y006591D01*
X014795Y006578D01*
X014753Y006569D01*
X014710Y006563D01*
X014666Y006561D01*
X014166Y006561D01*
X014166Y008561D01*
X015166Y009061D02*
X015166Y011061D01*
X015666Y011061D01*
X015710Y011059D01*
X015753Y011053D01*
X015795Y011044D01*
X015837Y011031D01*
X015877Y011014D01*
X015916Y010994D01*
X015953Y010971D01*
X015987Y010944D01*
X016020Y010915D01*
X016049Y010882D01*
X016076Y010848D01*
X016099Y010811D01*
X016119Y010772D01*
X016136Y010732D01*
X016149Y010690D01*
X016158Y010648D01*
X016164Y010605D01*
X016166Y010561D01*
X016166Y009561D01*
X016164Y009517D01*
X016158Y009474D01*
X016149Y009432D01*
X016136Y009390D01*
X016119Y009350D01*
X016099Y009311D01*
X016076Y009274D01*
X016049Y009240D01*
X016020Y009207D01*
X015987Y009178D01*
X015953Y009151D01*
X015916Y009128D01*
X015877Y009108D01*
X015837Y009091D01*
X015795Y009078D01*
X015753Y009069D01*
X015710Y009063D01*
X015666Y009061D01*
X015166Y009061D01*
X016166Y008561D02*
X016666Y008561D01*
X016166Y008561D02*
X016166Y006561D01*
X016666Y006561D01*
X016710Y006563D01*
X016753Y006569D01*
X016795Y006578D01*
X016837Y006591D01*
X016877Y006608D01*
X016916Y006628D01*
X016953Y006651D01*
X016987Y006678D01*
X017020Y006707D01*
X017049Y006740D01*
X017076Y006774D01*
X017099Y006811D01*
X017119Y006850D01*
X017136Y006890D01*
X017149Y006932D01*
X017158Y006974D01*
X017164Y007017D01*
X017166Y007061D01*
X017166Y008061D01*
X017164Y008105D01*
X017158Y008148D01*
X017149Y008190D01*
X017136Y008232D01*
X017119Y008272D01*
X017099Y008311D01*
X017076Y008348D01*
X017049Y008382D01*
X017020Y008415D01*
X016987Y008444D01*
X016953Y008471D01*
X016916Y008494D01*
X016877Y008514D01*
X016837Y008531D01*
X016795Y008544D01*
X016753Y008553D01*
X016710Y008559D01*
X016666Y008561D01*
X017166Y009061D02*
X017166Y011061D01*
X017666Y011061D01*
X017710Y011059D01*
X017753Y011053D01*
X017795Y011044D01*
X017837Y011031D01*
X017877Y011014D01*
X017916Y010994D01*
X017953Y010971D01*
X017987Y010944D01*
X018020Y010915D01*
X018049Y010882D01*
X018076Y010848D01*
X018099Y010811D01*
X018119Y010772D01*
X018136Y010732D01*
X018149Y010690D01*
X018158Y010648D01*
X018164Y010605D01*
X018166Y010561D01*
X018166Y009561D01*
X018164Y009517D01*
X018158Y009474D01*
X018149Y009432D01*
X018136Y009390D01*
X018119Y009350D01*
X018099Y009311D01*
X018076Y009274D01*
X018049Y009240D01*
X018020Y009207D01*
X017987Y009178D01*
X017953Y009151D01*
X017916Y009128D01*
X017877Y009108D01*
X017837Y009091D01*
X017795Y009078D01*
X017753Y009069D01*
X017710Y009063D01*
X017666Y009061D01*
X017166Y009061D01*
X018166Y008561D02*
X018666Y008561D01*
X018166Y008561D02*
X018166Y006561D01*
X018666Y006561D01*
X018710Y006563D01*
X018753Y006569D01*
X018795Y006578D01*
X018837Y006591D01*
X018877Y006608D01*
X018916Y006628D01*
X018953Y006651D01*
X018987Y006678D01*
X019020Y006707D01*
X019049Y006740D01*
X019076Y006774D01*
X019099Y006811D01*
X019119Y006850D01*
X019136Y006890D01*
X019149Y006932D01*
X019158Y006974D01*
X019164Y007017D01*
X019166Y007061D01*
X019166Y008061D01*
X019164Y008105D01*
X019158Y008148D01*
X019149Y008190D01*
X019136Y008232D01*
X019119Y008272D01*
X019099Y008311D01*
X019076Y008348D01*
X019049Y008382D01*
X019020Y008415D01*
X018987Y008444D01*
X018953Y008471D01*
X018916Y008494D01*
X018877Y008514D01*
X018837Y008531D01*
X018795Y008544D01*
X018753Y008553D01*
X018710Y008559D01*
X018666Y008561D01*
X019166Y009061D02*
X019166Y011061D01*
X019666Y011061D01*
X019710Y011059D01*
X019753Y011053D01*
X019795Y011044D01*
X019837Y011031D01*
X019877Y011014D01*
X019916Y010994D01*
X019953Y010971D01*
X019987Y010944D01*
X020020Y010915D01*
X020049Y010882D01*
X020076Y010848D01*
X020099Y010811D01*
X020119Y010772D01*
X020136Y010732D01*
X020149Y010690D01*
X020158Y010648D01*
X020164Y010605D01*
X020166Y010561D01*
X020166Y009561D01*
X020164Y009517D01*
X020158Y009474D01*
X020149Y009432D01*
X020136Y009390D01*
X020119Y009350D01*
X020099Y009311D01*
X020076Y009274D01*
X020049Y009240D01*
X020020Y009207D01*
X019987Y009178D01*
X019953Y009151D01*
X019916Y009128D01*
X019877Y009108D01*
X019837Y009091D01*
X019795Y009078D01*
X019753Y009069D01*
X019710Y009063D01*
X019666Y009061D01*
X019166Y009061D01*
X020166Y008561D02*
X020666Y008561D01*
X020166Y008561D02*
X020166Y006561D01*
X020666Y006561D01*
X020710Y006563D01*
X020753Y006569D01*
X020795Y006578D01*
X020837Y006591D01*
X020877Y006608D01*
X020916Y006628D01*
X020953Y006651D01*
X020987Y006678D01*
X021020Y006707D01*
X021049Y006740D01*
X021076Y006774D01*
X021099Y006811D01*
X021119Y006850D01*
X021136Y006890D01*
X021149Y006932D01*
X021158Y006974D01*
X021164Y007017D01*
X021166Y007061D01*
X021166Y008061D01*
X021164Y008105D01*
X021158Y008148D01*
X021149Y008190D01*
X021136Y008232D01*
X021119Y008272D01*
X021099Y008311D01*
X021076Y008348D01*
X021049Y008382D01*
X021020Y008415D01*
X020987Y008444D01*
X020953Y008471D01*
X020916Y008494D01*
X020877Y008514D01*
X020837Y008531D01*
X020795Y008544D01*
X020753Y008553D01*
X020710Y008559D01*
X020666Y008561D01*
D14*
X023566Y011261D02*
X023566Y011561D01*
X023566Y011861D01*
X023766Y011861D02*
X023766Y011561D01*
X023766Y011261D01*
X026066Y011261D02*
X026066Y011561D01*
X026066Y011861D01*
X026266Y011861D02*
X026266Y011561D01*
X026266Y011261D01*
X028566Y011261D02*
X028566Y011561D01*
X028566Y011861D01*
X028766Y011861D02*
X028766Y011561D01*
X028766Y011261D01*
X021766Y014261D02*
X021766Y014561D01*
X021766Y014861D01*
X021566Y014861D02*
X021566Y014561D01*
X021566Y014261D01*
X025066Y005861D02*
X025066Y005561D01*
X025066Y005261D01*
X025266Y005261D02*
X025266Y005561D01*
X025266Y005861D01*
D15*
X035339Y003416D02*
X006993Y003416D01*
X006363Y004990D02*
X006365Y005040D01*
X006371Y005090D01*
X006381Y005139D01*
X006395Y005187D01*
X006412Y005234D01*
X006433Y005279D01*
X006458Y005323D01*
X006486Y005364D01*
X006518Y005403D01*
X006552Y005440D01*
X006589Y005474D01*
X006629Y005504D01*
X006671Y005531D01*
X006715Y005555D01*
X006761Y005576D01*
X006808Y005592D01*
X006856Y005605D01*
X006906Y005614D01*
X006955Y005619D01*
X007006Y005620D01*
X007056Y005617D01*
X007105Y005610D01*
X007154Y005599D01*
X007202Y005584D01*
X007248Y005566D01*
X007293Y005544D01*
X007336Y005518D01*
X007377Y005489D01*
X007416Y005457D01*
X007452Y005422D01*
X007484Y005384D01*
X007514Y005344D01*
X007541Y005301D01*
X007564Y005257D01*
X007583Y005211D01*
X007599Y005163D01*
X007611Y005114D01*
X007619Y005065D01*
X007623Y005015D01*
X007623Y004965D01*
X007619Y004915D01*
X007611Y004866D01*
X007599Y004817D01*
X007583Y004769D01*
X007564Y004723D01*
X007541Y004679D01*
X007514Y004636D01*
X007484Y004596D01*
X007452Y004558D01*
X007416Y004523D01*
X007377Y004491D01*
X007336Y004462D01*
X007293Y004436D01*
X007248Y004414D01*
X007202Y004396D01*
X007154Y004381D01*
X007105Y004370D01*
X007056Y004363D01*
X007006Y004360D01*
X006955Y004361D01*
X006906Y004366D01*
X006856Y004375D01*
X006808Y004388D01*
X006761Y004404D01*
X006715Y004425D01*
X006671Y004449D01*
X006629Y004476D01*
X006589Y004506D01*
X006552Y004540D01*
X006518Y004577D01*
X006486Y004616D01*
X006458Y004657D01*
X006433Y004701D01*
X006412Y004746D01*
X006395Y004793D01*
X006381Y004841D01*
X006371Y004890D01*
X006365Y004940D01*
X006363Y004990D01*
X005418Y004990D02*
X005420Y004913D01*
X005426Y004836D01*
X005435Y004759D01*
X005448Y004683D01*
X005465Y004607D01*
X005486Y004533D01*
X005510Y004459D01*
X005538Y004387D01*
X005569Y004317D01*
X005604Y004248D01*
X005642Y004180D01*
X005683Y004115D01*
X005728Y004052D01*
X005776Y003991D01*
X005826Y003932D01*
X005879Y003876D01*
X005935Y003823D01*
X005994Y003773D01*
X006055Y003725D01*
X006118Y003680D01*
X006183Y003639D01*
X006251Y003601D01*
X006320Y003566D01*
X006390Y003535D01*
X006462Y003507D01*
X006536Y003483D01*
X006610Y003462D01*
X006686Y003445D01*
X006762Y003432D01*
X006839Y003423D01*
X006916Y003417D01*
X006993Y003415D01*
X005418Y004990D02*
X005418Y021132D01*
X006363Y021132D02*
X006365Y021182D01*
X006371Y021232D01*
X006381Y021281D01*
X006395Y021329D01*
X006412Y021376D01*
X006433Y021421D01*
X006458Y021465D01*
X006486Y021506D01*
X006518Y021545D01*
X006552Y021582D01*
X006589Y021616D01*
X006629Y021646D01*
X006671Y021673D01*
X006715Y021697D01*
X006761Y021718D01*
X006808Y021734D01*
X006856Y021747D01*
X006906Y021756D01*
X006955Y021761D01*
X007006Y021762D01*
X007056Y021759D01*
X007105Y021752D01*
X007154Y021741D01*
X007202Y021726D01*
X007248Y021708D01*
X007293Y021686D01*
X007336Y021660D01*
X007377Y021631D01*
X007416Y021599D01*
X007452Y021564D01*
X007484Y021526D01*
X007514Y021486D01*
X007541Y021443D01*
X007564Y021399D01*
X007583Y021353D01*
X007599Y021305D01*
X007611Y021256D01*
X007619Y021207D01*
X007623Y021157D01*
X007623Y021107D01*
X007619Y021057D01*
X007611Y021008D01*
X007599Y020959D01*
X007583Y020911D01*
X007564Y020865D01*
X007541Y020821D01*
X007514Y020778D01*
X007484Y020738D01*
X007452Y020700D01*
X007416Y020665D01*
X007377Y020633D01*
X007336Y020604D01*
X007293Y020578D01*
X007248Y020556D01*
X007202Y020538D01*
X007154Y020523D01*
X007105Y020512D01*
X007056Y020505D01*
X007006Y020502D01*
X006955Y020503D01*
X006906Y020508D01*
X006856Y020517D01*
X006808Y020530D01*
X006761Y020546D01*
X006715Y020567D01*
X006671Y020591D01*
X006629Y020618D01*
X006589Y020648D01*
X006552Y020682D01*
X006518Y020719D01*
X006486Y020758D01*
X006458Y020799D01*
X006433Y020843D01*
X006412Y020888D01*
X006395Y020935D01*
X006381Y020983D01*
X006371Y021032D01*
X006365Y021082D01*
X006363Y021132D01*
X005418Y021132D02*
X005420Y021209D01*
X005426Y021286D01*
X005435Y021363D01*
X005448Y021439D01*
X005465Y021515D01*
X005486Y021589D01*
X005510Y021663D01*
X005538Y021735D01*
X005569Y021805D01*
X005604Y021874D01*
X005642Y021942D01*
X005683Y022007D01*
X005728Y022070D01*
X005776Y022131D01*
X005826Y022190D01*
X005879Y022246D01*
X005935Y022299D01*
X005994Y022349D01*
X006055Y022397D01*
X006118Y022442D01*
X006183Y022483D01*
X006251Y022521D01*
X006320Y022556D01*
X006390Y022587D01*
X006462Y022615D01*
X006536Y022639D01*
X006610Y022660D01*
X006686Y022677D01*
X006762Y022690D01*
X006839Y022699D01*
X006916Y022705D01*
X006993Y022707D01*
X035339Y022707D01*
X034709Y021132D02*
X034711Y021182D01*
X034717Y021232D01*
X034727Y021281D01*
X034741Y021329D01*
X034758Y021376D01*
X034779Y021421D01*
X034804Y021465D01*
X034832Y021506D01*
X034864Y021545D01*
X034898Y021582D01*
X034935Y021616D01*
X034975Y021646D01*
X035017Y021673D01*
X035061Y021697D01*
X035107Y021718D01*
X035154Y021734D01*
X035202Y021747D01*
X035252Y021756D01*
X035301Y021761D01*
X035352Y021762D01*
X035402Y021759D01*
X035451Y021752D01*
X035500Y021741D01*
X035548Y021726D01*
X035594Y021708D01*
X035639Y021686D01*
X035682Y021660D01*
X035723Y021631D01*
X035762Y021599D01*
X035798Y021564D01*
X035830Y021526D01*
X035860Y021486D01*
X035887Y021443D01*
X035910Y021399D01*
X035929Y021353D01*
X035945Y021305D01*
X035957Y021256D01*
X035965Y021207D01*
X035969Y021157D01*
X035969Y021107D01*
X035965Y021057D01*
X035957Y021008D01*
X035945Y020959D01*
X035929Y020911D01*
X035910Y020865D01*
X035887Y020821D01*
X035860Y020778D01*
X035830Y020738D01*
X035798Y020700D01*
X035762Y020665D01*
X035723Y020633D01*
X035682Y020604D01*
X035639Y020578D01*
X035594Y020556D01*
X035548Y020538D01*
X035500Y020523D01*
X035451Y020512D01*
X035402Y020505D01*
X035352Y020502D01*
X035301Y020503D01*
X035252Y020508D01*
X035202Y020517D01*
X035154Y020530D01*
X035107Y020546D01*
X035061Y020567D01*
X035017Y020591D01*
X034975Y020618D01*
X034935Y020648D01*
X034898Y020682D01*
X034864Y020719D01*
X034832Y020758D01*
X034804Y020799D01*
X034779Y020843D01*
X034758Y020888D01*
X034741Y020935D01*
X034727Y020983D01*
X034717Y021032D01*
X034711Y021082D01*
X034709Y021132D01*
X035339Y022707D02*
X035416Y022705D01*
X035493Y022699D01*
X035570Y022690D01*
X035646Y022677D01*
X035722Y022660D01*
X035796Y022639D01*
X035870Y022615D01*
X035942Y022587D01*
X036012Y022556D01*
X036081Y022521D01*
X036149Y022483D01*
X036214Y022442D01*
X036277Y022397D01*
X036338Y022349D01*
X036397Y022299D01*
X036453Y022246D01*
X036506Y022190D01*
X036556Y022131D01*
X036604Y022070D01*
X036649Y022007D01*
X036690Y021942D01*
X036728Y021874D01*
X036763Y021805D01*
X036794Y021735D01*
X036822Y021663D01*
X036846Y021589D01*
X036867Y021515D01*
X036884Y021439D01*
X036897Y021363D01*
X036906Y021286D01*
X036912Y021209D01*
X036914Y021132D01*
X036914Y004990D01*
X034709Y004990D02*
X034711Y005040D01*
X034717Y005090D01*
X034727Y005139D01*
X034741Y005187D01*
X034758Y005234D01*
X034779Y005279D01*
X034804Y005323D01*
X034832Y005364D01*
X034864Y005403D01*
X034898Y005440D01*
X034935Y005474D01*
X034975Y005504D01*
X035017Y005531D01*
X035061Y005555D01*
X035107Y005576D01*
X035154Y005592D01*
X035202Y005605D01*
X035252Y005614D01*
X035301Y005619D01*
X035352Y005620D01*
X035402Y005617D01*
X035451Y005610D01*
X035500Y005599D01*
X035548Y005584D01*
X035594Y005566D01*
X035639Y005544D01*
X035682Y005518D01*
X035723Y005489D01*
X035762Y005457D01*
X035798Y005422D01*
X035830Y005384D01*
X035860Y005344D01*
X035887Y005301D01*
X035910Y005257D01*
X035929Y005211D01*
X035945Y005163D01*
X035957Y005114D01*
X035965Y005065D01*
X035969Y005015D01*
X035969Y004965D01*
X035965Y004915D01*
X035957Y004866D01*
X035945Y004817D01*
X035929Y004769D01*
X035910Y004723D01*
X035887Y004679D01*
X035860Y004636D01*
X035830Y004596D01*
X035798Y004558D01*
X035762Y004523D01*
X035723Y004491D01*
X035682Y004462D01*
X035639Y004436D01*
X035594Y004414D01*
X035548Y004396D01*
X035500Y004381D01*
X035451Y004370D01*
X035402Y004363D01*
X035352Y004360D01*
X035301Y004361D01*
X035252Y004366D01*
X035202Y004375D01*
X035154Y004388D01*
X035107Y004404D01*
X035061Y004425D01*
X035017Y004449D01*
X034975Y004476D01*
X034935Y004506D01*
X034898Y004540D01*
X034864Y004577D01*
X034832Y004616D01*
X034804Y004657D01*
X034779Y004701D01*
X034758Y004746D01*
X034741Y004793D01*
X034727Y004841D01*
X034717Y004890D01*
X034711Y004940D01*
X034709Y004990D01*
X035339Y003415D02*
X035416Y003417D01*
X035493Y003423D01*
X035570Y003432D01*
X035646Y003445D01*
X035722Y003462D01*
X035796Y003483D01*
X035870Y003507D01*
X035942Y003535D01*
X036012Y003566D01*
X036081Y003601D01*
X036149Y003639D01*
X036214Y003680D01*
X036277Y003725D01*
X036338Y003773D01*
X036397Y003823D01*
X036453Y003876D01*
X036506Y003932D01*
X036556Y003991D01*
X036604Y004052D01*
X036649Y004115D01*
X036690Y004180D01*
X036728Y004248D01*
X036763Y004317D01*
X036794Y004387D01*
X036822Y004459D01*
X036846Y004533D01*
X036867Y004607D01*
X036884Y004683D01*
X036897Y004759D01*
X036906Y004836D01*
X036912Y004913D01*
X036914Y004990D01*
D16*
X006658Y018195D02*
X006702Y018226D01*
X006701Y018226D02*
X006729Y018190D01*
X006760Y018157D01*
X006792Y018127D01*
X006828Y018099D01*
X006865Y018074D01*
X006904Y018052D01*
X006944Y018033D01*
X006987Y018017D01*
X007030Y018004D01*
X007074Y017995D01*
X007118Y017990D01*
X007163Y017988D01*
X007163Y017935D01*
X007163Y017934D01*
X007114Y017936D01*
X007065Y017942D01*
X007017Y017952D01*
X006970Y017966D01*
X006924Y017983D01*
X006879Y018003D01*
X006836Y018028D01*
X006796Y018055D01*
X006757Y018086D01*
X006721Y018119D01*
X006688Y018155D01*
X006658Y018194D01*
X006662Y018197D01*
X006692Y018159D01*
X006725Y018123D01*
X006760Y018090D01*
X006798Y018059D01*
X006839Y018032D01*
X006881Y018008D01*
X006926Y017987D01*
X006971Y017970D01*
X007018Y017957D01*
X007066Y017947D01*
X007114Y017941D01*
X007163Y017939D01*
X007163Y017944D01*
X007115Y017946D01*
X007067Y017952D01*
X007019Y017962D01*
X006973Y017975D01*
X006927Y017992D01*
X006884Y018012D01*
X006842Y018036D01*
X006801Y018063D01*
X006764Y018093D01*
X006728Y018126D01*
X006695Y018162D01*
X006666Y018200D01*
X006670Y018203D01*
X006699Y018165D01*
X006732Y018130D01*
X006767Y018097D01*
X006804Y018067D01*
X006844Y018040D01*
X006886Y018017D01*
X006929Y017997D01*
X006974Y017980D01*
X007020Y017967D01*
X007067Y017957D01*
X007115Y017951D01*
X007163Y017949D01*
X007163Y017954D01*
X007115Y017956D01*
X007068Y017962D01*
X007022Y017971D01*
X006976Y017985D01*
X006931Y018001D01*
X006888Y018021D01*
X006847Y018045D01*
X006807Y018071D01*
X006770Y018101D01*
X006735Y018133D01*
X006703Y018168D01*
X006674Y018206D01*
X006678Y018209D01*
X006707Y018172D01*
X006739Y018137D01*
X006773Y018105D01*
X006810Y018075D01*
X006849Y018049D01*
X006891Y018026D01*
X006933Y018006D01*
X006977Y017989D01*
X007023Y017976D01*
X007069Y017967D01*
X007116Y017961D01*
X007163Y017959D01*
X007163Y017964D01*
X007116Y017966D01*
X007070Y017972D01*
X007024Y017981D01*
X006979Y017994D01*
X006935Y018010D01*
X006893Y018030D01*
X006852Y018053D01*
X006813Y018079D01*
X006777Y018108D01*
X006742Y018140D01*
X006711Y018175D01*
X006682Y018212D01*
X006686Y018214D01*
X006715Y018178D01*
X006746Y018144D01*
X006780Y018112D01*
X006816Y018083D01*
X006855Y018057D01*
X006895Y018035D01*
X006937Y018015D01*
X006981Y017999D01*
X007025Y017986D01*
X007071Y017977D01*
X007117Y017971D01*
X007163Y017969D01*
X007163Y017974D01*
X007117Y017976D01*
X007071Y017982D01*
X007026Y017991D01*
X006982Y018004D01*
X006939Y018020D01*
X006897Y018039D01*
X006857Y018062D01*
X006819Y018087D01*
X006783Y018116D01*
X006750Y018147D01*
X006718Y018181D01*
X006690Y018217D01*
X006694Y018220D01*
X006722Y018184D01*
X006753Y018151D01*
X006786Y018120D01*
X006822Y018091D01*
X006860Y018066D01*
X006900Y018044D01*
X006941Y018024D01*
X006984Y018008D01*
X007028Y017996D01*
X007072Y017987D01*
X007117Y017981D01*
X007163Y017979D01*
X007163Y017984D01*
X007118Y017986D01*
X007073Y017992D01*
X007029Y018001D01*
X006985Y018013D01*
X006943Y018029D01*
X006902Y018048D01*
X006863Y018070D01*
X006825Y018095D01*
X006790Y018124D01*
X006757Y018154D01*
X006726Y018188D01*
X006698Y018223D01*
X007659Y018948D02*
X007616Y018915D01*
X007586Y018951D01*
X007553Y018984D01*
X007517Y019014D01*
X007479Y019041D01*
X007439Y019065D01*
X007397Y019086D01*
X007353Y019103D01*
X007308Y019116D01*
X007262Y019126D01*
X007216Y019132D01*
X007169Y019134D01*
X007169Y019187D01*
X007169Y019188D01*
X007216Y019186D01*
X007263Y019181D01*
X007309Y019172D01*
X007354Y019159D01*
X007398Y019143D01*
X007441Y019124D01*
X007483Y019102D01*
X007523Y019077D01*
X007560Y019049D01*
X007596Y019018D01*
X007629Y018984D01*
X007659Y018948D01*
X007655Y018945D01*
X007625Y018981D01*
X007592Y019014D01*
X007557Y019045D01*
X007520Y019073D01*
X007480Y019098D01*
X007439Y019120D01*
X007397Y019139D01*
X007353Y019154D01*
X007308Y019167D01*
X007262Y019176D01*
X007216Y019181D01*
X007169Y019183D01*
X007169Y019178D01*
X007215Y019176D01*
X007261Y019171D01*
X007307Y019162D01*
X007351Y019150D01*
X007395Y019134D01*
X007437Y019115D01*
X007478Y019093D01*
X007517Y019069D01*
X007554Y019041D01*
X007589Y019010D01*
X007621Y018977D01*
X007651Y018942D01*
X007647Y018939D01*
X007618Y018974D01*
X007585Y019007D01*
X007551Y019037D01*
X007514Y019064D01*
X007475Y019089D01*
X007435Y019111D01*
X007393Y019129D01*
X007350Y019145D01*
X007305Y019157D01*
X007260Y019166D01*
X007215Y019171D01*
X007169Y019173D01*
X007169Y019168D01*
X007214Y019166D01*
X007260Y019161D01*
X007304Y019152D01*
X007348Y019140D01*
X007391Y019125D01*
X007433Y019106D01*
X007473Y019085D01*
X007511Y019060D01*
X007548Y019033D01*
X007582Y019003D01*
X007614Y018971D01*
X007643Y018936D01*
X007639Y018933D01*
X007610Y018967D01*
X007578Y018999D01*
X007544Y019029D01*
X007508Y019056D01*
X007470Y019080D01*
X007431Y019102D01*
X007389Y019120D01*
X007347Y019135D01*
X007303Y019147D01*
X007259Y019156D01*
X007214Y019161D01*
X007169Y019163D01*
X007169Y019158D01*
X007214Y019156D01*
X007258Y019151D01*
X007302Y019142D01*
X007345Y019130D01*
X007387Y019115D01*
X007428Y019097D01*
X007468Y019076D01*
X007505Y019052D01*
X007541Y019025D01*
X007575Y018996D01*
X007606Y018964D01*
X007635Y018930D01*
X007631Y018927D01*
X007603Y018961D01*
X007572Y018992D01*
X007538Y019021D01*
X007503Y019048D01*
X007465Y019072D01*
X007426Y019093D01*
X007386Y019111D01*
X007344Y019126D01*
X007301Y019137D01*
X007257Y019146D01*
X007213Y019151D01*
X007169Y019153D01*
X007169Y019148D01*
X007213Y019146D01*
X007257Y019141D01*
X007300Y019133D01*
X007342Y019121D01*
X007384Y019106D01*
X007424Y019088D01*
X007463Y019068D01*
X007500Y019044D01*
X007535Y019018D01*
X007568Y018989D01*
X007599Y018957D01*
X007628Y018924D01*
X007624Y018921D01*
X007593Y018957D01*
X007559Y018990D01*
X007523Y019021D01*
X007484Y019049D01*
X007443Y019073D01*
X007400Y019094D01*
X007356Y019111D01*
X007310Y019125D01*
X007264Y019135D01*
X007217Y019141D01*
X007169Y019143D01*
X007169Y019138D01*
X007216Y019136D01*
X007263Y019130D01*
X007309Y019120D01*
X007354Y019106D01*
X007398Y019089D01*
X007440Y019069D01*
X007481Y019044D01*
X007519Y019017D01*
X007556Y018987D01*
X007589Y018953D01*
X007620Y018918D01*
X007163Y019187D02*
X007163Y019133D01*
X007163Y019134D02*
X007116Y019132D01*
X007070Y019126D01*
X007024Y019116D01*
X006979Y019103D01*
X006935Y019086D01*
X006893Y019065D01*
X006853Y019041D01*
X006815Y019014D01*
X006779Y018984D01*
X006746Y018951D01*
X006716Y018915D01*
X006673Y018948D01*
X006703Y018984D01*
X006736Y019018D01*
X006772Y019049D01*
X006809Y019077D01*
X006849Y019102D01*
X006891Y019124D01*
X006934Y019143D01*
X006978Y019159D01*
X007023Y019172D01*
X007069Y019181D01*
X007116Y019186D01*
X007163Y019188D01*
X007163Y019183D01*
X007116Y019181D01*
X007070Y019176D01*
X007024Y019167D01*
X006979Y019154D01*
X006935Y019139D01*
X006893Y019120D01*
X006852Y019098D01*
X006812Y019073D01*
X006775Y019045D01*
X006740Y019014D01*
X006707Y018981D01*
X006677Y018945D01*
X006681Y018942D01*
X006711Y018977D01*
X006743Y019010D01*
X006778Y019041D01*
X006815Y019069D01*
X006854Y019093D01*
X006895Y019115D01*
X006937Y019134D01*
X006981Y019150D01*
X007025Y019162D01*
X007071Y019171D01*
X007117Y019176D01*
X007163Y019178D01*
X007163Y019173D01*
X007117Y019171D01*
X007072Y019166D01*
X007027Y019157D01*
X006982Y019145D01*
X006939Y019129D01*
X006897Y019111D01*
X006857Y019089D01*
X006818Y019064D01*
X006781Y019037D01*
X006747Y019007D01*
X006714Y018974D01*
X006685Y018939D01*
X006689Y018936D01*
X006718Y018971D01*
X006750Y019003D01*
X006784Y019033D01*
X006821Y019060D01*
X006859Y019085D01*
X006899Y019106D01*
X006941Y019125D01*
X006984Y019140D01*
X007028Y019152D01*
X007072Y019161D01*
X007118Y019166D01*
X007163Y019168D01*
X007163Y019163D01*
X007118Y019161D01*
X007073Y019156D01*
X007029Y019147D01*
X006985Y019135D01*
X006943Y019120D01*
X006901Y019102D01*
X006862Y019080D01*
X006824Y019056D01*
X006788Y019029D01*
X006754Y018999D01*
X006722Y018967D01*
X006693Y018933D01*
X006697Y018930D01*
X006726Y018964D01*
X006757Y018996D01*
X006791Y019025D01*
X006827Y019052D01*
X006864Y019076D01*
X006904Y019097D01*
X006945Y019115D01*
X006987Y019130D01*
X007030Y019142D01*
X007074Y019151D01*
X007118Y019156D01*
X007163Y019158D01*
X007163Y019153D01*
X007119Y019151D01*
X007075Y019146D01*
X007031Y019137D01*
X006988Y019126D01*
X006946Y019111D01*
X006906Y019093D01*
X006867Y019072D01*
X006829Y019048D01*
X006794Y019021D01*
X006760Y018992D01*
X006729Y018961D01*
X006701Y018927D01*
X006704Y018924D01*
X006733Y018957D01*
X006764Y018989D01*
X006797Y019018D01*
X006832Y019044D01*
X006869Y019068D01*
X006908Y019088D01*
X006948Y019106D01*
X006990Y019121D01*
X007032Y019133D01*
X007075Y019141D01*
X007119Y019146D01*
X007163Y019148D01*
X007163Y019143D01*
X007115Y019141D01*
X007068Y019135D01*
X007022Y019125D01*
X006976Y019111D01*
X006932Y019094D01*
X006889Y019073D01*
X006848Y019049D01*
X006809Y019021D01*
X006773Y018990D01*
X006739Y018957D01*
X006708Y018921D01*
X006712Y018918D01*
X006743Y018953D01*
X006776Y018987D01*
X006813Y019017D01*
X006851Y019044D01*
X006892Y019069D01*
X006934Y019089D01*
X006978Y019106D01*
X007023Y019120D01*
X007069Y019130D01*
X007116Y019136D01*
X007163Y019138D01*
X007168Y017935D02*
X007168Y017989D01*
X007169Y017988D02*
X007213Y017990D01*
X007256Y017995D01*
X007299Y018004D01*
X007341Y018015D01*
X007382Y018030D01*
X007422Y018048D01*
X007461Y018070D01*
X007497Y018093D01*
X007532Y018120D01*
X007565Y018149D01*
X007595Y018181D01*
X007623Y018215D01*
X007665Y018183D01*
X007666Y018182D01*
X007635Y018145D01*
X007602Y018111D01*
X007567Y018079D01*
X007529Y018049D01*
X007488Y018023D01*
X007446Y018000D01*
X007403Y017980D01*
X007358Y017964D01*
X007312Y017951D01*
X007264Y017942D01*
X007217Y017936D01*
X007169Y017934D01*
X007169Y017939D01*
X007217Y017941D01*
X007264Y017947D01*
X007310Y017956D01*
X007356Y017969D01*
X007401Y017985D01*
X007444Y018005D01*
X007486Y018028D01*
X007526Y018054D01*
X007563Y018082D01*
X007599Y018114D01*
X007632Y018149D01*
X007662Y018185D01*
X007658Y018188D01*
X007628Y018152D01*
X007595Y018118D01*
X007560Y018086D01*
X007523Y018058D01*
X007483Y018032D01*
X007442Y018009D01*
X007399Y017990D01*
X007355Y017974D01*
X007309Y017961D01*
X007263Y017952D01*
X007216Y017946D01*
X007169Y017944D01*
X007169Y017949D01*
X007216Y017951D01*
X007262Y017957D01*
X007308Y017966D01*
X007353Y017978D01*
X007397Y017994D01*
X007440Y018014D01*
X007481Y018036D01*
X007520Y018062D01*
X007557Y018090D01*
X007592Y018121D01*
X007624Y018155D01*
X007654Y018191D01*
X007650Y018194D01*
X007620Y018159D01*
X007588Y018125D01*
X007554Y018094D01*
X007517Y018066D01*
X007478Y018040D01*
X007437Y018018D01*
X007395Y017999D01*
X007352Y017983D01*
X007307Y017971D01*
X007261Y017962D01*
X007215Y017956D01*
X007169Y017954D01*
X007169Y017959D01*
X007215Y017961D01*
X007261Y017966D01*
X007306Y017975D01*
X007350Y017988D01*
X007393Y018004D01*
X007435Y018023D01*
X007476Y018045D01*
X007514Y018070D01*
X007551Y018098D01*
X007585Y018129D01*
X007617Y018162D01*
X007646Y018197D01*
X007642Y018200D01*
X007613Y018165D01*
X007581Y018132D01*
X007547Y018102D01*
X007511Y018074D01*
X007473Y018049D01*
X007433Y018027D01*
X007391Y018008D01*
X007349Y017993D01*
X007305Y017980D01*
X007260Y017971D01*
X007215Y017966D01*
X007169Y017964D01*
X007169Y017969D01*
X007214Y017971D01*
X007259Y017976D01*
X007303Y017985D01*
X007347Y017997D01*
X007390Y018013D01*
X007431Y018031D01*
X007470Y018053D01*
X007508Y018078D01*
X007544Y018106D01*
X007578Y018136D01*
X007609Y018168D01*
X007638Y018203D01*
X007634Y018206D01*
X007605Y018172D01*
X007574Y018139D01*
X007541Y018109D01*
X007505Y018082D01*
X007468Y018058D01*
X007429Y018036D01*
X007388Y018017D01*
X007346Y018002D01*
X007302Y017990D01*
X007258Y017981D01*
X007214Y017976D01*
X007169Y017974D01*
X007169Y017979D01*
X007213Y017981D01*
X007258Y017986D01*
X007301Y017995D01*
X007344Y018007D01*
X007386Y018022D01*
X007426Y018040D01*
X007465Y018062D01*
X007502Y018086D01*
X007538Y018113D01*
X007571Y018143D01*
X007602Y018175D01*
X007630Y018209D01*
X007626Y018212D01*
X007598Y018178D01*
X007567Y018146D01*
X007535Y018117D01*
X007500Y018090D01*
X007463Y018066D01*
X007424Y018045D01*
X007384Y018027D01*
X007342Y018012D01*
X007300Y018000D01*
X007257Y017991D01*
X007213Y017986D01*
X007169Y017984D01*
D17*
X007897Y018984D02*
X007819Y018939D01*
X007819Y018940D02*
X007791Y018984D01*
X007760Y019026D01*
X007727Y019066D01*
X007691Y019104D01*
X007652Y019139D01*
X007611Y019171D01*
X007567Y019201D01*
X007522Y019227D01*
X007475Y019250D01*
X007427Y019270D01*
X007377Y019286D01*
X007327Y019299D01*
X007275Y019308D01*
X007223Y019314D01*
X007171Y019316D01*
X007170Y019405D01*
X007171Y019406D01*
X007226Y019404D01*
X007280Y019398D01*
X007335Y019389D01*
X007388Y019376D01*
X007440Y019360D01*
X007492Y019341D01*
X007542Y019318D01*
X007590Y019292D01*
X007637Y019263D01*
X007681Y019231D01*
X007724Y019196D01*
X007764Y019158D01*
X007801Y019118D01*
X007836Y019076D01*
X007868Y019031D01*
X007897Y018985D01*
X007889Y018980D01*
X007861Y019026D01*
X007829Y019070D01*
X007794Y019112D01*
X007757Y019152D01*
X007718Y019189D01*
X007676Y019224D01*
X007632Y019255D01*
X007586Y019284D01*
X007538Y019310D01*
X007488Y019332D01*
X007438Y019352D01*
X007386Y019368D01*
X007333Y019380D01*
X007279Y019389D01*
X007225Y019395D01*
X007171Y019397D01*
X007171Y019388D01*
X007225Y019386D01*
X007278Y019380D01*
X007331Y019371D01*
X007383Y019359D01*
X007435Y019343D01*
X007485Y019324D01*
X007534Y019302D01*
X007581Y019276D01*
X007627Y019248D01*
X007670Y019216D01*
X007712Y019182D01*
X007751Y019146D01*
X007788Y019106D01*
X007822Y019065D01*
X007853Y019021D01*
X007882Y018976D01*
X007874Y018971D01*
X007844Y019019D01*
X007810Y019065D01*
X007774Y019108D01*
X007734Y019149D01*
X007692Y019187D01*
X007648Y019222D01*
X007601Y019254D01*
X007552Y019282D01*
X007501Y019307D01*
X007448Y019329D01*
X007395Y019346D01*
X007340Y019360D01*
X007284Y019370D01*
X007228Y019377D01*
X007171Y019379D01*
X007171Y019370D01*
X007227Y019368D01*
X007283Y019362D01*
X007338Y019352D01*
X007392Y019338D01*
X007445Y019320D01*
X007497Y019299D01*
X007548Y019274D01*
X007596Y019246D01*
X007642Y019215D01*
X007687Y019180D01*
X007728Y019143D01*
X007767Y019102D01*
X007803Y019060D01*
X007836Y019014D01*
X007866Y018967D01*
X007858Y018962D01*
X007829Y019009D01*
X007796Y019054D01*
X007760Y019096D01*
X007722Y019136D01*
X007681Y019173D01*
X007637Y019208D01*
X007591Y019239D01*
X007543Y019266D01*
X007494Y019291D01*
X007442Y019312D01*
X007390Y019329D01*
X007336Y019343D01*
X007281Y019353D01*
X007226Y019359D01*
X007171Y019361D01*
X007171Y019352D01*
X007226Y019350D01*
X007280Y019344D01*
X007334Y019334D01*
X007387Y019320D01*
X007439Y019303D01*
X007490Y019283D01*
X007539Y019258D01*
X007586Y019231D01*
X007632Y019200D01*
X007675Y019167D01*
X007716Y019130D01*
X007754Y019090D01*
X007789Y019048D01*
X007821Y019004D01*
X007850Y018958D01*
X007842Y018953D01*
X007814Y018999D01*
X007782Y019043D01*
X007747Y019084D01*
X007709Y019123D01*
X007669Y019160D01*
X007627Y019193D01*
X007582Y019223D01*
X007535Y019251D01*
X007486Y019274D01*
X007436Y019295D01*
X007385Y019312D01*
X007332Y019325D01*
X007279Y019335D01*
X007225Y019341D01*
X007171Y019343D01*
X007171Y019334D01*
X007224Y019332D01*
X007278Y019326D01*
X007330Y019316D01*
X007382Y019303D01*
X007433Y019286D01*
X007483Y019266D01*
X007531Y019243D01*
X007577Y019216D01*
X007621Y019186D01*
X007663Y019153D01*
X007703Y019117D01*
X007740Y019078D01*
X007775Y019037D01*
X007806Y018994D01*
X007835Y018949D01*
X007827Y018944D01*
X007799Y018989D01*
X007768Y019032D01*
X007734Y019072D01*
X007697Y019110D01*
X007658Y019146D01*
X007616Y019178D01*
X007572Y019208D01*
X007526Y019235D01*
X007479Y019258D01*
X007430Y019278D01*
X007380Y019295D01*
X007328Y019308D01*
X007276Y019317D01*
X007224Y019323D01*
X007171Y019325D01*
X007171Y017717D02*
X007171Y017807D01*
X007171Y017806D02*
X007225Y017808D01*
X007278Y017814D01*
X007331Y017824D01*
X007383Y017838D01*
X007434Y017855D01*
X007483Y017876D01*
X007531Y017900D01*
X007577Y017928D01*
X007621Y017959D01*
X007663Y017993D01*
X007702Y018029D01*
X007739Y018069D01*
X007772Y018111D01*
X007803Y018155D01*
X007830Y018201D01*
X007909Y018159D01*
X007881Y018110D01*
X007849Y018064D01*
X007814Y018019D01*
X007777Y017977D01*
X007736Y017937D01*
X007693Y017901D01*
X007648Y017867D01*
X007601Y017836D01*
X007551Y017809D01*
X007500Y017785D01*
X007448Y017764D01*
X007394Y017747D01*
X007339Y017734D01*
X007284Y017724D01*
X007227Y017718D01*
X007171Y017716D01*
X007171Y017725D01*
X007227Y017727D01*
X007282Y017733D01*
X007337Y017743D01*
X007392Y017756D01*
X007445Y017773D01*
X007497Y017793D01*
X007547Y017817D01*
X007596Y017844D01*
X007643Y017874D01*
X007688Y017908D01*
X007730Y017944D01*
X007770Y017983D01*
X007807Y018025D01*
X007842Y018069D01*
X007873Y018115D01*
X007901Y018163D01*
X007893Y018167D01*
X007865Y018120D01*
X007834Y018074D01*
X007800Y018031D01*
X007764Y017989D01*
X007724Y017951D01*
X007682Y017915D01*
X007638Y017882D01*
X007592Y017852D01*
X007543Y017825D01*
X007493Y017802D01*
X007442Y017781D01*
X007389Y017765D01*
X007336Y017752D01*
X007281Y017742D01*
X007226Y017736D01*
X007171Y017734D01*
X007171Y017743D01*
X007226Y017745D01*
X007280Y017751D01*
X007334Y017760D01*
X007387Y017773D01*
X007439Y017790D01*
X007490Y017810D01*
X007539Y017833D01*
X007587Y017860D01*
X007633Y017889D01*
X007677Y017922D01*
X007718Y017957D01*
X007757Y017996D01*
X007794Y018036D01*
X007827Y018079D01*
X007858Y018125D01*
X007885Y018172D01*
X007877Y018176D01*
X007850Y018129D01*
X007820Y018085D01*
X007787Y018042D01*
X007751Y018002D01*
X007712Y017964D01*
X007671Y017929D01*
X007628Y017897D01*
X007582Y017867D01*
X007535Y017841D01*
X007486Y017818D01*
X007436Y017798D01*
X007384Y017782D01*
X007332Y017769D01*
X007279Y017760D01*
X007225Y017754D01*
X007171Y017752D01*
X007171Y017761D01*
X007224Y017763D01*
X007277Y017769D01*
X007330Y017778D01*
X007382Y017791D01*
X007433Y017807D01*
X007483Y017826D01*
X007531Y017849D01*
X007578Y017875D01*
X007622Y017904D01*
X007665Y017936D01*
X007706Y017971D01*
X007744Y018008D01*
X007780Y018048D01*
X007813Y018090D01*
X007843Y018134D01*
X007870Y018180D01*
X007862Y018184D01*
X007835Y018139D01*
X007805Y018095D01*
X007773Y018054D01*
X007738Y018014D01*
X007700Y017977D01*
X007660Y017943D01*
X007617Y017911D01*
X007573Y017883D01*
X007527Y017857D01*
X007479Y017835D01*
X007430Y017815D01*
X007380Y017799D01*
X007328Y017787D01*
X007276Y017778D01*
X007224Y017772D01*
X007171Y017770D01*
X007171Y017779D01*
X007227Y017781D01*
X007282Y017788D01*
X007337Y017798D01*
X007391Y017812D01*
X007443Y017830D01*
X007495Y017851D01*
X007544Y017877D01*
X007592Y017905D01*
X007638Y017937D01*
X007681Y017972D01*
X007721Y018010D01*
X007759Y018051D01*
X007794Y018095D01*
X007825Y018141D01*
X007854Y018189D01*
X007846Y018193D01*
X007818Y018145D01*
X007787Y018100D01*
X007752Y018057D01*
X007715Y018017D01*
X007675Y017979D01*
X007632Y017944D01*
X007587Y017913D01*
X007540Y017884D01*
X007491Y017860D01*
X007440Y017838D01*
X007388Y017821D01*
X007335Y017807D01*
X007281Y017797D01*
X007226Y017790D01*
X007171Y017788D01*
X007171Y017797D01*
X007225Y017799D01*
X007279Y017805D01*
X007333Y017815D01*
X007385Y017829D01*
X007437Y017847D01*
X007487Y017868D01*
X007536Y017892D01*
X007582Y017920D01*
X007627Y017952D01*
X007669Y017986D01*
X007708Y018023D01*
X007745Y018063D01*
X007779Y018105D01*
X007810Y018150D01*
X007838Y018197D01*
X006521Y018017D02*
X006590Y018074D01*
X006589Y018074D02*
X006626Y018034D01*
X006665Y017996D01*
X006707Y017962D01*
X006751Y017930D01*
X006797Y017902D01*
X006846Y017877D01*
X006896Y017856D01*
X006947Y017838D01*
X007000Y017825D01*
X007053Y017815D01*
X007107Y017808D01*
X007161Y017806D01*
X007162Y017717D01*
X007161Y017716D01*
X007105Y017718D01*
X007049Y017724D01*
X006994Y017734D01*
X006939Y017747D01*
X006886Y017764D01*
X006833Y017784D01*
X006782Y017808D01*
X006733Y017835D01*
X006686Y017866D01*
X006641Y017899D01*
X006598Y017935D01*
X006558Y017974D01*
X006520Y018016D01*
X006527Y018022D01*
X006564Y017981D01*
X006604Y017942D01*
X006646Y017906D01*
X006691Y017873D01*
X006738Y017843D01*
X006786Y017816D01*
X006837Y017793D01*
X006889Y017772D01*
X006942Y017756D01*
X006996Y017743D01*
X007050Y017733D01*
X007105Y017727D01*
X007161Y017725D01*
X007161Y017734D01*
X007106Y017736D01*
X007051Y017742D01*
X006997Y017751D01*
X006944Y017764D01*
X006892Y017781D01*
X006840Y017801D01*
X006791Y017824D01*
X006742Y017851D01*
X006696Y017880D01*
X006652Y017913D01*
X006610Y017949D01*
X006571Y017987D01*
X006534Y018028D01*
X006541Y018033D01*
X006577Y017993D01*
X006616Y017955D01*
X006658Y017920D01*
X006701Y017888D01*
X006747Y017858D01*
X006795Y017832D01*
X006844Y017809D01*
X006894Y017789D01*
X006946Y017773D01*
X006999Y017760D01*
X007053Y017751D01*
X007107Y017745D01*
X007161Y017743D01*
X007161Y017752D01*
X007107Y017754D01*
X007054Y017760D01*
X007001Y017769D01*
X006949Y017782D01*
X006897Y017798D01*
X006847Y017817D01*
X006799Y017840D01*
X006752Y017866D01*
X006706Y017895D01*
X006663Y017927D01*
X006622Y017962D01*
X006584Y017999D01*
X006548Y018039D01*
X006555Y018045D01*
X006590Y018006D01*
X006628Y017969D01*
X006669Y017934D01*
X006712Y017903D01*
X006756Y017874D01*
X006803Y017848D01*
X006851Y017826D01*
X006900Y017806D01*
X006951Y017790D01*
X007003Y017778D01*
X007055Y017769D01*
X007108Y017763D01*
X007161Y017761D01*
X007161Y017770D01*
X007109Y017772D01*
X007056Y017778D01*
X007005Y017787D01*
X006954Y017799D01*
X006903Y017815D01*
X006854Y017834D01*
X006807Y017856D01*
X006761Y017882D01*
X006717Y017910D01*
X006675Y017941D01*
X006634Y017975D01*
X006597Y018012D01*
X006562Y018051D01*
X006568Y018057D01*
X006603Y018018D01*
X006641Y017982D01*
X006680Y017948D01*
X006722Y017917D01*
X006766Y017889D01*
X006811Y017864D01*
X006858Y017842D01*
X006906Y017823D01*
X006956Y017808D01*
X007006Y017795D01*
X007058Y017787D01*
X007109Y017781D01*
X007161Y017779D01*
X007161Y017788D01*
X007110Y017790D01*
X007059Y017795D01*
X007008Y017804D01*
X006958Y017816D01*
X006909Y017832D01*
X006862Y017850D01*
X006815Y017872D01*
X006770Y017897D01*
X006727Y017925D01*
X006686Y017955D01*
X006647Y017988D01*
X006610Y018024D01*
X006575Y018062D01*
X006582Y018068D01*
X006619Y018027D01*
X006659Y017989D01*
X006701Y017955D01*
X006746Y017923D01*
X006793Y017894D01*
X006842Y017869D01*
X006893Y017848D01*
X006944Y017830D01*
X006998Y017816D01*
X007052Y017806D01*
X007106Y017799D01*
X007161Y017797D01*
X007162Y019405D02*
X007162Y019315D01*
X007161Y019316D02*
X007107Y019314D01*
X007054Y019308D01*
X007001Y019298D01*
X006949Y019284D01*
X006898Y019267D01*
X006848Y019246D01*
X006800Y019222D01*
X006754Y019194D01*
X006710Y019163D01*
X006669Y019129D01*
X006629Y019092D01*
X006593Y019053D01*
X006525Y019110D01*
X006524Y019111D01*
X006562Y019152D01*
X006602Y019190D01*
X006645Y019226D01*
X006690Y019259D01*
X006737Y019289D01*
X006785Y019315D01*
X006836Y019339D01*
X006888Y019359D01*
X006941Y019375D01*
X006995Y019389D01*
X007050Y019398D01*
X007105Y019404D01*
X007161Y019406D01*
X007161Y019397D01*
X007106Y019395D01*
X007051Y019389D01*
X006997Y019380D01*
X006943Y019367D01*
X006891Y019350D01*
X006839Y019331D01*
X006789Y019307D01*
X006741Y019281D01*
X006695Y019251D01*
X006650Y019219D01*
X006608Y019184D01*
X006568Y019145D01*
X006531Y019105D01*
X006538Y019099D01*
X006575Y019139D01*
X006614Y019177D01*
X006656Y019212D01*
X006700Y019244D01*
X006746Y019273D01*
X006794Y019299D01*
X006843Y019322D01*
X006894Y019342D01*
X006946Y019358D01*
X006999Y019371D01*
X007052Y019380D01*
X007107Y019386D01*
X007161Y019388D01*
X007161Y019379D01*
X007107Y019377D01*
X007054Y019371D01*
X007001Y019362D01*
X006948Y019349D01*
X006897Y019333D01*
X006846Y019314D01*
X006798Y019291D01*
X006750Y019266D01*
X006705Y019237D01*
X006661Y019205D01*
X006620Y019170D01*
X006581Y019133D01*
X006545Y019093D01*
X006552Y019087D01*
X006588Y019127D01*
X006626Y019164D01*
X006667Y019198D01*
X006710Y019229D01*
X006755Y019258D01*
X006802Y019283D01*
X006850Y019306D01*
X006900Y019325D01*
X006951Y019341D01*
X007002Y019353D01*
X007055Y019362D01*
X007108Y019368D01*
X007161Y019370D01*
X007161Y019361D01*
X007108Y019359D01*
X007056Y019353D01*
X007004Y019344D01*
X006953Y019332D01*
X006903Y019316D01*
X006853Y019297D01*
X006806Y019275D01*
X006759Y019250D01*
X006715Y019222D01*
X006673Y019191D01*
X006632Y019157D01*
X006594Y019120D01*
X006559Y019082D01*
X006565Y019076D01*
X006601Y019114D01*
X006638Y019150D01*
X006678Y019184D01*
X006720Y019214D01*
X006764Y019242D01*
X006810Y019267D01*
X006857Y019289D01*
X006906Y019308D01*
X006955Y019323D01*
X007006Y019336D01*
X007057Y019344D01*
X007109Y019350D01*
X007161Y019352D01*
X007161Y019343D01*
X007105Y019341D01*
X007050Y019334D01*
X006995Y019324D01*
X006941Y019310D01*
X006888Y019292D01*
X006837Y019270D01*
X006787Y019245D01*
X006739Y019216D01*
X006694Y019184D01*
X006651Y019149D01*
X006610Y019111D01*
X006572Y019070D01*
X006579Y019064D01*
X006616Y019105D01*
X006657Y019142D01*
X006699Y019177D01*
X006744Y019209D01*
X006792Y019237D01*
X006841Y019262D01*
X006892Y019284D01*
X006944Y019301D01*
X006997Y019315D01*
X007051Y019325D01*
X007106Y019332D01*
X007161Y019334D01*
X007161Y019325D01*
X007107Y019323D01*
X007053Y019317D01*
X006999Y019307D01*
X006946Y019293D01*
X006895Y019275D01*
X006845Y019254D01*
X006796Y019229D01*
X006749Y019201D01*
X006705Y019170D01*
X006663Y019136D01*
X006623Y019098D01*
X006586Y019058D01*
M02*
